<svg width="116" height="95" viewBox="0 0 116 95" fill="none" xmlns="http://www.w3.org/2000/svg">
<rect width="116" height="95" fill="white"/>
<g opacity="0.2">
<path d="M58.2501 83.9999C74.7011 83.9999 88.0372 81.8951 88.0372 79.2988C88.0372 76.7024 74.7011 74.5977 58.2501 74.5977C41.7991 74.5977 28.4629 76.7024 28.4629 79.2988C28.4629 81.8951 41.7991 83.9999 58.2501 83.9999Z" fill="#030072"/>
</g>
<path d="M87.8018 33.8301V64.6799C87.3097 76.4713 78.9621 81.6512 58.2485 81.569C37.5351 81.6512 29.1898 76.4713 28.6953 64.6799V33.8301C29.1271 28.4687 31.669 24.5426 36.8317 22.3981C39.297 20.9492 39.1577 18.5562 36.8317 18.4931C30.6313 18.4931 30.6313 11.3732 36.8317 11.3732C43.9722 10.8877 51.1104 10.622 58.2485 10.5742C65.3867 10.622 72.5272 10.8877 79.6654 11.3732C85.8657 11.3732 85.8657 18.4931 79.6654 18.4931C77.3394 18.5562 77.2001 20.9492 79.6654 22.3981C84.8281 24.5426 87.37 28.4686 87.8018 33.8301Z" fill="#E2FBFF"/>
<path d="M58.2484 13.8116C67.975 13.8116 75.86 13.3151 75.86 12.7027C75.86 12.0902 67.975 11.5938 58.2484 11.5938C48.5217 11.5938 40.6367 12.0902 40.6367 12.7027C40.6367 13.3151 48.5217 13.8116 58.2484 13.8116Z" fill="#A9E0FC"/>
<path d="M84.552 33.9236V64.6339C84.4754 66.4107 84.2063 67.9813 83.7308 69.3647C83.7307 69.3651 83.7302 69.3679 83.7302 69.3682C83.7302 69.3683 83.7302 69.3684 83.7302 69.3684C82.8388 71.9717 81.2277 73.9156 78.8205 75.3415C74.7814 77.7326 68.2096 78.8967 58.7315 78.8967L58.2347 78.8948L57.7681 78.8967C48.2877 78.8967 41.7159 77.7326 37.6768 75.3415C35.2718 73.9175 33.6608 71.9737 32.7694 69.3684C32.7694 69.3684 32.7694 69.3683 32.7694 69.3682C32.7694 69.3679 32.7689 69.3651 32.7688 69.3647C32.2933 67.9813 32.0242 66.4107 31.9453 64.6339V33.9236C32.3376 29.3286 34.3572 26.4252 38.2965 24.7891L38.5171 24.6973L38.7214 24.5769C41.2261 23.1051 42.4054 20.7427 41.6556 18.7013C41.3445 17.8603 40.7549 17.1665 39.961 16.6695C39.1392 16.1534 38.0993 15.8514 36.9386 15.8208L36.8852 15.8189H36.8318C35.9032 15.8189 35.432 15.5208 35.432 14.9359C35.432 14.349 35.9032 14.0509 36.8318 14.0509H36.9664L37.0987 14.0413C44.1092 13.5654 51.2242 13.2997 58.2487 13.252C65.2777 13.2997 72.3927 13.5654 79.3986 14.0413L79.5332 14.0509H79.6655C80.5964 14.0509 81.0676 14.349 81.0676 14.9359C81.0676 15.5207 80.5964 15.8189 79.6655 15.8189H79.6121L79.5587 15.8208C78.4217 15.8514 77.403 16.1417 76.586 16.6383C76.5854 16.6387 76.5847 16.6389 76.5839 16.6389C76.5831 16.6389 76.5824 16.6391 76.5818 16.6395C75.7651 17.1383 75.1573 17.8434 74.8417 18.7013C74.0919 20.7427 75.2712 23.1051 77.7782 24.5769C77.9127 24.6571 78.0528 24.7272 78.1976 24.7868L78.203 24.7891C82.1401 26.4252 84.1597 29.3286 84.552 33.9236Z" fill="#C0F4F9"/>
<path d="M77.9843 24.694C78.0139 24.7062 78.0007 24.7508 77.969 24.7456C64.0565 22.4349 50.9525 22.5614 38.5339 24.7435C38.5031 24.7489 38.4905 24.7053 38.5194 24.6933L38.7237 24.5729C41.708 22.8193 45.3281 18.6973 48.7895 18.6973H67.7108C71.173 18.6973 74.7948 22.8201 77.7805 24.5729L77.9808 24.6923C77.9819 24.6929 77.9831 24.6935 77.9843 24.694Z" fill="#A9E0FC"/>
<path d="M58.7203 82.1425C58.5625 82.1425 58.4057 82.1422 58.2464 82.1415C47.7467 82.1844 40.2949 80.8431 35.4889 78.0444C30.7098 75.2614 28.2604 70.8961 28.0006 64.6989C28.0002 64.6923 28 64.6857 28 64.6791V33.8293C28 33.8166 28.0006 33.804 28.0016 33.7913C28.418 28.6211 30.7807 24.8594 35.0323 22.5873C35.9664 22.0881 37.0559 21.7282 37.6332 20.8402C37.9237 20.3932 37.9971 19.9586 37.8797 19.6387C37.7144 19.1882 37.2148 19.0781 36.8204 19.0657C33.3185 19.0606 31.4863 16.9838 31.4863 14.9323C31.4863 13.8514 31.9677 12.8415 32.8418 12.0885C33.8157 11.2499 35.185 10.8043 36.8036 10.7989C43.9082 10.3164 51.1213 10.0477 58.2441 10C65.3808 10.0477 72.594 10.3164 79.6963 10.7989C83.1871 10.8106 85.0132 12.884 85.0132 14.9323C85.0132 16.9838 83.181 19.0606 79.6793 19.0657C79.285 19.078 78.7853 19.1882 78.62 19.6387C78.5026 19.9587 78.5761 20.3934 78.8668 20.8405C79.444 21.7283 80.5332 22.0881 81.4671 22.5871C85.7187 24.8592 88.0816 28.6209 88.4979 33.7913C88.499 33.804 88.4996 33.8166 88.4996 33.8293V64.6791C88.4996 64.6857 88.4994 64.6923 88.499 64.6988C88.2404 70.8959 85.7912 75.2613 81.0115 78.0444C76.2779 80.8007 68.982 82.1425 58.7203 82.1425ZM58.2464 80.9948C58.4101 80.9954 58.5765 80.9957 58.7386 80.9957C78.3934 80.9957 86.6183 76.2481 87.1066 64.6693V33.8484C86.6685 28.4728 84.1321 24.8946 79.353 22.9092C79.3215 22.896 79.291 22.8809 79.2622 22.864C77.6479 21.9154 76.854 20.4859 77.2867 19.307C77.594 18.4697 78.4751 17.9509 79.6438 17.9192C79.6515 17.919 79.6591 17.9189 79.6668 17.9189C82.3832 17.9189 83.6205 16.3707 83.6205 14.9324C83.6205 13.494 82.3832 11.9458 79.6668 11.9458C79.6476 11.9458 79.6284 11.9451 79.6094 11.9439C72.5326 11.4625 65.3442 11.1944 58.2441 11.1468C51.1578 11.1943 43.9694 11.4625 36.8902 11.9439C36.8713 11.9451 36.8521 11.9458 36.8329 11.9458C34.1163 11.9458 32.879 13.494 32.879 14.9324C32.879 16.3707 34.1163 17.9189 36.8329 17.9189C36.8406 17.9189 36.8481 17.919 36.8558 17.9192C38.0245 17.9509 38.9057 18.4697 39.213 19.307C39.6457 20.4859 38.8518 21.9154 37.2375 22.864C37.2087 22.8809 37.1782 22.896 37.1467 22.9092C32.3674 24.8946 29.831 28.4728 29.3929 33.8484V64.6692C29.8833 76.2473 38.1111 80.9957 57.7546 80.9957C57.918 80.9957 58.0817 80.9954 58.2464 80.9948Z" fill="#030072"/>
<path d="M48.0469 12.0167C47.1143 12.1011 45.7019 12.2199 44.7769 12.3177C43.6921 12.4272 42.6046 12.5472 41.5542 12.7224C41.1363 12.7994 40.7028 12.861 40.3337 13.018C40.3307 13.0192 40.331 13.0191 40.3334 13.017C40.3415 13.0098 40.3532 12.9968 40.3751 12.9694C40.4328 12.8877 40.4353 12.7356 40.3568 12.6502C40.356 12.6493 40.3551 12.6481 40.3544 12.647C40.3456 12.6344 40.3322 12.6176 40.3465 12.6233C40.3551 12.6268 40.365 12.6305 40.3752 12.6336C41.7461 12.9757 43.2233 13.0049 44.6674 13.1098C53.3951 13.5236 62.1933 13.5326 70.9224 13.1988C72.0118 13.1451 73.1009 13.0802 74.1748 12.9827C74.8647 12.9046 75.5642 12.8637 76.1892 12.6564C76.1972 12.6537 76.2046 12.6497 76.2126 12.6472C76.2168 12.6456 76.2072 12.6534 76.2038 12.6564C76.1994 12.6602 76.1932 12.6656 76.1891 12.6707C76.1863 12.6741 76.1839 12.6778 76.1811 12.6812C76.1044 12.7693 76.1225 12.9284 76.2164 12.9959C76.1939 12.978 76.1676 12.9693 76.1351 12.9547C75.5558 12.7494 74.9027 12.6696 74.2565 12.5701C72.6398 12.3492 71.0079 12.2009 69.3742 12.0588C69.1208 12.0342 69.1507 11.7307 69.3978 11.7317C71.0531 11.7557 72.7116 11.8021 74.3622 11.9496C75.1066 12.034 75.9083 12.0734 76.6257 12.3443C76.7543 12.4007 76.8767 12.477 76.9531 12.5866C77.1418 12.8437 76.9769 13.1509 76.6802 13.291C75.9467 13.6177 75.0956 13.6879 74.3134 13.8103C68.8399 14.453 63.3051 14.5324 57.7873 14.5617C52.2717 14.5199 46.7163 14.4824 41.2462 13.7171C40.6918 13.6025 40.1146 13.5497 39.6341 13.2261C39.5688 13.1822 39.4815 13.0734 39.4377 12.96C39.3892 12.8346 39.415 12.6846 39.4953 12.5768C39.6057 12.4313 39.6998 12.3765 39.8444 12.3096C40.3354 12.1074 40.8756 12.0545 41.3962 11.9815C43.0648 11.7935 44.7048 11.7403 46.3728 11.7031C46.9242 11.6946 47.4752 11.6911 48.0261 11.6895C48.2788 11.6899 48.2904 11.9971 48.0469 12.0167Z" fill="#030072"/>
<path d="M36.8541 17.9215L44.3345 18.5789C44.6219 18.6065 44.6001 18.9602 44.3079 18.9606L36.8061 19.0676C35.8179 19.0623 35.8642 17.8714 36.8541 17.9215Z" fill="#030072"/>
<path d="M79.6893 19.0657L72.1874 18.9587C72.0571 18.9594 71.9506 18.8715 71.9532 18.764C71.9552 18.6663 72.0459 18.587 72.1608 18.577L79.6412 17.9196C80.6274 17.8685 80.681 19.0591 79.6893 19.0657Z" fill="#030072"/>
<path d="M83.7299 69.3601C83.73 69.3603 83.7303 69.3635 83.7303 69.3638C83.7303 69.3638 83.7303 69.3639 83.7303 69.3639C82.8389 71.9672 81.2279 73.911 78.8206 75.3369C74.7815 77.7281 68.2097 78.8921 58.7316 78.8921L58.2348 78.8902L57.7682 78.8921C48.2878 78.8921 41.716 77.7281 37.6769 75.3369C35.2719 73.913 33.6609 71.9691 32.7695 69.3639C32.7695 69.3639 32.7695 69.3638 32.7695 69.3638C32.7695 69.3635 32.7699 69.3603 32.7699 69.3601C33.7797 64.3713 44.8028 64.3359 58.2488 64.3359C71.697 64.3359 82.7201 64.3713 83.7299 69.3601Z" fill="#A9E0FC"/>
<path d="M49.883 17.8734C40.2814 17.7518 41.4803 15.4639 51.0762 15.8155C53.2448 15.8949 55.6043 15.943 58.2495 15.943C60.9461 15.943 63.301 15.8991 65.4261 15.8258C75.0239 15.4947 76.2191 17.7519 66.6163 17.8734C61.039 17.944 55.4604 17.944 49.883 17.8734Z" fill="#A9E0FC"/>
<g opacity="0.44">
<path d="M44.8213 14.6202L49.859 14.8585C50.3457 14.8815 50.6799 15.2619 50.5659 15.6522C50.4236 16.1397 50.3563 16.8703 50.6469 17.8526C50.7656 18.2538 50.4005 18.6415 49.899 18.6436C48.0746 18.651 44.4535 18.6171 44.1667 18.2361C43.8142 17.7677 43.31 16.3781 44.0796 14.978C44.2086 14.7434 44.509 14.6055 44.8213 14.6202Z" fill="#ECE9E9"/>
</g>
<path d="M49.9263 18.5883C55.436 18.8426 61.0591 18.8127 66.571 18.6073C66.8354 18.6031 66.8494 18.9222 66.571 18.9302C63.1216 19.3723 59.646 19.4268 56.1681 19.3867C54.0652 19.3298 51.9592 19.2405 49.8736 18.9417C49.6122 18.9025 49.6511 18.5749 49.9263 18.5883Z" fill="#030072"/>
<path d="M60.4839 69.6406C57.884 72.4102 55.2841 75.1798 52.6841 77.9494C52.3406 78.3145 51.5699 78.5763 50.9686 78.5132C45.3659 77.9275 40.2404 75.9022 36.2358 72.8432C34.5491 71.5548 33.2012 69.8278 32.5844 67.797C31.375 63.815 32.3246 60.8977 32.3673 60.7708C32.3677 60.7696 32.3689 60.7687 32.3694 60.7676C32.3702 60.766 32.3706 60.7653 32.3717 60.7641C34.14 58.882 35.9059 57.0018 37.6719 55.1198C38.0132 54.7547 38.4542 54.8445 38.6794 55.309C42.2635 62.6831 50.437 67.8859 60.008 68.8856C60.6093 68.9487 60.8275 69.2755 60.4839 69.6406Z" fill="#46BC81"/>
<path d="M51.1579 79.0021C51.0688 79.0021 50.9811 78.9977 50.8951 78.9887C44.0173 78.2697 37.796 75.4494 33.3779 71.0474C33.1738 70.8439 33.2085 70.5427 33.4556 70.3746C33.7026 70.2066 34.0685 70.2352 34.2726 70.4385C38.5019 74.6526 44.4573 77.3524 51.0416 78.0407C51.4279 78.0806 52.0022 77.8951 52.2254 77.6581L59.9563 69.4226C59.9773 69.4003 59.9651 69.3643 59.9347 69.3611C50.1544 68.3395 41.8032 63.0237 38.1403 55.488C38.1269 55.4603 38.0905 55.4566 38.0695 55.479C36.3285 57.3343 34.588 59.1873 32.8456 61.0419C32.8255 61.066 32.8028 61.0885 32.7777 61.1092C32.5513 61.2957 32.1835 61.2957 31.9571 61.1092C31.7709 60.9559 31.7378 60.7245 31.8572 60.5432C31.8726 60.5194 31.8905 60.4966 31.9107 60.475C33.6796 58.5924 35.4459 56.7117 37.2126 54.829C37.4929 54.5289 37.8747 54.3811 38.2623 54.4258C38.6747 54.473 39.023 54.7308 39.2183 55.1333C42.7243 62.3465 50.7184 67.4351 60.081 68.413C60.6031 68.4678 60.9935 68.6805 61.1525 68.9967C61.3014 69.2928 61.2249 69.6347 60.9427 69.9347L53.1432 78.2432C52.7151 78.698 51.8988 79.002 51.1579 79.0021Z" fill="#32356B"/>
<path d="M56.6357 71.3025C56.7725 71.3211 56.8425 71.4906 56.748 71.5912C55.4673 72.9553 54.1865 74.3194 52.9057 75.6836C52.7663 75.8321 52.557 75.8892 52.3551 75.8618C51.211 75.7068 49.779 76.0806 49.1212 76.7819C49.0092 76.9013 48.8473 76.975 48.6871 76.9411C41.6423 75.4479 35.6338 71.6298 32.0938 66.3984C32.0053 66.2677 32.0396 66.092 32.1476 65.977C32.8064 65.2762 32.8849 64.0409 32.4148 63.1683C32.3355 63.0218 32.3428 62.8367 32.4567 62.7154C33.7597 61.3276 35.0626 59.9399 36.3656 58.5521C36.46 58.4516 36.6299 58.4877 36.6954 58.609C37.1656 59.4816 38.1519 59.583 38.8079 58.8833C38.903 58.7819 39.0746 58.7821 39.1525 58.8972C42.6884 64.1161 48.6817 67.9269 55.7091 69.4236C55.8251 69.4483 55.8627 69.6018 55.7815 69.6882C55.1244 70.3871 55.4918 71.1475 56.6357 71.3025Z" fill="#0F6D64"/>
<path d="M45.3561 70.8524C44.278 72.0017 42.0875 72.3252 40.624 71.39C39.1561 70.4593 38.9847 68.6323 40.0641 67.4838C41.1466 66.3298 43.0706 66.2901 44.5384 67.2208C46.0018 68.1561 46.4399 69.6991 45.3561 70.8524Z" fill="#46BC81"/>
<path d="M48.0615 72.0961C47.5019 72.6917 47.7609 73.4408 48.6722 73.7129C49.5827 73.9864 50.7987 73.6784 51.3581 73.0827C51.9185 72.4857 51.6103 71.8269 50.6998 71.5533C49.7886 71.2812 48.6217 71.499 48.0615 72.0961Z" fill="#46BC81"/>
<path d="M38.0219 62.9215C36.5291 66.5491 31.5655 66.0723 32.0729 62.1825C32.1845 61.3269 32.3515 60.8173 32.3675 60.7698C32.3676 60.7694 32.3682 60.7689 32.3685 60.7686C32.3697 60.7673 32.3718 60.7666 32.3734 60.7674C34.4604 61.8102 37.7418 60.8979 38.3195 61.5799C38.4423 61.7253 38.3084 62.2251 38.0219 62.9215Z" fill="#46BC81"/>
<path d="M32.3172 63.5065C32.3231 63.0147 32.7681 62.6638 33.2564 62.7233C33.8211 62.7921 34.1559 63.4454 34.4465 63.9344C34.4506 63.9414 34.4549 63.9484 34.4593 63.9553C34.7815 64.4701 35.1808 65.105 34.887 65.6365L34.6247 66.1111C34.0697 67.1152 32.66 66.9413 32.4915 65.8065C32.383 65.0758 32.3079 64.2804 32.3172 63.5065Z" fill="#0F6D64"/>
<path d="M35.3459 68.8334C35.144 69.4159 34.9467 69.9968 34.6755 70.5676C34.5802 70.7494 34.5025 70.9335 34.3144 71.0973C34.1265 71.2644 33.7696 71.3137 33.5265 71.1689C33.3883 71.0867 33.3034 70.9779 33.2679 70.8559C33.265 70.8457 33.2737 70.8438 33.2767 70.854C33.2797 70.8641 33.2656 70.8698 33.2607 70.8604C32.0002 68.4791 31.3177 65.8858 31.381 63.2827C31.4118 62.3873 31.4991 61.5134 31.7484 60.6326C31.7496 60.6286 31.7514 60.6247 31.7538 60.6213L31.8157 60.5337C31.8312 60.5118 31.8155 60.4986 31.8012 60.5213C31.7505 60.6221 31.8502 60.6986 31.9531 60.6522L32.495 60.4079C32.6321 60.3461 32.7885 60.3488 32.9291 60.4021C33.6472 60.6741 34.5373 60.7449 35.4556 60.7641C35.9672 60.7732 36.4894 60.7665 37.0515 60.7807C37.5815 60.8105 38.253 60.824 38.6959 61.1986C39.0385 61.4744 38.9146 61.8726 38.8248 62.1808C38.2761 63.7924 37.4886 65.3336 36.4834 66.7907C36.4177 66.8818 36.2748 66.9119 36.1641 66.858C36.065 66.8096 36.0253 66.71 36.0651 66.6246C36.4217 65.813 36.7356 64.9818 37.0378 64.1525C37.297 63.3653 37.6391 62.5686 37.7594 61.7622C37.767 61.7116 37.772 61.7099 37.7892 61.758C37.798 61.7989 37.7761 61.8473 37.7345 61.8429C37.0701 61.7714 36.1988 61.8578 35.4458 61.8556C34.3418 61.8616 33.1721 61.7696 32.1728 61.2871C32.084 61.2442 32.0853 61.1988 32.1751 61.1583C32.3814 61.0652 32.7676 60.8912 32.9374 60.8147C32.9797 60.7956 33.0179 60.8226 33.0089 60.8681C32.9961 60.9243 32.9691 60.9817 32.9335 61.0331C32.9191 61.0539 32.9037 61.0407 32.9183 61.0201C32.9325 60.9999 32.9646 61.0155 32.9579 61.0393C32.2906 63.3911 32.5375 65.8984 33.3209 68.2141C33.5948 69.0102 33.9433 69.7891 34.359 70.5434C34.3597 70.5446 34.3603 70.546 34.3607 70.5473C34.3672 70.5695 34.366 70.5711 34.3532 70.5518C34.2193 70.3495 33.8782 70.244 33.6263 70.3726L33.5995 70.3878L33.584 70.3983C33.5715 70.4078 33.5704 70.4095 33.5676 70.4125C33.5632 70.4176 33.5652 70.4191 33.5712 70.4161C33.6626 70.3705 33.7511 70.2638 33.8337 70.1806C34.2572 69.7169 34.6299 69.2108 35.002 68.711C35.113 68.5557 35.406 68.6649 35.3459 68.8334Z" fill="#32356B"/>
<path d="M47.8014 55.8792C52.2133 56.5881 55.4811 58.4629 55.1012 60.0657L54.5984 62.1871C54.4849 62.6661 54.0582 63.0673 53.398 63.3752C52.2049 63.9303 50.2483 64.1815 47.9974 64.0391C47.3275 63.997 46.6324 63.9206 45.9225 63.8065C41.5117 63.0977 38.2439 61.2229 38.6238 59.6201L39.1266 57.4987C39.5065 55.8959 43.3906 55.1704 47.8014 55.8792Z" fill="#FFA04A"/>
<path d="M40.2285 61.8219C39.9786 61.7023 39.8463 61.4247 39.9102 61.1551C40.0419 60.5994 41.2477 60.216 41.7816 60.4185C41.9791 60.4934 42.2024 60.5655 42.4546 60.6318C43.0607 60.7912 43.5307 60.9158 43.8875 61.0111C44.4297 61.1557 44.7548 61.7046 44.6253 62.2506C44.4844 62.8454 43.8653 63.1927 43.2843 63.0025C42.4694 62.7357 41.4854 62.4136 41.4536 62.4028C41.4175 62.3906 40.706 62.0507 40.2285 61.8219Z" fill="#FFCD37"/>
<path d="M52.1761 61.1301C53.0707 61.0625 53.8246 61.669 53.606 62.5391C53.5091 62.9248 53.1909 63.4821 52.813 63.6059C51.9781 63.8793 50.9005 64.0416 49.6774 64.0743C48.7997 64.0977 48.2784 62.8585 48.4809 62.0041C48.6232 61.4038 49.0422 61.3669 49.6574 61.3204L52.1761 61.1301Z" fill="#DD6726"/>
<path d="M55.1004 60.0635C55.4804 58.46 52.2123 56.5856 47.8009 55.8769C43.3896 55.1682 39.5054 55.8936 39.1255 57.4971C38.7455 59.1005 42.0136 60.9749 46.425 61.6836C50.8363 62.3923 54.7205 61.6669 55.1004 60.0635Z" fill="#FFCD37"/>
<path d="M49.2124 64.4649C48.1398 64.4649 46.9953 64.3716 45.8366 64.1854C41.1022 63.4246 37.735 61.3886 38.1707 59.5502L38.6734 57.4294C39.109 55.591 43.1585 54.7471 47.8934 55.5076C49.3968 55.7492 50.8344 56.1356 52.0506 56.6252C52.2649 56.7116 52.4747 56.802 52.674 56.8941C52.774 56.9405 52.8719 56.9873 52.9673 57.0346C54.8604 57.9734 55.8051 59.1063 55.5592 60.1428L55.0565 62.2636C54.8354 63.1968 53.7064 63.8988 51.8777 64.2402C51.0747 64.3901 50.1723 64.4649 49.2124 64.4649ZM44.5523 55.9948C41.7399 55.9948 39.7957 56.6853 39.5846 57.5758L39.0819 59.6966C38.7986 60.8924 41.5761 62.7217 46.0146 63.435C48.0859 63.7679 50.0953 63.7891 51.6723 63.4946C53.0997 63.2281 54.001 62.726 54.1454 62.1172L54.6481 59.9963C54.8121 59.304 54.0048 58.4417 52.4884 57.6896C52.4009 57.6463 52.3113 57.6033 52.2195 57.5608C52.0353 57.4758 51.8412 57.3921 51.6426 57.312C50.4984 56.8515 49.1404 56.487 47.7154 56.258C46.5825 56.076 45.5162 55.9948 44.5523 55.9948Z" fill="#32356B"/>
<path d="M42.8889 60.8656C36.919 58.8755 38.0694 55.4733 44.2741 55.3482C46.9252 55.3075 49.5773 55.7584 51.968 56.7105C53.1651 57.215 54.3504 57.8281 55.0574 58.8191C55.6741 59.6689 55.4047 60.6395 54.4236 61.2053C53.0253 61.9858 51.258 62.0816 49.6256 62.0472C49.4978 62.0412 49.5026 61.8874 49.6269 61.8833C50.8913 61.8395 52.2009 61.7165 53.3538 61.2836C56.6739 59.9914 53.804 57.9765 51.6816 57.1952C49.3901 56.3195 46.8155 55.884 44.2905 55.9069C40.7542 55.9136 37.2209 57.3592 41.3197 59.9077C41.8366 60.2133 42.3944 60.478 42.9698 60.7159C43.0829 60.7615 43.0032 60.9031 42.8889 60.8656Z" fill="#32356B"/>
<path d="M53.5098 59.8076C53.7894 58.6276 51.1519 57.2108 47.6188 56.6432C44.0857 56.0756 40.9949 56.5721 40.7153 57.7521C40.4357 58.9321 43.0731 60.3488 46.6063 60.9164C50.1394 61.484 53.2302 60.9876 53.5098 59.8076Z" fill="#FFA04A"/>
<path d="M47.6195 56.647C51.1531 57.2148 53.7901 58.6319 53.5103 59.8123C53.4842 59.9225 53.4335 60.0267 53.3604 60.1253C53.3601 60.1256 53.36 60.1257 53.3599 60.1262C53.3598 60.1263 53.3597 60.1269 53.3596 60.127C52.6446 61.0759 49.8079 61.4352 46.6066 60.9208C43.7851 60.4674 41.5343 59.4725 40.8856 58.4884C40.722 58.2409 40.6592 57.9939 40.7155 57.7564C40.9953 56.5759 44.087 56.0793 47.6195 56.647Z" fill="#DD6726"/>
<path d="M47.6302 57.3253C50.7453 57.8258 53.1413 59.0238 53.361 60.1217C53.3611 60.1221 53.3611 60.1224 53.361 60.1228C53.361 60.123 53.3609 60.1234 53.3608 60.1235C52.6459 61.0724 49.8091 61.4318 46.6077 60.9174C43.8059 60.4671 41.5668 59.4828 40.9005 58.5054C40.8913 58.492 40.8877 58.4761 40.8914 58.4602C41.1711 57.2798 44.1882 56.7722 47.6302 57.3253Z" fill="#FFA04A"/>
<path d="M50.386 59.3129C50.4183 59.4158 50.3311 59.5166 50.2247 59.4995L50.1133 59.4816C49.9846 59.4609 49.8736 59.5678 49.8004 59.6757C49.7307 59.7787 49.6079 59.851 49.4305 59.8902C49.1306 59.9565 48.671 59.9413 48.0594 59.8431C47.9237 59.8212 47.8275 59.6988 47.8384 59.5618L47.8598 59.2923C47.867 59.2022 47.9494 59.1375 48.0385 59.1518C48.4431 59.2168 48.6428 59.1918 48.6379 59.0798C48.6359 59.0325 48.6016 58.9931 48.5354 58.9612C48.4697 58.9295 48.3933 58.9067 48.3057 58.8926C48.1507 58.8677 47.991 58.8762 47.8238 58.9187L46.5807 59.2398C46.0728 59.3723 45.5384 59.3987 45.0026 59.3126C44.713 59.2661 44.4757 59.1952 44.2935 59.1014C44.1146 59.0093 43.9915 58.9071 43.9232 58.796C43.8962 58.7521 43.8778 58.7086 43.8677 58.6654C43.8454 58.5692 43.7881 58.4652 43.6906 58.4496L43.6635 58.4452C43.5501 58.427 43.5019 58.2903 43.5789 58.205C43.6118 58.1685 43.661 58.1511 43.7095 58.1589L43.8734 58.1853C44.0013 58.2058 44.1297 58.1656 44.2449 58.1063C44.4066 58.0231 44.6083 57.9714 44.8502 57.9489C45.0903 57.9266 45.3616 57.9322 45.6669 57.9655C45.8389 57.9843 45.9365 58.1676 45.864 58.3247C45.8149 58.4311 45.701 58.4919 45.5852 58.4733L45.5365 58.4654C45.4286 58.4481 45.3396 58.4463 45.2689 58.4601C45.1977 58.474 45.1507 58.5004 45.1282 58.5396C45.103 58.5835 45.1111 58.6214 45.1532 58.6527C45.1956 58.6843 45.2629 58.7075 45.3548 58.7223C45.4862 58.7434 45.7054 58.7204 46.0041 58.6549L47.1555 58.4011C47.3115 58.3667 47.4931 58.3457 47.7005 58.3378C47.905 58.3301 48.1317 58.3464 48.3831 58.3868C48.7601 58.4474 49.067 58.5425 49.3096 58.6754C49.4538 58.7544 49.5702 58.8386 49.6583 58.9287C49.7715 59.0443 49.9031 59.1542 50.0628 59.1799L50.2707 59.2133C50.3249 59.222 50.3695 59.2606 50.386 59.3129Z" fill="#FFCD37"/>
<path d="M72.7016 71.9875C63.888 73.2405 53.8096 70.703 44.9961 71.956C44.442 72.0341 43.8857 71.7759 43.7459 71.3575C42.6845 68.1767 41.6231 64.9959 40.5617 61.8152C40.4222 61.3972 40.7452 60.9552 41.2902 60.8502C49.9638 59.1779 59.9023 61.296 68.5758 59.6237C69.121 59.5186 69.6842 59.7969 69.8411 60.2672C71.0324 63.8374 72.2238 67.4074 73.4151 70.9775C73.572 71.4474 73.2558 71.9094 72.7016 71.9875Z" fill="#46BC81"/>
<path d="M67.0329 72.824C64.3033 72.824 61.526 72.6351 58.8019 72.4499C54.1945 72.1366 49.4302 71.8125 45.0956 72.4289C44.2426 72.5486 43.4038 72.135 43.1871 71.4861L40.0029 61.9437C39.8944 61.6184 39.9515 61.2773 40.1637 60.9833C40.3826 60.6802 40.7361 60.4683 41.1589 60.3869C45.5693 59.5365 50.3382 59.6508 54.951 59.7613C59.4884 59.8698 64.1812 59.9823 68.4443 59.1605C69.3022 58.9945 70.1625 59.4262 70.4016 60.1427L73.9756 70.8529C74.0985 71.2208 74.0324 71.6085 73.7944 71.9166C73.569 72.2086 73.2161 72.4017 72.8012 72.4603C70.9288 72.7266 68.993 72.824 67.0329 72.824ZM50.6661 71.1234C53.3956 71.1234 56.1734 71.3123 58.8975 71.4975C63.5049 71.8107 68.2692 72.1349 72.6038 71.5186C72.6039 71.5186 72.6043 71.5185 72.6045 71.5185C72.6953 71.5057 72.766 71.4671 72.8149 71.4038C72.8774 71.3229 72.8924 71.2145 72.8563 71.1063L69.2822 60.3959C69.2092 60.1769 68.9572 60.0429 68.709 60.091C64.2988 60.9414 59.5293 60.8272 54.9171 60.7166C50.3789 60.6079 45.6864 60.4956 41.4234 61.3175C41.3106 61.3392 41.2175 61.3941 41.1612 61.4718C41.1118 61.5403 41.098 61.618 41.1222 61.6906L44.3064 71.2329C44.3647 71.4077 44.6373 71.5242 44.8989 71.487C46.7709 71.2208 48.7062 71.1234 50.6661 71.1234Z" fill="#32356B"/>
<path d="M68.7432 63.0278C68.9167 63.002 69.0963 63.0903 69.1518 63.2566C69.7387 65.0156 70.3257 66.7745 70.9126 68.5335C70.9632 68.6851 70.8486 68.842 70.6899 68.8618C69.6204 68.9971 68.9759 69.7709 69.2727 70.6601C69.3151 70.787 69.2354 70.9331 69.1019 70.9407C62.155 71.3348 54.639 70.0234 47.6942 70.4238C47.5542 70.4318 47.4347 70.3265 47.3903 70.1935C47.1177 69.3761 46.0117 68.7677 44.9423 68.9029C44.7657 68.925 44.5866 68.8326 44.5302 68.6638C44.0069 67.0954 43.4835 65.5269 42.9601 63.9584C42.9091 63.8056 43.0211 63.6467 43.1804 63.6231C44.2428 63.4663 44.9003 62.7312 44.6266 61.9112C44.5872 61.7936 44.6572 61.6563 44.7806 61.6446C51.641 60.9962 59.0713 62.0561 65.9323 61.4095C66.0841 61.3952 66.2181 61.5059 66.2663 61.6507C66.5622 62.5373 67.6809 63.1846 68.7432 63.0278Z" fill="#0F6D64"/>
<path d="M60.2577 66.2487C60.7335 67.6747 59.6089 68.7573 57.7394 68.6469C55.8698 68.5365 53.986 67.3441 53.5254 65.9637C53.0639 64.5805 54.1884 63.4979 56.0437 63.5655C57.8992 63.633 59.7827 64.8256 60.2577 66.2487Z" fill="#46BC81"/>
<path d="M50.4527 65.988C50.6898 66.6984 50.1084 67.2625 49.1645 67.2789C48.2202 67.2945 47.2758 66.7703 47.0427 66.0718C46.8098 65.3738 47.3735 64.7566 48.3138 64.7295C49.2538 64.7016 50.2161 65.2789 50.4527 65.988Z" fill="#46BC81"/>
<path d="M63.3904 66.4058C63.6384 67.1491 64.613 67.7634 65.5569 67.747C66.5011 67.7314 67.0523 67.0772 66.8004 66.322C66.5482 65.5663 65.5914 65.0052 64.651 65.0322C63.711 65.06 63.1418 65.6612 63.3904 66.4058Z" fill="#46BC81"/>
<path d="M56.0709 70.5764C60.4828 71.2854 63.7506 73.1602 63.3707 74.763L62.8679 76.8844C62.7544 77.3633 62.3277 77.7645 61.6675 78.0724C60.4745 78.6275 58.5178 78.8788 56.267 78.7364C55.597 78.6943 54.9019 78.6178 54.192 78.5037C49.7813 77.795 46.5134 75.9202 46.8933 74.3174L47.3961 72.196C47.7759 70.5932 51.6601 69.8677 56.0709 70.5764Z" fill="#FFA04A"/>
<path d="M48.496 76.5192C48.2462 76.3995 48.1139 76.1219 48.1778 75.8524C48.3095 75.2967 49.5153 74.9132 50.0492 75.1158C50.2467 75.1907 50.4699 75.2628 50.7222 75.3291C51.3283 75.4885 51.7983 75.6131 52.1551 75.7083C52.6973 75.853 53.0223 76.4018 52.8929 76.9478C52.7519 77.5427 52.1329 77.89 51.5519 77.6998C50.7369 77.433 49.7529 77.1108 49.7211 77.1C49.6851 77.0878 48.9736 76.7479 48.496 76.5192Z" fill="#FFCD37"/>
<path d="M60.4456 75.8255C61.3402 75.7579 62.0941 76.3643 61.8755 77.2344C61.7786 77.6201 61.4605 78.1775 61.0826 78.3012C60.2477 78.5746 59.17 78.7369 57.9469 78.7696C57.0692 78.7931 56.5479 77.5538 56.7504 76.6994C56.8927 76.0991 57.3117 76.0622 57.927 76.0158L60.4456 75.8255Z" fill="#DD6726"/>
<path d="M63.366 74.7588C63.746 73.1553 60.4779 71.2809 56.0665 70.5722C51.6552 69.8635 47.771 70.5889 47.3911 72.1924C47.0111 73.7958 50.2792 75.6702 54.6906 76.3789C59.102 77.0876 62.9861 76.3622 63.366 74.7588Z" fill="#FFCD37"/>
<path d="M57.4799 79.1602C56.4074 79.1602 55.2628 79.0669 54.1041 78.8807C49.3698 78.12 46.0026 76.0839 46.4383 74.2455L46.9408 72.1247C46.9408 72.1247 46.9408 72.1246 46.9408 72.1246C46.9408 72.1246 46.9408 72.1246 46.9408 72.1246C47.3765 70.2863 51.4262 69.4424 56.161 70.2029C57.6646 70.4446 59.1021 70.831 60.3181 71.3205C60.5325 71.4069 60.7422 71.4973 60.9415 71.5894C61.0416 71.6359 61.1394 71.6827 61.2349 71.7299C63.128 72.6687 64.0727 73.8016 63.8268 74.8381L63.3241 76.9589C63.1029 77.8921 61.974 78.5941 60.1453 78.9355C59.3423 79.0855 58.4399 79.1602 57.4799 79.1602ZM47.852 72.2711L47.3495 74.3919C47.0662 75.5877 49.8435 77.4171 54.2822 78.1303C56.3535 78.4632 58.3627 78.4844 59.9399 78.1899C61.3672 77.9234 62.2686 77.4213 62.4129 76.8125L62.9156 74.6916C63.0797 73.9993 62.2724 73.137 60.756 72.3849C60.6684 72.3415 60.5785 72.2985 60.4867 72.256C60.3029 72.171 60.1088 72.0874 59.9102 72.0073C58.7662 71.5468 57.4081 71.1823 55.983 70.9533C51.5445 70.2399 48.1359 71.0754 47.852 72.2711Z" fill="#32356B"/>
<path d="M51.1604 75.5648C45.1906 73.5748 46.3408 70.1725 52.5456 70.0474C55.1966 70.0068 57.8489 70.4575 60.2394 71.4097C61.4367 71.9143 62.6218 72.5273 63.3289 73.5183C63.9456 74.3681 63.6761 75.3387 62.6951 75.9045C61.2967 76.685 59.5295 76.7808 57.8971 76.7464C57.7691 76.7404 57.774 76.5866 57.8984 76.5825C59.1626 76.5388 60.4725 76.4157 61.6252 75.9828C64.9455 74.6906 62.0753 72.6757 59.9531 71.8944C57.6614 71.0187 55.087 70.5832 52.562 70.6061C49.0256 70.6128 45.4924 72.0583 49.5911 74.6069C50.108 74.9125 50.6658 75.1772 51.2413 75.4151C51.3542 75.4607 51.2746 75.6023 51.1604 75.5648Z" fill="#32356B"/>
<path d="M61.7774 74.5009C62.057 73.3209 59.4195 71.9042 55.8864 71.3366C52.3533 70.769 49.2625 71.2655 48.9828 72.4455C48.7032 73.6255 51.3407 75.0422 54.8738 75.6098C58.4069 76.1774 61.4978 75.6809 61.7774 74.5009Z" fill="#FFA04A"/>
<path d="M55.889 71.3423C59.4227 71.9101 62.0596 73.3272 61.7799 74.5077C61.7538 74.6177 61.7031 74.7218 61.63 74.8205C61.6298 74.8207 61.6294 74.8215 61.6293 74.8218C61.6293 74.8219 61.6293 74.8221 61.6292 74.8222C60.9145 75.7712 58.0776 76.1305 54.8761 75.6161C52.0547 75.1627 49.8038 74.1678 49.1551 73.1837C48.9915 72.9362 48.9288 72.6892 48.9851 72.4517C49.2648 71.2712 52.3565 70.7746 55.889 71.3423Z" fill="#DD6726"/>
<path d="M55.8998 72.0245C59.0148 72.525 61.4108 73.723 61.6305 74.8209C61.6306 74.8213 61.6306 74.8216 61.6305 74.8221C61.6305 74.8222 61.6304 74.8226 61.6303 74.8227C60.9155 75.7716 58.0787 76.131 54.8773 75.6166C52.0754 75.1664 49.8363 74.182 49.17 73.2046C49.1608 73.1912 49.1572 73.1753 49.1609 73.1594C49.4406 71.979 52.4577 71.4714 55.8998 72.0245Z" fill="#FFA04A"/>
<path d="M58.6516 74.0122C58.6839 74.115 58.5967 74.2159 58.4903 74.1988L58.3789 74.1809C58.2502 74.1602 58.1392 74.267 58.0661 74.3749C57.9963 74.4779 57.8735 74.5503 57.6961 74.5894C57.3963 74.6557 56.9367 74.6406 56.325 74.5423C56.1893 74.5205 56.0931 74.398 56.104 74.261L56.1254 73.9915C56.1326 73.9015 56.215 73.8367 56.3042 73.851C56.7087 73.916 56.9084 73.891 56.9035 73.779C56.9015 73.7318 56.8672 73.6924 56.801 73.6604C56.7353 73.6287 56.6589 73.6059 56.5713 73.5918C56.4163 73.5669 56.2566 73.5754 56.0894 73.618L54.8463 73.939C54.3384 74.0715 53.804 74.0979 53.2682 74.0118C52.9786 73.9653 52.7413 73.8945 52.5591 73.8006C52.3802 73.7086 52.2571 73.6064 52.1888 73.4953C52.1618 73.4514 52.1434 73.4078 52.1334 73.3647C52.111 73.2685 52.0537 73.1644 51.9562 73.1488L51.9292 73.1444C51.8157 73.1262 51.7675 72.9895 51.8445 72.9042C51.8774 72.8677 51.9266 72.8503 51.9752 72.8581L52.1391 72.8845C52.267 72.905 52.3954 72.8648 52.5105 72.8055C52.6722 72.7223 52.8739 72.6706 53.1158 72.6481C53.3559 72.6258 53.6272 72.6315 53.9325 72.6647C54.1045 72.6835 54.2021 72.8668 54.1296 73.0239C54.0806 73.1304 53.9666 73.1911 53.8509 73.1725L53.8021 73.1647C53.6943 73.1474 53.6052 73.1455 53.5346 73.1593C53.4633 73.1733 53.4163 73.1996 53.3938 73.2388C53.3686 73.2828 53.3767 73.3206 53.4188 73.3519C53.4612 73.3835 53.5285 73.4068 53.6204 73.4216C53.7518 73.4427 53.971 73.4196 54.2698 73.3542L55.4212 73.1004C55.5771 73.0659 55.7587 73.0449 55.9662 73.0371C56.1706 73.0293 56.3974 73.0456 56.6487 73.0861C57.0258 73.1466 57.3326 73.2418 57.5752 73.3747C57.7194 73.4536 57.8359 73.5378 57.924 73.6279C58.0371 73.7435 58.1687 73.8535 58.3285 73.8791L58.5363 73.9125C58.5905 73.9212 58.6352 73.9598 58.6516 74.0122Z" fill="#FFCD37"/>
<path d="M83.9456 64.1296C83.9549 64.94 83.9085 65.6969 83.8156 66.4003C83.7622 66.8247 83.6902 67.2318 83.6043 67.6198C83.421 68.4723 83.1679 69.2407 82.8685 69.9288C81.9446 72.0561 80.575 73.4419 79.3725 74.3135C78.5513 74.8005 77.6976 75.2437 76.8231 75.643C76.8219 75.6435 76.8201 75.6448 76.8189 75.6452C76.8169 75.646 76.8157 75.6461 76.8138 75.647C72.4202 77.6454 67.4188 78.5127 62.4081 78.0426C61.8184 77.9872 61.1894 77.6125 60.999 77.2321C59.5574 74.3364 58.1135 71.4406 56.672 68.543C56.4816 68.1626 56.7857 67.8816 57.3522 67.8893C66.3497 68.0288 75.3218 63.5026 80.3336 55.6373C80.6493 55.1422 81.0764 55.1097 81.3109 55.5818C82.0462 57.0581 82.7838 58.5364 83.5191 60.0127C83.5203 60.015 83.5205 60.0161 83.5215 60.0185C83.522 60.02 83.5233 60.0225 83.5237 60.024C83.5394 60.0799 83.6281 60.4043 83.6671 60.863C83.8528 62.0405 83.941 63.128 83.9456 64.1296Z" fill="#46BC81"/>
<path d="M65.0973 78.6474C64.18 78.6475 63.2609 78.6047 62.3418 78.5184C61.5474 78.4437 60.7394 77.9695 60.462 77.4153L58.6555 73.788C57.8149 72.1008 56.9742 70.4133 56.1345 68.7252C55.9781 68.4127 56.0073 68.0891 56.2151 67.8381C56.4445 67.5609 56.8636 67.4058 57.3612 67.4126C66.4137 67.5509 75.0148 62.9563 79.8191 55.4164C80.1924 54.8315 80.665 54.7613 80.9186 54.7702C81.1072 54.7777 81.5755 54.8541 81.8477 55.4021L84.0573 59.8361C84.0621 59.8458 84.0666 59.8556 84.0705 59.8655C84.166 60.0892 84.0465 60.3418 83.7822 60.4506C83.4951 60.5687 83.1468 60.4728 83.0037 60.2368C82.9938 60.2208 82.985 60.204 82.9773 60.1867C82.0333 58.2923 79.3322 58.1292 77.8872 59.6759C72.6884 65.2404 65.1801 68.4888 57.3408 68.3682C57.2781 68.367 57.2434 68.4332 57.2714 68.4893C58.0904 70.1358 58.91 71.7807 59.7293 73.4254L61.5353 77.0521C61.6373 77.2553 62.0785 77.5318 62.4734 77.569C67.3102 78.0227 72.1731 77.2135 76.5357 75.2286C76.5391 75.227 76.5425 75.2256 76.5459 75.2241C77.4109 74.829 78.2476 74.3926 79.0329 73.9269C79.2931 73.7728 79.6556 73.8212 79.8431 74.0353C80.0303 74.2495 79.9713 74.5481 79.7113 74.7024C78.8871 75.191 78.0094 75.6488 77.1021 76.0628C77.0986 76.0645 77.095 76.0661 77.0912 76.0677C73.346 77.7706 69.2468 78.6473 65.0973 78.6474Z" fill="#32356B"/>
<path d="M83.6987 63.6342C83.8608 63.9595 83.9501 64.3174 83.9427 64.6809C83.9349 65.0658 83.9143 65.4379 83.8818 65.7972C83.8456 66.1982 83.7266 66.5943 83.6557 66.9907C83.581 67.4084 83.5639 67.8296 83.4544 68.2395C83.4349 68.3123 83.415 68.3844 83.3945 68.4558C83.1105 69.4478 82.4877 70.3023 81.6892 70.9557C77.1211 74.6935 71.2017 76.8436 65.0723 77.017C64.9322 77.0209 64.8117 76.9218 64.7474 76.7972C64.3714 76.0365 63.1643 75.465 62.0477 75.4229C61.8512 75.4164 61.6655 75.3135 61.5779 75.1375C60.8682 73.7108 60.1569 72.2855 59.4472 70.8588C59.3832 70.7302 59.4898 70.5795 59.6335 70.5795C60.7315 70.5833 61.3118 69.8971 60.9334 69.1402C60.8835 69.0376 60.9434 68.9038 61.057 68.8931C67.9331 68.245 74.5248 64.9494 79.0659 59.6057C79.1506 59.5061 79.3156 59.539 79.3743 59.6559C79.8107 60.5351 80.7555 60.5791 81.4055 59.6826C81.4879 59.5663 81.6737 59.5696 81.7373 59.6972C82.3911 61.0091 83.0449 62.3222 83.6987 63.6342Z" fill="#0F6D64"/>
<path d="M75.9858 68.8469C76.6745 70.2278 75.9992 72.1106 74.3549 72.8303C72.7135 73.5558 70.7733 72.8993 70.1237 71.5933C69.4696 70.2818 70.3225 68.7554 71.9264 67.9547C73.5332 67.1598 75.2958 67.4598 75.9858 68.8469Z" fill="#46BC81"/>
<path d="M67.2496 72.474C67.5819 73.1404 67.1076 73.8387 66.176 73.9677C65.2448 74.0984 64.2197 73.6262 63.8976 72.9799C63.575 72.3319 64.0694 71.7386 64.9906 71.5877C65.9122 71.4385 66.9172 71.8057 67.2496 72.474Z" fill="#46BC81"/>
<path d="M78.4867 67.2073C78.8482 67.9341 79.7386 68.0711 80.429 67.4579C81.1207 66.8462 81.3403 65.7009 80.9683 64.954C80.5954 64.2056 79.7803 64.155 79.0987 64.7869C78.4182 65.4201 78.1236 66.4792 78.4867 67.2073Z" fill="#46BC81"/>
<path d="M83.6671 61.3398C83.3778 61.3398 83.1285 61.1623 83.0918 60.9211C83.0539 60.6696 83.0075 60.399 82.9502 60.0938C82.9027 59.8399 83.1076 59.6003 83.414 59.5517C83.7206 59.5029 84.0188 59.6628 84.0892 59.9132C84.116 60.0084 84.2064 60.3558 84.2468 60.8284C84.2686 61.0867 84.0369 61.3124 83.724 61.3375C83.705 61.339 83.6859 61.3398 83.6671 61.3398Z" fill="#32356B"/>
<path d="M79.3742 74.3137C78.0407 75.2818 76.9111 75.6185 76.8232 75.644C76.823 75.644 76.8227 75.6443 76.8225 75.6444C76.8212 75.6454 76.8207 75.6439 76.822 75.6428C79.12 73.6315 79.731 71.0362 79.7476 68.8878C79.7631 66.8811 81.6195 65.0313 82.9311 63.5125C83.6563 62.6727 83.729 61.5976 83.6687 60.8633C84.9083 68.7057 81.8023 72.5514 79.3742 74.3137Z" fill="#46BC81"/>
<path d="M76.8167 76.123C76.5852 76.123 76.3758 76.0097 76.2839 75.8347C76.1921 75.6596 76.2354 75.4563 76.3943 75.3176C80.8722 71.4026 78.565 64.9926 78.5412 64.9283C78.4871 64.7821 78.5209 64.6232 78.6327 64.5011C78.7444 64.3791 78.921 64.3085 79.1058 64.3107C80.5041 64.3273 81.5531 64.0501 82.2119 63.4793C83.0517 62.7519 83.1518 61.6723 83.088 60.8947C83.0669 60.6371 83.2979 60.4123 83.6101 60.3869C83.9206 60.3629 84.2021 60.5448 84.2424 60.8008C85.4865 68.6709 82.4895 72.6876 79.7563 74.6714C78.4106 75.6484 77.2424 76.0256 77.0341 76.088C76.9653 76.1108 76.8914 76.123 76.8167 76.123ZM81.5865 64.9402C80.7189 65.2227 80.0787 66.083 80.2074 66.9863C80.473 68.8496 80.4607 71.5331 78.97 73.9435C78.9641 73.9531 78.9754 73.9641 78.9845 73.9576C78.9859 73.9566 78.9873 73.9556 78.9887 73.9546C78.9887 73.9546 78.9887 73.9545 78.9887 73.9545C78.9887 73.9545 78.9887 73.9545 78.9887 73.9545C81.1011 72.4213 83.38 69.5443 83.3719 64.2701C83.3716 64.1125 83.1724 64.0346 83.0533 64.1378C82.6526 64.4849 82.1625 64.7527 81.5865 64.9402Z" fill="#32356B"/>
<path d="M75.0478 60.8095C76.9132 64.0585 75.7371 67.74 72.4202 69.0312L70.263 69.8709C69.3441 70.2286 68.3583 70.3647 67.3724 70.3067C66.0355 70.2286 64.699 69.7912 63.5346 69.0598C62.942 68.6868 62.3924 68.2382 61.9115 67.7216C61.8844 67.6919 61.8578 67.6631 61.8312 67.6342C61.8096 67.6096 61.7884 67.5858 61.7673 67.5621C61.4322 67.1837 61.1331 66.7698 60.8779 66.3252C59.0125 63.0763 60.1896 59.3943 63.5065 58.1032L65.6637 57.2635C68.9806 55.9724 73.1824 57.5606 75.0478 60.8095Z" fill="#FFA04A"/>
<path d="M69.5539 69.4661C68.0509 69.804 66.5362 70.3554 65.0905 69.8232C64.5492 69.624 64.0257 69.3671 63.5329 69.0576C62.9362 68.647 62.3545 68.1882 61.9099 67.7194C61.8828 67.6897 61.8562 67.6609 61.8296 67.632C61.7988 67.5969 61.8119 67.5419 61.8555 67.5249L63.244 66.9844C63.6447 66.8284 64.0992 66.9199 64.4284 67.1967C65.0348 67.7067 66.0668 68.4869 66.9959 68.7653C68.4219 69.1927 69.7895 69.4136 69.5539 69.4661Z" fill="#DD6726"/>
<path d="M60.494 60.5997C60.5403 60.4345 60.662 60.3019 60.8218 60.2397L61.0724 60.1422C61.559 59.9528 62.2384 60.7675 62.1815 61.2865C62.1116 61.9234 62.2862 62.9902 62.4435 63.7675C62.5551 64.3186 62.2652 64.8811 61.7412 65.0851C61.1011 65.3342 60.3901 64.9501 60.2582 64.276C60.1348 63.645 60.0128 62.975 60.0061 62.7613C59.9954 62.4216 60.3389 61.1533 60.494 60.5997Z" fill="#FFCD37"/>
<path d="M72.4248 69.0328C75.7422 67.7415 76.9191 64.0605 75.0534 60.8111C73.1878 57.5616 68.9862 55.9742 65.6688 57.2654C62.3514 58.5567 61.1745 62.2377 63.0401 65.4872C64.9057 68.7367 69.1074 70.3241 72.4248 69.0328Z" fill="#FFCD37"/>
<path d="M71.8438 68.0182C74.4823 66.9912 75.369 63.9776 73.8243 61.2871C72.2796 58.5967 68.8885 57.2482 66.25 58.2752C63.6116 59.3022 62.7249 62.3158 64.2695 65.0063C65.8142 67.6968 69.2053 69.0452 71.8438 68.0182Z" fill="#FFA04A"/>
<path d="M74.1127 61.8663C74.223 62.1167 73.878 62.1685 73.7418 61.9312C72.1994 59.2449 68.8022 57.8945 66.1686 58.9197C65.8145 59.0575 65.327 58.7378 65.6583 58.5516C65.8431 58.4478 66.039 58.355 66.2457 58.2746C68.8793 57.2494 72.277 58.6006 73.8193 61.287C73.9294 61.4787 74.0271 61.6721 74.1127 61.8663Z" fill="#DD6726"/>
<path d="M70.9756 66.6362C70.8109 66.7003 70.6241 66.6345 70.5361 66.4812L70.5134 66.4415C70.4216 66.2816 70.2347 66.2067 70.052 66.2311C69.6603 66.2834 69.3156 66.2288 69.0178 66.0675C68.6446 65.8654 68.3025 65.4934 67.9913 64.9515C67.927 64.8394 67.9774 64.6964 68.0979 64.6495L69.0487 64.2794C69.1491 64.2403 69.263 64.2805 69.3167 64.374C69.5449 64.7714 69.7848 64.9211 70.0365 64.8232C70.1455 64.7807 70.206 64.7162 70.2181 64.6293C70.2301 64.5426 70.2103 64.454 70.1584 64.3637C70.0666 64.2037 69.8915 64.0729 69.6331 63.9714L67.8739 63.2874C67.2298 63.0393 66.7708 62.6765 66.4967 62.1991C66.3485 61.941 66.2767 61.6903 66.2815 61.4469C66.2861 61.2035 66.3505 60.9812 66.4745 60.7797C66.557 60.6458 66.6584 60.5273 66.7787 60.424C66.8823 60.3351 66.9216 60.1859 66.8537 60.0675C66.7761 59.9324 66.8369 59.7601 66.9821 59.7036L67.1176 59.6508C67.2682 59.5922 67.4391 59.6525 67.5196 59.7927C67.592 59.9188 67.7389 59.9791 67.8831 59.9608C68.2682 59.9119 68.6295 59.9775 68.9671 60.1575C69.158 60.2594 69.3361 60.3929 69.5014 60.5582C69.8202 60.8771 69.6353 61.3892 69.2151 61.5528L68.8946 61.6776C68.7391 61.7381 68.5628 61.6759 68.4798 61.5312C68.4161 61.4203 68.3373 61.3468 68.2436 61.3106C68.1498 61.2745 68.0536 61.2756 67.955 61.3139C67.8461 61.3563 67.7799 61.4153 67.7566 61.4907C67.7332 61.5661 67.7475 61.6489 67.7993 61.7392C67.8734 61.8683 68.1115 62.0093 68.5135 62.1622L70.2167 62.8064C70.4679 62.9012 70.7157 63.0384 70.9601 63.2179C71.2044 63.3975 71.4081 63.6293 71.5711 63.9131C71.8156 64.3389 71.8798 64.73 71.7637 65.0861C71.6773 65.3511 71.5209 65.5722 71.2945 65.7493C71.1615 65.8532 71.1053 66.0376 71.1893 66.184C71.2804 66.3427 71.209 66.5453 71.0384 66.6117L70.9756 66.6362Z" fill="#FFCD37"/>
<path d="M67.8351 70.694C64.9319 70.6941 61.9494 69.0819 60.4318 66.4389C59.476 64.7741 59.2352 62.9495 59.7536 61.3013C60.2799 59.6278 61.5232 58.3351 63.2542 57.6613L65.4111 56.8218C67.8765 55.8622 70.9603 56.3792 73.2679 58.1389C73.4615 58.2865 73.6502 58.4435 73.8292 58.6055C74.0097 58.7688 74.1848 58.9416 74.3496 59.1191C74.4327 59.2085 74.5138 59.2998 74.5929 59.3932C74.7516 59.5796 74.9031 59.775 75.0432 59.9736C75.1848 60.1744 75.3184 60.3839 75.4406 60.5964C76.2696 62.0403 76.5654 63.6494 76.2735 65.1276C75.8899 67.0714 74.5575 68.6192 72.6182 69.3742C72.6142 69.3757 72.6103 69.3772 72.6063 69.3787L70.4612 70.2137C69.6242 70.5396 68.7333 70.694 67.8351 70.694ZM68.0357 57.11C67.2613 57.11 66.5045 57.2418 65.8081 57.5129L63.6511 58.3525C62.1735 58.9276 61.1086 60.043 60.6525 61.493C60.1884 62.9683 60.4082 64.6088 61.2714 66.1121C63.0395 69.1917 66.9837 70.7215 70.0644 69.5226L72.221 68.6831C72.2233 68.6821 72.2256 68.6812 72.2279 68.6804C73.8833 68.0336 75.0237 66.6943 75.357 65.0048C75.619 63.6779 75.3505 62.2284 74.6012 60.9233C74.4904 60.7303 74.3688 60.54 74.2402 60.3577C74.2402 60.3576 74.2402 60.3576 74.2402 60.3575C74.2402 60.3575 74.2402 60.3574 74.2401 60.3574C74.1134 60.1774 73.9762 60.0005 73.8324 59.8315C73.7606 59.747 73.6874 59.6645 73.6121 59.5836C73.4633 59.4233 73.3052 59.2673 73.1424 59.1199C72.981 58.974 72.8111 58.8326 72.6368 58.6998C71.275 57.6613 69.6188 57.11 68.0357 57.11Z" fill="#32356B"/>
<path d="M62.1401 63.3384C61.5262 60.7067 62.9711 57.7154 66.2217 56.8194C68.9773 56.0413 72.0449 57.0886 73.8822 58.8408C76.1767 60.969 77.0196 64.2309 75.4731 66.8396C74.7474 68.0495 73.4316 69.0294 71.861 69.4334C69.2482 70.1416 66.3631 69.1597 64.6044 67.5248C64.5218 67.4442 64.6568 67.3402 64.7487 67.412C65.9225 68.3623 67.4204 69.0625 69.0306 69.2401C70.1298 69.3622 71.2573 69.2475 72.2555 68.8532C72.6067 68.7094 72.9555 68.5334 73.2653 68.3329L73.3854 68.2604L73.4941 68.1763C76.6081 65.8772 75.9914 61.62 73.3634 59.2172C70.5739 56.5489 65.5994 56.1276 63.2398 59.4147C62.4159 60.5791 62.1591 61.9779 62.3369 63.3148C62.3522 63.4181 62.1625 63.4402 62.1401 63.3384Z" fill="#32356B"/>
<g opacity="0.44">
<path d="M40.4804 25.9448C40.5832 25.8924 40.6919 25.8474 40.803 25.8161C43.805 24.9723 46.7157 27.3121 45.859 29.827C45.4266 31.0961 45.0619 32.6742 44.9279 34.5671V64.6274C44.9279 64.6274 45.5841 72.441 46.3092 74.4882C46.981 76.3846 37.1632 75.9388 34.5051 68.8566C34.065 67.684 34.0156 66.4089 34.0156 65.1563V35.4769C34.0156 35.4769 34.5413 28.9753 40.4804 25.9448Z" fill="#ECE9E9"/>
</g>
<path d="M38.2969 41.0416C38.2969 38.761 40.1457 36.9121 42.4264 36.9121H74.0807C76.3589 36.9121 78.2057 38.7589 78.2057 41.037C78.2057 43.2169 76.5096 45.0233 74.3325 45.1319C63.1476 45.69 52.4248 45.6614 42.1647 45.1381C39.9889 45.0271 38.2969 43.2203 38.2969 41.0416Z" fill="#ECE9E9"/>
<path d="M58.0659 45.9967C51.3842 45.9967 44.7647 45.7891 38.2513 45.3737C37.963 45.3553 37.7402 45.1572 37.7402 44.919V36.915C37.7402 36.6631 37.9883 36.459 38.2941 36.459H78.2029C78.5087 36.459 78.7568 36.6631 78.7568 36.915V44.919C78.7568 45.1577 78.5331 45.356 78.2441 45.3738C71.4889 45.789 64.7462 45.9967 58.0659 45.9967ZM38.848 41.0442C38.848 42.9845 40.3569 44.5926 42.2947 44.6905C52.7421 45.2184 63.4404 45.2162 74.1985 44.6841C76.1371 44.5882 77.6489 42.9808 77.6489 41.0399C77.6489 39.0136 76.0063 37.371 73.9801 37.371H42.5212C40.4926 37.371 38.848 39.0156 38.848 41.0442Z" fill="#030072"/>
<g opacity="0.89">
<path d="M63.2776 37.4313C63.4367 37.815 63.0796 38.2216 62.6838 38.0954C62.5101 38.04 62.3197 38.0865 62.1931 38.2179C62.1353 38.2778 62.0778 38.3379 62.0204 38.3982C61.7853 38.6453 61.4306 38.74 61.1058 38.6358C61.0191 38.608 60.9323 38.58 60.8455 38.5519C60.5258 38.4482 60.1738 38.5362 59.948 38.7851C59.7174 39.0392 59.3599 39.1384 59.0346 39.0296C58.9493 39.0011 58.8642 38.9725 58.7791 38.9437C58.4584 38.8351 58.1019 38.9267 57.8797 39.1822C57.653 39.4429 57.2934 39.5446 56.9669 39.4316C56.8101 39.3774 56.6537 39.3226 56.4973 39.2676C56.3035 39.1993 56.0868 39.2567 55.9546 39.414C55.7165 39.6974 55.2634 39.6423 55.1158 39.3029C54.7081 38.3646 54.3535 37.4156 54.0478 36.4583C53.1119 33.4829 52.6914 30.4256 52.8109 27.3413C52.8266 26.937 53.2835 26.7201 53.6162 26.9504C53.7868 27.0686 54.0133 27.0723 54.189 26.9617C54.2865 26.9004 54.3845 26.8393 54.4828 26.7787C54.8103 26.5764 55.2257 26.5925 55.5442 26.8087C55.8578 27.0216 56.2677 27.0282 56.5935 26.8345C56.6083 26.8257 56.6231 26.8169 56.6378 26.8082C56.9689 26.6117 57.382 26.6251 57.703 26.8376C58.0191 27.0469 58.4276 27.0536 58.7563 26.8649C58.7708 26.8566 58.7853 26.8483 58.7998 26.84C59.1315 26.6502 59.5413 26.6673 59.863 26.8737C59.9472 26.9277 60.0315 26.9816 60.1159 27.0354C60.2803 27.1401 60.4888 27.1454 60.6591 27.0507C61.0228 26.8485 61.4634 27.1348 61.4488 27.5507C61.3427 30.5773 61.8395 33.569 62.8967 36.4584C63.0166 36.7839 63.1436 37.1083 63.2776 37.4313Z" fill="#FFDB45"/>
</g>
<g opacity="0.65">
<path d="M59.8134 30.0256C59.8134 31.1722 58.6679 31.6404 57.1295 31.6404C55.591 31.6404 54.2422 31.1722 54.2422 30.0256C54.2422 28.8789 55.4894 28.418 57.0278 28.418C58.5663 28.418 59.8134 28.8789 59.8134 30.0256Z" fill="#F4C040"/>
</g>
<path d="M63.2766 37.4319C63.4358 37.8156 63.0786 38.2223 62.6829 38.0961C62.5091 38.0407 62.3188 38.0872 62.1922 38.2185C62.1344 38.2785 62.0769 38.3386 62.0195 38.3989C61.7844 38.6459 61.4297 38.7406 61.1049 38.6365C61.0181 38.6087 60.9313 38.5807 60.8446 38.5525C60.5248 38.4489 60.1729 38.5369 59.947 38.7858C59.7165 39.0398 59.359 39.1391 59.0337 39.0303C58.9484 39.0018 58.8633 38.9731 58.7782 38.9443C58.4575 38.8358 58.1009 38.9274 57.8788 39.1828C57.652 39.4435 57.2925 39.5452 56.966 39.4323C56.8092 39.3781 56.6527 39.3233 56.4964 39.2682C56.3025 39.2 56.0859 39.2574 55.9537 39.4147C55.7155 39.6981 55.2624 39.643 55.1149 39.3035C54.9451 38.9127 54.7844 38.5199 54.6327 38.1255C54.3189 37.3098 54.9397 36.459 55.8136 36.459H62.3913C62.6944 36.459 62.9645 36.6483 63.0748 36.9306C63.1402 37.0981 63.2075 37.2652 63.2766 37.4319Z" fill="#F4C040"/>
<path d="M49.4553 41.236C49.4553 41.2935 49.5037 41.3818 49.6217 41.4082C50.4156 41.607 50.7482 42.0488 50.7482 42.4462C50.7482 43.1485 49.8255 43.7493 48.5757 43.4135C48.3289 43.3473 48.1948 43.0868 48.2754 42.8835C48.3558 42.6803 48.6507 42.5345 48.8975 42.6009C49.0959 42.6538 49.7398 42.751 49.7398 42.4462C49.7398 42.3138 49.5573 42.2254 49.3535 42.1768C48.7206 42.0267 48.4469 41.5408 48.4469 41.236C48.4469 40.6221 49.0639 40.0302 50.4692 40.3306C50.7214 40.3836 50.8716 40.6266 50.8072 40.834C50.7429 41.0417 50.4639 41.1963 50.2119 41.1433C50.0723 41.1167 49.4553 40.9755 49.4553 41.236Z" fill="#030072"/>
<path d="M52.0917 41.1911C52.2665 40.8829 52.3041 40.4218 52.6275 40.2771C52.8582 40.1755 53.18 40.2375 53.3087 40.423C53.947 41.3903 54.3817 42.1544 54.8 42.9405C54.9073 43.1393 54.7732 43.3866 54.5317 43.4706C54.2957 43.559 53.9793 43.4706 53.8773 43.2763C53.7596 43.0583 53.5293 42.9241 53.2816 42.9294C53.031 42.9347 52.783 42.9408 52.501 42.9402C52.2904 42.9398 52.0957 43.0572 52.0105 43.2497C51.9247 43.4529 51.6618 43.5676 51.4204 43.497C51.1738 43.422 51.0664 43.1966 51.1523 42.9936C51.3759 42.4794 51.7456 41.8011 52.0917 41.1911ZM52.9063 42.1731C53.0659 42.1717 53.1562 42.0038 53.0734 41.8674C52.9917 41.7329 52.7915 41.7312 52.7152 41.8688C52.6391 42.0059 52.7495 42.1746 52.9063 42.1731Z" fill="#030072"/>
<path d="M55.8199 40.5463C56.0849 41.5072 57.3524 41.5585 57.5694 40.5857C57.571 40.5784 57.5726 40.5711 57.5741 40.5639C57.6171 40.3564 57.8798 40.2061 58.1373 40.2415C58.3948 40.2812 58.5879 40.4932 58.5397 40.7053C58.3734 41.5135 57.6545 42.7856 56.9733 43.3686C56.8337 43.4836 56.6394 43.5209 56.4588 43.5118C56.3155 43.5046 56.1774 43.4557 56.099 43.3642C55.6965 42.8916 55.0959 41.6857 54.833 40.7318C54.7739 40.5198 54.9671 40.2989 55.2193 40.2504C55.4766 40.2061 55.761 40.3387 55.8199 40.5463Z" fill="#030072"/>
<path d="M59.9909 43.1437C59.9694 43.3558 59.7173 43.5236 59.4597 43.5103C59.197 43.4926 58.9771 43.2983 58.993 43.0819C59.0575 42.3442 59.0306 41.6905 59.1056 40.6262C59.1217 40.4097 59.3739 40.2375 59.6314 40.2507C59.8943 40.264 60.1196 40.4583 60.1035 40.6702C60.0283 41.7436 60.0552 42.3973 59.9909 43.1437Z" fill="#030072"/>
<path d="M60.8258 40.9636C60.8279 40.9049 60.803 40.8441 60.7539 40.8118C60.5663 40.666 60.577 40.3877 60.7539 40.2332C60.9311 40.0742 61.269 40.0476 61.462 40.1934C61.7591 40.4232 62.072 40.6873 62.3781 40.9635C62.7495 41.2986 63.3704 41.0616 63.4254 40.5644C63.4468 40.3525 63.6988 40.1845 63.9617 40.2022C64.2192 40.2244 64.4392 40.4231 64.4123 40.6352C64.3587 41.143 64.305 42.2693 64.2889 43.1041C64.2835 43.294 64.0905 43.4575 63.8705 43.4928C63.6506 43.5459 63.3877 43.4795 63.2804 43.3117C63.1707 43.1434 63.0126 42.9439 62.8218 42.7276C62.4342 42.2882 61.7322 42.5598 61.6873 43.1439C61.6712 43.3604 61.419 43.5282 61.1563 43.5149C60.8988 43.5017 60.6735 43.3029 60.6896 43.091C60.736 42.4958 60.7974 41.7657 60.8258 40.9636Z" fill="#030072"/>
<path d="M67.9488 41.5806C68.2438 41.5673 68.4798 41.7528 68.4744 41.9913C68.4637 42.5081 68.3833 42.8041 68.4476 43.2634C68.4798 43.4753 68.2545 43.6829 67.997 43.705C67.6183 43.7413 67.1671 43.4888 66.7867 43.4839C65.7249 43.47 64.9609 42.8707 64.9609 41.9074C64.9609 40.5117 66.4791 39.9109 68.1741 40.4499C68.4156 40.5249 68.5282 40.7943 68.4369 40.9931C68.3457 41.1963 68.04 41.3332 67.7986 41.2537C67.0369 41.0152 65.9694 41.0681 65.9694 41.9074C65.9694 42.5533 66.6506 42.7634 67.329 42.6227C67.3854 42.6109 67.4258 42.5636 67.4318 42.5063C67.4396 42.4326 67.3846 42.3668 67.3106 42.3641C67.2216 42.3608 67.1334 42.3608 67.0477 42.3667C66.7902 42.38 66.5542 42.2077 66.5327 41.9913C66.5166 41.7792 66.7203 41.5806 66.9832 41.5629C67.2837 41.5452 67.6055 41.5937 67.9488 41.5806Z" fill="#030072"/>
</svg>
