<svg width="116" height="95" viewBox="0 0 116 95" fill="none" xmlns="http://www.w3.org/2000/svg">
<rect width="116" height="95" fill="white"/>
<path d="M83.4512 80.2311H42.7576C41.2788 80.2311 40.0801 78.9536 40.0801 77.3776V15.459C40.0801 13.883 41.2788 12.6055 42.7576 12.6055H83.4512C84.9299 12.6055 86.1287 13.883 86.1287 15.459V77.3776C86.1287 78.9536 84.9299 80.2311 83.4512 80.2311Z" fill="#586773"/>
<path d="M84.9942 80.2311H44.3006C42.8218 80.2311 41.623 78.9536 41.623 77.3776V15.459C41.623 13.883 42.8218 12.6055 44.3006 12.6055H84.9942C86.4729 12.6055 87.6717 13.883 87.6717 15.459V77.3776C87.6717 78.9536 86.473 80.2311 84.9942 80.2311Z" fill="#93ACBF"/>
<path d="M85.003 74.2518H44.2889C44.2561 74.2518 44.2233 74.246 44.1933 74.2343C44.0511 74.1935 43.9473 74.0537 43.9473 73.8877V15.451C43.9473 15.247 44.1003 15.084 44.2889 15.084H85.003C85.1942 15.084 85.3473 15.247 85.3473 15.451V73.8877C85.3473 74.0887 85.1943 74.2518 85.003 74.2518Z" fill="#586773"/>
<path d="M84.9162 15.5449H44.3809V73.7927H84.9162V15.5449Z" fill="#E5F0F8"/>
<path d="M60.1152 77.2495C60.1152 76.5569 60.6469 75.9902 61.2969 75.9902H67.9987C68.6486 75.9902 69.1803 76.5569 69.1803 77.2495C69.1803 77.9422 68.6486 78.5088 67.9987 78.5088H61.2969C60.6469 78.5088 60.1152 77.9422 60.1152 77.2495Z" fill="#F3BBBB"/>
<path d="M84.9163 15.5449H44.3809V19.5747H84.9163V15.5449Z" fill="#F3BBBB"/>
<path d="M47.3171 17.7388C47.4114 17.3158 47.1661 16.8914 46.7692 16.7909C46.3723 16.6904 45.9741 16.9518 45.8798 17.3747C45.7854 17.7977 46.0307 18.2221 46.4276 18.3226C46.8245 18.4231 47.2227 18.1617 47.3171 17.7388Z" fill="#ECE9E9"/>
<path d="M49.4577 17.7388C49.552 17.3158 49.3067 16.8914 48.9098 16.7909C48.5129 16.6904 48.1147 16.9518 48.0204 17.3747C47.9261 17.7977 48.1714 18.2221 48.5683 18.3226C48.9651 18.4231 49.3634 18.1617 49.4577 17.7388Z" fill="#ECE9E9"/>
<path d="M51.5944 17.7388C51.6887 17.3158 51.4434 16.8914 51.0465 16.7909C50.6496 16.6904 50.2514 16.9518 50.1571 17.3747C50.0628 17.7977 50.3081 18.2221 50.705 18.3226C51.1019 18.4231 51.5001 18.1617 51.5944 17.7388Z" fill="#ECE9E9"/>
<path d="M44.2676 48.5662L45.5273 49.1641L46.3257 47.2536L45.0659 46.6557L44.2676 48.5662Z" fill="#F2BB16"/>
<path d="M45.3633 45.9424L46.6277 46.5424L47.4507 45.1953L45.7428 44.3848L45.3633 45.9424Z" fill="#F2BB16"/>
<path d="M43.9035 47.0323L46.847 48.4292C46.9841 48.4943 47.1448 48.4286 47.2058 48.2824L47.7075 47.0818C47.7686 46.9357 47.7069 46.7645 47.5698 46.6994L44.6263 45.3025C44.4891 45.2374 44.3285 45.3031 44.2674 45.4493L43.7658 46.6499C43.7047 46.796 43.7663 46.9673 43.9035 47.0323Z" fill="#F74242"/>
<path d="M47.1675 46.9543L46.7578 47.9355L46.8774 47.9923L47.2871 47.011L47.1675 46.9543Z" fill="#F2BB16"/>
<path d="M46.738 46.7495L46.3281 47.7305L46.4477 47.7872L46.8576 46.8063L46.738 46.7495Z" fill="#F2BB16"/>
<path d="M46.3104 46.5482L45.9004 47.5293L46.02 47.5861L46.43 46.6049L46.3104 46.5482Z" fill="#F2BB16"/>
<path d="M45.8806 46.3393L45.4707 47.3203L45.5903 47.3771L46.0002 46.3961L45.8806 46.3393Z" fill="#F2BB16"/>
<path d="M45.451 46.14L45.041 47.1211L45.1606 47.1779L45.5706 46.1967L45.451 46.14Z" fill="#F2BB16"/>
<path d="M45.0174 45.9349L44.6074 46.916L44.727 46.9728L45.137 45.9917L45.0174 45.9349Z" fill="#F2BB16"/>
<path d="M44.5877 45.7278L44.1777 46.709L44.2973 46.7657L44.7073 45.7846L44.5877 45.7278Z" fill="#F2BB16"/>
<path d="M45.4402 44.2941L47.7234 45.3776C47.8053 45.4165 47.9014 45.3772 47.9379 45.2898L47.946 45.2706C47.9825 45.1832 47.9456 45.0809 47.8636 45.0419L45.5804 43.9584C45.4984 43.9195 45.4024 43.9587 45.3659 44.0461L45.3578 44.0654C45.3214 44.1528 45.3582 44.2552 45.4402 44.2941Z" fill="#F74242"/>
<path d="M31.6238 49.4235L32.8633 48.7793L32.0031 46.8995L30.7637 47.5437L31.6238 49.4235Z" fill="#F2BB16"/>
<path d="M30.4363 46.8445L31.6803 46.1979L31.241 44.6602L29.5605 45.5335L30.4363 46.8445Z" fill="#F2BB16"/>
<path d="M30.2811 48.7365L33.1772 47.2313C33.3122 47.1612 33.3682 46.9878 33.3024 46.844L32.7619 45.6628C32.6961 45.519 32.5334 45.4592 32.3985 45.5294L29.5024 47.0345C29.3674 47.1046 29.3114 47.278 29.3772 47.4219L29.9177 48.6031C29.9834 48.7469 30.1462 48.8066 30.2811 48.7365Z" fill="#F74242"/>
<path d="M32.4516 45.9525L32.334 46.0137L32.776 46.9789L32.8937 46.9177L32.4516 45.9525Z" fill="#F2BB16"/>
<path d="M32.0239 46.1752L31.9062 46.2363L32.3479 47.2015L32.4656 47.1404L32.0239 46.1752Z" fill="#F2BB16"/>
<path d="M31.6021 46.3939L31.4844 46.4551L31.9261 47.4205L32.0438 47.3593L31.6021 46.3939Z" fill="#F2BB16"/>
<path d="M31.1763 46.6146L31.0586 46.6758L31.5002 47.641L31.6179 47.5798L31.1763 46.6146Z" fill="#F2BB16"/>
<path d="M30.7563 46.8334L30.6387 46.8945L31.0804 47.8599L31.1981 47.7987L30.7563 46.8334Z" fill="#F2BB16"/>
<path d="M30.3325 47.0521L30.2148 47.1133L30.6566 48.0787L30.7743 48.0175L30.3325 47.0521Z" fill="#F2BB16"/>
<path d="M29.9106 47.2689L29.793 47.3301L30.2347 48.2955L30.3524 48.2343L29.9106 47.2689Z" fill="#F2BB16"/>
<path d="M29.303 45.7204L31.5494 44.5529C31.63 44.511 31.6636 44.4073 31.6242 44.3213L31.6156 44.3024C31.5762 44.2164 31.4789 44.1807 31.3983 44.2226L29.1519 45.3901C29.0712 45.4321 29.0377 45.5357 29.077 45.6217L29.0857 45.6406C29.125 45.7266 29.2223 45.7623 29.303 45.7204Z" fill="#F74242"/>
<path d="M37.8595 47.5002L39.2383 47.4746L39.2041 45.3836L37.8254 45.4092L37.8595 47.5002Z" fill="#F2BB16"/>
<path d="M38.0915 40.3505L38.7695 40.3379L38.7539 39.3803L38.0758 39.3929L38.0915 40.3505Z" fill="#F2BB16"/>
<path d="M38.8061 80.2333C47.5043 80.2333 54.5556 72.7185 54.5556 63.4487C54.5556 54.1788 47.5043 46.6641 38.8061 46.6641C30.1079 46.6641 23.0566 54.1788 23.0566 63.4487C23.0566 72.7185 30.1079 80.2333 38.8061 80.2333Z" fill="#F74242"/>
<path d="M39.0576 78.8442C47.0248 78.6965 53.3939 71.6685 53.2553 63.1777C53.1167 54.6868 46.5221 47.8996 38.555 48.0473C30.5878 48.195 24.2191 55.2225 24.3577 63.7133C24.4962 72.2043 31.0904 78.9919 39.0576 78.8442Z" fill="#F2BB16"/>
<path d="M36.1133 41.3831L36.1492 43.5795C36.151 43.6913 36.2207 43.7906 36.3211 43.8279L38.5004 44.6149L40.6528 43.7476C40.7517 43.7066 40.8182 43.6047 40.8164 43.4929L40.7806 41.2965C40.7789 41.196 40.7251 41.1075 40.6404 41.0644L38.5392 39.9237C38.4652 39.8859 38.3814 39.8875 38.3032 39.9281L36.2406 41.1459C36.1627 41.1921 36.1117 41.2825 36.1133 41.3831ZM36.5612 41.4978L38.4315 40.3953L40.3369 41.4279L40.3683 43.3504L38.4922 44.1119L36.5925 43.4204L36.5612 41.4978Z" fill="#F74242"/>
<path d="M50.5156 71.2186C48.1212 75.3128 43.8998 78.0672 39.0485 78.1518C31.4334 78.2934 25.1389 71.8114 25.004 63.7038C24.939 59.6247 26.4477 55.8988 28.9289 53.1862C31.379 50.4992 34.783 48.8026 38.5685 48.7384C46.174 48.6027 52.476 55.0869 52.6034 63.1923C52.6493 66.1355 51.8855 68.8956 50.5156 71.2186Z" fill="#E5F0F8"/>
<path d="M38.8119 63.4472L38.6854 48.7395C38.6466 48.7398 38.6082 48.7377 38.5692 48.7384C34.7837 48.8026 31.3797 50.4992 28.9296 53.1862C27.5674 55.5114 26.796 58.2692 26.8418 61.2125C26.9767 69.32 33.2788 75.8042 40.8863 75.6604C44.6642 75.594 48.0682 73.8974 50.5163 71.2185C51.8462 68.9632 52.5982 66.2942 52.5993 63.4471L38.8119 63.4472Z" fill="#ECE9E9"/>
<path d="M52.5994 63.4504C52.5994 63.365 52.6055 63.2811 52.6042 63.1955C52.4775 55.1317 46.2387 48.675 38.6855 48.7427L38.812 63.4504L52.5994 63.4504Z" fill="#ECE9E9"/>
<path d="M37.9474 50.5645C37.9536 50.9461 38.2489 51.2501 38.6071 51.2435C38.9652 51.2369 39.2504 50.9221 39.2442 50.5405C39.238 50.1588 38.9426 49.8548 38.5845 49.8614C38.2264 49.8681 37.9412 50.1828 37.9474 50.5645Z" fill="#F3BBBB"/>
<path d="M47.83 54.3804C47.94 54.0172 47.753 53.6276 47.4122 53.5103C47.0713 53.393 46.7058 53.5924 46.5958 53.9556C46.4857 54.3188 46.6728 54.7084 47.0136 54.8257C47.3544 54.943 47.7199 54.7436 47.83 54.3804Z" fill="#F3BBBB"/>
<path d="M50.899 62.5314C50.5409 62.538 50.2556 62.8528 50.2618 63.2344C50.2681 63.6161 50.5634 63.92 50.9215 63.9134C51.2796 63.9068 51.5648 63.592 51.5587 63.2104C51.5524 62.8287 51.2571 62.5247 50.899 62.5314Z" fill="#F3BBBB"/>
<path d="M48.1406 72.6011C48.237 72.2335 48.0356 71.8522 47.6906 71.7494C47.3457 71.6466 46.9879 71.8613 46.8914 72.2289C46.795 72.5965 46.9964 72.9779 47.3414 73.0806C47.6863 73.1834 48.0441 72.9688 48.1406 72.6011Z" fill="#F3BBBB"/>
<path d="M37.807 44.6309L39.1909 44.6053L39.4026 43.0137L37.5332 43.0483L37.807 44.6309Z" fill="#F2BB16"/>
<path d="M39.667 76.3751C39.6869 75.9939 39.4132 75.6678 39.0556 75.6465C38.698 75.6253 38.3919 75.9171 38.372 76.2982C38.3521 76.6793 38.6258 77.0055 38.9835 77.0267C39.3411 77.0479 39.6471 76.7562 39.667 76.3751Z" fill="#F3BBBB"/>
<path d="M30.4376 73.4133C30.7949 73.3869 31.0645 73.0569 31.0398 72.6761C31.0151 72.2953 30.7054 72.008 30.3481 72.0343C29.9908 72.0607 29.7212 72.3907 29.7459 72.7715C29.7706 73.1523 30.0803 73.4396 30.4376 73.4133Z" fill="#F3BBBB"/>
<path d="M27.3469 63.776C27.4025 63.399 27.1607 63.0452 26.8069 62.986C26.4531 62.9267 26.1212 63.1843 26.0656 63.5614C26.0099 63.9385 26.2517 64.2922 26.6055 64.3515C26.9593 64.4107 27.2912 64.1531 27.3469 63.776Z" fill="#F3BBBB"/>
<path d="M30.7116 54.7021C30.8228 54.3393 30.637 53.9491 30.2966 53.8305C29.9562 53.712 29.59 53.91 29.4788 54.2728C29.3675 54.6356 29.5533 55.0258 29.8937 55.1443C30.2342 55.2629 30.6003 55.0649 30.7116 54.7021Z" fill="#F3BBBB"/>
<path d="M39.6765 64.2679C40.0986 63.7558 40.0511 62.9759 39.5705 62.5261C39.0899 62.0763 38.3582 62.1268 37.9361 62.639C37.514 63.1512 37.5615 63.9311 38.0421 64.3809C38.5227 64.8307 39.2544 64.7801 39.6765 64.2679Z" fill="#F74242"/>
<path d="M39.1027 54.4978L38.6412 53.1855L38.2227 54.5141L38.5083 54.5087L38.6543 63.4491L38.9633 63.4434L38.8173 54.503L39.1027 54.4978Z" fill="#F74242"/>
<path d="M38.8028 63.2817L38.8027 63.611L44.0329 63.6113L44.0329 63.9067L45.2721 63.438L44.0329 62.9688V63.282L38.8028 63.2817Z" fill="#F74242"/>
<path d="M36.9132 46.2733L40.1348 46.2136C40.2849 46.2108 40.4045 46.0789 40.4019 45.919L40.3804 44.605C40.3778 44.445 40.254 44.3176 40.1039 44.3204L36.8823 44.3801C36.7323 44.3828 36.6127 44.5148 36.6153 44.6747L36.6367 45.9887C36.6393 46.1487 36.7631 46.2761 36.9132 46.2733Z" fill="#F74242"/>
<path d="M39.9786 44.728L39.8477 44.7305L39.8655 45.8043L39.9964 45.8019L39.9786 44.728Z" fill="#F2BB16"/>
<path d="M39.5039 44.7378L39.373 44.7402L39.3905 45.8139L39.5214 45.8115L39.5039 44.7378Z" fill="#F2BB16"/>
<path d="M39.0332 44.7515L38.9023 44.7539L38.9198 45.8277L39.0507 45.8253L39.0332 44.7515Z" fill="#F2BB16"/>
<path d="M38.5625 44.7534L38.4316 44.7559L38.4491 45.8295L38.58 45.8271L38.5625 44.7534Z" fill="#F2BB16"/>
<path d="M38.0899 44.7613L37.959 44.7637L37.9764 45.8375L38.1073 45.8351L38.0899 44.7613Z" fill="#F2BB16"/>
<path d="M37.6192 44.773L37.4883 44.7754L37.5057 45.8492L37.6366 45.8468L37.6192 44.773Z" fill="#F2BB16"/>
<path d="M37.1504 44.7808L37.0195 44.7832L37.037 45.857L37.1679 45.8546L37.1504 44.7808Z" fill="#F2BB16"/>
<path d="M37.2243 43.1012L39.7232 43.0549C39.8129 43.0532 39.8844 42.9743 39.8829 42.8787L39.8825 42.8577C39.881 42.7621 39.807 42.6859 39.7172 42.6875L37.2183 42.7338C37.1286 42.7355 37.057 42.8144 37.0586 42.91L37.059 42.931C37.0605 43.0267 37.1345 43.1028 37.2243 43.1012Z" fill="#F74242"/>
<path d="M38.0885 39.4745L38.7419 39.4624C38.7877 39.4616 38.8245 39.421 38.8237 39.3723C38.8229 39.3235 38.7848 39.2843 38.739 39.2852L38.0856 39.2973C38.0399 39.2981 38.0031 39.3387 38.0039 39.3874C38.0047 39.4362 38.0428 39.4754 38.0885 39.4745Z" fill="#F74242"/>
<path d="M72.3933 29.9498L65.8184 29.8308L66.1628 22.4732L66.3272 18.9547L66.3366 18.7795L71.4811 16.4746L71.6486 18.9614L71.7727 20.7735L72.3933 29.9498Z" fill="#F5AC97"/>
<path d="M71.8709 50.1719C71.8709 50.1719 71.7608 50.8192 71.5733 51.9212C71.501 52.3448 71.4167 52.8381 71.3238 53.3863C70.7061 57.0299 69.672 63.1599 68.791 68.5289V68.5344C68.4814 70.4304 68.1888 72.2311 67.941 73.7934H57.1426L58.667 60.3543L59.4568 53.3863L59.5308 52.728L66.4871 51.2867L67.9927 50.975L71.8709 50.1719Z" fill="#088CFC"/>
<path d="M79.6603 73.79H69.3023L68.793 68.5273V68.5255L68.5607 66.1142L67.3546 64.2145L67.3391 60.4243L67.3098 53.3829L67.3047 52.2241L68.0033 52.1745L71.5752 51.9178L72.8192 51.828L73.9135 51.751L77.4597 51.4961L77.6455 53.3829L78.1117 58.1084L78.2993 60.0043L79.6603 73.79Z" fill="#088CFC"/>
<path d="M69.1864 26.8722C71.5988 26.9289 72.773 25.5184 73.0259 24.8964L71.977 24.5945L66.0683 24.3945L65.3516 24.6391C65.6541 25.2393 66.7217 26.8144 69.1864 26.8722Z" fill="#F5AC97"/>
<path d="M82.052 52.1981L81.1464 54.0866C81.1082 54.1663 81.1086 54.2609 81.1475 54.3402L81.9613 56.0004C82.0149 56.1098 82.1303 56.168 82.2437 56.143L83.7494 55.8103C83.9458 55.7669 84.112 55.9674 84.0474 56.1698L83.6456 57.4274C83.618 57.5138 83.5522 57.5801 83.4697 57.6045L81.9409 58.0573C81.8994 58.0696 81.8557 58.0706 81.8138 58.0604L78.6465 57.2895L76.9414 51.0295L79.4205 49.0723L82.052 52.1981Z" fill="#EA9D85"/>
<path d="M83.9765 56.4047L81.9585 56.9265L81.1445 56.2266" stroke="#332B27" stroke-width="2.3216" stroke-miterlimit="10"/>
<path d="M83.7685 57.0524L81.9477 57.4405L80.7637 56.7012" stroke="#332B27" stroke-width="2.3216" stroke-miterlimit="10"/>
<path d="M77.7493 42.8694L77.6455 53.3836H59.457L59.541 26.876L65.9139 24.4219C65.9853 24.5614 66.0626 24.7073 66.1578 24.8594L66.1816 24.8911C66.5267 25.3604 67.1872 25.8043 69.0378 25.8487C70.5789 25.8868 71.3347 25.6585 71.7631 25.3604L71.769 25.3541C72.0011 25.1892 72.1856 24.8636 72.2927 24.6861L78.2609 26.2292L77.8563 39.6099L77.7493 42.8694Z" fill="#F3BBBB"/>
<path d="M73.0292 24.8965C73.0292 24.8965 72.5131 34.7061 72.5874 40.3762C72.6617 46.0462 73.0292 60.3754 73.0292 60.3754C73.0292 60.3754 76.3987 60.4513 79.498 59.7825C79.498 59.7825 79.5447 53.291 78.6902 48.8141C77.8357 44.3372 77.8494 25.8833 77.8494 25.8833L73.0292 24.8965Z" fill="#F74242"/>
<path d="M90.6482 41.6054L90.6216 41.6392C89.4559 43.1286 87.3586 43.3307 85.9611 42.0883L74.5742 31.9654C73.1767 30.723 72.9871 28.4879 74.1528 26.9985L74.1794 26.9646C75.3451 25.4753 77.4424 25.2732 78.8399 26.5156L90.2268 36.6385C91.6243 37.881 91.8139 40.116 90.6482 41.6054Z" fill="#F74242"/>
<path d="M72.7695 14.8376C72.7695 14.8376 73.6437 12.5118 72.5725 12.7247C71.5012 12.9377 72.7695 14.8376 72.7695 14.8376Z" fill="#322A28"/>
<path d="M65.3544 24.6387C65.3544 24.6387 67.8416 38.3808 67.9252 45.211C68.0088 52.0412 68.0088 52.0412 68.0088 52.0412L67.724 60.375C67.724 60.375 60.7943 61.2905 58.3716 60.2374C58.3716 60.2374 58.2025 50.3447 58.8464 46.8421C59.4902 43.3395 59.5424 26.8746 59.5424 26.8746L65.3544 24.6387Z" fill="#F74242"/>
<path d="M71.9518 23.454L68.2559 20.582L71.7704 20.7725L71.9518 23.454Z" fill="#E99C84"/>
<path d="M36.1366 36.9737C36.2326 36.6796 38.0033 36.6565 39.2359 37.0707C40.281 37.4204 42.6086 38.5032 43.2926 38.8275L42.0976 43.2893C41.6629 43.2191 40.7617 43.1677 40.3517 43.0742C39.2606 42.8254 37.1646 41.9237 37.2152 41.4903C37.262 41.0607 39.1678 41.4252 39.0493 41.2259C38.9307 41.0266 37.5223 40.2574 36.8896 40.2138C36.2535 40.1663 34.8802 40.3041 34.6802 39.9718C34.4767 39.6356 34.8496 39.2071 34.8496 39.2071C34.8496 39.2071 34.3296 39.3244 34.3204 38.9652C34.3111 38.6059 35.0771 38.2079 35.0771 38.2079C35.0771 38.2079 34.7978 38.3078 34.8795 37.9101C34.9648 37.5087 36.2927 37.3347 36.2927 37.3347C36.2927 37.3347 36.0334 37.2675 36.1366 36.9737Z" fill="#F5AC97"/>
<path d="M66.6304 58.3574C66.6304 58.3574 61.5863 59.2477 59.2363 58.3574" stroke="#ECE9E9" stroke-width="3.5848" stroke-miterlimit="10" stroke-linecap="round" stroke-linejoin="round"/>
<path d="M72.6955 13.0077C72.6955 13.0077 72.9047 15.3519 73.0531 17.0149L73.1758 18.3893C73.2727 19.4753 73.1306 21.1151 72.0171 21.604C70.9072 22.0925 69.2864 21.7433 68.0752 20.5842C66.8635 19.4212 63.9149 13.9299 67.1136 11.4668C70.316 9.0033 72.5665 12.4547 72.6955 13.0077Z" fill="#F5AC97"/>
<path d="M66.2184 20.9047C66.2184 20.9047 67.052 19.4195 66.9957 18.6104C66.9394 17.8013 67.8097 16.8909 67.6693 15.6481C67.5289 14.4054 67.4728 13.8819 68.0764 13.9417C68.68 14.0015 72.9473 15.0188 73.0595 12.8646C73.1719 10.7104 68.13 8.63099 66.0959 12.2812C66.0959 12.2812 64.7434 12.2152 65.1566 15.271C65.5698 18.3266 66.1712 18.8471 66.2184 20.9047Z" fill="#322A28"/>
<path d="M67.4995 18.0201C67.9566 18.6437 68.1045 19.1002 67.6451 19.4826C67.1857 19.8651 66.3631 19.8423 65.906 19.2187C65.4489 18.5951 65.4509 17.7796 65.9103 17.3971C66.3696 17.0147 67.0425 17.3965 67.4995 18.0201Z" fill="#F5AC97"/>
<path d="M69.919 16.3679C69.9415 16.6198 70.0837 16.8114 70.2366 16.7959C70.3895 16.7804 70.4952 16.5636 70.4727 16.3117C70.4502 16.0598 70.3081 15.8682 70.1552 15.8837C70.0023 15.8992 69.8965 16.116 69.919 16.3679Z" fill="#332B27"/>
<path d="M82.745 53.5709L90.9596 41.3549C91.8946 39.8728 91.3745 37.7355 89.7997 36.6009C88.2241 35.4706 86.1667 35.758 85.2277 37.2393L77.3652 50.148L82.745 53.5709Z" fill="#F74242"/>
<path d="M72.5438 16.5619C72.6967 16.5464 72.8025 16.3296 72.78 16.0777C72.7575 15.8258 72.6153 15.6342 72.4624 15.6497C72.3095 15.6652 72.2038 15.8819 72.2263 16.1338C72.2487 16.3857 72.3909 16.5774 72.5438 16.5619Z" fill="#332B27"/>
<path d="M70.5076 17.9848C70.4555 18.2236 70.0521 18.3277 69.6066 18.2174C69.1611 18.1071 68.8422 17.824 68.8942 17.5852C68.9463 17.3464 69.3497 17.2423 69.7952 17.3526C70.2408 17.463 70.5597 17.7461 70.5076 17.9848Z" fill="#E99C84"/>
<path d="M73.0528 17.0156L73.1326 17.9092C72.7831 17.9891 72.4843 17.9143 72.4178 17.7229C72.3445 17.4958 72.6274 17.18 73.0528 17.0156Z" fill="#E99C84"/>
<path d="M66.414 18.6885C66.7931 18.5716 67.1174 18.6172 67.1174 18.6172C66.7122 17.9659 66.2168 18.0967 66.2168 18.0967" stroke="#E99C84" stroke-width="3.4926" stroke-miterlimit="10" stroke-linecap="round" stroke-linejoin="round"/>
<path d="M69.5254 15.891C69.5254 15.891 69.9839 15.3066 70.5906 15.4186" stroke="#322A28" stroke-width="2.2341" stroke-miterlimit="10"/>
<path d="M72.9678 15.2691C72.9678 15.2691 72.5273 14.9004 71.9961 15.2323" stroke="#322A28" stroke-width="2.2341" stroke-miterlimit="10"/>
<path d="M54.4135 48.7051L54.4528 48.719C56.1806 49.3281 58.0619 48.32 58.6336 46.4787L63.291 31.4753C63.8626 29.6339 62.9167 27.6289 61.1888 27.0197L61.1496 27.0059C59.4218 26.3966 57.5404 27.4048 56.9688 29.2462L52.3113 44.2496C51.7397 46.0909 52.6857 48.0959 54.4135 48.7051Z" fill="#F74242"/>
<path d="M41.4277 44.222L54.8648 48.8511C56.481 49.3233 58.2162 48.1168 58.7235 46.1645C59.2267 44.2127 58.3154 42.2259 56.6988 41.7494L42.7489 37.7402L41.4277 44.222Z" fill="#F74242"/>
<path d="M68.793 68.5331L69.6201 65.59H70.4126L71.6745 61.9473" stroke="#ECE9E9" stroke-width="1.8175" stroke-miterlimit="10" stroke-linecap="round" stroke-linejoin="round"/>
<path d="M70.5043 19.2168L71.753 19.6847C71.753 19.6847 71.4966 20.3639 70.8659 20.1691C70.2352 19.9744 70.5043 19.2168 70.5043 19.2168Z" fill="#ECE9E9"/>
<path d="M64.2871 25.9863C64.2871 25.9863 65.2345 34.3849 65.8128 38.5336C66.391 42.6823 66.4911 52.9082 66.6284 56.6969" stroke="#ECE9E9" stroke-width="3.5848" stroke-miterlimit="10" stroke-linecap="round" stroke-linejoin="round"/>
<path d="M74.227 27.6055C74.227 27.6055 73.7266 36.181 73.5495 39.9757C73.3725 43.7702 74.227 57.127 74.227 57.127" stroke="#ECE9E9" stroke-width="3.5848" stroke-miterlimit="10" stroke-linecap="round" stroke-linejoin="round"/>
<path d="M79.065 57.8613C79.065 57.8613 76.6438 58.7214 74.2227 58.0384" stroke="#ECE9E9" stroke-width="3.5848" stroke-miterlimit="10" stroke-linecap="round" stroke-linejoin="round"/>
<path d="M74.6737 43.5922C74.9228 43.5922 75.1247 43.377 75.1247 43.1115C75.1247 42.8461 74.9228 42.6309 74.6737 42.6309C74.4246 42.6309 74.2227 42.8461 74.2227 43.1115C74.2227 43.377 74.4246 43.5922 74.6737 43.5922Z" fill="#ECE9E9"/>
<path d="M74.6737 48.0102C74.9228 48.0102 75.1247 47.795 75.1247 47.5295C75.1247 47.264 74.9228 47.0488 74.6737 47.0488C74.4246 47.0488 74.2227 47.264 74.2227 47.5295C74.2227 47.795 74.4246 48.0102 74.6737 48.0102Z" fill="#ECE9E9"/>
<path d="M75.0077 51.4965C75.2568 51.4965 75.4587 51.2813 75.4587 51.0158C75.4587 50.7504 75.2568 50.5352 75.0077 50.5352C74.7586 50.5352 74.5566 50.7504 74.5566 51.0158C74.5566 51.2813 74.7586 51.4965 75.0077 51.4965Z" fill="#ECE9E9"/>
<path d="M75.2479 55.5766C75.497 55.5766 75.6989 55.3614 75.6989 55.0959C75.6989 54.8304 75.497 54.6152 75.2479 54.6152C74.9988 54.6152 74.7969 54.8304 74.7969 55.0959C74.7969 55.3614 74.9988 55.5766 75.2479 55.5766Z" fill="#ECE9E9"/>
<path d="M66.8054 20.0867C67.4067 19.9983 67.8006 19.2041 67.6852 18.313C67.5698 17.4218 66.9888 16.771 66.3875 16.8594C65.7863 16.9478 65.3924 17.742 65.5078 18.6332C65.6232 19.5244 66.2041 20.1751 66.8054 20.0867Z" fill="#088CFC"/>
<path d="M66.3988 19.7292C66.8051 19.6695 67.0646 19.0821 66.9785 18.4172C66.8924 17.7523 66.4933 17.2618 66.0871 17.3215C65.6809 17.3813 65.4214 17.9687 65.5074 18.6335C65.5935 19.2984 65.9926 19.789 66.3988 19.7292Z" fill="#2EC6FC"/>
<path d="M66.9629 19.709C66.9629 19.709 68.6022 21.5946 71.1125 21.3218" stroke="#088CFC" stroke-width="3.3951" stroke-miterlimit="10"/>
<path d="M71.2749 21.6766C71.581 21.6766 71.8291 21.5243 71.8291 21.3363C71.8291 21.1484 71.581 20.9961 71.2749 20.9961C70.9688 20.9961 70.7207 21.1484 70.7207 21.3363C70.7207 21.5243 70.9688 21.6766 71.2749 21.6766Z" fill="#088CFC"/>
<path d="M66.5967 17.0162C66.5967 17.0162 65.5609 12.0664 68.8563 10.3257C68.8563 10.3257 67.7607 10.1366 67.0706 11.0925C67.0706 11.0925 65.2072 13.1571 65.8123 17.2423L66.5967 17.0162Z" fill="#088CFC"/>
<path d="M59.1758 44.7288L61.8 36.2754" stroke="#ECE9E9" stroke-width="3.5848" stroke-miterlimit="10" stroke-linecap="round" stroke-linejoin="round"/>
<path d="M101.455 81.9997H18.8584C18.3843 81.9997 18 81.5901 18 81.0849V80.8582C18 80.3529 18.3843 79.9434 18.8584 79.9434H101.455C101.929 79.9434 102.313 80.353 102.313 80.8582V81.0849C102.313 81.5901 101.929 81.9997 101.455 81.9997Z" fill="#0775EF"/>
<path d="M42.3401 9.34726C42.178 9.12184 41.6204 8.61417 41.2675 8.65929C40.9607 8.69849 40.7607 9.22715 40.4516 9.24081C40.2464 9.24986 39.8215 9.04245 39.5142 8.61307C39.5142 8.61307 38.8561 7.85852 38.8996 7.49258C38.9432 7.12663 39.5074 7.06786 39.5258 6.57013C39.5357 6.30389 39.1551 5.60686 38.8445 5.37579C38.7303 5.29079 38.5781 5.29131 38.465 5.37793C38.179 5.59702 37.5908 6.16226 37.6622 7.06383C37.7561 8.24943 38.7369 9.21773 38.7369 9.21773C38.7369 9.21773 39.7041 10.3793 40.567 10.5626C41.5082 10.7626 42.0338 10.3469 42.2967 10.0024C42.5595 9.65799 42.5021 9.57273 42.3401 9.34726Z" fill="#E5F0F8"/>
<path d="M20.1895 24.9471L21.1011 23.9825C21.1332 23.9505 21.1642 23.9157 21.1942 23.8781C21.2242 23.8405 21.2509 23.8011 21.2745 23.7601C21.298 23.719 21.3167 23.6757 21.3307 23.6301C21.3446 23.5845 21.3515 23.5365 21.3515 23.4864C21.3515 23.4271 21.3413 23.3735 21.321 23.3256C21.3007 23.2777 21.2729 23.2373 21.2376 23.2042C21.2022 23.1712 21.1605 23.1455 21.1124 23.1272C21.0642 23.109 21.0134 23.0998 20.9599 23.0998C20.8487 23.0998 20.7566 23.1329 20.6838 23.1991C20.6111 23.2652 20.565 23.3564 20.5458 23.4727L20.212 23.4419C20.2269 23.3348 20.2564 23.2418 20.3002 23.1631C20.3441 23.0844 20.3987 23.0189 20.464 22.9664C20.5292 22.914 20.6041 22.8752 20.6887 22.8501C20.7732 22.8251 20.8646 22.8125 20.9631 22.8125C21.0615 22.8125 21.1541 22.8268 21.2407 22.8553C21.3274 22.8838 21.4033 22.926 21.4687 22.9819C21.5339 23.0378 21.5853 23.1073 21.6228 23.1905C21.6602 23.2738 21.679 23.3713 21.679 23.483C21.679 23.5629 21.6677 23.6376 21.6452 23.7071C21.6227 23.7767 21.5933 23.8422 21.557 23.9038C21.5206 23.9654 21.4788 24.0236 21.4318 24.0783C21.3846 24.133 21.3355 24.1866 21.2841 24.2391L20.5362 25.0088H21.679V25.2962H20.1895V24.9471Z" fill="#F3BBBB"/>
<path d="M22.905 24.7614H21.9355V24.4262L22.8408 22.873H23.2132V24.4741H23.5342V24.7614H23.2132V25.2951H22.905V24.7614ZM22.905 23.2631H22.8986L22.2052 24.4741H22.905V23.2631Z" fill="#F3BBBB"/>
<path d="M23.836 25.4458L23.6113 25.3569L24.6386 22.7227L24.86 22.8116L23.836 25.4458Z" fill="#F3BBBB"/>
<path d="M26.0952 23.1604H24.9941V22.873H26.4226V23.1536L25.5174 25.2951H25.1707L26.0952 23.1604Z" fill="#F3BBBB"/>
<path d="M21.475 28.0804C20.0315 27.3278 19.1348 25.797 19.1348 24.0854C19.1348 21.6346 21.0058 19.6406 23.3055 19.6406C25.6052 19.6406 27.4762 21.6346 27.4762 24.0854C27.4762 25.5254 26.8169 26.8824 25.7127 27.7155L25.5754 27.5087C26.6167 26.723 27.2384 25.4433 27.2384 24.0854C27.2384 21.7743 25.4741 19.894 23.3055 19.894C21.1368 19.894 19.3725 21.7743 19.3725 24.0854C19.3725 25.6995 20.2182 27.1431 21.5795 27.8528L21.475 28.0804Z" fill="#F3BBBB"/>
<path d="M25.2383 27.8999L26.3869 27.7788L25.7141 26.7793L25.2383 27.8999Z" fill="#F3BBBB"/>
<path d="M96.6504 73.2928L97.5621 72.3282C97.5941 72.2962 97.6252 72.2614 97.6552 72.2238C97.6851 72.1862 97.7119 72.1468 97.7354 72.1058C97.7589 72.0647 97.7777 72.0214 97.7916 71.9758C97.8055 71.9302 97.8124 71.8822 97.8124 71.8321C97.8124 71.7728 97.8023 71.7192 97.782 71.6713C97.7616 71.6234 97.7339 71.583 97.6985 71.5499C97.6632 71.5169 97.6214 71.4912 97.5733 71.4729C97.5251 71.4547 97.4743 71.4455 97.4208 71.4455C97.3096 71.4455 97.2175 71.4786 97.1448 71.5448C97.072 71.6109 97.026 71.7021 97.0068 71.8184L96.6729 71.7876C96.6879 71.6805 96.7173 71.5875 96.7612 71.5088C96.805 71.4302 96.8596 71.3646 96.9249 71.3121C96.9901 71.2597 97.0651 71.2209 97.1496 71.1958C97.2341 71.1708 97.3256 71.1582 97.4241 71.1582C97.5224 71.1582 97.6151 71.1725 97.7017 71.201C97.7884 71.2295 97.8643 71.2717 97.9297 71.3276C97.9949 71.3835 98.0462 71.453 98.0837 71.5362C98.1211 71.6195 98.1399 71.717 98.1399 71.8288C98.1399 71.9086 98.1286 71.9833 98.1062 72.0528C98.0837 72.1224 98.0542 72.1879 98.0179 72.2495C97.9815 72.3111 97.9398 72.3693 97.8927 72.424C97.8456 72.4787 97.7964 72.5323 97.745 72.5848L96.9971 73.3545H98.1399V73.6419H96.6504V73.2928Z" fill="#F3BBBB"/>
<path d="M99.364 73.1071H98.3945V72.7719L99.2998 71.2188H99.6722V72.8198H99.9932V73.1071H99.6722V73.6408H99.364V73.1071ZM99.364 71.6088H99.3576L98.6642 72.8198H99.364V71.6088Z" fill="#F3BBBB"/>
<path d="M100.297 73.7935L100.072 73.7045L101.099 71.0703L101.321 71.1593L100.297 73.7935Z" fill="#F3BBBB"/>
<path d="M102.556 71.5061H101.455V71.2188H102.884V71.4993L101.978 73.6408H101.632L102.556 71.5061Z" fill="#F3BBBB"/>
<path d="M97.9359 76.428C96.4924 75.6754 95.5957 74.1447 95.5957 72.4331C95.5957 69.9822 97.4667 67.9883 99.7664 67.9883C102.066 67.9883 103.937 69.9822 103.937 72.4331C103.937 73.873 103.278 75.2301 102.174 76.0632L102.036 75.8564C103.078 75.0707 103.699 73.7909 103.699 72.4331C103.699 70.1219 101.935 68.2416 99.7664 68.2416C97.5978 68.2416 95.8334 70.1219 95.8334 72.4331C95.8334 74.0471 96.6791 75.4907 98.0404 76.2004L97.9359 76.428Z" fill="#F3BBBB"/>
<path d="M101.701 76.2476L102.85 76.1264L102.177 75.127L101.701 76.2476Z" fill="#F3BBBB"/>
<path d="M85.5991 43.7785C85.5991 44.3577 85.216 44.8656 84.6399 45.152C84.326 45.3085 83.9543 45.3987 83.5564 45.3987C83.3262 45.3987 83.1051 45.3681 82.8985 45.3126L81.3965 45.9968L81.8269 44.6408C81.6286 44.391 81.5133 44.0955 81.5133 43.7785C81.5133 42.8835 82.4279 42.1582 83.5563 42.1582C84.3633 42.1582 85.0609 42.5294 85.3929 43.0683C85.5249 43.2827 85.5991 43.5237 85.5991 43.7785Z" fill="#ECE9E9"/>
<path d="M95.0952 37.1508C94.6776 37.0333 94.2694 36.9014 93.9116 36.7694C93.8474 36.7449 93.7832 36.7205 93.7238 36.7205C92.9899 36.6913 92.3613 36.1143 92.3613 35.0536C92.3613 33.9978 92.9668 33.3184 93.8015 33.3184C94.6411 33.3184 95.1867 34.0125 95.1867 34.9851C95.1867 35.8309 94.82 36.3735 94.306 36.5641V36.5836C94.6134 36.6668 94.9484 36.745 95.2098 36.7939L95.0952 37.1508ZM94.7646 35.0048C94.7646 34.3449 94.4438 33.6654 93.788 33.6654C93.1134 33.6654 92.7833 34.3301 92.7878 35.0438C92.7833 35.7429 93.1456 36.3734 93.7693 36.3734C94.4072 36.3734 94.7646 35.7574 94.7646 35.0048Z" fill="#ECE9E9"/>
<path d="M52.5588 7.59119L52.3911 7.50782L52.3904 7.50944L52.3897 7.50803C52.4767 7.23828 52.5239 6.9488 52.5239 6.6477C52.5239 5.18529 51.4115 4 50.0394 4C48.6672 4 47.555 5.18529 47.555 6.6477C47.555 6.94959 47.6024 7.23964 47.6897 7.50991V7.51012L47.5262 7.59124C47.5136 7.59752 47.5082 7.61359 47.5141 7.6271L47.852 8.39949C47.8579 8.413 47.873 8.41891 47.8856 8.41263L48.0532 8.32915L48.0548 8.33266L48.1385 8.35244L48.4634 8.42948L48.4807 8.43357C48.4807 8.43357 48.5539 8.48512 48.6037 8.46036L48.8255 8.35009C48.876 8.32512 48.8978 8.26122 48.8743 8.20747L48.3115 6.92096C48.2879 6.86721 48.228 6.84392 48.1775 6.86904L47.9556 6.97931C47.9052 7.00444 47.8958 7.09697 47.8958 7.09697L47.8149 7.26303C47.7672 7.06645 47.7417 6.8603 47.7417 6.64765C47.7417 5.29535 48.7705 4.19888 50.0394 4.19888C51.3083 4.19888 52.337 5.2953 52.337 6.64765C52.337 6.85716 52.3124 7.06039 52.2659 7.25435L52.1891 7.09697C52.1891 7.09697 52.1796 7.00423 52.1295 6.97931L51.9076 6.86904C51.8572 6.84392 51.7972 6.86721 51.7736 6.92096L51.2108 8.20731C51.1873 8.26106 51.2092 8.32502 51.2596 8.34993L51.4815 8.4602C51.5319 8.48533 51.6044 8.43341 51.6044 8.43341L51.6136 8.43121C51.2638 8.78203 50.8108 9.01723 50.3085 9.07967C50.2832 9.02555 50.2322 8.98751 50.172 8.98342L49.6584 8.94961C49.5962 8.94553 49.5403 8.97882 49.5095 9.03089C49.4935 9.05785 49.4843 9.08961 49.4843 9.124V9.28991C49.4843 9.39061 49.5641 9.47042 49.6584 9.46414L50.172 9.43033C50.2514 9.42515 50.3147 9.3603 50.3244 9.27829C50.9703 9.19958 51.541 8.85708 51.939 8.35422L52.0304 8.33261L52.0319 8.3292L52.1995 8.41247C52.2122 8.41875 52.2272 8.41294 52.2331 8.39944L52.5711 7.62704C52.5769 7.61354 52.5715 7.59747 52.5588 7.59119ZM52.3891 7.51242L52.3866 7.51813V7.51797L52.3891 7.51242ZM52.3863 7.51881L52.3862 7.51897L52.3863 7.51881Z" fill="#E5F0F8"/>
<path d="M43.7298 25.1444C43.7697 22.9311 42.1184 21.1024 40.0416 21.0599C37.9647 21.0174 36.2488 22.7772 36.2089 24.9905C36.1691 27.2038 37.8203 29.0325 39.8971 29.075C41.974 29.1175 43.6899 27.3577 43.7298 25.1444Z" fill="#40A87B"/>
<path d="M43.1329 27.8968C44.6017 26.3315 44.6017 23.7935 43.1329 22.2282C41.6641 20.6628 39.2826 20.6628 37.8138 22.2282C36.345 23.7935 36.345 26.3315 37.8138 27.8968C39.2826 29.4622 41.6641 29.4622 43.1329 27.8968Z" fill="#6ADB6A"/>
<path d="M42.454 26.0192C42.3225 25.8363 41.8701 25.4245 41.5839 25.4611C41.335 25.4929 41.1728 25.9217 40.9221 25.9328C40.7555 25.9402 40.4109 25.7719 40.1616 25.4236C40.1616 25.4236 39.6277 24.8115 39.663 24.5146C39.6983 24.2178 40.156 24.1701 40.1709 23.7663C40.1789 23.5503 39.8702 22.9849 39.6183 22.7974C39.5257 22.7285 39.4021 22.7289 39.3104 22.7992C39.0784 22.9769 38.6012 23.4354 38.6591 24.1668C38.7353 25.1286 39.531 25.9141 39.531 25.9141C39.531 25.9141 40.3157 26.8564 41.0155 27.0052C41.7791 27.1675 42.2054 26.8302 42.4187 26.5507C42.6321 26.2712 42.5855 26.202 42.454 26.0192Z" fill="#ECE9E9"/>
</svg>
