<svg width="116" height="95" viewBox="0 0 116 95" fill="none" xmlns="http://www.w3.org/2000/svg">
<rect width="116" height="95" fill="white"/>
<path d="M91.1994 72.1666C89.4631 73.7206 87.8203 74.7228 86.5223 75.5146C71.2648 84.8217 53.2111 82.1087 49.3742 81.4462C43.7083 80.4678 32.7562 78.5767 24.838 70.6603C12.8585 58.6834 14.7238 39.8142 24.016 27.3584C25.7157 25.08 34.6939 12.4345 52.942 10.4066C63.9856 9.17926 76.8588 11.6546 86.1813 18.2946C105.75 32.2328 104.357 60.3904 91.1994 72.1666Z" fill="white"/>
<path d="M15.1337 39.012C14.9276 38.9358 14.9701 38.645 15.1902 38.6285C18.7034 38.3656 31.6183 38.1465 43.1796 47.554C53.7575 56.1615 59.7112 63.8651 61.8056 66.8167C62.2197 67.4003 61.827 68.1967 61.0944 68.2577C56.7527 68.6186 44.5405 69.0181 38.2143 62.9523C30.6546 55.7035 24.9655 42.6499 15.1337 39.012Z" fill="#91F27E"/>
<path opacity="0.5" d="M26.3672 42.9355C26.3672 42.9355 38.3708 44.9778 60.9276 67.0817C60.9276 67.0817 37.0334 46.0213 26.3672 42.9355Z" fill="#ECE9E9"/>
<path d="M60.9774 67.4332C60.9774 67.4332 55.1051 32.0102 38.2493 11.8059C37.1161 10.4477 34.7903 10.7932 34.1524 12.4197C29.8869 23.2953 20.6133 56.52 60.9774 67.4332Z" fill="#6ADB6A"/>
<path opacity="0.5" d="M57.4145 64.9424C57.4993 65.0315 57.3657 65.1551 57.2685 65.0775C53.6865 62.2147 40.0791 48.4049 36.8951 22.425C36.8849 22.3416 37.0188 22.3187 37.0368 22.4009C38.364 28.461 44 50.8546 57.4145 64.9424Z" fill="#ECE9E9"/>
<path d="M75.5449 67.3512C75.5449 67.3512 76.2249 40.1756 88.0709 23.3356C88.8672 22.2036 90.8823 22.2323 91.621 23.3901C96.5604 31.1317 108.462 55.1547 75.5449 67.3512Z" fill="#98F386"/>
<path opacity="0.5" d="M78.2641 65.1292C78.2029 65.2045 78.3313 65.2841 78.4043 65.2161C81.0954 62.7116 90.9622 50.9945 90.5083 31.1748C90.5068 31.1111 90.3904 31.1072 90.3851 31.1707C89.9951 35.8519 87.9334 53.2225 78.2641 65.1292Z" fill="#ECE9E9"/>
<path d="M51.4914 27.5986C51.3508 27.5986 51.2347 27.5036 51.2303 27.3833C51.2288 27.3445 51.1041 23.4546 52.4329 19.4265C53.2168 17.0499 54.3461 15.0876 55.7894 13.594C57.6066 11.7134 59.9247 10.5762 62.6791 10.2137C65.0989 9.89532 67.25 10.3818 69.0732 11.6591C71.5765 13.413 73.4378 16.5936 74.6057 21.1124C75.471 24.4606 75.6103 27.3391 75.6116 27.3678C75.6172 27.4903 75.5048 27.5936 75.3606 27.5984C75.2163 27.6032 75.0949 27.5076 75.0893 27.385C75.0841 27.272 74.5062 16.0409 68.7403 12.0017C67.0373 10.8087 65.0248 10.3546 62.7592 10.6529C60.1356 10.9981 57.9265 12.0825 56.1933 13.8761C54.7963 15.3218 53.7004 17.2296 52.9361 19.5465C51.6287 23.5097 51.7513 27.3314 51.7528 27.3695C51.7573 27.4922 51.6439 27.5947 51.4996 27.5985C51.4968 27.5985 51.4941 27.5986 51.4914 27.5986Z" fill="url(#paint0_linear_333_57446)"/>
<path d="M29.3293 75.9654L38.3704 23.8562L72.3342 23.3789L83.2812 78.8616H32.2703C30.4557 78.8616 29.0645 77.4916 29.3293 75.9654Z" fill="url(#paint1_linear_333_57446)"/>
<path d="M78.9283 23.8562L72.332 23.3789L83.279 78.8616H89.8276C91.1552 78.8616 92.1475 77.8243 91.8768 76.7192L78.9283 23.8562Z" fill="url(#paint2_linear_333_57446)"/>
<path d="M44.8169 30.1586C44.6819 30.1586 44.5628 30.1379 44.461 30.108C43.7368 29.8957 43.3287 29.0777 43.2458 28.3613C43.1572 27.5976 43.4139 26.9685 43.9156 26.7194C43.9905 26.6823 44.0864 26.7037 44.13 26.7673C44.1737 26.8309 44.1485 26.9125 44.0738 26.9496C43.6851 27.1426 43.4826 27.6864 43.5578 28.3351C43.6444 29.0824 44.0578 29.7078 44.5633 29.856C44.9552 29.971 45.4155 29.8069 45.8936 29.3812C45.9535 29.3279 46.0527 29.3261 46.1153 29.3769C46.1779 29.4277 46.1803 29.5122 46.1204 29.5654C45.6046 30.0246 45.16 30.1586 44.8169 30.1586Z" fill="url(#paint3_linear_333_57446)"/>
<path d="M55.4548 44.5775C55.5548 44.4352 55.582 44.2645 55.5305 44.1047C54.7638 41.7229 52.0114 33.1945 51.873 33.0784C51.712 32.9435 46.796 27.9455 46.796 27.9455C45.8901 27.0252 45.4144 27.7319 45.4144 27.7319L41.7812 35.143L45.4861 46.1253C45.5909 46.4359 45.9631 46.6225 46.3336 46.5502L55.0009 44.8582C55.1909 44.8211 55.3548 44.7197 55.4548 44.5775ZM45.5797 30.6364C45.1797 30.3011 45.1751 29.7536 45.5695 29.4135C45.9639 29.0735 46.6079 29.0696 47.0079 29.4049C47.4078 29.7402 47.4124 30.2877 47.018 30.6277C46.6236 30.9678 45.9796 30.9716 45.5797 30.6364Z" fill="#ECE9E9"/>
<path d="M47.2852 37.8973C47.8416 39.1408 47.4928 39.9705 46.7929 40.1968C46.0774 40.4282 45.2112 39.981 44.6958 38.849C44.1962 37.7326 44.4256 36.8169 45.2119 36.5626C46.0218 36.3007 46.8101 36.8354 47.2852 37.8973ZM47.9173 42.6696L48.1528 35.6116L48.7032 35.4336L48.4676 42.4916L47.9173 42.6696ZM45.4186 38.5737C45.7154 39.257 46.1511 39.6875 46.5363 39.5629C46.9217 39.4383 46.8991 38.9053 46.5783 38.1883C46.2859 37.5348 45.8931 37.0592 45.4764 37.194C45.0832 37.3211 45.1221 37.9111 45.4186 38.5737ZM51.9044 39.2089C52.4567 40.4432 52.1197 41.2795 51.412 41.5083C50.7044 41.7372 49.8304 41.2925 49.3187 40.1489C48.8233 39.0416 49.0485 38.1168 49.8269 37.8651C50.6369 37.6031 51.4293 38.1469 51.9044 39.2089ZM50.0378 39.8851C50.3305 40.5593 50.7701 40.999 51.1554 40.8744C51.5486 40.7472 51.5183 40.2168 51.1975 39.4998C50.901 38.8372 50.5123 38.3707 50.0956 38.5054C49.7024 38.6326 49.7414 39.2226 50.0378 39.8851Z" fill="url(#paint4_linear_333_57446)"/>
<path d="M46.0047 29.6069C45.9739 29.6069 45.9427 29.5992 45.9154 29.5831C45.8442 29.5412 45.8266 29.4581 45.876 29.3976C46.3027 28.8748 46.33 28.1089 45.9409 27.5766C45.5968 27.106 44.9828 26.9007 44.2111 26.9985C44.1263 27.0096 44.0457 26.959 44.033 26.8863C44.0202 26.8135 44.0793 26.7456 44.165 26.7348C45.3825 26.5801 45.9673 27.1078 46.2072 27.4359C46.6594 28.0544 46.6285 28.9433 46.1336 29.5496C46.1032 29.5869 46.0544 29.6069 46.0047 29.6069Z" fill="url(#paint5_linear_333_57446)"/>
<path d="M68.0514 27.4794C67.9117 27.4794 67.7959 27.3855 67.7904 27.2658C67.7852 27.1529 67.2074 15.9218 61.4415 11.8826C59.7384 10.6895 57.7264 10.2354 55.4604 10.5338C52.8386 10.8787 50.6308 11.9619 48.8982 13.7531C47.5013 15.1973 46.4052 17.1032 45.6404 19.4179C44.3308 23.3814 44.4525 27.2122 44.4539 27.2504C44.4583 27.373 44.345 27.4755 44.2008 27.4793C44.198 27.4794 44.1953 27.4794 44.1926 27.4794C44.0519 27.4794 43.9358 27.3844 43.9314 27.2641C43.93 27.2253 43.8053 23.3354 45.134 19.3073C45.918 16.9308 47.0473 14.9684 48.4907 13.4748C50.3079 11.5943 52.626 10.457 55.3804 10.0946C57.8003 9.77623 59.9512 10.2625 61.7745 11.54C64.2778 13.2939 66.1391 16.4744 67.3069 20.9933C68.1722 24.3414 68.3114 27.2199 68.3127 27.2486C68.3183 27.3712 68.206 27.4744 68.0617 27.4792C68.0582 27.4794 68.0548 27.4794 68.0514 27.4794Z" fill="url(#paint6_linear_333_57446)"/>
<path d="M29.7148 61.9668C29.7148 61.9668 36.2311 76.5772 38.2898 79.6166C40.6796 83.1447 47.6589 80.8965 47.3116 77.9439C46.9643 74.9912 38.81 62.7869 38.81 62.7869L29.7148 61.9668Z" fill="#F5220D"/>
<path d="M38.5189 51.323L79.0197 39.3848L78.5944 71.6915L37.4121 63.8795L38.5189 51.323Z" fill="#A31F12"/>
<path d="M79.0591 72.2347C81.2567 72.2347 83.0382 64.8014 83.0382 55.632C83.0382 46.4626 81.2567 39.0293 79.0591 39.0293C76.8616 39.0293 75.0801 46.4626 75.0801 55.632C75.0801 64.8014 76.8616 72.2347 79.0591 72.2347Z" fill="#FF928E"/>
<path d="M79.3604 71.1005C79.0008 70.7896 78.2174 69.59 77.5457 66.488C76.8965 63.4903 76.5391 59.602 76.5391 55.5396C76.5391 51.477 76.8965 47.5888 77.5457 44.5911C78.2174 41.4891 79.0009 40.2895 79.3604 39.9785C79.7201 40.2895 80.5035 41.4891 81.1752 44.5911C81.8244 47.5888 82.1819 51.4771 82.1819 55.5396C82.1819 59.602 81.8244 63.4903 81.1752 66.488C80.5036 69.59 79.7201 70.7896 79.3604 71.1005Z" fill="#FE7062"/>
<mask id="mask0_333_57446" style="mask-type:luminance" maskUnits="userSpaceOnUse" x="76" y="39" width="11" height="33">
<path d="M79.3604 71.1005C79.0008 70.7896 78.2174 69.59 77.5457 66.488C76.8965 63.4903 76.5391 59.602 76.5391 55.5396C76.5391 51.477 76.8965 47.5888 77.5457 44.5911C78.2174 41.4891 79.0008 40.2895 79.3604 39.9785C79.7201 40.2895 80.5035 41.4891 81.1752 44.5911C81.8244 47.5888 86.9468 51.4771 86.9468 55.5396C86.9468 59.602 81.8244 63.4903 81.1752 66.488C80.5036 69.59 79.7201 70.7896 79.3604 71.1005Z" fill="white"/>
</mask>
<g mask="url(#mask0_333_57446)">
<path d="M84.4616 55.4145C84.4616 58.2355 82.6741 60.5223 79.1363 60.5223C75.5985 60.5223 72.7305 58.2354 72.7305 55.4145C72.7305 52.5935 75.5985 50.3066 79.1363 50.3066C82.6741 50.3066 84.4616 52.5935 84.4616 55.4145Z" fill="#A31F12"/>
</g>
<path d="M31.9877 50.6288C33.8929 50.4407 36.625 50.373 39.5789 50.9481C38.6057 55.2702 38.7526 59.7751 39.8782 64.4398H31.5465C30.2181 64.4398 29.0855 63.6195 28.8783 62.504C28.463 60.268 27.9554 56.5099 28.4967 53.4915C28.7683 51.9768 30.1974 50.8055 31.9877 50.6288Z" fill="#FF928E"/>
<path d="M36.987 53.9383H30.4957C30.2753 53.9383 30.0809 53.8401 29.9756 53.6755C29.8703 53.511 29.8789 53.3188 29.9986 53.1616C30.0488 53.0958 30.1521 53.0773 30.2295 53.1195C30.3069 53.1621 30.329 53.25 30.2789 53.3158C30.2268 53.3844 30.223 53.4681 30.2689 53.5399C30.3148 53.6116 30.3996 53.6544 30.4957 53.6544H36.9871C37.1294 53.6544 37.2452 53.5561 37.2452 53.435V53.0423C37.2452 52.9213 37.1294 52.8229 36.9871 52.8229H30.4475C30.3553 52.8229 30.2806 52.7593 30.2806 52.681C30.2806 52.6026 30.3553 52.5391 30.4475 52.5391H36.987C37.3135 52.5391 37.579 52.7649 37.579 53.0423V53.4351C37.579 53.7125 37.3135 53.9383 36.987 53.9383Z" fill="#FF928E"/>
<path d="M36.4089 56.3836H29.9175C29.6972 56.3836 29.5028 56.2854 29.3975 56.1208C29.2922 55.9563 29.3008 55.7641 29.4205 55.6069C29.4706 55.5412 29.574 55.5226 29.6513 55.5648C29.7287 55.6074 29.7509 55.6953 29.7008 55.7612C29.6486 55.8297 29.6448 55.9134 29.6907 55.9852C29.7366 56.0569 29.8214 56.0998 29.9175 56.0998H36.4089C36.5512 56.0998 36.667 56.0014 36.667 55.8804V55.4877C36.667 55.3667 36.5512 55.2682 36.4089 55.2682H29.8694C29.7771 55.2682 29.7025 55.2046 29.7025 55.1263C29.7025 55.0479 29.7771 54.9844 29.8694 54.9844H36.4089C36.7353 54.9844 37.0009 55.2102 37.0009 55.4877V55.8804C37.0009 56.1578 36.7353 56.3836 36.4089 56.3836Z" fill="#FF928E"/>
<path d="M44.4052 50.4498C44.3345 50.4498 44.2688 50.4113 44.2462 50.3509C44.2182 50.2762 44.2668 50.1964 44.3546 50.1726L75.0294 41.8739C75.1172 41.8501 75.2111 41.8914 75.2391 41.9661C75.2671 42.0408 75.2185 42.1206 75.1307 42.1444L44.4559 50.4431C44.439 50.4477 44.422 50.4498 44.4052 50.4498Z" fill="#91F27E"/>
<path d="M40.2569 51.8892C40.1911 51.8892 40.1288 51.8559 40.1023 51.8009C40.0674 51.7284 40.1083 51.6456 40.1937 51.6159L41.7724 51.0673C41.8577 51.0375 41.9552 51.0725 41.9901 51.145C42.025 51.2175 41.9841 51.3004 41.8987 51.3301L40.32 51.8787C40.2993 51.8859 40.2779 51.8892 40.2569 51.8892Z" fill="#91F27E"/>
<path d="M36.987 59.2468H30.4956C30.2753 59.2468 30.0809 59.1486 29.9756 58.9841C29.8703 58.8195 29.8789 58.6274 29.9986 58.4701C30.0488 58.4042 30.1521 58.3857 30.2295 58.428C30.3068 58.4706 30.329 58.5585 30.2789 58.6242C30.2267 58.6929 30.2229 58.7767 30.2689 58.8485C30.3148 58.9202 30.3996 58.963 30.4956 58.963H36.987C37.1294 58.963 37.2452 58.8645 37.2452 58.7435V58.3509C37.2452 58.2298 37.1294 58.1315 36.987 58.1315H30.4475C30.3553 58.1315 30.2806 58.0679 30.2806 57.9896C30.2806 57.9112 30.3553 57.8477 30.4475 57.8477H36.987C37.3135 57.8477 37.579 58.0735 37.579 58.3509V58.7435C37.579 59.021 37.3135 59.2468 36.987 59.2468Z" fill="#FF928E"/>
<path d="M37.5964 62.4227H31.105C30.8847 62.4227 30.6903 62.3245 30.585 62.1599C30.4797 61.9954 30.4883 61.8032 30.608 61.6459C30.6581 61.5801 30.7615 61.5615 30.8388 61.6038C30.9162 61.6464 30.9383 61.7343 30.8883 61.8C30.8361 61.8687 30.8323 61.9525 30.8783 62.0243C30.9242 62.096 31.009 62.1388 31.105 62.1388H37.5964C37.7388 62.1388 37.8546 62.0404 37.8546 61.9194V61.5267C37.8546 61.4056 37.7388 61.3072 37.5964 61.3072H31.0569C30.9647 61.3072 30.89 61.2437 30.89 61.1653C30.89 61.087 30.9647 61.0234 31.0569 61.0234H37.5964C37.9228 61.0234 38.1884 61.2492 38.1884 61.5267V61.9194C38.1884 62.1968 37.9228 62.4227 37.5964 62.4227Z" fill="#FF928E"/>
<path d="M43.3936 79.6967C43.0945 79.6967 42.7922 79.6693 42.4906 79.6134C41.1708 79.3689 40.0964 78.629 39.5428 77.5835L34.3566 67.7881C34.3187 67.7167 34.3562 67.6327 34.4402 67.6004C34.5243 67.5682 34.6231 67.6003 34.661 67.6717L39.8472 77.4671C40.3569 78.4296 41.3463 79.1109 42.5616 79.336C43.7561 79.5574 44.9647 79.2946 45.8779 78.6152C45.9269 78.5788 45.976 78.5413 46.0254 78.503C46.0935 78.4501 46.199 78.4541 46.2612 78.512C46.3234 78.5699 46.3187 78.6597 46.2506 78.7125C46.1994 78.7524 46.1484 78.791 46.0977 78.8287C45.3349 79.3962 44.3825 79.6967 43.3936 79.6967Z" fill="#FF928E"/>
<path d="M33.7417 66.4234C33.678 66.4234 33.6172 66.3923 33.5894 66.3398L33.0109 65.247C32.973 65.1756 33.0105 65.0916 33.0945 65.0594C33.1785 65.0272 33.2774 65.0592 33.3152 65.1305L33.8938 66.2232C33.9317 66.2947 33.8942 66.3787 33.8101 66.4109C33.7879 66.4195 33.7646 66.4234 33.7417 66.4234Z" fill="#FF928E"/>
<path d="M83.5141 55.2679C83.4273 55.2679 83.354 55.2108 83.3478 55.136C83.2324 53.7538 82.6689 52.7233 81.6729 52.0732C79.9505 50.9489 77.4927 51.3352 77.468 51.3394C77.377 51.3541 77.29 51.3039 77.2726 51.227C77.2551 51.15 77.3144 51.0755 77.4049 51.0608C77.5114 51.0433 80.0359 50.6469 81.8762 51.848C82.9513 52.5497 83.5584 53.6492 83.6808 55.1158C83.6873 55.194 83.618 55.2619 83.5261 55.2674C83.5221 55.2678 83.5181 55.2679 83.5141 55.2679Z" fill="#91F27E"/>
<path d="M18.0163 82.8677C18.0163 82.8677 17.7788 83.186 17.719 84.0772C17.7135 84.1602 17.7908 84.231 17.8886 84.231H19.7463C19.821 84.231 19.8744 84.1687 19.8504 84.1085C19.7416 83.8345 19.4125 83.1668 18.6781 82.7852L18.0163 82.8677Z" fill="#E8E7EE"/>
<path d="M17.9375 82.2627L18.0426 83.0117C18.0516 83.0763 18.1112 83.1281 18.1872 83.1355C18.2888 83.1454 18.4365 83.1525 18.58 83.1323C18.7105 83.114 18.8044 83.0153 18.8044 82.9028V82.1797L17.9375 82.2627Z" fill="url(#paint7_linear_333_57446)"/>
<path d="M22.6157 82.7852C22.6157 82.7852 22.2601 83.255 22.2677 83.8999C22.2695 84.0518 22.4191 84.1728 22.5978 84.1728H25.4829C25.6179 84.1728 25.6728 84.0252 25.5622 83.9593C25.0163 83.6333 23.9433 83.0245 23.1672 82.7852H22.6157Z" fill="#E8E7EE"/>
<path d="M22.3164 81.9765L22.5405 82.9015C22.5656 83.0049 22.6846 83.0745 22.8059 83.0515C22.8796 83.0375 22.9666 83.0107 23.0595 82.9613C23.1479 82.9144 23.1926 82.8251 23.1745 82.7378L22.9427 81.6172L22.3164 81.9765Z" fill="url(#paint8_linear_333_57446)"/>
<path d="M18.3487 69.1152C18.3487 69.1152 17.5695 69.6993 17.4228 70.402C17.2762 71.1046 17.8383 82.5256 17.8383 82.5256C17.8383 82.5256 18.6175 82.6358 19.0192 82.4288C19.0192 82.4288 19.4956 75.0168 19.8577 73.304C19.8577 73.304 21.7568 80.9819 22.283 82.3693C22.283 82.3693 23.0337 82.4469 23.2757 82.3255C23.2757 82.3255 22.7783 72.3727 22.1532 70.6032L18.3487 69.1152Z" fill="#FF8D88"/>
<path d="M19.8339 73.075C19.791 73.075 19.7519 73.0505 19.7406 73.0136L19.4191 71.9652L18.7358 71.5925C18.691 71.5681 18.6779 71.5173 18.7067 71.4792C18.7355 71.4411 18.7953 71.4298 18.84 71.4545L19.5551 71.8445C19.5755 71.8556 19.5903 71.8728 19.5964 71.8928L19.9274 72.9722C19.9408 73.0161 19.9099 73.0609 19.8583 73.0723C19.8502 73.0741 19.8419 73.075 19.8339 73.075Z" fill="#666694"/>
<path d="M25.1336 62.0208C21.9405 62.7003 21.3477 63.4815 21.3477 63.4815L23.6419 65.0526C23.6419 65.0526 26.6726 64.1183 28.2853 62.053C27.7261 61.7967 27.2762 61.465 26.9649 61.1953C26.4808 61.5576 25.8784 61.8623 25.1336 62.0208Z" fill="#A31F12"/>
<path d="M28.4428 56.7402C28.4047 56.6568 28.2607 56.6728 28.2491 56.7617L28.1407 57.5952C28.1197 57.7562 28.1575 57.9189 28.2488 58.0611L28.5553 58.4392C28.6786 58.6312 28.6996 58.8585 28.6122 59.0642C28.403 59.5565 27.9106 60.4876 26.9629 61.197C27.2742 61.4667 27.7241 61.7985 28.2833 62.0547C28.8751 61.2969 29.2762 60.387 29.2663 59.3148C29.4275 59.2157 29.4901 59.0367 29.4189 58.8788L28.4428 56.7402Z" fill="url(#paint9_linear_333_57446)"/>
<path d="M27.1161 63.7444C25.9613 62.6865 23.7618 62.2086 22.4883 62.0123C21.9303 61.9263 21.3804 62.1902 21.1827 62.642C20.6096 63.9517 19.0509 67.3592 18.7488 67.9449C18.501 68.4253 18.2422 68.8946 18.0778 69.1879C17.9795 69.3632 18.0653 69.5729 18.2711 69.6572C19.3425 70.0963 21.2705 70.593 22.0521 70.7868C22.224 70.8294 22.3952 70.7197 22.3952 70.5674C22.3952 70.4383 22.4365 70.3116 22.5146 70.2009L25.4748 66.0071C27.3198 67.7464 28.9356 67.9054 30.1768 67.5247C29.9681 66.9764 29.8316 66.427 29.7661 65.8765C27.9323 65.6095 27.1161 63.7444 27.1161 63.7444Z" fill="#A31F12"/>
<path d="M32.8004 65.5841L32.4695 65.209C31.3981 65.8345 30.5026 65.9828 29.7695 65.876C29.835 66.4264 29.9716 66.9758 30.1803 67.5242C31.8155 67.0227 32.8004 65.5841 32.8004 65.5841Z" fill="url(#paint10_linear_333_57446)"/>
<path d="M32.5658 65.5891L34.4301 65.6508L36.1466 64.8358C35.9003 64.7045 34.5069 64.9729 34.5069 64.9729C34.5069 64.9729 33.0503 64.7856 32.6561 64.7852C32.3287 64.7848 32.3755 65.1851 32.4007 65.3207C32.4059 65.3484 32.4101 65.3651 32.4101 65.3651L32.5658 65.5891Z" fill="url(#paint11_linear_333_57446)"/>
<path d="M24.2415 60.0664L23.2578 62.1071C23.2578 62.1071 24.388 62.7722 25.2974 62.7089L25.7883 60.8739L24.2415 60.0664Z" fill="url(#paint12_linear_333_57446)"/>
<path d="M25.9035 58.6765C25.926 58.7036 26.6151 60.8201 26.6151 60.8201L25.1853 61.1289L24.1816 59.2054C24.1816 59.2054 25.5263 58.2223 25.9035 58.6765Z" fill="url(#paint13_linear_333_57446)"/>
<path d="M24.7211 59.4986L25.1562 60.5463C25.1618 60.5597 25.1693 60.5722 25.1789 60.5838C25.238 60.6551 25.4622 60.8878 25.7283 60.6782C25.9697 60.488 26.1934 60.3175 26.3999 60.2865C26.4926 60.2726 26.5825 60.3208 26.6075 60.3979C26.6701 60.5902 26.8016 61.0258 26.848 61.419C26.8574 61.4988 26.7926 61.5709 26.6999 61.5859C26.4206 61.6309 25.8286 61.712 25.3343 61.6824C25.2673 61.6784 25.2083 61.6442 25.1804 61.5923C25.0442 61.3393 24.6268 60.5714 24.4716 60.3728C24.3259 60.1863 23.9687 60.1915 23.8189 60.2028C23.7698 60.2065 23.7215 60.1931 23.6844 60.1654C23.5534 60.0678 23.304 59.8184 23.6548 59.52C23.7282 59.4575 23.7262 59.3567 23.6506 59.2962C23.4999 59.1758 23.3388 58.9622 23.5898 58.6973C23.8449 58.428 24.1817 58.4708 24.3881 58.5348C24.4715 58.5607 24.5625 58.5307 24.6079 58.4658C24.6337 58.4289 24.6787 58.4009 24.7568 58.4066C24.8621 58.4143 24.9506 58.3396 24.9487 58.2498C24.9451 58.0773 25.0177 57.8594 25.3697 57.7662C25.9943 57.601 26.3838 58.114 26.4223 58.4967C26.4609 58.8795 25.7718 59.026 25.3665 59.0002C25.0584 58.9805 24.8296 59.2402 24.7377 59.3658C24.7086 59.4056 24.7028 59.4544 24.7211 59.4986Z" fill="#ECE9E9"/>
<path d="M24.6336 60.7529C24.6336 60.7529 24.5327 60.0884 24.2076 60.0558C23.8824 60.0233 23.5659 60.2505 23.8892 60.6234C24.2913 61.0874 24.6336 60.7529 24.6336 60.7529Z" fill="url(#paint14_linear_333_57446)"/>
<path d="M91.5616 70.5267L86.1028 69.6367L86.6843 70.2657L85.6719 71.0118L91.6899 71.404L91.5616 70.5267Z" fill="#FFF706"/>
<path d="M92.3124 70.5155L97.7331 69.4707L97.1767 70.1158L98.218 70.8327L92.2188 71.396L92.3124 70.5155Z" fill="#FFF706"/>
<path d="M87.7115 68.0494C87.8296 67.9811 87.9752 67.9563 88.1151 67.9806L89.077 68.148C89.2036 68.1701 89.3151 68.2331 89.3879 68.3238L91.4515 70.8951L91.7998 70.6069L89.6473 67.5216C89.48 67.2818 89.1801 67.1313 88.8523 67.1228L87.9834 67.1002C87.3686 67.0842 86.8061 67.3928 86.5699 67.8756L86.2558 68.518C86.103 68.8304 86.2701 69.1894 86.6329 69.3284L91.0165 71.0075L91.1806 70.8812L87.7818 68.9307C87.5563 68.8013 87.4413 68.5713 87.4882 68.3434C87.5129 68.2238 87.5934 68.1178 87.7115 68.0494Z" fill="#005D0B"/>
<path d="M95.8018 67.9337C95.6811 67.8688 95.5346 67.8481 95.3957 67.8765L94.4409 68.0712C94.3152 68.0968 94.2063 68.163 94.1371 68.2557L92.1758 70.8843L91.8164 70.6062L93.8462 67.4613C94.004 67.2169 94.2978 67.058 94.6251 67.0401L95.4926 66.9928C96.1064 66.9594 96.6807 67.2518 96.9358 67.7276L97.2751 68.3607C97.44 68.6685 97.2872 69.0321 96.9301 69.1813L92.615 70.9842L92.4461 70.8627L95.7662 68.8166C95.9865 68.6808 96.0924 68.4477 96.0365 68.2213C96.0072 68.1024 95.9225 67.9987 95.8018 67.9337Z" fill="#005D0B"/>
<path d="M85.7656 71.8208L86.4656 81.0494C86.4828 81.2766 86.7127 81.4772 86.9786 81.4734L97.0478 81.3301C97.3136 81.3263 97.5355 81.1193 97.5438 80.8917L97.88 71.6484L85.7656 71.8208Z" fill="#F2BB16"/>
<path d="M93.211 81.3834L90.7947 81.4178L90.5996 71.509L93.0159 71.4746L93.211 81.3834Z" fill="#A07E18"/>
<path d="M98.5498 70.8099C98.5476 70.7006 98.4416 70.6134 98.313 70.6153L85.2758 70.8008C85.1472 70.8026 85.0448 70.8927 85.0469 71.0021L85.0665 71.9958C85.0686 72.1051 85.1746 72.1923 85.3032 72.1904L98.3404 72.0049C98.469 72.003 98.5715 71.9129 98.5693 71.8036L98.5498 70.8099Z" fill="#A07E18"/>
<path d="M93.0281 72.0808L90.6117 72.1152L90.582 70.6047L92.9983 70.5703L93.0281 72.0808Z" fill="#FBEFEE"/>
<defs>
<linearGradient id="paint0_linear_333_57446" x1="51.2266" y1="18.8589" x2="75.6118" y2="18.8589" gradientUnits="userSpaceOnUse">
<stop stop-color="#2B3582"/>
<stop offset="1" stop-color="#150E42"/>
</linearGradient>
<linearGradient id="paint1_linear_333_57446" x1="81.6498" y1="29.4034" x2="38.56" y2="92.2597" gradientUnits="userSpaceOnUse">
<stop stop-color="#FF928E"/>
<stop offset="1" stop-color="#FE7062"/>
</linearGradient>
<linearGradient id="paint2_linear_333_57446" x1="127.047" y1="46.9899" x2="87.6991" y2="51.8876" gradientUnits="userSpaceOnUse">
<stop stop-color="#FF928E"/>
<stop offset="1" stop-color="#FE7062"/>
</linearGradient>
<linearGradient id="paint3_linear_333_57446" x1="43.2285" y1="28.4299" x2="46.1638" y2="28.4299" gradientUnits="userSpaceOnUse">
<stop stop-color="#09005D"/>
<stop offset="1" stop-color="#1A0F91"/>
</linearGradient>
<linearGradient id="paint4_linear_333_57446" x1="44.2635" y1="66.7812" x2="47.1559" y2="39.3188" gradientUnits="userSpaceOnUse">
<stop stop-color="#E1473D"/>
<stop offset="1" stop-color="#E9605A"/>
</linearGradient>
<linearGradient id="paint5_linear_333_57446" x1="44.0313" y1="28.157" x2="46.5267" y2="28.157" gradientUnits="userSpaceOnUse">
<stop stop-color="#09005D"/>
<stop offset="1" stop-color="#1A0F91"/>
</linearGradient>
<linearGradient id="paint6_linear_333_57446" x1="43.9277" y1="18.7398" x2="68.3129" y2="18.7398" gradientUnits="userSpaceOnUse">
<stop stop-color="#2B3582"/>
<stop offset="1" stop-color="#150E42"/>
</linearGradient>
<linearGradient id="paint7_linear_333_57446" x1="17.9375" y1="82.6625" x2="18.8044" y2="82.6625" gradientUnits="userSpaceOnUse">
<stop stop-color="#FEBBBA"/>
<stop offset="1" stop-color="#FF928E"/>
</linearGradient>
<linearGradient id="paint8_linear_333_57446" x1="22.3164" y1="82.3365" x2="23.1785" y2="82.3365" gradientUnits="userSpaceOnUse">
<stop stop-color="#FEBBBA"/>
<stop offset="1" stop-color="#FF928E"/>
</linearGradient>
<linearGradient id="paint9_linear_333_57446" x1="26.447" y1="59.9085" x2="29.364" y2="58.7408" gradientUnits="userSpaceOnUse">
<stop stop-color="#FEBBBA"/>
<stop offset="1" stop-color="#FF928E"/>
</linearGradient>
<linearGradient id="paint10_linear_333_57446" x1="44.7043" y1="33.452" x2="46.4614" y2="27.6045" gradientUnits="userSpaceOnUse">
<stop stop-color="#FEBBBA"/>
<stop offset="1" stop-color="#FF928E"/>
</linearGradient>
<linearGradient id="paint11_linear_333_57446" x1="47.0568" y1="34.1572" x2="48.8139" y2="28.3098" gradientUnits="userSpaceOnUse">
<stop stop-color="#FEBBBA"/>
<stop offset="1" stop-color="#FF928E"/>
</linearGradient>
<linearGradient id="paint12_linear_333_57446" x1="27.551" y1="57.0425" x2="22.377" y2="68.2247" gradientUnits="userSpaceOnUse">
<stop stop-color="#FEBBBA"/>
<stop offset="1" stop-color="#FF928E"/>
</linearGradient>
<linearGradient id="paint13_linear_333_57446" x1="25.4382" y1="58.9735" x2="25.3224" y2="63.1504" gradientUnits="userSpaceOnUse">
<stop stop-color="#FEBBBA"/>
<stop offset="1" stop-color="#FF928E"/>
</linearGradient>
<linearGradient id="paint14_linear_333_57446" x1="23.6831" y1="63.2585" x2="24.0728" y2="60.3798" gradientUnits="userSpaceOnUse">
<stop stop-color="#FEBBBA"/>
<stop offset="1" stop-color="#FF928E"/>
</linearGradient>
</defs>
</svg>
