<svg width="116" height="95" viewBox="0 0 116 95" fill="none" xmlns="http://www.w3.org/2000/svg">
<rect width="116" height="95" fill="white"/>
<path d="M98.5903 55.3196C90.0861 70.669 67.6376 77.262 50.0488 76.1379C45.2464 75.8309 35.5838 75.2134 28.0391 69.704C13.5502 59.1236 15.7816 37.0076 29.6517 23.9869C31.4379 22.3101 43.8016 11.0757 63.0681 11.2261C77.174 11.3362 87.0748 17.4892 88.2787 18.2558C89.7995 19.2241 93.1539 21.5252 96.177 25.1758C103.28 33.7534 103.905 45.7278 98.5903 55.3196Z" fill="white"/>
<path d="M41.3392 14.1568C39.2755 14.2954 37.6932 15.63 37.6874 17.2296C37.6514 27.0124 37.5922 60.7575 38.418 72.6982C38.5054 73.9619 39.8498 74.9551 41.4886 74.9687C49.6034 75.0361 72.9485 75.1601 86.2001 74.5055C88.9588 74.3692 91.1063 72.6036 91.103 70.469C91.0865 59.9536 90.864 29.9155 88.9177 17.1971C88.7583 16.1555 87.6685 15.3461 86.3144 15.2626C78.5878 14.786 53.3357 13.3512 41.3392 14.1568Z" fill="#005D00"/>
<path d="M40.9422 19.793C40.7828 28.1609 40.3291 55.9971 41.1212 66.271C41.237 67.7727 42.7476 68.9583 44.6128 69.0084C52.2925 69.2151 71.9857 69.615 83.2073 68.6616C85.2279 68.4899 86.7722 67.1374 86.8261 65.4998C87.1068 56.9604 87.865 31.0341 87.0951 20.8752C86.9723 19.2545 85.3689 17.9614 83.359 17.8568C75.0437 17.4241 53.6911 16.4263 44.1486 17.04C42.3573 17.1552 40.9698 18.3444 40.9422 19.793Z" fill="#C7CAC5"/>
<path d="M59.4975 15.6118C59.504 15.843 59.7428 16.0297 60.0421 16.0367C61.5198 16.0714 65.6825 16.1698 67.5431 16.2216C67.91 16.2318 68.1903 15.9726 68.1129 15.6955C68.1065 15.6868 68.0589 15.3315 67.589 15.3063C66.3304 15.2387 62.5333 15.0565 60.024 15.1683C59.5088 15.1912 59.4808 15.6437 59.4975 15.6118Z" fill="#ECE9E9"/>
<path d="M59.0821 35.1416L57.6372 33.8087C57.2465 33.4483 57.1157 32.9635 57.2742 32.5096C57.6725 31.3676 57.8939 30.2061 57.9459 29.0475C57.967 28.5769 58.2761 28.1425 58.7876 27.8862L60.6777 26.9389C61.4744 26.5396 61.8554 25.7941 61.6263 25.0824L60.9424 22.9576C60.7132 22.2458 59.9245 21.7246 58.9785 21.6599L56.7341 21.5062C56.1268 21.4646 55.5902 21.1925 55.2863 20.7843C54.5379 19.7792 53.638 18.8329 52.5936 17.9678C52.1785 17.624 52.0001 17.1484 52.1269 16.6886L52.5956 14.9884C52.7933 14.2711 52.3799 13.5359 51.5662 13.1577L49.1369 12.0287C48.3231 11.6505 47.2883 11.7126 46.56 12.1833L44.8339 13.2991C44.3672 13.6008 43.7394 13.7017 43.1516 13.5794C41.6727 13.2718 40.1685 13.1009 38.668 13.0607C38.0586 13.0444 37.496 12.8058 37.1641 12.4109L35.9374 10.9513C35.4204 10.3361 34.4548 10.0419 33.5331 10.2188L30.7814 10.747C29.8597 10.9239 29.1848 11.5329 29.1009 12.2634L28.9019 13.9965C28.848 14.4655 28.4955 14.8798 27.9671 15.1145C26.6654 15.6924 25.4399 16.3872 24.3196 17.1938C23.8743 17.5143 23.2584 17.6521 22.663 17.5542L20.4612 17.1923C19.5324 17.0396 18.5804 17.3588 18.0906 17.9871L16.6285 19.8631C16.1387 20.4915 16.2191 21.2905 16.8287 21.8529L18.2736 23.1858C18.6644 23.5462 18.7951 24.031 18.6367 24.4848C18.2383 25.6268 18.0169 26.7884 17.9649 27.9471C17.9438 28.4176 17.6348 28.852 17.1233 29.1083L15.2331 30.0556C14.4365 30.4549 14.0555 31.2005 14.2846 31.9122L14.9685 34.037C15.1976 34.7487 15.9863 35.2699 16.9323 35.3346L19.1767 35.4883C19.7841 35.5299 20.3206 35.802 20.6246 36.2102C21.3729 37.2153 22.2727 38.1617 23.3172 39.0267C23.7323 39.3705 23.9107 39.8461 23.784 40.3059L23.3153 42.006C23.1176 42.7233 23.531 43.4586 24.3447 43.8367L26.774 44.9658C27.5877 45.344 28.6225 45.2819 29.3509 44.8111L31.077 43.6954C31.5438 43.3937 32.1715 43.2928 32.7593 43.415C34.2382 43.7227 35.7424 43.8936 37.2429 43.9337C37.8523 43.9501 38.4149 44.1887 38.7468 44.5836L39.9735 46.0432C40.4905 46.6584 41.4561 46.9526 42.3778 46.7757L45.1294 46.2475C46.0511 46.0707 46.726 45.4616 46.8099 44.7311L47.0089 42.9979C47.0628 42.529 47.4152 42.1147 47.9438 41.88C49.2454 41.3021 50.4709 40.6073 51.5912 39.8007C52.0365 39.4802 52.6524 39.3424 53.2478 39.4403L55.4495 39.8022C56.3784 39.9548 57.3306 39.6357 57.8204 39.0073L59.2825 37.1314C59.7721 36.5031 59.6917 35.704 59.0821 35.1416ZM30.9149 40.0203C22.6734 37.0178 19.1445 29.4246 23.0328 23.0606C26.9213 16.6966 36.7545 13.9716 44.9959 16.9742C53.2375 19.9768 56.7663 27.5699 52.8779 33.9339C48.9895 40.298 39.1564 43.0229 30.9149 40.0203Z" fill="#51A865"/>
<path d="M41.8426 46.9987C41.0272 46.9987 40.2481 46.6828 39.7901 46.1378L38.5634 44.6782C38.2745 44.3344 37.7785 44.1204 37.2367 44.1058C35.7046 44.0648 34.1793 43.8883 32.7034 43.5813C32.1811 43.4725 31.6267 43.565 31.2198 43.8278L29.4938 44.9436C28.6938 45.4608 27.5557 45.5289 26.6619 45.1137L24.2326 43.9846C23.3388 43.5692 22.8842 42.7607 23.1013 41.9726L23.5699 40.2725C23.6805 39.8718 23.5263 39.4502 23.1576 39.1447C22.1152 38.2815 21.1992 37.3233 20.4351 36.2971C20.165 35.9343 19.6879 35.696 19.1588 35.6598L16.9144 35.5062C15.8752 35.435 15.0079 34.8619 14.7563 34.0801L14.0723 31.9554C13.8206 31.1735 14.2396 30.3534 15.1147 29.9149L17.0049 28.9676C17.4504 28.7444 17.7275 28.3615 17.7463 27.9433C17.7993 26.76 18.0279 25.5822 18.4255 24.4425C18.5661 24.0394 18.4468 23.6112 18.1062 23.2971L16.6613 21.9641C15.9917 21.3464 15.9033 20.4677 16.4412 19.7774L17.9034 17.9014C18.4413 17.2112 19.4886 16.8602 20.5086 17.0279L22.7105 17.3898C23.2292 17.475 23.7754 17.3561 24.171 17.0712C25.289 16.2664 26.5297 15.5591 27.8589 14.969C28.3286 14.7604 28.6371 14.392 28.684 13.9836L28.883 12.2503C28.9752 11.4479 29.7174 10.7783 30.7298 10.5839L33.4812 10.0557C34.4938 9.86175 35.5556 10.1849 36.1236 10.8606L37.3503 12.3202C37.6394 12.6642 38.1354 12.8782 38.677 12.8927C40.2092 12.9337 41.7345 13.1101 43.2103 13.4172C43.7326 13.5258 44.287 13.4337 44.6939 13.1706L46.42 12.0548C47.2198 11.5379 48.3578 11.4694 49.2519 11.8849L51.6813 13.014C52.5752 13.4294 53.0298 14.2379 52.8126 15.0257L52.3438 16.726C52.2334 17.1267 52.3875 17.5483 52.7563 17.8538C53.7986 18.717 54.7145 19.6752 55.4788 20.7014C55.7489 21.0643 56.226 21.3024 56.755 21.3387L58.9994 21.4924C60.0386 21.5636 60.906 22.1366 61.1576 22.9185L61.8415 25.0434C62.0933 25.8251 61.6744 26.645 60.7992 27.0836L58.909 28.0309C58.4635 28.2542 58.1864 28.6372 58.1676 29.0553C58.1145 30.2385 57.886 31.4163 57.4884 32.5559C57.3477 32.959 57.4671 33.3874 57.8077 33.7015L59.2526 35.0344C59.9222 35.6521 60.0107 36.5309 59.4727 37.2212L58.0106 39.097C57.4726 39.7873 56.4258 40.1388 55.4051 39.9705L53.2034 39.6087C52.6847 39.5233 52.1383 39.6426 51.743 39.9271C50.6251 40.732 49.3843 41.4393 48.055 42.0296C47.5853 42.2381 47.2768 42.6065 47.23 43.015L47.0309 44.7482C46.9387 45.5506 46.1964 46.2204 45.184 46.4147L42.4324 46.9428C42.2364 46.9804 42.0384 46.9987 41.8426 46.9987ZM32.2676 43.1964C32.4512 43.1964 32.6361 43.2149 32.818 43.2527C34.2615 43.553 35.7533 43.7256 37.252 43.7657C37.9374 43.7841 38.5659 44.056 38.9331 44.493L40.1597 45.9526C40.6254 46.5065 41.4959 46.7721 42.3261 46.6125L45.0777 46.0844C45.9077 45.9251 46.5162 45.376 46.5919 44.7181L46.7909 42.9849C46.8505 42.4658 47.2409 41.9985 47.8354 41.7345C49.1355 41.1572 50.349 40.4655 51.4424 39.6784C51.943 39.318 52.6356 39.1676 53.2951 39.2759L55.4969 39.6378C56.3333 39.775 57.192 39.4875 57.633 38.9216L59.0952 37.0457C59.5362 36.4798 59.4637 35.7593 58.9146 35.2529L57.4697 33.92C57.0369 33.5206 56.8848 32.9777 57.0629 32.4674C57.4517 31.3528 57.6752 30.2008 57.7272 29.0436C57.7508 28.5145 58.103 28.0292 58.6691 27.7455L60.5593 26.7982C61.2768 26.4386 61.6202 25.7664 61.4139 25.1255L60.73 23.0005C60.5237 22.3596 59.8125 21.8897 58.9605 21.8314L56.7161 21.6776C56.0439 21.6316 55.4385 21.3301 55.0968 20.8711C54.3492 19.8672 53.4533 18.9301 52.4339 18.0857C51.9673 17.6992 51.7724 17.1644 51.9128 16.6552L52.3815 14.9549C52.5596 14.3089 52.1869 13.6462 51.454 13.3055L49.0247 12.1765C48.2918 11.836 47.3586 11.8918 46.7028 12.3158L44.9767 13.4316C44.4598 13.7658 43.7566 13.8834 43.0957 13.7457C41.6522 13.4455 40.1604 13.2729 38.6617 13.2328C37.9765 13.2145 37.3481 12.9426 36.9806 12.5055L35.7539 11.0459C35.2884 10.4918 34.4177 10.2263 33.5875 10.3861L30.8359 10.9142C30.0059 11.0735 29.3975 11.6226 29.3218 12.2804L29.1228 14.0136C29.0632 14.5326 28.6728 15 28.0784 15.264C26.7782 15.8412 25.5647 16.533 24.4714 17.3201C23.9706 17.6807 23.278 17.8313 22.6185 17.7226L20.4168 17.3607C19.5801 17.2233 18.7219 17.511 18.2808 18.0769L16.8186 19.9529C16.3776 20.5188 16.4501 21.2392 16.9991 21.7457L18.444 23.0787C18.8768 23.4779 19.0289 24.0209 18.8508 24.5312C18.462 25.6457 18.2385 26.7977 18.1865 27.955C18.1629 28.4843 17.8107 28.9694 17.2446 29.2531L15.3545 30.2003C14.637 30.5599 14.2935 31.2323 14.4998 31.8733L15.1838 33.998C15.3901 34.639 16.1012 35.1088 16.9532 35.1672L19.1976 35.3209C19.8699 35.3669 20.4752 35.6684 20.817 36.1274C21.5645 37.1312 22.4603 38.0683 23.4798 38.9127C23.9465 39.2993 24.1413 39.8341 24.0009 40.3434L23.5323 42.0435C23.3542 42.6896 23.727 43.3524 24.4597 43.693L26.8891 44.8221C27.622 45.1627 28.5549 45.1067 29.2109 44.6826L30.937 43.5669C31.3118 43.3247 31.7844 43.1964 32.2676 43.1964ZM37.931 41.4098C35.5438 41.4098 33.1205 41.0134 30.8222 40.1761C22.4841 37.1383 18.901 29.4286 22.8351 22.99C26.7691 16.5512 36.7531 13.7847 45.0914 16.8223C49.1306 18.2938 52.1859 20.892 53.6945 24.138C55.203 27.3841 54.9844 30.8894 53.0786 34.0084C50.229 38.6725 44.2047 41.4098 37.931 41.4098ZM31.0103 39.8684C39.1286 42.8261 48.8499 40.1323 52.6801 33.8634C54.5356 30.8265 54.7486 27.4135 53.2797 24.253C51.8109 21.0924 48.8361 18.5628 44.9034 17.13C36.7852 14.1724 27.064 16.8662 23.2336 23.1351C19.4033 29.4042 22.8919 36.9107 31.0103 39.8684Z" fill="#ECE9E9"/>
<path d="M28.1198 24.9599C28.1198 24.9599 35.199 23.5886 42.6788 24.4156C44.7833 24.6483 46.6473 25.5938 47.783 26.9815C49.8293 29.4821 52.7224 33.9381 52.1104 38.5855L48.8987 39.1987C48.8987 39.1987 46.679 33.6836 44.1808 31.439C44.1808 31.439 41.2221 36.6467 41.3717 39.5064C41.376 39.5872 41.3826 39.6662 41.392 39.7431C41.7315 42.541 27.1895 40.2652 27.1895 40.2652L28.1198 24.9599Z" fill="#3D2D0E"/>
<path d="M35.7759 20.2902L34.2687 23.9973C34.1285 24.3421 34.2679 24.7114 34.6181 24.9197C35.4248 25.3995 37.0194 26.1633 38.9676 26.1413C39.3241 26.1373 39.6237 25.9024 39.6486 25.6141L40.1841 19.418L35.7759 20.2902Z" fill="url(#paint0_linear_333_57450)"/>
<path d="M41.612 16.2293C41.612 16.2293 42.1975 19.1487 41.8288 20.5439C41.4601 21.9391 41.5402 22.9092 39.387 22.7683C37.2338 22.6275 35.7688 21.4835 35.2952 19.9232C35.2952 19.9232 34.541 17.5139 35.1654 16.7165C35.7898 15.9192 41.612 16.2293 41.612 16.2293Z" fill="url(#paint1_linear_333_57450)"/>
<path d="M36.332 19.0806L36.5923 19.1334C36.5923 19.1334 36.0979 17.2171 37.1417 17.1099C38.1856 17.0026 42.1184 17.1722 43.2717 16.3128C44.3836 15.4844 44.1246 14.0703 43.2099 13.5036C43.152 13.4678 43.0666 13.4759 43.0164 13.5181L42.888 13.6261C42.8 13.7001 42.6402 13.6537 42.637 13.5533C42.6339 13.4581 42.486 13.4075 42.3963 13.4729C42.0457 13.7287 41.209 14.0906 39.3317 13.9825C36.668 13.8291 34.7184 14.2823 34.2158 15.6297C34.1839 15.7151 34.0489 15.7383 33.9691 15.6743C33.8116 15.548 33.5256 15.4457 33.0358 15.6248C32.1841 15.9362 32.0698 17.169 33.2702 18.4458C33.3272 18.5064 33.2968 18.5939 33.2046 18.6175C32.88 18.7007 32.354 18.9484 33.2744 19.6077C34.2159 20.2821 34.881 20.3643 35.142 20.3656C35.2123 20.3659 35.2723 20.3286 35.2859 20.2754L35.5986 19.0544C35.6148 18.9912 35.6966 18.9517 35.7772 18.968L36.332 19.0806Z" fill="url(#paint2_linear_333_57450)"/>
<path d="M36.3108 19.3447C36.3108 19.3447 36.3168 17.5569 35.1855 17.829C34.0542 18.101 35.0517 19.8063 35.8115 20.0275L36.3108 19.3447Z" fill="url(#paint3_linear_333_57450)"/>
<path d="M28.1652 36.1078C27.8517 34.3979 30.1448 31.8843 31.0933 30.9306C31.3646 30.6578 31.5163 30.3242 31.5202 29.9802C31.5479 27.5586 30.2311 26.0033 28.1213 24.959C28.1213 24.959 20.4638 31.8479 22.4136 37.1467C22.6239 37.7185 22.95 38.2098 23.3634 38.632C23.6707 36.6354 26.6592 36.1999 28.1652 36.1078Z" fill="#3D2D0E"/>
<path d="M28.3093 35.4462L28.0176 35.4205C28.2649 33.7436 30.1704 31.6735 30.9782 30.8613L31.2111 30.9995C30.4183 31.7967 28.5485 33.8258 28.3093 35.4462Z" fill="#E7EDFD"/>
<path d="M28.2252 36.3442C28.1984 36.2674 28.1798 36.188 28.1651 36.1074C26.659 36.1995 23.6706 36.6351 23.3633 38.6316C26.7805 42.1216 36.1997 40.8625 36.1997 40.8625V39.5045C36.1997 39.5045 28.9657 38.4667 28.2252 36.3442Z" fill="url(#paint4_linear_333_57450)"/>
<path d="M35.293 40.4902C35.293 40.4902 36.6837 37.9562 39.1343 38.855C41.5848 39.7539 41.3922 40.3421 41.3922 40.3421L35.293 40.4902Z" fill="url(#paint5_linear_333_57450)"/>
<path d="M34.9839 41.0156C35.0033 41.2074 35.2149 41.3532 35.4638 41.3465L48.1624 41.0045C48.3598 40.9991 48.5313 40.8982 48.5902 40.7526L48.9588 39.8418C49.0494 39.6181 48.8426 39.3884 48.5395 39.376L43.9087 39.1861C43.8667 39.1843 43.8246 39.187 43.7835 39.194L35.347 40.6368C35.1206 40.6756 34.9657 40.8371 34.9839 41.0156Z" fill="#A8B0A8"/>
<path d="M43.4941 40.6557L43.8436 39.3984L48.6003 39.5737L48.2873 40.6168L43.4941 40.6557Z" fill="#A8B0A8"/>
<path d="M41.055 27.1255C40.7858 28.8241 39.5747 35.7254 39.2281 37.6973C39.1794 37.9746 39.4646 38.2185 39.8269 38.2105L60.3709 37.7566C60.6398 37.7506 60.869 37.6044 60.9273 37.4016L64.1231 26.288C64.2076 25.9942 63.9047 25.7195 63.5156 25.7371L41.6034 26.7282C41.3201 26.741 41.0895 26.908 41.055 27.1255Z" fill="#A8B0A8"/>
<path d="M49.3136 34.0945L46.2773 40.7492L53.3375 40.8647L53.9254 34.1344C53.9529 33.8186 53.6137 33.5564 53.2047 33.5774L49.9076 33.7464C49.6373 33.7603 49.4037 33.8972 49.3136 34.0945Z" fill="#A8B0A8"/>
<path d="M43.415 40.8442C43.3372 41.0273 43.5139 41.2157 43.7634 41.2157H54.82C55.0225 41.2157 55.1867 41.0889 55.1867 40.9325V40.5664C55.1867 40.4052 55.0128 40.2766 54.8043 40.2835L43.7477 40.6497C43.5952 40.6547 43.4626 40.7322 43.415 40.8442Z" fill="#A8B0A8"/>
<path d="M40.7453 34.1445L40.5996 34.1303L41.6091 27.9833C41.6716 27.602 42.0776 27.3086 42.5743 27.2854L61.51 26.4023L61.5189 26.5156L42.5832 27.3986C42.1569 27.4184 41.8084 27.6703 41.7548 27.9975L40.7453 34.1445Z" fill="#91B3FA"/>
<path d="M40.3128 35.8819L40.0957 37.2129L40.2414 37.2271L40.4586 35.8961L40.3128 35.8819Z" fill="#91B3FA"/>
<path d="M39.5933 21.2289C37.3119 21.362 35.9858 19.5404 35.9727 19.522L36.1255 19.457C36.1381 19.4747 37.4116 21.2211 39.5802 21.0947L39.5933 21.2289Z" fill="url(#paint6_linear_333_57450)"/>
<path d="M40.5253 21.1617C40.5253 21.2661 40.4157 21.3508 40.2804 21.3508H39.6276C39.4924 21.3508 39.3828 21.2661 39.3828 21.1617C39.3828 21.0573 39.4924 20.9727 39.6276 20.9727H40.2804C40.4157 20.9727 40.5253 21.0573 40.5253 21.1617Z" fill="url(#paint7_linear_333_57450)"/>
<path d="M36.1307 17.5026C36.1307 17.5026 36.9496 14.2594 39.362 13.9534C39.362 13.9534 38.6788 13.6879 37.9666 13.9759C37.2544 14.264 35.4542 15.8426 35.5276 17.5826C36.0172 17.7187 36.1307 17.5026 36.1307 17.5026Z" fill="url(#paint8_linear_333_57450)"/>
<path d="M35.7105 17.3488C34.4563 17.5454 34.6105 18.7701 34.6105 18.7701C34.5201 19.6589 34.856 20.0995 35.2866 20.3094C35.5806 20.4529 35.9509 20.4662 36.2614 20.3452C36.5719 20.2242 36.7775 19.9863 36.8032 19.7184C36.8263 19.4766 36.8528 19.2466 36.8761 19.165C36.9324 18.9671 36.9647 17.1523 35.7105 17.3488Z" fill="url(#paint9_linear_333_57450)"/>
<path d="M35.8278 17.6589C35.5674 17.624 35.3106 17.7308 35.2059 17.9182C34.4563 19.259 35.3767 20.1312 35.8285 20.1494C36.3047 20.1686 36.295 18.3995 36.1939 17.946C36.1515 17.7559 35.9952 17.6814 35.8278 17.6589Z" fill="#4AB651"/>
<path d="M85.6539 66.8034C86.2928 66.9016 89.9335 68.5745 89.9335 66.6619C89.9335 66.4817 89.9335 64.5254 89.9335 64.5254C89.9335 64.5254 85.4704 66.7753 85.6539 66.8034Z" fill="url(#paint10_linear_333_57450)"/>
<path d="M87.9641 63.2126C87.9641 63.2126 86.364 61.1276 86.164 59.0812C85.964 57.0348 86.289 56.1392 85.989 55.5445C85.689 54.9498 84.2306 52.6912 84.164 53.3701C84.0973 54.0489 84.6306 54.7568 84.6306 54.7568C84.6306 54.7568 83.7055 55.3251 83.864 55.9795C84.0224 56.6338 84.3473 56.7002 84.3473 56.7002C84.3473 56.7002 84.3973 58.1159 84.4806 58.1159C84.564 58.1159 83.0139 65.2203 84.7473 65.3748C86.4807 65.5292 87.8807 66.4816 87.9641 63.2126Z" fill="url(#paint11_linear_333_57450)"/>
<path d="M83.3898 55.4779C83.3737 55.3839 82.2531 53.5016 82.4537 53.2876C82.6544 53.0735 82.857 52.8826 83.1716 53.5172C83.4861 54.1518 83.8614 55.8782 83.7406 55.8885C83.6197 55.8989 83.4477 55.8153 83.3898 55.4779Z" fill="url(#paint12_linear_333_57450)"/>
<path d="M72.9078 75.9847C72.9078 75.9847 72.0619 75.4425 70.937 75.5215C70.1528 75.6276 69.2328 76.1632 68.6397 76.5606C68.5363 76.6298 68.5016 76.7401 68.5524 76.8369C68.6033 76.9336 68.7291 76.9964 68.8678 76.9942C70.3384 76.9706 73.2156 76.9032 73.2156 76.7357C73.2156 76.5108 72.9078 75.9847 72.9078 75.9847Z" fill="url(#paint13_linear_333_57450)"/>
<path d="M73.4911 75.0285L72.8161 76.013C72.8161 76.013 71.2911 76.1096 71.341 75.6462C71.3911 75.1829 71.7661 74.623 71.7661 74.623L73.4911 75.0285Z" fill="url(#paint14_linear_333_57450)"/>
<path d="M90.7276 75.6977C89.67 71.239 88.8997 68.3757 88.8997 68.3757C88.8997 68.3757 77.1788 62.5367 75.9787 63.9653C74.7787 65.3939 71.3398 75.1431 71.3398 75.1431L73.6328 75.6258C73.6328 75.6258 78.0163 71.0409 78.4163 67.1267C79.5448 69.9815 80.5965 76.8037 89.2792 76.9994C89.7103 77.0091 90.1238 76.8678 90.4049 76.6152C90.686 76.3627 90.8053 76.0252 90.7276 75.6977Z" fill="#B34F16"/>
<path d="M65.3887 75.5885L63.9887 76.6117L62.8887 75.7622L64.3387 74.4688L65.3887 75.5885Z" fill="url(#paint15_linear_333_57450)"/>
<path d="M96.1962 53.3809L97.3652 56.7075C97.4188 56.8599 97.3526 57.0249 97.1988 57.1149C96.636 57.4437 95.1649 58.0978 93.147 57.4622C92.9162 57.3895 92.7581 57.2056 92.7381 56.9964L92.4609 54.0984L96.1962 53.3809Z" fill="url(#paint16_linear_333_57450)"/>
<path d="M89.3555 50.6984C89.3555 50.6984 89.5846 53.8458 91.026 54.904C92.4672 55.9622 95.5608 55.4407 96.8378 53.1634L95.2522 49.0215L89.3555 50.6984Z" fill="url(#paint17_linear_333_57450)"/>
<path d="M94.7943 51.8446C94.6734 51.8661 94.5566 51.7998 94.5487 51.7042C94.5246 51.4134 94.448 50.8361 94.2085 50.4306C94.2085 50.4306 94.4012 50.0323 92.8502 50.551C91.2993 51.0696 88.972 51.8283 87.7203 51.2028C86.4999 50.593 85.4971 47.8623 88.8217 48.575C88.9482 48.6021 89.0752 48.5308 89.0767 48.4294C89.0832 47.9919 89.2496 46.9954 90.5967 46.7608C91.8574 46.5412 92.4821 47.0133 92.7306 47.2898C92.8036 47.3712 92.955 47.3796 93.0413 47.3064C93.45 46.9599 94.5357 46.2367 95.9505 46.8338C97.1159 47.3256 97.2406 47.9139 97.1809 48.2715C97.1616 48.3874 97.3057 48.4762 97.448 48.4365C97.8334 48.3291 98.4374 48.2999 98.9478 48.8903C99.6532 49.7066 98.4512 50.295 98.0934 50.4464C98.0348 50.4713 97.9951 50.5162 97.989 50.5676C97.9419 50.9648 97.7616 52.7351 96.5283 53.639C96.4214 53.7172 96.1527 53.6387 96.1075 53.5305L95.4172 51.8793C95.3851 51.8026 95.2824 51.7577 95.1807 51.7757L94.7943 51.8446Z" fill="white"/>
<path d="M94.623 52.0703C94.623 52.0703 95.3359 50.4411 96.08 51.0343C96.824 51.6275 95.6794 52.7499 94.7337 52.9159L94.623 52.0703Z" fill="url(#paint18_linear_333_57450)"/>
<path d="M89.3542 62.3246C89.3542 62.3246 84.0129 64.062 83.0129 63.174C82.0129 62.2859 82.5629 57.306 82.5629 57.306L80.3128 56.8418C80.3128 56.8418 77.5461 65.6322 82.2462 66.945C85.6584 67.898 92.1632 64.7956 92.1632 64.7956L89.3542 62.3246Z" fill="url(#paint19_linear_333_57450)"/>
<path d="M94.3776 56.3146C93.5164 56.4608 92.5725 57.0959 91.8341 57.7052C90.9909 58.401 90.4261 59.2732 90.2157 60.2122C90.2089 60.2428 90.202 60.2735 90.1952 60.3042C88.3364 61.8774 86.6991 62.8959 85.5977 63.2724C87.5311 65.3929 88.5771 66.1984 88.5771 66.1984C88.5771 66.1984 88.8001 66.1613 89.174 66.0868C88.8106 68.617 88.6139 70.5761 88.6139 70.5761C88.6139 70.5761 92.3905 73.4707 96.9642 74.2944C101.13 71.9263 101.767 65.1517 101.767 65.1517C102.093 57.1166 97.287 55.8207 94.3776 56.3146Z" fill="#06350A"/>
<path d="M96.9643 74.2953C96.9643 74.2953 95.0892 78.6004 85.8345 76.1872C81.3471 75.0171 75.0636 68.2334 75.0636 68.2334C75.0636 68.2334 73.5136 71.5153 65.4133 75.9169L63.6133 74.6685C63.6133 74.6685 71.8135 63.7545 76.0137 64.8871C80.2138 66.0197 98.2476 71.5024 96.9643 74.2953Z" fill="#B34F16"/>
<path d="M64.6722 76.1126C64.3299 76.1156 62.8895 75.627 62.8895 75.627L61.5478 75.9036C60.3784 75.7647 59.374 76.0722 58.6972 76.3847C58.5494 76.453 58.4784 76.5889 58.5229 76.7174C58.5675 76.8459 58.7169 76.936 58.8892 76.9383C60.2134 76.9552 62.3881 76.9723 63.4895 76.9214C65.1396 76.8451 65.3896 76.8818 64.6722 76.1126Z" fill="url(#paint20_linear_333_57450)"/>
<path d="M91.0179 65.7641C91.0281 65.7641 91.0386 65.7631 91.0489 65.7612C91.1066 65.7502 96.8221 64.6282 97.858 61.2971C97.8747 61.2434 97.8319 61.1895 97.7624 61.1767C97.6932 61.1637 97.6231 61.1968 97.6065 61.2504C96.6076 64.4626 91.0432 65.5565 90.9872 65.5672C90.9178 65.5804 90.8754 65.6345 90.8925 65.688C90.9071 65.7336 90.9599 65.7641 91.0179 65.7641Z" fill="url(#paint21_linear_333_57450)"/>
<path d="M79.126 52.8191C79.0874 52.7426 79.0948 52.6568 79.1462 52.585C79.1976 52.5132 79.2878 52.4628 79.3922 52.4474L81.9988 52.0633C82.1 52.0484 82.1996 52.0946 82.2301 52.1706L84.2351 57.1617C84.2438 57.1832 84.2409 57.2065 84.2272 57.2264C84.2135 57.2463 84.1901 57.2611 84.1621 57.2676L81.983 57.7727C81.8045 57.814 81.6148 57.7427 81.547 57.6086L79.126 52.8191Z" fill="#296538"/>
<path d="M79.9483 52.87C79.9272 52.8263 79.9325 52.7777 79.9627 52.7373C79.9928 52.6969 80.0448 52.6691 80.1043 52.6613L81.8347 52.4358C81.9348 52.4227 82.0318 52.4689 82.0618 52.5437L83.7645 56.7957C83.7734 56.8181 83.77 56.8422 83.755 56.8625C83.7401 56.8828 83.715 56.8974 83.6856 56.9028L82.1352 57.1908C82.0814 57.2008 82.0264 57.1782 82.0071 57.1382L79.9483 52.87Z" fill="url(#paint22_linear_333_57450)"/>
<path d="M80.7819 52.4564C80.7862 52.472 80.8209 52.4796 80.8595 52.4733L81.4283 52.3807C81.4669 52.3744 81.4947 52.3567 81.4904 52.341L81.4863 52.3258C81.482 52.3102 81.4473 52.3026 81.4087 52.3088L80.8399 52.4015C80.8013 52.4078 80.7735 52.4255 80.7778 52.4412L80.7819 52.4564Z" fill="url(#paint23_linear_333_57450)"/>
<path d="M80.2858 56.9386C80.2522 56.7173 79.2897 55.308 79.6647 54.7675C80.0397 54.2269 80.1897 53.3003 80.5522 53.5609C80.9148 53.8215 80.4647 54.7289 80.6273 54.9991C80.7898 55.2694 81.4139 55.9561 81.4956 56.4912C81.5773 57.0262 82.0398 57.7888 81.0647 57.8949C80.0897 58.0011 80.2858 56.9386 80.2858 56.9386Z" fill="url(#paint24_linear_333_57450)"/>
<path d="M90.5902 60.186C90.6314 60.186 90.6719 60.1708 90.697 60.1426C91.4245 59.3238 93.5589 57.2803 94.6899 57.6491C94.7555 57.6707 94.8315 57.6469 94.8595 57.5961C94.8873 57.5453 94.8565 57.4867 94.7908 57.4652C93.2368 56.9564 90.5953 59.9039 90.4836 60.0297C90.4432 60.0751 90.4582 60.1373 90.5172 60.1685C90.5396 60.1803 90.565 60.186 90.5902 60.186Z" fill="url(#paint25_linear_333_57450)"/>
<path d="M84.6226 57.422C84.1436 56.9092 84.4528 56.3113 84.5692 56.0862C84.5793 56.0666 84.5904 56.0452 84.5976 56.0299C84.5246 55.8881 84.3312 55.4205 84.3958 55.1206C84.4198 55.0096 84.5129 54.9839 84.5519 54.9779C84.6199 54.9675 84.8285 54.9358 85.4584 55.7216C85.4961 55.7685 85.4772 55.83 85.4166 55.859C85.3558 55.8881 85.2761 55.8735 85.2385 55.8267C85.0414 55.5808 84.7832 55.3077 84.6429 55.2095C84.6206 55.4871 84.8136 55.9225 84.8441 55.9692C84.8817 56.0202 84.8591 56.0641 84.8094 56.1602C84.6977 56.376 84.4365 56.8813 84.8325 57.3052C84.8742 57.3499 84.8611 57.4124 84.8032 57.4446C84.7803 57.4573 84.7539 57.4635 84.7277 57.4635C84.6875 57.4635 84.6479 57.4491 84.6226 57.422ZM84.6192 56.0678C84.6178 56.0659 84.6163 56.0634 84.6144 56.0605C84.6159 56.0629 84.6174 56.0653 84.6192 56.0678Z" fill="url(#paint26_linear_333_57450)"/>
<g opacity="0.8">
<path d="M75.4211 47.7678C75.2904 47.6438 75.0855 47.5923 74.868 47.5958L55.0695 47.9165L54.5694 46.6898C54.4999 46.5189 54.2917 46.4094 54.0564 46.4142L51.3381 46.4694C51.0466 46.4753 50.8105 46.6318 50.8105 46.8564C50.8105 47.0811 51.0466 47.2285 51.3381 47.2232L53.661 47.1808L57.8644 57.5525C57.9351 57.727 58.1474 57.8471 58.388 57.8496L72.2844 57.9936C72.6105 57.997 72.8753 57.839 72.8753 57.6008C72.8753 57.3628 72.6105 57.1997 72.2844 57.197L58.7935 57.0847L57.7107 54.3918L72.5361 54.4092C72.8397 54.4095 73.1073 54.2561 73.1923 54.0434L75.5322 48.2013C75.5931 48.0489 75.552 47.892 75.4211 47.7678Z" fill="#ECE9E9"/>
<path d="M60.42 58.4904C59.2766 58.4767 58.3516 59.1639 58.3516 60.0222C58.3516 60.8805 59.2766 61.5976 60.42 61.6208C61.5702 61.6441 62.5112 60.9572 62.5112 60.0894C62.5113 59.2216 61.5702 58.5042 60.42 58.4904ZM60.42 60.786C59.8856 60.7763 59.4519 60.4417 59.4519 60.04C59.4519 59.6383 59.8855 59.3176 60.42 59.3252C60.9559 59.3328 61.393 59.6675 61.393 60.0713C61.3931 60.4751 60.9559 60.7957 60.42 60.786Z" fill="#ECE9E9"/>
<path d="M69.6825 58.6018C68.4825 58.5874 67.5117 59.291 67.5117 60.1703C67.5117 61.0495 68.4825 61.7845 69.6825 61.8088C70.89 61.8333 71.8779 61.13 71.8779 60.2407C71.8778 59.3515 70.89 58.6163 69.6825 58.6018ZM69.6825 60.9536C69.1216 60.9435 68.6664 60.6004 68.6664 60.1889C68.6664 59.7774 69.1216 59.449 69.6825 59.457C70.245 59.465 70.7039 59.8081 70.7039 60.2218C70.7039 60.6355 70.245 60.9638 69.6825 60.9536Z" fill="#ECE9E9"/>
</g>
<path opacity="0.83" d="M82.9887 23.2422L68.2225 23.4661C67.452 23.4778 66.8353 23.9635 66.8353 24.5585V29.3303C66.8353 29.7558 66.5372 30.1481 66.0561 30.3557L63.6947 31.3747C63.5727 31.4274 63.6211 31.5709 63.7609 31.5709H66.941H82.9687C83.6362 31.5709 84.1773 31.1531 84.1773 30.6377V24.16C84.1773 23.6531 83.6451 23.2422 82.9887 23.2422Z" fill="#ECE9E9"/>
<path d="M75.1275 30.6109C74.7153 30.6318 74.3319 30.4837 74.1186 30.2192L70.5359 25.7768C70.2002 25.3605 70.3811 24.7903 70.9398 24.5033C71.4981 24.2164 72.2226 24.3212 72.5579 24.7373L75.0426 27.8211L78.321 22.6652C78.6152 22.2025 79.3221 21.9902 79.8994 22.1909C80.4767 22.3915 80.7064 22.929 80.4126 23.3914L76.1759 30.0597C75.9819 30.365 75.5963 30.5751 75.1688 30.6083C75.155 30.6093 75.1413 30.6102 75.1275 30.6109Z" fill="url(#paint27_linear_333_57450)"/>
<defs>
<linearGradient id="paint0_linear_333_57450" x1="34.5578" y1="29.5821" x2="36.7265" y2="21.9775" gradientUnits="userSpaceOnUse">
<stop stop-color="#FEBBBA"/>
<stop offset="1" stop-color="#FF928E"/>
</linearGradient>
<linearGradient id="paint1_linear_333_57450" x1="41.1369" y1="18.598" x2="31.9255" y2="23.5884" gradientUnits="userSpaceOnUse">
<stop stop-color="#FEBBBA"/>
<stop offset="1" stop-color="#FF928E"/>
</linearGradient>
<linearGradient id="paint2_linear_333_57450" x1="36.5434" y1="13.4563" x2="39.7603" y2="23.2154" gradientUnits="userSpaceOnUse">
<stop stop-color="#E1473D"/>
<stop offset="1" stop-color="#E9605A"/>
</linearGradient>
<linearGradient id="paint3_linear_333_57450" x1="40.4478" y1="17.3278" x2="31.2364" y2="22.3182" gradientUnits="userSpaceOnUse">
<stop stop-color="#FEBBBA"/>
<stop offset="1" stop-color="#FF928E"/>
</linearGradient>
<linearGradient id="paint4_linear_333_57450" x1="27.3599" y1="34.1471" x2="30.8668" y2="46.0987" gradientUnits="userSpaceOnUse">
<stop stop-color="#FEBBBA"/>
<stop offset="1" stop-color="#FF928E"/>
</linearGradient>
<linearGradient id="paint5_linear_333_57450" x1="34.2842" y1="32.1176" x2="37.7912" y2="44.0691" gradientUnits="userSpaceOnUse">
<stop stop-color="#FEBBBA"/>
<stop offset="1" stop-color="#FF928E"/>
</linearGradient>
<linearGradient id="paint6_linear_333_57450" x1="35.8858" y1="21.7838" x2="38.1405" y2="18.9767" gradientUnits="userSpaceOnUse">
<stop stop-color="#4F52FF"/>
<stop offset="1" stop-color="#4042E2"/>
</linearGradient>
<linearGradient id="paint7_linear_333_57450" x1="39.3828" y1="21.1617" x2="40.5253" y2="21.1617" gradientUnits="userSpaceOnUse">
<stop stop-color="#4F52FF"/>
<stop offset="1" stop-color="#4042E2"/>
</linearGradient>
<linearGradient id="paint8_linear_333_57450" x1="45.8671" y1="13.4035" x2="22.6023" y2="23.8463" gradientUnits="userSpaceOnUse">
<stop stop-color="#4F52FF"/>
<stop offset="1" stop-color="#4042E2"/>
</linearGradient>
<linearGradient id="paint9_linear_333_57450" x1="39.4663" y1="13.7872" x2="38.1887" y2="16.7654" gradientUnits="userSpaceOnUse">
<stop stop-color="#4F52FF"/>
<stop offset="1" stop-color="#4042E2"/>
</linearGradient>
<linearGradient id="paint10_linear_333_57450" x1="89.2141" y1="65.2453" x2="87.228" y2="69.1583" gradientUnits="userSpaceOnUse">
<stop stop-color="#E1473D"/>
<stop offset="1" stop-color="#E9605A"/>
</linearGradient>
<linearGradient id="paint11_linear_333_57450" x1="85.7244" y1="58.8034" x2="85.8736" y2="63.9415" gradientUnits="userSpaceOnUse">
<stop stop-color="#FEBBBA"/>
<stop offset="1" stop-color="#FF928E"/>
</linearGradient>
<linearGradient id="paint12_linear_333_57450" x1="83.9997" y1="53.4039" x2="81.9587" y2="57.9071" gradientUnits="userSpaceOnUse">
<stop stop-color="#FEBBBA"/>
<stop offset="1" stop-color="#FF928E"/>
</linearGradient>
<linearGradient id="paint13_linear_333_57450" x1="72.5636" y1="75.0601" x2="70.1393" y2="79.0074" gradientUnits="userSpaceOnUse">
<stop stop-color="#09005D"/>
<stop offset="1" stop-color="#1A0F91"/>
</linearGradient>
<linearGradient id="paint14_linear_333_57450" x1="73.2" y1="74.4356" x2="71.7921" y2="76.728" gradientUnits="userSpaceOnUse">
<stop stop-color="#FEBBBA"/>
<stop offset="1" stop-color="#FF928E"/>
</linearGradient>
<linearGradient id="paint15_linear_333_57450" x1="63.5795" y1="74.1605" x2="64.3492" y2="77.6576" gradientUnits="userSpaceOnUse">
<stop stop-color="#FEBBBA"/>
<stop offset="1" stop-color="#FF928E"/>
</linearGradient>
<linearGradient id="paint16_linear_333_57450" x1="95.2194" y1="57.9976" x2="94.8579" y2="53.7849" gradientUnits="userSpaceOnUse">
<stop stop-color="#FEBBBA"/>
<stop offset="1" stop-color="#FF928E"/>
</linearGradient>
<linearGradient id="paint17_linear_333_57450" x1="91.9274" y1="54.1948" x2="93.8629" y2="47.91" gradientUnits="userSpaceOnUse">
<stop stop-color="#FEBBBA"/>
<stop offset="1" stop-color="#FF928E"/>
</linearGradient>
<linearGradient id="paint18_linear_333_57450" x1="93.8247" y1="55.0558" x2="95.7602" y2="48.771" gradientUnits="userSpaceOnUse">
<stop stop-color="#FEBBBA"/>
<stop offset="1" stop-color="#FF928E"/>
</linearGradient>
<linearGradient id="paint19_linear_333_57450" x1="82.0239" y1="53.8662" x2="86.2323" y2="72.9861" gradientUnits="userSpaceOnUse">
<stop stop-color="#FEBBBA"/>
<stop offset="1" stop-color="#FF928E"/>
</linearGradient>
<linearGradient id="paint20_linear_333_57450" x1="61.2587" y1="75.2402" x2="61.9766" y2="78.5018" gradientUnits="userSpaceOnUse">
<stop stop-color="#09005D"/>
<stop offset="1" stop-color="#1A0F91"/>
</linearGradient>
<linearGradient id="paint21_linear_333_57450" x1="90.8887" y1="63.469" x2="97.8616" y2="63.469" gradientUnits="userSpaceOnUse">
<stop stop-color="#E1473D"/>
<stop offset="1" stop-color="#E9605A"/>
</linearGradient>
<linearGradient id="paint22_linear_333_57450" x1="78.8442" y1="53.3451" x2="88.6481" y2="60.9903" gradientUnits="userSpaceOnUse">
<stop stop-color="#4F52FF"/>
<stop offset="1" stop-color="#4042E2"/>
</linearGradient>
<linearGradient id="paint23_linear_333_57450" x1="80.9365" y1="52.3211" x2="81.1862" y2="52.8319" gradientUnits="userSpaceOnUse">
<stop stop-color="#8D55D1"/>
<stop offset="0.9964" stop-color="#1C2873"/>
</linearGradient>
<linearGradient id="paint24_linear_333_57450" x1="80.7545" y1="57.2142" x2="81.5328" y2="67.2933" gradientUnits="userSpaceOnUse">
<stop stop-color="#FEBBBA"/>
<stop offset="1" stop-color="#FF928E"/>
</linearGradient>
<linearGradient id="paint25_linear_333_57450" x1="90.461" y1="58.7961" x2="94.8697" y2="58.7961" gradientUnits="userSpaceOnUse">
<stop stop-color="#E1473D"/>
<stop offset="1" stop-color="#E9605A"/>
</linearGradient>
<linearGradient id="paint26_linear_333_57450" x1="84.3633" y1="56.219" x2="85.4778" y2="56.219" gradientUnits="userSpaceOnUse">
<stop stop-color="#FF928E"/>
<stop offset="1" stop-color="#FE7062"/>
</linearGradient>
<linearGradient id="paint27_linear_333_57450" x1="73.6772" y1="12.3458" x2="74.3283" y2="19.5968" gradientUnits="userSpaceOnUse">
<stop stop-color="#E1473D"/>
<stop offset="1" stop-color="#E9605A"/>
</linearGradient>
</defs>
</svg>
