<svg width="116" height="95" viewBox="0 0 116 95" fill="none" xmlns="http://www.w3.org/2000/svg">
<rect width="116" height="95" fill="white"/>
<path d="M42.9534 24.499C43.0427 24.4714 43.1263 24.4264 43.2211 24.4167C49.7231 23.7543 62.3033 24.748 68.7028 23.9711C73.6843 23.3663 78.9426 23.1171 83.5679 24.9272C85.7171 25.7683 87.6417 27.0233 89.4854 28.3397C90.7166 29.2187 91.9399 30.149 92.7998 31.343C94.2295 33.3286 94.5036 35.8476 94.2412 38.2148C93.6791 43.2843 90.7507 48.0967 86.3411 51.1976C84.6088 52.4157 82.5107 53.5722 82.0028 55.5194C81.852 56.0976 81.8609 56.7018 81.7307 57.2843C81.3096 59.1687 79.5187 60.5365 77.6684 61.443C73.113 63.6744 67.7852 64.0073 62.665 64.6255C57.4036 65.2606 52.1886 66.2426 46.8985 66.6303C41.6084 67.0177 36.1647 66.787 31.2002 65.0673C27.9794 63.9517 21.1351 62.6698 18.436 55.5345C17.8591 54.0093 17.9513 52.3583 18.1643 50.7734C18.7905 46.1125 20.4054 41.5864 22.8933 37.519L23.7429 36.2427C27.6635 30.3534 35.7388 26.7265 42.9534 24.499Z" fill="white"/>
<path d="M92.8695 67.4043C90.116 73.1042 85.6033 79.1638 80.1465 83.4336" stroke="#FEB62C" stroke-width="1.5696" stroke-miterlimit="10"/>
<path d="M91.0215 70.983C92.0952 70.3205 93.4276 69.9311 94.7815 69.8844C95.146 69.8718 95.5282 69.8869 95.8462 70.0304C95.9105 70.0593 95.9764 70.0998 95.9883 70.1581C96.0036 70.2338 95.9219 70.2979 95.8455 70.3438C94.9042 70.9092 93.6552 70.9866 92.4809 71.043C92.0369 71.0643 91.5931 71.0857 91.1492 71.107C91.1099 71.1088 91.0616 71.1066 91.0446 71.0782C91.0276 71.0498 91.0998 71.0216 91.1015 71.0531L91.0215 70.983Z" fill="#FEB62C"/>
<path d="M89.9117 72.4932C89.9645 71.4341 89.3893 70.3655 88.3914 69.6697C88.2408 69.5646 88.0743 69.465 87.8792 69.4306C87.684 69.3964 87.4543 69.4437 87.3491 69.5797C87.2704 69.6814 87.2742 69.8104 87.299 69.9284C87.4174 70.4903 87.9318 70.9378 88.4233 71.3497C88.737 71.6127 89.0507 71.8758 89.3647 72.1388L89.9117 72.4932Z" fill="#FEB62C"/>
<path d="M89.2207 73.5501C90.0599 73.0584 91.0466 72.7295 92.0733 72.5992C92.5936 72.5333 93.1617 72.5251 93.608 72.7495C93.6682 72.7798 93.7289 72.8179 93.7491 72.8724C93.786 72.9724 93.6729 73.0651 93.5673 73.1259C92.3614 73.8199 90.7418 73.7929 89.2693 73.6409" fill="#FEB62C"/>
<path d="M86.8617 72.3715C86.6014 72.1746 86.1804 72.0005 85.9148 72.1928C85.6808 72.3625 85.7818 72.6707 85.9237 72.8967C86.454 73.7423 87.3203 74.4499 88.3648 74.8913C88.417 74.9134 87.7745 73.0624 86.8617 72.3715Z" fill="#FEB62C"/>
<path d="M86.959 76.495C87.8745 76.0717 88.8059 75.6432 89.8332 75.4443C90.053 75.4018 90.2829 75.37 90.5044 75.4067C90.7258 75.4435 90.9386 75.5623 91.0027 75.7361C91.0854 75.9603 90.9036 76.1941 90.6855 76.3495C90.2411 76.666 89.6313 76.7993 89.0371 76.8163C88.443 76.8332 87.8531 76.7442 87.2663 76.6667C87.2135 76.6597 86.959 76.495 86.959 76.495Z" fill="#FEB62C"/>
<path d="M86.1955 77.6476C85.9462 76.6428 85.4004 75.6861 84.6154 74.8777C84.5102 74.7694 84.3163 74.6562 84.1905 74.7494C84.1396 74.7869 84.1252 74.8463 84.1201 74.9015C84.0838 75.3014 84.3948 75.664 84.7104 75.975C85.1338 76.3917 86.1955 77.6476 86.1955 77.6476Z" fill="#FEB62C"/>
<path d="M84.5215 79.2742C85.045 79.0766 85.5988 78.9311 86.1667 78.8417C86.6054 78.7726 87.0812 78.741 87.4812 78.9012C87.5574 78.9318 87.6401 78.987 87.6216 79.0537C87.6089 79.0996 87.5529 79.128 87.5009 79.1497C86.8699 79.4158 86.1149 79.487 85.4243 79.3456C85.3106 79.3226 84.5215 79.2742 84.5215 79.2742Z" fill="#FEB62C"/>
<path d="M92.6624 68.0237C93.7602 67.1142 94.3068 65.7957 94.107 64.5403C94.0817 64.3812 94.0317 64.2057 93.8658 64.1158C93.6819 64.016 93.4267 64.0641 93.2388 64.1592C92.8552 64.3528 92.6414 64.7025 92.4989 65.0473C92.1826 65.8119 92.1253 66.6441 92.3347 67.4319L92.6624 68.0237Z" fill="#FEB62C"/>
<path d="M91.9274 69.3906C91.6661 68.3401 91.0592 67.346 90.1846 66.5361C90.0548 66.4157 89.8851 66.289 89.6885 66.3111C89.4407 66.3392 89.3319 66.5842 89.3495 66.7843C89.3898 67.2396 89.793 67.6141 90.1759 67.9519C90.7147 68.4273 91.2533 68.9026 91.7919 69.378L91.9274 69.3906Z" fill="#FEB62C"/>
<path d="M77.1742 63.082C74.4207 68.7819 69.908 74.8416 64.4512 79.1113" stroke="#FEB62C" stroke-width="1.5696" stroke-miterlimit="10"/>
<path d="M75.3242 66.6607C76.398 65.9982 77.7303 65.6089 79.0843 65.5621C79.4487 65.5495 79.831 65.5647 80.1487 65.708C80.213 65.7371 80.2789 65.7774 80.2908 65.8357C80.3061 65.9113 80.2244 65.9754 80.1481 66.0213C79.2067 66.5868 77.9577 66.6641 76.7834 66.7206C76.3394 66.7418 75.8957 66.7633 75.4517 66.7845C75.4125 66.7864 75.3641 66.7842 75.3471 66.7558C75.3302 66.7274 75.4023 66.6992 75.4042 66.7306L75.3242 66.6607Z" fill="#FEB62C"/>
<path d="M74.2164 68.1729C74.269 67.1137 73.694 66.0452 72.6961 65.3493C72.5455 65.2443 72.379 65.1446 72.1839 65.1103C71.9887 65.0761 71.759 65.1234 71.6538 65.2594C71.5751 65.3611 71.5789 65.4901 71.6037 65.6081C71.7221 66.17 72.2365 66.6175 72.728 67.0294C73.0417 67.2924 73.3554 67.5554 73.6693 67.8185L74.2164 68.1729Z" fill="#FEB62C"/>
<path d="M73.5254 69.2296C74.3645 68.738 75.3513 68.409 76.378 68.2789C76.8985 68.2129 77.4664 68.2048 77.9127 68.4292C77.9729 68.4595 78.0336 68.4975 78.0538 68.5521C78.0907 68.6521 77.9776 68.7448 77.872 68.8056C76.6661 69.4994 75.0463 69.4724 73.574 69.3206" fill="#FEB62C"/>
<path d="M71.1683 68.0473C70.9081 67.8504 70.487 67.6763 70.2214 67.8686C69.9875 68.0383 70.0884 68.3465 70.2303 68.5725C70.7606 69.4181 71.627 70.1257 72.6714 70.5671C72.7236 70.5892 72.0813 68.7382 71.1683 68.0473Z" fill="#FEB62C"/>
<path d="M71.2656 72.1727C72.1811 71.7494 73.1126 71.321 74.1399 71.1221C74.3596 71.0796 74.5896 71.0478 74.811 71.0845C75.0325 71.1212 75.2452 71.24 75.3093 71.4138C75.392 71.638 75.2102 71.8718 74.9922 72.0272C74.5476 72.3438 73.9379 72.4771 73.3438 72.4939C72.7496 72.5109 72.1597 72.4218 71.573 72.3443C71.52 72.3375 71.2656 72.1727 71.2656 72.1727Z" fill="#FEB62C"/>
<path d="M70.5002 73.3273C70.2509 72.3225 69.7051 71.3658 68.9201 70.5574C68.8149 70.4491 68.621 70.3359 68.4952 70.4291C68.4443 70.4666 68.4299 70.526 68.4248 70.5812C68.3885 70.9811 68.6995 71.3437 69.0151 71.6547C69.4385 72.0714 70.5002 73.3273 70.5002 73.3273Z" fill="#FEB62C"/>
<path d="M68.8301 74.9537C69.3536 74.7561 69.9074 74.6106 70.4753 74.5214C70.9142 74.4523 71.3897 74.4207 71.7898 74.5809C71.866 74.6113 71.9487 74.6667 71.9302 74.7334C71.9175 74.7793 71.8615 74.8077 71.8095 74.8294C71.1787 75.0955 70.4235 75.1667 69.7329 75.0253C69.6194 75.0022 68.8301 74.9537 68.8301 74.9537Z" fill="#FEB62C"/>
<path d="M76.9673 63.7015C78.0651 62.7919 78.6117 61.4734 78.4119 60.2181C78.3866 60.0589 78.3366 59.8835 78.1707 59.7935C77.9868 59.6937 77.7316 59.7419 77.5434 59.8369C77.1599 60.0305 76.9461 60.3803 76.8036 60.7251C76.4873 61.4896 76.43 62.3218 76.6394 63.1097L76.9673 63.7015Z" fill="#FEB62C"/>
<path d="M76.234 65.0683C75.9727 64.0178 75.3658 63.0237 74.4912 62.2138C74.3612 62.0934 74.1917 61.9668 73.9951 61.9889C73.7473 62.0169 73.6385 62.2619 73.6561 62.462C73.6964 62.9173 74.0997 63.2917 74.4826 63.6297C75.0211 64.105 75.5599 64.5804 76.0985 65.0557L76.234 65.0683Z" fill="#FEB62C"/>
<path d="M72.9372 71.2676C74.113 72.5367 75.7578 73.4793 76.8546 74.7966C77.4969 75.5683 77.9354 76.4508 78.2555 77.3614C78.8914 79.1693 79.0448 81.2231 77.9676 83.0038C77.7863 83.3044 77.5688 83.5955 77.2814 83.8386L76.7386 84.2837L76.1998 84.7257C74.2772 83.9622 73.0742 82.3384 72.6315 80.6058C72.1895 78.8737 72.4247 77.03 72.8199 75.2355C73.0827 74.0424 73.4113 72.7895 73.0833 71.6646C73.0447 71.5297 72.9957 71.3975 72.9372 71.2676Z" fill="#FEB62C"/>
<path opacity="0.24" d="M72.9375 71.2676C74.1133 72.5367 75.7581 73.4793 76.855 74.7966C77.4973 75.5683 77.9357 76.4508 78.2558 77.3614C78.8917 79.1693 79.0451 81.2231 77.968 83.0038C77.7866 83.3044 77.5692 83.5955 77.2817 83.8386L76.7389 84.2837C76.5741 84.1983 76.4727 84.1427 76.4727 84.1427C75.0946 83.2655 74.3305 81.8741 74.0002 80.44C73.6704 79.0063 73.7304 77.5098 73.7419 76.029C73.7537 74.5477 73.7128 73.048 73.1895 71.6644L73.0837 71.6647C73.045 71.5297 72.996 71.3975 72.9375 71.2676Z" fill="#111111"/>
<path d="M58.4528 71.2676C59.6288 72.5367 61.2734 73.4793 62.3703 74.7966C63.0126 75.5683 63.451 76.4508 63.7711 77.3614C64.4071 79.1693 64.5604 81.2231 63.4833 83.0038C63.3019 83.3044 63.0845 83.5955 62.7971 83.8386L62.2542 84.2837L61.7154 84.7257C59.7928 83.9622 58.5898 82.3384 58.1471 80.6058C57.7051 78.8737 57.9403 77.03 58.3355 75.2355C58.5985 74.0424 58.9271 72.7895 58.599 71.6646C58.5604 71.5297 58.5114 71.3975 58.4528 71.2676Z" fill="#FEB62C"/>
<path opacity="0.24" d="M58.4512 71.2676C59.6272 72.5367 61.2717 73.4793 62.3686 74.7966C63.0109 75.5683 63.4494 76.4508 63.7695 77.3614C64.4054 79.1693 64.5588 81.2231 63.4816 83.0038C63.3003 83.3044 63.0828 83.5955 62.7954 83.8386L62.2526 84.2837C62.0878 84.1983 61.9864 84.1427 61.9864 84.1427C60.6082 83.2655 59.8442 81.8741 59.5139 80.44C59.184 79.0063 59.2441 77.5098 59.2555 76.029C59.2676 74.5477 59.2265 73.048 58.7032 71.6644L58.5973 71.6647C58.5587 71.5297 58.5097 71.3975 58.4512 71.2676Z" fill="#111111"/>
<path d="M82.1787 71.7539C82.376 73.3269 83.1844 74.8121 83.283 76.3938C83.3405 77.3202 83.1521 78.2581 82.8441 79.1714C82.233 80.985 81.0504 82.8109 78.9861 83.8968C78.6382 84.0803 78.2651 84.2407 77.8629 84.3312L77.112 84.49L76.3666 84.6479C75.2048 83.2021 75.2114 81.3136 75.94 79.6444C76.6691 77.9757 78.0508 76.4898 79.5384 75.112C80.5278 74.1958 81.6115 73.2555 82.0499 72.155C82.1032 72.0232 82.1458 71.8896 82.1787 71.7539Z" fill="#1F1473"/>
<path opacity="0.24" d="M82.1807 71.7539C82.378 73.3269 83.1864 74.8121 83.285 76.3938C83.3425 77.3202 83.1542 78.2581 82.8462 79.1714C82.235 80.985 81.0525 82.8109 78.9881 83.8968C78.6402 84.0803 78.2671 84.2407 77.8649 84.3312L77.114 84.49C77.0272 84.3489 76.9757 84.2596 76.9757 84.2596C76.354 82.94 76.5886 81.4314 77.2228 80.0645C77.8573 78.6981 78.8665 77.4381 79.8241 76.1717C80.7824 74.9049 81.7069 73.6006 82.143 72.198L82.052 72.1548C82.1052 72.0232 82.1478 71.8896 82.1807 71.7539Z" fill="#111111"/>
<path d="M67.3154 71.7539C67.5127 73.3269 68.3211 74.8121 68.4197 76.3938C68.4772 77.3202 68.2888 78.2581 67.9808 79.1714C67.3697 80.985 66.1871 82.8109 64.1228 83.8968C63.7747 84.0803 63.4018 84.2407 62.9996 84.3312L62.2487 84.49L61.5033 84.6479C60.3415 83.2021 60.3481 81.3136 61.0767 79.6444C61.8058 77.9757 63.1875 76.4898 64.6751 75.112C65.6645 74.1958 66.7482 73.2555 67.1867 72.155C67.2401 72.0232 67.2827 71.8896 67.3154 71.7539Z" fill="#1F1473"/>
<path opacity="0.24" d="M67.3115 71.7539C67.5088 73.3269 68.3172 74.8121 68.4158 76.3938C68.4733 77.3202 68.2849 78.2581 67.9769 79.1714C67.3658 80.985 66.1832 82.8109 64.1189 83.8968C63.7708 84.0803 63.3979 84.2407 62.9957 84.3312L62.2448 84.49C62.158 84.3489 62.1065 84.2596 62.1065 84.2596C61.4849 82.94 61.7193 81.4314 62.3536 80.0645C62.988 78.6981 63.9973 77.4381 64.9548 76.1717C65.9132 74.9049 66.8376 73.6006 67.2739 72.198L67.183 72.1548C67.2362 72.0232 67.2788 71.8896 67.3115 71.7539Z" fill="#111111"/>
<path d="M84.8073 10.885C84.5243 11.5535 84.1298 12.1912 83.6404 12.7783L82.0073 12.9798C82.202 12.5421 82.3469 12.0991 82.3586 11.8924C82.3668 11.7176 82.3187 11.5175 82.1322 11.424C81.9874 11.3519 81.8026 11.3653 81.6361 11.392C80.9085 11.5068 79.9697 12.4393 79.2921 13.3147L77.6191 13.5202C77.6457 13.4189 77.6741 13.3174 77.7074 13.2174C77.7091 13.2067 77.7125 13.1962 77.7174 13.1855C78.0453 12.1554 78.6562 11.1827 79.4954 10.3595C79.9682 9.89656 80.5241 9.47221 81.2017 9.22007C81.8792 8.9693 82.6933 8.90929 83.3691 9.16397C83.7802 9.31749 84.1149 9.57489 84.4429 9.82702C84.6393 9.97919 84.8457 10.1446 84.9006 10.3593C84.9439 10.5355 84.879 10.7155 84.8073 10.885Z" fill="#FFDCDE"/>
<path d="M77.7296 13.2054L77.708 13.2161V13.2174L77.3749 13.3908L76.6809 13.7525C76.6225 13.7032 76.5627 13.6537 76.4995 13.6044C75.9384 13.1574 75.2342 12.6931 74.8165 12.6037C74.4735 12.5302 74.0607 12.5222 73.8094 12.7223C73.443 13.0132 73.7977 13.3215 74.1439 13.747C74.2671 13.8992 74.6683 14.1739 75.0096 14.5248C73.543 14.4607 72.1695 13.6028 71.755 12.4687C71.6485 12.1764 71.6018 11.8616 71.71 11.5695C71.8948 11.0719 72.5207 10.7342 73.1633 10.6648C73.8058 10.5955 74.4568 10.7543 75.0361 10.9877C76.1981 11.4574 77.1569 12.2446 77.7179 13.1853V13.1867C77.7228 13.1933 77.7262 13.1986 77.7296 13.2054Z" fill="#FFDCDE"/>
<path d="M77.2544 14.2963L76.8083 14.7499C76.7084 14.3696 76.6235 14.0508 76.5586 13.8147L76.6801 13.752C76.9315 13.9628 77.1396 14.1576 77.2544 14.2963Z" stroke="#191919" stroke-width="0.7848" stroke-miterlimit="10" stroke-linecap="round"/>
<path d="M72.0249 68.0349C72.0283 68.0709 72.0132 68.1056 71.9967 68.1389C71.8486 68.4592 71.6986 68.7807 71.5455 69.0997C71.5088 69.1757 71.474 69.2505 71.4373 69.3265C71.3724 69.4625 71.3058 69.6014 71.1876 69.7121C71.0826 69.8095 70.9297 69.8841 70.7697 69.8841C70.7498 69.8841 70.7282 69.8828 70.7082 69.8802C70.5634 69.8629 70.4435 69.7842 70.3254 69.7148C70.1272 69.5987 69.9126 69.5013 69.6877 69.4253C69.4947 69.3586 69.2932 69.3066 69.0885 69.2719C69.0219 69.2612 68.947 69.2479 68.9054 69.2039C68.8505 69.1452 68.8804 69.0624 68.9137 68.9944C68.9603 68.8957 69.0085 68.7971 69.0586 68.6983C69.27 68.2726 69.5013 67.8537 69.7543 67.4427C69.7927 67.38 69.8409 67.3106 69.9257 67.2946C70.0572 67.2693 70.1987 67.3868 70.3169 67.3334L70.2136 67.4534C70.4 67.4573 70.5931 67.4628 70.7778 67.4854C70.9793 67.5107 71.1724 67.5561 71.3406 67.6469C71.4638 67.711 71.5703 67.7977 71.7035 67.8457C71.7135 67.8496 71.7251 67.8523 71.7351 67.8564C71.8601 67.8948 72.0132 67.9322 72.0249 68.0349Z" fill="#F9D2B2"/>
<path d="M54.5286 79.5407C54.4936 79.5633 54.4503 79.5726 54.4071 79.5806C53.8944 79.6847 53.3817 79.786 52.8673 79.8848C52.8639 79.8848 52.8607 79.8861 52.8573 79.8861C52.6842 79.9195 52.506 79.9528 52.3295 79.9368C52.1482 79.9222 51.9649 79.8474 51.8849 79.7166C51.8533 79.6646 51.8417 79.6073 51.8368 79.5498V79.5485C51.8317 79.4898 51.8368 79.4285 51.8385 79.3683C51.8518 79.0041 51.767 78.6384 51.5937 78.3021C51.5672 78.2501 51.5388 78.194 51.5604 78.142C51.5871 78.0792 51.672 78.0512 51.7534 78.0338C51.7617 78.0325 51.7717 78.0299 51.7801 78.0286C52.4642 77.8937 53.1551 77.7858 53.8511 77.7043C53.9376 77.695 54.0375 77.687 54.1025 77.735C54.2024 77.807 54.1608 77.9672 54.2823 78.0138L54.101 78.0151C54.3141 78.2766 54.5354 78.5554 54.5422 78.8691C54.5439 78.9866 54.5155 79.1053 54.5422 79.2214C54.5422 79.2227 54.5422 79.2227 54.5422 79.2241C54.5702 79.3338 54.6334 79.4686 54.5286 79.5407Z" fill="#F9D2B2"/>
<path d="M56.3931 48.8379L56.23 51.9828L56.0603 55.2425L53.9261 61.847L52.7109 65.6123C53.1971 66.3128 53.5367 67.068 53.763 67.8485C53.9611 68.5357 54.0744 69.2428 54.1177 69.9473C54.1211 70.0034 54.1242 70.0607 54.1276 70.1168C54.2042 71.6793 53.9762 73.239 53.7479 74.792C53.693 75.1669 53.6315 75.5566 53.385 75.8781C53.1387 76.201 52.6508 76.4385 52.1965 76.3344L50.6482 76.3798C48.9385 73.5992 47.3054 70.7879 45.7505 67.95C45.4459 67.3949 45.1411 66.8279 45.0597 66.2261C44.9714 65.5616 45.1579 64.8959 45.3477 64.2461C45.7556 62.8477 46.1801 61.4521 46.6213 60.0605C47.7366 56.546 48.9587 53.053 50.2887 49.5878L55.1946 48.9848L56.3931 48.8379Z" fill="#FC6B72"/>
<g opacity="0.24">
<path d="M54.1174 69.9449C53.8177 70.8069 53.4815 71.7969 52.4693 72.1692C52.346 72.2146 52.2079 72.2493 52.0747 72.2265C51.6984 72.1638 51.6503 71.7581 51.6435 71.4513C51.6102 69.5099 49.8506 67.6873 50.3084 65.7806C50.5464 64.7906 51.3537 63.9567 51.8382 63.0267C52.3193 62.1047 52.4758 61.0988 52.6273 60.1074L53.9257 61.8446L52.7104 65.6099C53.1966 66.3104 53.5362 67.0656 53.7626 67.8461C53.9609 68.5333 54.0742 69.2404 54.1174 69.9449Z" fill="#111111"/>
</g>
<path d="M67.6085 66.9591C67.3606 67.3915 67.1124 67.8224 66.8644 68.2533C66.6381 68.6482 66.41 69.0431 66.1835 69.4381C66.0486 69.4381 65.9122 69.4381 65.7773 69.4367C62.8606 69.4246 59.9459 69.2006 57.0809 68.7669C55.9272 68.5921 54.7219 68.3573 53.7615 67.8462C53.4702 67.6915 53.2004 67.51 52.9607 67.2979C52.2615 66.6789 51.9103 65.8516 51.8104 65.0177C51.7987 64.9189 51.7904 64.819 51.7853 64.7202C51.7387 63.7875 51.9701 62.8616 52.2198 61.949C53.0589 58.8908 54.1293 55.8501 54.4888 52.7398C54.5287 52.3876 54.5603 52.0327 54.5819 51.6777C54.6369 50.7624 54.6619 49.7591 55.1928 48.9825C55.3244 48.789 55.4892 48.609 55.6922 48.4475C56.0916 48.1313 56.6094 47.9271 57.1405 47.7764C57.9214 47.5563 58.7737 47.4456 59.5778 47.5976L61.5139 47.8164C61.6337 47.9284 61.7453 48.0445 61.8484 48.1646C62.8023 49.2613 63.1485 50.6517 63.3599 51.9926C63.6646 53.9246 63.7579 55.8966 63.3317 57.8153C62.9056 59.7325 61.9334 61.6032 60.3003 63.0469C60.1039 63.2203 59.8892 63.4019 59.8392 63.6326C59.7509 64.0342 60.2186 64.3972 60.7131 64.4919C61.2092 64.5852 61.7236 64.4946 62.2298 64.4545C63.9344 64.3196 65.6907 64.8321 66.9208 65.7833C67.1556 65.9635 67.3703 66.1609 67.5619 66.3717C67.6285 66.4463 67.6951 66.5264 67.7133 66.6172C67.7352 66.7349 67.6717 66.851 67.6085 66.9591Z" fill="#FF7C7D"/>
<path d="M70.8914 66.6562C70.8963 66.9391 70.8547 67.2152 70.7765 67.4861C70.66 67.8904 70.4653 68.2826 70.2254 68.6616C70.0622 68.9217 69.8775 69.1765 69.6859 69.4261C69.5311 69.6262 69.3714 69.8238 69.2131 70.0172C68.9868 70.2934 68.7087 70.5963 68.2976 70.6363C67.8282 70.683 67.4169 70.3614 66.9443 70.3374C66.7245 70.3267 66.4982 70.3814 66.285 70.3374C65.9588 70.2707 65.7623 69.9878 65.7473 69.7184C65.7422 69.6237 65.7538 69.5302 65.7772 69.4382C65.8188 69.2673 65.8987 69.1005 65.9736 68.9365C66.1333 68.5896 66.2682 68.2387 66.3864 67.8851C66.6144 67.1954 66.7775 66.4935 66.9207 65.7849C66.954 65.6154 66.9873 65.4447 67.0206 65.2752C66.9407 65.2218 66.9839 65.1084 67.0739 65.0685C67.1638 65.0272 67.2754 65.0379 67.3768 65.0498C68.5553 65.2006 69.684 65.5955 70.6229 66.1865C70.6861 66.2253 70.7478 66.2666 70.7928 66.3186C70.8766 66.4162 70.8899 66.5389 70.8914 66.6562Z" fill="#FF9FA4"/>
<path d="M55.6498 83.1814C55.6498 83.551 54.8024 83.7605 53.6056 83.8939C52.2555 84.0434 50.4609 84.0954 48.9445 84.1648C46.0829 84.2955 47.1465 82.8531 49.9266 82.0019C52.7066 81.1492 51.9127 80.8583 51.9127 80.8583C51.9127 80.8583 51.548 80.5154 51.3883 80.0525C51.3151 79.835 51.48 79.6108 51.7546 79.5615C51.7829 79.5562 51.8113 79.5508 51.8395 79.5469V79.5455C52.1375 79.4921 52.4171 79.4442 52.675 79.4013C53.514 79.2653 54.1467 79.1919 54.5445 79.2213C54.7742 79.2373 54.9256 79.2879 54.9956 79.3801C55.2404 79.707 55.0771 80.3634 54.9956 80.6904C54.914 81.0185 55.6498 82.3941 55.6498 83.1814Z" fill="#565252"/>
<g opacity="0.24">
<path d="M53.6037 83.8963C52.2535 84.0457 50.459 84.0978 48.9425 84.1671C46.081 84.2979 47.1446 82.8555 49.9246 82.0042C52.7047 81.1516 51.9107 80.8607 51.9107 80.8607C51.9107 80.8607 51.5461 80.5178 51.3864 80.0548C51.3132 79.8374 51.478 79.6131 51.7527 79.5638C51.7809 79.5586 51.8093 79.5531 51.8375 79.5492V79.5479C51.8325 79.4892 51.8375 79.4278 51.8392 79.3676C51.8526 79.0035 51.7678 78.6378 51.5945 78.3015C51.5679 78.2495 51.5395 78.1934 51.5611 78.1413C51.5879 78.0786 51.6727 78.0505 51.7542 78.0332L52.8895 78.2267C52.7431 78.6096 52.6065 79.0113 52.6731 79.4035C52.678 79.4316 52.6831 79.4583 52.6896 79.4863C52.7229 79.625 52.7847 79.7571 52.8578 79.8853C53.0776 80.2709 53.4204 80.6232 53.5436 81.0382C53.6885 81.5333 53.477 82.087 53.0108 82.4325C52.588 82.7434 51.957 82.9221 51.769 83.3585C51.734 83.44 51.719 83.5292 51.7557 83.6107C51.8405 83.8014 52.1453 83.8468 52.3982 83.8575C52.7997 83.8764 53.2025 83.8897 53.6037 83.8963Z" fill="#111111"/>
</g>
<path d="M55.6447 77.4593C55.643 77.4953 55.6413 77.5327 55.6381 77.5686C55.6331 77.6327 55.6265 77.6968 55.5983 77.7554C55.545 77.8648 55.4269 77.9436 55.307 78.0116C54.0602 78.7201 52.4304 78.7815 50.9006 78.807C50.4878 78.8136 50.0199 78.8017 49.7454 78.5535C49.4323 78.2692 49.5291 77.8143 49.286 77.49C49.1727 77.3379 48.9879 77.2206 48.9131 77.0538C48.7966 76.8003 48.9763 76.5108 49.2461 76.3479C49.4675 76.2144 49.7371 76.1464 50.007 76.0891C50.0653 76.0771 50.1219 76.0663 50.1784 76.0544C51.7033 75.7435 53.1184 75.2205 54.5349 74.6734C54.5449 74.5906 54.6847 74.5534 54.778 74.5906C54.8711 74.6267 54.9246 74.7054 54.9678 74.7802C55.46 75.6114 55.6948 76.54 55.6447 77.4593Z" fill="#FF9499"/>
<path d="M58.5586 49.0059C58.7902 50.0929 59.6966 51.188 61.0678 51.2806" stroke="#F9CEB9" stroke-width="1.5696" stroke-miterlimit="10" stroke-linecap="round"/>
<path d="M60.7329 48.3906C61.2855 52.1447 61.108 55.9673 60.209 59.678" stroke="#F9CEB9" stroke-width="1.5696" stroke-miterlimit="10" stroke-linecap="round"/>
<path d="M51.5253 64.8516C51.3986 65.211 51.2618 65.7426 51.1668 66.1374C51.0847 66.4783 51.1186 66.8302 51.2648 67.157L51.8816 68.5364C52.4684 69.8488 53.0625 71.1933 53.0634 72.5872" stroke="#EFBEAB" stroke-width="1.5696" stroke-miterlimit="10" stroke-linecap="round"/>
<path d="M63.8913 34.3906C62.3579 34.7839 61.3372 38.9813 65.1403 46.11" stroke="#E6EFFF" stroke-width="1.5696" stroke-miterlimit="10" stroke-linecap="round"/>
<path d="M75.3887 29.3206C76.0195 27.9981 75.9226 26.2088 76.4079 26.092C76.8932 25.9754 76.8447 27.5701 76.8447 27.5701C76.8447 27.5701 78.3007 26.52 79.3197 26.3255C80.339 26.131 81.4551 26.0531 81.6492 26.3644C81.8433 26.6755 78.0622 29.0622 77.5748 29.5999C77.0873 30.1375 75.3887 29.3206 75.3887 29.3206Z" fill="#F9D2B2"/>
<path d="M81.309 26.2852C81.309 26.2852 79.125 26.9853 78.4456 27.6077C78.4456 27.6077 77.6181 27.5555 77.0566 28.3739" stroke="#EFAC86" stroke-width="0.7848" stroke-miterlimit="10" stroke-linecap="round"/>
<path d="M43.8557 21.8694C43.2248 20.5469 43.3217 18.7577 42.8364 18.6409C42.3511 18.5242 42.3997 20.119 42.3997 20.119C42.3997 20.119 40.9437 19.0688 39.9246 18.8743C38.9054 18.6798 37.7892 18.6019 37.5951 18.9132C37.401 19.2244 41.1821 21.611 41.6695 22.1486C42.1572 22.6862 43.8557 21.8694 43.8557 21.8694Z" fill="#F9D2B2"/>
<path d="M37.9355 18.834C37.9355 18.834 40.1196 19.5341 40.799 20.1565C40.799 20.1565 42.0891 20.2556 42.6007 21.1599" stroke="#EFAC86" stroke-width="0.7848" stroke-miterlimit="10" stroke-linecap="round"/>
<path d="M56.0635 32.8316L51.1643 35.7563C51.1476 35.755 51.131 35.7536 51.1143 35.7511C49.8025 35.6217 48.4808 35.4841 47.2271 35.1494C45.9569 34.8105 44.7451 34.2527 43.9144 33.4108C42.9189 32.4008 42.5626 31.0918 42.2329 29.831C41.7419 27.9444 41.2474 26.0137 41.3989 24.1003C41.4222 23.8042 41.4621 23.5092 41.5187 23.2144C41.552 23.041 41.5919 22.8596 41.5287 22.6914C41.4971 22.6061 41.4422 22.5274 41.4171 22.4407C41.3089 22.0578 41.835 21.7562 42.3078 21.6508C42.8755 21.5253 43.4781 21.5066 44.0557 21.5988C44.2772 21.6334 44.5285 21.7094 44.5934 21.883C44.6384 22.0071 44.5718 22.1365 44.5468 22.2645C44.4452 22.7902 45.0344 23.2132 45.4423 23.6321C46.1332 24.3392 46.388 25.2626 46.4228 26.1606C46.4578 27.0572 46.2929 27.9512 46.2414 28.8478C46.2164 29.2895 46.2465 29.7899 46.6576 30.0847C46.9306 30.2809 47.3101 30.3409 47.6698 30.3982C50.4333 30.8475 53.6879 31.6148 56.0635 32.8316Z" fill="#06248A"/>
<g opacity="0.24">
<path d="M51.4973 34.348C51.4806 34.7562 51.439 35.1739 51.2392 35.5502C51.2025 35.6195 51.1609 35.6862 51.1142 35.7503C49.8025 35.6209 48.4808 35.4833 47.2271 35.1486C45.9569 34.8097 44.7451 34.2519 43.9144 33.41C42.9189 32.4 42.5626 31.091 42.2329 29.8302C41.7419 27.9436 41.2474 26.0129 41.3989 24.0996L41.4322 24.0742C41.9867 25.1977 42.3528 26.3811 42.5176 27.5819C42.6175 28.3157 42.644 29.0629 42.8939 29.7741C43.1453 30.4839 43.6597 31.175 44.4804 31.5099C44.7351 31.6154 45.0147 31.682 45.2644 31.7956C45.807 32.0411 46.175 32.484 46.711 32.7415C47.4202 33.0804 48.3041 33.043 49.1282 32.995C49.7208 32.9617 50.3135 32.927 50.9079 32.8937C51.0126 32.8871 51.1242 32.8816 51.2224 32.9151C51.4488 32.9938 51.4937 33.2313 51.5005 33.4287C51.5122 33.7356 51.5107 34.0411 51.4973 34.348Z" fill="#111111"/>
</g>
<path d="M70.356 43.3567C68.2705 36.7196 65.9395 35.4414 65.9395 35.4414" stroke="#E6EFFF" stroke-width="1.5696" stroke-miterlimit="10" stroke-linecap="round"/>
<path d="M58.485 33.7461C59.0512 33.8855 59.6413 33.9487 60.2283 34.0115C63.238 34.333 66.2478 34.6545 69.2576 34.9761C69.7343 35.027 70.2459 35.0736 70.6731 34.8964C71.301 34.6361 71.5023 34.0122 71.7225 33.4737C72.1414 32.4484 72.8565 31.5016 73.7955 30.7285C74.1468 30.4393 74.5479 30.1479 74.6533 29.7531C74.683 29.6416 74.6875 29.5258 74.7291 29.4169C74.8614 29.0707 75.3481 28.8762 75.7997 28.8789C76.2513 28.8817 76.677 29.0369 77.0868 29.189C77.3136 29.2734 77.5757 29.3997 77.574 29.6001C77.5734 29.6812 77.5265 29.7567 77.483 29.83C76.6749 31.1889 76.6974 32.7597 76.2574 34.2233C75.8527 35.5697 75.0434 36.8368 73.9173 37.8871C73.6367 38.1489 73.332 38.4004 72.9632 38.5786C72.61 38.7494 72.2101 38.847 71.8116 38.9324C68.6232 39.6157 65.2072 39.6029 62.0268 38.8958C61.6756 38.8178 61.3215 38.7292 61.0186 38.5668C60.3125 38.188 60.0049 37.482 59.4061 36.999C59.0756 36.7322 58.656 36.5372 58.2031 36.4396L58.485 33.7461Z" fill="#06248A"/>
<g opacity="0.24">
<path d="M61.8499 48.1648L61.1573 48.4116C61.0791 49.0934 60.5846 49.7098 59.9555 50.1728C59.3263 50.6357 58.5654 50.9667 57.8147 51.2923C57.287 51.5218 56.7592 51.7514 56.23 51.9807C55.8403 52.1502 55.4492 52.3195 55.0597 52.4891C54.8699 52.5719 54.6802 52.6545 54.4904 52.7398C52.8623 53.467 51.2375 54.321 50.4999 55.6726C50.2619 56.1088 50.1236 56.5893 49.7675 56.9694C49.5412 57.211 49.238 57.3991 48.9918 57.6272C48.6123 57.9808 48.3809 58.4185 48.0729 58.8148C47.6966 59.3005 47.1989 59.7233 46.6211 60.0582C47.7364 56.5437 48.9585 53.0508 50.2885 49.5856L55.1944 48.9825C55.3259 48.789 55.4907 48.609 55.6937 48.4475C56.0932 48.1313 56.6109 47.9271 57.1421 47.7764C57.9229 47.5563 58.7752 47.4456 59.5794 47.5976L61.5154 47.8164C61.6353 47.9286 61.7468 48.0447 61.8499 48.1648Z" fill="#111111"/>
</g>
<path d="M61.9311 45.705C62.2123 46.1319 62.6202 46.5376 62.6487 47.0192C62.6919 47.7598 61.8479 48.3161 61.0688 48.7151C60.586 48.962 60.0932 49.2009 59.5572 49.3622C58.9612 49.5422 58.3254 49.625 57.6944 49.6958C55.234 49.9746 52.75 50.1133 50.2663 50.1094C50.1798 50.1094 50.0898 50.1081 50.0183 50.0695C49.9534 50.0348 49.9167 49.9748 49.8902 49.9159C49.5557 49.166 50.4129 48.4283 50.5794 47.6437C50.7243 46.9592 50.3331 46.2868 50.1399 45.609C49.6104 43.749 50.6027 41.8236 50.4661 39.9196C50.4578 39.8115 50.4462 39.6995 50.3995 39.598C50.3978 39.5941 50.3961 39.5886 50.3946 39.5847C50.3764 39.5447 50.348 39.5073 50.3147 39.4727C50.2864 39.4393 50.2531 39.406 50.2181 39.3739C50.1666 39.3219 50.1165 39.2698 50.0866 39.2085C48.7365 36.5187 51.5498 33.6526 51.6481 32.9241L55.6849 32.8613L58.6947 33.5618L63.3792 37.8354C62.9081 38.5519 62.4353 39.2685 61.9625 39.9849C61.706 40.3732 61.4464 40.7668 61.3083 41.1924C61.1152 41.7888 61.1685 42.4159 61.2234 43.0311C61.265 43.486 61.3083 43.9478 61.4065 44.3973C61.5049 44.8524 61.6615 45.2955 61.9311 45.705Z" fill="#06248A"/>
<g opacity="0.24">
<path d="M62.6477 47.017C62.691 47.7576 61.847 48.3138 61.0678 48.7129C60.5851 48.9597 60.0923 49.1986 59.5563 49.3599C58.9602 49.54 58.3245 49.6228 57.6934 49.6935C55.233 49.9723 52.7491 50.1111 50.2653 50.1072C50.1788 50.1072 50.0889 50.1058 50.0174 50.0672C49.9525 50.0325 49.9158 49.9725 49.8893 49.9137C49.5547 49.1637 50.4119 48.4261 50.5784 47.6414C50.7233 46.957 50.3322 46.2846 50.1389 45.6067C49.6095 43.7468 50.6018 41.8214 50.4652 39.9174C50.4569 39.8092 50.4452 39.6972 50.3986 39.5957C51.2591 40.8059 53.0522 41.421 54.697 41.94C54.8851 42 55.0833 42.0641 55.2131 42.1882C55.4294 42.3938 55.3978 42.7098 55.2364 42.9448C55.0733 43.1796 54.8069 43.353 54.5538 43.5305C53.8897 43.9962 53.2686 44.5499 53.0323 45.2317C52.7943 45.9134 53.0388 46.7434 53.7929 47.113C54.2157 47.3198 54.7335 47.3585 55.2296 47.3585C56.9843 47.3599 58.8787 46.8527 59.7909 45.6519C60.049 45.3117 60.2438 44.9074 60.6748 44.7099C60.888 44.6125 61.1425 44.5751 61.3324 44.451C61.3591 44.4336 61.3839 44.4149 61.4055 44.395C61.5037 44.85 61.6603 45.293 61.9299 45.7026C62.2114 46.1297 62.6193 46.5353 62.6477 47.017Z" fill="#111111"/>
</g>
<path d="M56.5294 33.4844C55.7802 35.1522 56.8924 36.251 58.7236 36.251C60.5549 36.251 61.4299 34.3446 61.4299 34.3446" stroke="#8AA7F9" stroke-width="1.5696" stroke-miterlimit="10" stroke-linecap="round"/>
<g opacity="0.24">
<path d="M55.7283 33.0945C55.2014 33.3227 54.6602 33.56 54.2805 33.9313C53.9008 34.3026 53.7178 34.8455 53.9946 35.2712C54.2665 35.6896 55.045 36.4693 55.6222 36.5614C57.0937 36.7961 58.1984 36.8625 59.6508 36.5614C62.7253 35.9242 61.8607 35.1777 61.6255 35.0709C60.5241 34.5716 59.423 34.0723 58.3217 33.5731C57.7419 33.3103 57.1353 33.0408 56.4701 33.0117" fill="#111111"/>
</g>
<path d="M50.7422 39.9004C51.6034 40.8719 52.9837 41.5368 54.4581 41.6903" stroke="#8AA7F9" stroke-width="1.5696" stroke-miterlimit="10" stroke-linecap="round"/>
<path d="M51.2852 47.8632C53.9872 48.1555 57.7434 47.3938 60.5529 45.9492" stroke="#8AA7F9" stroke-width="1.5696" stroke-miterlimit="10" stroke-linecap="round"/>
<path d="M75.0371 29.9127C75.3797 29.8994 76.5353 30.1128 76.6931 30.621" stroke="#8AA7F9" stroke-width="1.5696" stroke-miterlimit="10" stroke-linecap="round"/>
<path d="M41.666 23.0356C42.4487 22.4906 43.1562 22.5868 44.1867 22.6784" stroke="#8AA7F9" stroke-width="1.5696" stroke-miterlimit="10" stroke-linecap="round"/>
<path d="M73.8714 40.7611C73.2887 41.1534 72.7046 41.5191 72.1151 41.8659C70.3006 42.9359 68.4411 43.8285 66.4317 44.8025C66.2336 44.8986 66.0306 44.996 65.804 45.04C65.5578 45.0882 65.7824 46.0248 65.5276 46.0074C64.9916 45.9687 64.2509 45.5244 63.5717 45.2029C63.207 45.0309 62.8609 44.8933 62.5745 44.8734L62.2949 44.7026C65.145 43.2496 68.0366 41.8499 70.9681 40.5051L71.8287 40.3477C72.558 40.3822 73.1424 40.7251 73.8714 40.7611Z" fill="#FC942D"/>
<g opacity="0.24">
<path d="M72.1192 41.8321C72.1192 41.844 72.1175 41.856 72.1141 41.8681C70.2996 42.9382 68.4401 43.8307 66.4307 44.8048C66.2326 44.9008 66.0296 44.9982 65.803 45.0423C65.5568 45.0904 65.7814 46.027 65.5266 46.0096C64.9906 45.9709 64.2499 45.5266 63.5707 45.2051L63.5391 45.1344C66.0777 43.7522 68.7729 42.5526 71.5797 41.556C71.6446 41.5333 71.7129 41.5092 71.7844 41.5078C71.9794 41.5053 72.1226 41.6746 72.1192 41.8321Z" fill="#111111"/>
</g>
<path d="M69.466 56.356C69.4544 56.3574 69.4427 56.3587 69.431 56.3587C69.4244 56.3601 69.4194 56.3615 69.4128 56.3615C67.7514 56.5243 66.2131 56.3455 64.765 55.6663C64.6534 55.6143 64.5387 55.5515 64.502 55.4541V55.4527C64.5053 55.2499 64.5068 55.0457 64.5102 54.8429C64.5151 54.5093 64.5185 54.1744 64.5236 53.8408C64.5285 53.4313 64.5336 53.0163 64.6734 52.6213C64.7149 52.5066 64.7716 52.3891 64.8831 52.3092C64.9896 52.2318 65.1328 52.1985 65.2711 52.1677C65.2927 52.1625 65.3161 52.1584 65.3377 52.1531C65.629 52.089 65.9187 52.0237 66.2117 51.9596C66.2367 51.9544 66.2615 51.9489 66.2865 51.9423C66.5213 51.8916 66.7659 51.8502 66.999 51.8983C67.247 51.9516 67.4451 52.0997 67.6216 52.2492C67.7281 52.34 67.828 52.4319 67.9245 52.5253C68.4455 53.035 68.8252 53.6008 69.0766 54.2052C69.3578 54.8803 69.4809 55.6061 69.466 56.356Z" fill="#DD6B17"/>
<path d="M79.6467 50.5977C79.6385 50.7711 79.5585 50.9365 79.4703 51.0953C78.6379 52.6057 77.0215 53.7705 75.2236 54.5777C73.4256 55.3863 71.4364 55.8732 69.4653 56.3562C69.4303 56.2976 69.397 56.2388 69.3606 56.1815C68.9643 55.5143 68.5365 54.8605 68.0787 54.2202C67.5244 53.4397 66.925 52.6792 66.2859 51.9425C65.9479 51.5517 65.5967 51.1659 65.2354 50.7885C64.8059 50.3388 65.0407 45.8237 65.2437 45.282L65.2554 45.2768L73.872 40.7617C76.096 43.5836 77.9404 46.5964 79.3623 49.7334C79.4073 49.828 79.4488 49.9241 79.4921 50.0202C79.5751 50.2068 79.6567 50.4003 79.6467 50.5977Z" fill="#FEB62C"/>
<path d="M67.2561 45.7687C67.2561 46.0132 67.0502 46.2113 66.796 46.2113C66.5419 46.2113 66.3359 46.0132 66.3359 45.7687C66.3359 45.5244 66.5419 45.3262 66.796 45.3262C67.0502 45.3262 67.2561 45.5242 67.2561 45.7687Z" fill="#DD6B17"/>
<path d="M72.3479 43.3097C72.3479 43.554 72.1419 43.7523 71.8878 43.7523C71.6337 43.7523 71.4277 43.5542 71.4277 43.3097C71.4277 43.0654 71.6337 42.8672 71.8878 42.8672C72.1419 42.8672 72.3479 43.0654 72.3479 43.3097Z" fill="#DD6B17"/>
<path d="M69.4376 56.3782L69.4109 56.3608L68.7715 55.9339C67.866 55.1374 66.8205 54.4422 65.6786 53.8739C65.3373 54.4009 64.996 54.9279 64.6547 55.4536C64.6048 55.2494 64.5565 55.0466 64.5083 54.8426C63.7025 51.495 62.9885 48.1313 62.3708 44.7582C62.3657 44.7343 62.3625 44.7115 62.3574 44.6875L65.2539 45.2759L65.269 45.2786C65.4088 46.134 65.7333 46.9597 66.0581 47.7831C66.679 49.3629 67.2998 50.944 67.9226 52.525C68.1441 53.0894 68.3653 53.6537 68.5885 54.2181C68.8449 54.8718 69.1029 55.5257 69.3593 56.1808C69.3827 56.2394 69.406 56.2995 69.4293 56.3583C69.4327 56.3649 69.4344 56.3715 69.4376 56.3782Z" fill="#EA8124"/>
<path d="M65.1997 34.4102C63.6662 34.8034 62.8074 38.54 66.6105 45.6686" stroke="#E6EFFF" stroke-width="1.5696" stroke-miterlimit="10" stroke-linecap="round"/>
<path d="M86.9343 15.4453C86.9309 15.512 86.9292 15.5788 86.9261 15.6468C86.8429 17.4054 86.5249 19.6042 86.0037 21.635C85.6924 22.8452 85.3095 23.9967 84.8617 24.9586C81.8935 25.5297 78.8854 25.9634 75.8557 26.2596C75.581 26.2863 75.2914 26.3102 75.0367 26.2249C74.5906 26.0741 74.409 25.6538 74.2792 25.2789C73.4701 22.9533 72.781 20.094 72.0269 17.6842C71.9702 17.5028 71.9136 17.3226 71.8555 17.1465L81.5074 16.0577L86.9343 15.4453Z" fill="#FF7C7D"/>
<path d="M86.9253 15.6452C86.8655 15.6626 86.8021 15.6772 86.7372 15.6879C86.0631 15.7972 85.2988 15.9147 84.4781 16.0361C80.2664 16.6565 74.5896 17.3704 72.1375 17.6732C72.0991 17.6773 72.0626 17.6812 72.0259 17.6825C71.3817 17.7172 70.7973 17.3569 70.6858 16.8365C70.581 16.3588 70.4859 15.8224 70.4993 15.5169C70.5192 15.0859 70.8822 14.7136 71.3949 14.5869L71.4931 14.5616C72.2856 14.3894 73.0829 14.2294 73.882 14.0799C77.9322 13.3167 82.0625 12.8257 86.2158 12.6136C86.8734 12.5789 87.451 12.9524 87.5577 13.4742C87.6309 13.8383 87.6941 14.2054 87.7441 14.5723C87.811 15.0449 87.4663 15.4853 86.9253 15.6452Z" fill="#FF7C7D"/>
<path d="M82.3454 25.5185L79.6834 25.772C79.452 25.1115 77.6259 17.8586 76.8086 14.7497C76.7087 14.3694 76.6238 14.0506 76.5589 13.8144C76.5373 13.7344 76.5173 13.6636 76.4989 13.6036C76.4838 13.5489 76.4704 13.5009 76.459 13.4635L77.3745 13.3901L80.1446 13.166C80.5391 14.3508 82.3487 22.3697 82.3454 25.5185Z" fill="#FFDCDE"/>
<path d="M80.22 33.7266C79.6284 33.7255 79.1201 34.0625 79.01 34.5285L78.3654 37.2562C78.2971 37.5456 78.2286 37.8435 78.2994 38.1323C78.4579 38.779 79.2567 39.1925 80.0346 39.4066C81.2019 39.7277 82.456 39.7709 83.6894 39.8003C87.284 39.8858 90.8823 39.8787 94.4764 39.7789C95.2129 39.7585 96.0292 39.7065 96.5353 39.2768C97.0281 38.8586 97.0592 38.2234 97.0622 37.6483C97.0652 37.0692 97.0681 36.4901 97.0711 35.9112C97.073 35.5476 97.0707 35.1686 96.8696 34.8425C96.4163 34.1074 95.2108 33.9585 94.189 33.9143C90.5866 33.7582 82.9727 33.7312 80.22 33.7266Z" fill="#1F1473"/>
<path d="M82.3223 52.6089C83.2908 53.0299 84.1936 53.5481 85.0026 54.1475C84.9757 54.5306 84.9488 54.9138 84.922 55.2968C84.8626 56.142 84.8665 57.1146 85.6625 57.6707C86.0766 57.9601 86.6332 58.0754 87.1722 58.1599C87.9747 58.2855 88.789 58.3627 89.6061 58.3906C90.1792 58.4101 90.7713 58.4026 91.2995 58.2238C92.117 57.9468 92.6462 57.31 93.0603 56.6807C93.5933 55.8711 94.0273 54.9576 93.8258 54.0566C93.4949 52.5776 91.4762 51.6359 89.6025 51.6834C89.0003 51.6987 88.3838 51.7996 87.8871 52.0732C87.5108 52.2804 87.2134 52.5805 86.8001 52.7364C86.3318 52.9131 85.7877 52.8784 85.2722 52.8398C84.0831 52.751 82.3223 52.6089 82.3223 52.6089Z" fill="#FF7C7D"/>
<path d="M89.7182 55.0337C90.0937 54.868 90.5258 54.7859 90.9543 54.7986C91.1592 54.8047 91.3811 54.8399 91.5141 54.9649C91.702 55.1414 91.6295 55.4164 91.4793 55.6148C91.2625 55.9013 90.9186 56.1098 90.5699 56.2944C89.8672 56.6665 89.0418 56.9819 88.2105 56.8721C88.1621 56.8656 88.1102 56.8561 88.0786 56.8262C88.0514 56.8005 88.045 56.765 88.0395 56.7317C87.9146 55.9554 87.7892 55.1755 87.8136 54.3931C87.821 54.157 87.8435 53.9157 87.9591 53.6984C88.0747 53.4812 88.2994 53.2889 88.587 53.2379C89.0136 53.162 89.4435 53.4222 89.6196 53.7426C89.7957 54.0631 89.7798 54.4276 89.7598 54.7774L89.7182 55.0337Z" fill="#ECE9E9"/>
<path d="M31.9082 64.2598C34.6618 69.9597 39.1744 76.0193 44.6312 80.289" stroke="#FEB62C" stroke-width="1.5696" stroke-miterlimit="10"/>
<path d="M33.7575 67.8365C32.6838 67.174 31.3514 66.7846 29.9975 66.7379C29.633 66.7253 29.2508 66.7404 28.933 66.8839C28.8688 66.9128 28.8028 66.9533 28.7909 67.0116C28.7756 67.0873 28.8573 67.1514 28.9337 67.1973C29.8749 67.7627 31.124 67.8401 32.2981 67.8965C32.7421 67.9178 33.1859 67.9392 33.6298 67.9605C33.6691 67.9623 33.7174 67.9601 33.7344 67.9317C33.7514 67.9033 33.6793 67.8751 33.6773 67.9066L33.7575 67.8365Z" fill="#FEB62C"/>
<path d="M34.8627 69.3487C34.8101 68.2895 35.3852 67.221 36.383 66.5251C36.5336 66.4201 36.7001 66.3204 36.8952 66.2861C37.0904 66.2519 37.3201 66.2992 37.4253 66.4352C37.504 66.5369 37.5002 66.6659 37.4754 66.7839C37.357 67.3458 36.8426 67.7933 36.3512 68.2052C36.0374 68.4682 35.7237 68.7312 35.4098 68.9942L34.8627 69.3487Z" fill="#FEB62C"/>
<path d="M35.557 70.4054C34.7178 69.9137 33.731 69.5848 32.7044 69.4547C32.184 69.3887 31.616 69.3806 31.1697 69.605C31.1094 69.6352 31.0488 69.6733 31.0286 69.7279C30.9917 69.8279 31.1048 69.9205 31.2104 69.9814C32.4163 70.6752 34.0359 70.6484 35.5084 70.4964" fill="#FEB62C"/>
<path d="M37.9143 69.225C38.1745 69.0281 38.5956 68.854 38.8612 69.0463C39.0951 69.216 38.994 69.5242 38.8523 69.7502C38.3217 70.5957 37.4557 71.3034 36.4112 71.7448C36.359 71.7669 37.0013 69.916 37.9143 69.225Z" fill="#FEB62C"/>
<path d="M37.816 73.3485C36.9005 72.9252 35.9691 72.4968 34.9418 72.2978C34.722 72.2553 34.4921 72.2235 34.2706 72.2603C34.0492 72.297 33.8366 72.4158 33.7723 72.5896C33.6896 72.8138 33.8714 73.0476 34.0895 73.203C34.5338 73.5196 35.1437 73.6528 35.7378 73.6698C36.332 73.6867 36.9219 73.5978 37.5086 73.5202C37.5615 73.5134 37.816 73.3485 37.816 73.3485Z" fill="#FEB62C"/>
<path d="M38.582 74.5031C38.8313 73.4983 39.3771 72.5416 40.1621 71.7332C40.2673 71.6249 40.4612 71.5117 40.587 71.6048C40.6379 71.6424 40.6523 71.7016 40.6574 71.757C40.6937 72.1569 40.3827 72.5195 40.0671 72.8305C39.6437 73.2472 38.582 74.5031 38.582 74.5031Z" fill="#FEB62C"/>
<path d="M40.2551 76.1276C39.7316 75.9301 39.1777 75.7844 38.6099 75.6951C38.1712 75.6261 37.6954 75.5946 37.2954 75.7546C37.2192 75.7852 37.1365 75.8405 37.155 75.9071C37.1677 75.953 37.2237 75.9814 37.2757 76.0032C37.9065 76.2693 38.6617 76.3405 39.3523 76.199C39.4658 76.1759 40.2551 76.1276 40.2551 76.1276Z" fill="#FEB62C"/>
<path d="M32.1142 64.8773C31.0165 63.9677 30.4698 62.6492 30.6694 61.3939C30.6947 61.2347 30.7447 61.0593 30.9106 60.9693C31.0945 60.8695 31.3497 60.9176 31.5376 61.0127C31.9212 61.2063 32.135 61.556 32.2775 61.9008C32.5938 62.6654 32.6511 63.4976 32.4417 64.2854L32.1142 64.8773Z" fill="#FEB62C"/>
<path d="M32.8516 66.2461C33.1129 65.1955 33.7198 64.2015 34.5944 63.3915C34.7244 63.2712 34.8939 63.1445 35.0905 63.1666C35.3383 63.1946 35.4473 63.4396 35.4295 63.6397C35.3892 64.095 34.9859 64.4696 34.603 64.8074C34.0643 65.2828 33.5257 65.7581 32.9869 66.2335L32.8516 66.2461Z" fill="#FEB62C"/>
<path d="M88.4306 74.1543C87.9417 75.6858 88.0647 77.3033 87.4794 78.8159C87.1364 79.7019 86.5576 80.5308 85.8771 81.3037C84.5259 82.8386 82.6327 84.2281 80.2287 84.6795C79.8234 84.756 79.4042 84.8041 78.9876 84.7783L78.2144 84.7208L77.4467 84.664C76.9752 82.9863 77.7908 81.2145 79.1904 79.8474C80.5902 78.481 82.5245 77.4658 84.5123 76.5812C85.834 75.9932 87.2548 75.4085 88.1381 74.4955C88.2444 74.3865 88.3415 74.2728 88.4306 74.1543Z" fill="#FB7D80"/>
<path opacity="0.24" d="M88.4293 74.1543C87.9404 75.6858 88.0634 77.3033 87.4782 78.8159C87.1352 79.7019 86.5563 80.5308 85.8758 81.3037C84.5246 82.8386 82.6314 84.2281 80.2274 84.6795C79.8221 84.756 79.4029 84.8041 78.9863 84.7783L78.2131 84.7208C78.1921 84.5646 78.1819 84.4663 78.1819 84.4663C78.1635 83.0559 79.0304 81.7038 80.2117 80.5944C81.393 79.4859 82.8808 78.5804 84.3228 77.6545C85.7657 76.7287 87.1928 75.7582 88.2036 74.561L88.1366 74.4953C88.2431 74.3865 88.3402 74.2728 88.4293 74.1543Z" fill="#111111"/>
<path d="M31.6559 71.2676C32.8319 72.5367 34.4765 73.4793 35.5734 74.7966C36.2157 75.5683 36.6541 76.4508 36.9742 77.3614C37.6102 79.1693 37.7638 81.2231 36.6864 83.0038C36.505 83.3044 36.2876 83.5955 36.0002 83.8386L35.4574 84.2837L34.9186 84.7257C32.9959 83.9622 31.793 82.3384 31.3503 80.6058C30.9082 78.8737 31.1434 77.03 31.5386 75.2355C31.8014 74.0424 32.13 72.7895 31.8021 71.6646C31.7635 71.5297 31.7147 71.3975 31.6559 71.2676Z" fill="#FEB62C"/>
<path opacity="0.24" d="M31.6562 71.2676C32.8323 72.5367 34.4768 73.4793 35.5737 74.7966C36.216 75.5683 36.6545 76.4508 36.9746 77.3614C37.6105 79.1693 37.7641 81.2231 36.6867 83.0038C36.5053 83.3044 36.2879 83.5955 36.0005 83.8386L35.4577 84.2837C35.2929 84.1983 35.1915 84.1427 35.1915 84.1427C33.8133 83.2655 33.0493 81.8741 32.719 80.44C32.3891 79.0063 32.4492 77.5098 32.4606 76.029C32.4727 74.5477 32.4316 73.048 31.9082 71.6644L31.8024 71.6647C31.7638 71.5297 31.715 71.3975 31.6562 71.2676Z" fill="#111111"/>
<path d="M40.9014 71.7539C41.0986 73.3269 41.907 74.8121 42.0057 76.3938C42.0631 77.3202 41.8748 78.2581 41.5668 79.1714C40.9557 80.985 39.7731 82.8109 37.7087 83.8968C37.3608 84.0803 36.9877 84.2407 36.5855 84.3312L35.8346 84.49L35.0892 84.6479C33.9274 83.2021 33.934 81.3136 34.6627 79.6444C35.3917 77.9757 36.7735 76.4898 38.2611 75.112C39.2504 74.1958 40.3341 73.2555 40.7726 72.155C40.826 72.0232 40.8685 71.8896 40.9014 71.7539Z" fill="#1F1473"/>
<path opacity="0.24" d="M40.8975 71.7539C41.0948 73.3269 41.9032 74.8121 42.0018 76.3938C42.0593 77.3202 41.871 78.2581 41.563 79.1714C40.9518 80.985 39.7693 82.8109 37.7049 83.8968C37.357 84.0803 36.9839 84.2407 36.5817 84.3312L35.8308 84.49C35.744 84.3489 35.6925 84.2596 35.6925 84.2596C35.0708 82.94 35.3054 81.4314 35.9396 80.0645C36.5741 78.6981 37.5833 77.4381 38.5406 76.1717C39.499 74.9049 40.4234 73.6006 40.8598 72.198L40.7688 72.1548C40.8222 72.0232 40.8646 71.8896 40.8975 71.7539Z" fill="#111111"/>
<path d="M47.1494 74.1543C46.6604 75.6858 46.7834 77.3033 46.1982 78.8159C45.8552 79.7019 45.2763 80.5308 44.5958 81.3037C43.2448 82.8386 41.3517 84.2281 38.9475 84.6795C38.5421 84.756 38.123 84.8041 37.7063 84.7783L36.9332 84.7208L36.1655 84.664C35.6939 82.9863 36.5096 81.2145 37.9091 79.8474C39.3089 78.481 41.2433 77.4658 43.231 76.5812C44.5528 75.9932 45.9736 75.4085 46.8568 74.4955C46.9633 74.3865 47.0605 74.2728 47.1494 74.1543Z" fill="#FB7D80"/>
<path opacity="0.24" d="M47.15 74.1543C46.6611 75.6858 46.7841 77.3033 46.1989 78.8159C45.8559 79.7019 45.277 80.5308 44.5965 81.3037C43.2455 82.8386 41.3523 84.2281 38.9481 84.6795C38.5428 84.756 38.1236 84.8041 37.707 84.7783L36.9338 84.7208C36.9128 84.5646 36.9026 84.4663 36.9026 84.4663C36.8842 83.0559 37.7511 81.7038 38.9324 80.5944C40.1139 79.4859 41.6015 78.5804 43.0435 77.6545C44.4864 76.7287 45.9135 75.7582 46.9243 74.561L46.8573 74.4953C46.964 74.3865 47.0611 74.2728 47.15 74.1543Z" fill="#111111"/>
<path d="M28.22 52.1816C27.6735 52.2214 27.2404 52.5674 27.1886 53.0052L26.8853 55.5681C26.853 55.84 26.8219 56.1196 26.9182 56.3816C27.1337 56.9678 27.9156 57.2948 28.6565 57.4389C29.7686 57.6552 30.9311 57.609 32.0733 57.5513C35.4015 57.3833 38.7231 57.1294 42.031 56.7902C42.7089 56.7206 43.457 56.6164 43.8781 56.1851C44.2884 55.7652 44.2493 55.1764 44.1904 54.6451C44.1312 54.1102 44.072 53.5754 44.0126 53.0405C43.9755 52.7046 43.9326 52.3548 43.7122 52.0675C43.215 51.4198 42.0859 51.3654 41.1377 51.3948C37.7953 51.4985 30.7622 51.9968 28.22 52.1816Z" fill="#ECE9E9"/>
<path d="M42.6981 54.221C42.6512 55.1645 41.6591 55.8989 40.4819 55.8613C39.3048 55.8238 38.3884 55.0286 38.4353 54.085C38.4822 53.1416 39.4743 52.4072 40.6516 52.4447C41.8288 52.4823 42.745 53.2776 42.6981 54.221Z" fill="#FEB62C"/>
<path d="M41.5711 54.732C41.3411 55.0684 40.9472 55.2861 40.51 55.2721C40.0729 55.2582 39.7016 55.0162 39.5059 54.666" stroke="#ECE9E9" stroke-width="1.5696" stroke-miterlimit="10" stroke-linecap="round"/>
<path d="M40.1426 53.8433C40.1346 54.0061 40.0529 54.1357 39.9602 54.1328C39.8677 54.1299 39.7992 53.9954 39.8073 53.8326C39.8153 53.6697 39.897 53.54 39.9897 53.543C40.0822 53.5459 40.1507 53.6804 40.1426 53.8433Z" fill="#ECE9E9"/>
<path d="M41.3573 53.8823C41.3493 54.0452 41.2676 54.1749 41.1751 54.1719C41.0824 54.169 41.0139 54.0345 41.0222 53.8716C41.0302 53.7087 41.1119 53.5792 41.2044 53.5821C41.2969 53.585 41.3654 53.7194 41.3573 53.8823Z" fill="#ECE9E9"/>
<path d="M37.5614 54.5121C37.5145 55.4555 36.5224 56.1899 35.3451 56.1524C34.1681 56.1148 33.2517 55.3196 33.2986 54.3761C33.3455 53.4326 34.3376 52.6982 35.5148 52.7358C36.6919 52.7733 37.6081 53.5687 37.5614 54.5121Z" fill="#FEB62C"/>
<path d="M35.004 54.1343C34.996 54.2972 34.9143 54.4267 34.8216 54.4238C34.7289 54.4209 34.6604 54.2864 34.6686 54.1236C34.6767 53.9607 34.7584 53.8311 34.8511 53.834C34.9433 53.8369 35.0121 53.9714 35.004 54.1343Z" fill="#ECE9E9"/>
<path d="M36.2225 54.1733C36.2145 54.3362 36.1328 54.4658 36.0403 54.4629C35.9476 54.46 35.8791 54.3255 35.8874 54.1626C35.8955 53.9998 35.9771 53.8702 36.0696 53.8731C36.1621 53.8762 36.2306 54.0105 36.2225 54.1733Z" fill="#ECE9E9"/>
<path d="M34.291 54.8105L36.5323 54.8812" stroke="#ECE9E9" stroke-width="1.5696" stroke-miterlimit="10" stroke-linecap="round"/>
<path d="M32.4247 54.8029C32.3778 55.7463 31.3857 56.4808 30.2084 56.4432C29.0314 56.4056 28.115 55.6105 28.1619 54.6671C28.2088 53.7237 29.2008 52.9892 30.3781 53.0268C31.5552 53.0642 32.4713 53.8595 32.4247 54.8029Z" fill="#FEB62C"/>
<path d="M29.209 55.6833C29.4389 55.3467 29.8328 55.1293 30.27 55.1432C30.7072 55.1572 31.0784 55.3991 31.2742 55.7493" stroke="#ECE9E9" stroke-width="1.5696" stroke-miterlimit="10" stroke-linecap="round"/>
<path d="M29.8674 54.4292C29.8594 54.5921 29.7777 54.7216 29.685 54.7187C29.5923 54.7157 29.524 54.5814 29.5319 54.4185C29.5399 54.2556 29.6216 54.1259 29.7143 54.129C29.8072 54.1318 29.8757 54.2663 29.8674 54.4292Z" fill="#ECE9E9"/>
<path d="M31.0801 54.4663C31.0721 54.6292 30.9904 54.7587 30.8979 54.7558C30.8052 54.753 30.7367 54.6185 30.7448 54.4556C30.7528 54.2927 30.8345 54.1632 30.927 54.1661C31.0197 54.169 31.0882 54.3034 31.0801 54.4663Z" fill="#ECE9E9"/>
<path d="M82.7999 34.9907L83.4511 36.0482C83.4634 36.0681 83.4872 36.0819 83.5145 36.0851L84.9705 36.2546C85.0397 36.2626 85.0673 36.3308 85.0172 36.3697L83.9636 37.1929C83.9437 37.2084 83.9347 37.2308 83.9394 37.2526L84.1882 38.415C84.2001 38.4701 84.1278 38.5122 84.0661 38.4862L82.7636 37.9374C82.739 37.9271 82.7097 37.9271 82.6854 37.9374L81.3829 38.4862C81.3212 38.5122 81.2491 38.4702 81.2607 38.415L81.5096 37.2526C81.5142 37.2307 81.5051 37.2084 81.4854 37.1929L80.4318 36.3697C80.3817 36.3306 80.4095 36.2626 80.4784 36.2546L81.9344 36.0851C81.9618 36.0819 81.9856 36.0681 81.9979 36.0482L82.6491 34.9907C82.6798 34.9406 82.7691 34.9406 82.7999 34.9907Z" fill="#FFCC7B"/>
<path d="M88.5465 34.9907L89.1977 36.0482C89.21 36.0681 89.2337 36.0819 89.2611 36.0851L90.7171 36.2546C90.7863 36.2626 90.8138 36.3308 90.7638 36.3697L89.7102 37.1929C89.6902 37.2084 89.6813 37.2308 89.686 37.2526L89.9346 38.415C89.9465 38.4701 89.8741 38.5122 89.8124 38.4862L88.51 37.9374C88.4854 37.9271 88.4561 37.9271 88.4317 37.9374L87.1293 38.4862C87.0676 38.5122 86.9952 38.4702 87.0071 38.415L87.2557 37.2526C87.2604 37.2307 87.2515 37.2084 87.2315 37.1929L86.1779 36.3697C86.1279 36.3306 86.1554 36.2626 86.2246 36.2546L87.6806 36.0851C87.708 36.0819 87.7317 36.0681 87.744 36.0482L88.3952 34.9907C88.4262 34.9406 88.5155 34.9406 88.5465 34.9907Z" fill="#FFCC7B"/>
<path d="M94.2941 34.9907L94.9453 36.0482C94.9576 36.0681 94.9812 36.0819 95.0087 36.0851L96.4647 36.2546C96.5339 36.2626 96.5615 36.3308 96.5114 36.3697L95.4578 37.1929C95.4379 37.2084 95.4289 37.2308 95.4336 37.2526L95.6824 38.415C95.6943 38.4701 95.622 38.5122 95.5602 38.4862L94.258 37.9374C94.2334 37.9271 94.2042 37.9271 94.1798 37.9374L92.8773 38.4862C92.8156 38.5122 92.7433 38.4702 92.7552 38.415L93.0038 37.2526C93.0084 37.2307 92.9993 37.2084 92.9796 37.1929L91.926 36.3697C91.8759 36.3306 91.9035 36.2626 91.9726 36.2546L93.4286 36.0851C93.456 36.0819 93.4798 36.0681 93.4921 36.0482L94.1433 34.9907C94.174 34.9406 94.2631 34.9406 94.2941 34.9907Z" fill="#ECE9E9"/>
<path d="M67.2955 31.7565C67.2472 32.0394 67.3903 32.3675 67.7183 32.4784C67.9346 32.5505 68.2244 32.5345 68.3525 32.6919C68.3642 32.7065 68.3742 32.7227 68.3807 32.7387C68.444 32.8667 68.3674 33.0216 68.2726 33.1443C67.7798 33.7795 66.796 34.145 65.872 34.0355C64.948 33.9262 64.1373 33.3471 63.8959 32.6253C63.7293 32.1315 63.8458 31.5497 64.322 31.2096L65.2876 30.2369L67.535 27.9727C68.1909 28.1981 68.5205 28.8212 68.4773 29.3909C68.4357 29.9606 68.0944 30.4877 67.7266 30.9773C67.5437 31.2215 67.3456 31.4722 67.2955 31.7565Z" fill="#565252"/>
<g opacity="0.24">
<path d="M68.2726 33.1437C67.7798 33.7789 66.796 34.1444 65.872 34.0349C64.948 33.9256 64.1373 33.3466 63.8959 32.6247C63.7293 32.131 63.8458 31.5492 64.322 31.209L65.2876 30.2363L65.8851 30.3365C65.5988 30.5233 65.5023 30.8368 65.4424 31.1291C65.3525 31.568 65.3092 32.0137 65.3126 32.4593C65.3143 32.606 65.3226 32.7568 65.4026 32.8875C65.579 33.1771 66.0285 33.269 66.4248 33.3292C66.5896 33.3546 66.761 33.3785 66.9275 33.3546C67.1424 33.324 67.3254 33.2145 67.5068 33.1157C67.7815 32.9676 68.0744 32.8421 68.3807 32.7381C68.4442 32.8661 68.3674 33.021 68.2726 33.1437Z" fill="#111111"/>
</g>
<path d="M67.0411 26.9583C67.5561 26.9074 68.0109 27.4727 68.0888 28.0839C68.1666 28.6951 67.9477 29.3106 67.6467 29.813C67.5404 29.9903 67.418 30.1637 67.2532 30.2576C66.8591 30.482 66.3625 30.1351 66.2039 29.6489C66.045 29.1627 66.1472 28.6079 66.3243 28.1309L67.0411 26.9583Z" fill="#FEB62C"/>
<path d="M64.1771 32.0106C64.8905 32.1298 65.2155 31.7085 65.7657 31.3258C66.3159 30.9429 66.7741 30.373 67.0024 29.8183C67.4775 28.6632 67.7461 27.6133 67.1525 26.494C66.7958 25.8212 66.24 25.2007 65.4751 24.8025C64.2722 24.1763 62.7232 24.1738 61.3084 24.3622L60.8279 24.2182C60.9107 23.8152 60.3816 23.4665 59.8723 23.4555C59.363 23.4443 58.8953 23.6648 58.466 23.8846C58.1007 24.0718 57.6998 24.3178 57.6868 24.6651C57.6847 24.7218 57.6898 24.7867 57.6387 24.8258C57.598 24.8571 57.536 24.8598 57.4796 24.8624C56.6992 24.8981 55.9553 25.2704 55.5726 25.8166C55.19 26.3631 55.1811 27.0659 55.5497 27.6185L64.1771 32.0106Z" fill="#565252"/>
<path d="M56.2169 28.2707C55.9257 26.676 54.955 27.5706 54.8095 28.4652C54.664 29.3598 55.3434 29.8267 55.3434 29.8267L56.2169 28.2707Z" fill="#F4BD9F"/>
<path d="M63.1442 31.4595C65.1193 31.156 64.3839 32.1848 63.3774 32.5889C62.3708 32.993 61.5977 32.6319 61.5977 32.6319L63.1442 31.4595Z" fill="#F4BD9F"/>
<path d="M58.1499 32.4586L57.4157 34.2444C57.3538 34.3951 57.3733 34.5627 57.4832 34.6945C57.6692 34.9174 58.099 35.1998 59.0868 35.2292C59.349 35.237 59.5925 35.1171 59.7068 34.9277L60.7719 33.1649C60.9535 32.8644 60.7505 32.5057 60.3489 32.4173L58.9593 32.1111C58.6172 32.0355 58.261 32.1885 58.1499 32.4586Z" fill="#F4BD9F"/>
<path d="M56.8963 26.1308C54.858 28.9703 54.13 32.4711 56.9448 33.6379C59.7597 34.8049 63.7393 32.1987 64.3216 30.215C64.9038 28.2313 60.7787 26.2086 60.7787 26.2086L57.6243 25.6641L56.8963 26.1308Z" fill="#F9D2B2"/>
<path d="M64.0181 29.3887C63.91 29.6835 63.7118 29.989 63.354 30.0999C63.1658 30.1585 62.956 30.1546 62.7564 30.1279C61.6178 29.9798 60.7256 29.0538 60.8336 28.1331C60.6804 28.3693 60.7587 28.6748 60.5739 28.8963C60.449 29.0444 60.226 29.1245 60.0046 29.1512C59.4153 29.2219 58.8227 28.9591 58.448 28.5881C58.0734 28.2171 57.8787 27.7515 57.7205 27.2912C57.454 26.5134 57.2761 25.6674 57.6273 24.915C57.6324 24.9015 57.639 24.8883 57.6456 24.875L63.6868 27.3941L63.9265 27.4942C64.2129 28.0946 64.2462 28.771 64.0181 29.3887Z" fill="#565252"/>
<path d="M58.3626 30.5234C58.2107 30.5937 58.0478 30.6742 57.9879 30.8063C57.9281 30.9384 58.0516 31.1234 58.224 31.0984" stroke="#EFAC86" stroke-width="1.5696" stroke-miterlimit="10" stroke-linecap="round"/>
<path d="M58.0826 32.0195C58.0283 31.9573 58.0709 31.8709 58.1636 31.8553L59.8294 31.5748C59.8531 31.5709 59.8773 31.5668 59.9015 31.569C60.0292 31.5812 60.0309 31.7317 59.9793 31.8262C59.7443 32.2577 59.144 32.5403 58.56 32.5012C58.5212 32.4986 58.4858 32.4811 58.4633 32.4554L58.0826 32.0195Z" fill="#ECE9E9"/>
<g opacity="0.24">
<path d="M64.0181 29.3898C63.91 29.6846 63.7118 29.9901 63.354 30.1009C63.1658 30.1596 62.956 30.1557 62.7564 30.129C61.6178 29.9809 60.7256 29.0548 60.8336 28.1342C60.6804 28.3704 60.7587 28.6759 60.5739 28.8974C60.449 29.0455 60.226 29.1256 60.0046 29.1523C59.4153 29.223 58.8227 28.9601 58.448 28.5892C58.0734 28.2182 57.8787 27.7525 57.7205 27.2923C57.454 26.5145 57.2761 25.6685 57.6273 24.916C57.6307 25.6699 57.9869 26.4237 58.6362 26.9694C58.8409 27.1415 59.0791 27.2964 59.3604 27.3724C59.6417 27.4497 59.9713 27.4365 60.2127 27.2977C60.5039 27.1269 60.6021 26.8186 60.6804 26.5373C60.8136 26.9936 61.1632 27.4059 61.6443 27.6728C62.0588 27.901 62.6016 28.0196 63.0725 27.8822C63.3506 27.8008 63.5803 27.6128 63.6868 27.3953L63.9265 27.4955C64.2129 28.0956 64.2462 28.7721 64.0181 29.3898Z" fill="#111111"/>
</g>
<path d="M58.0167 29.407C57.9113 29.5633 57.731 29.649 57.6139 29.5983C57.4968 29.5476 57.4874 29.3798 57.5929 29.2234C57.6983 29.0672 57.8786 28.9815 57.9957 29.0322C58.1126 29.083 58.1221 29.2508 58.0167 29.407Z" fill="#565252"/>
<path d="M60.1964 30.2078C60.0909 30.3641 59.9106 30.4497 59.7935 30.3991C59.6765 30.3484 59.6671 30.1806 59.7725 30.0242C59.878 29.868 60.0583 29.7823 60.1754 29.8329C60.2922 29.8836 60.3016 30.0514 60.1964 30.2078Z" fill="#565252"/>
<path d="M71.8267 42.9159C69.7411 36.2788 67.4629 34.75 67.4629 34.75" stroke="#E6EFFF" stroke-width="1.5696" stroke-miterlimit="10" stroke-linecap="round"/>
<g opacity="0.24">
<path d="M79.646 50.6007C79.6378 50.7741 79.5578 50.9395 79.4696 51.0983C78.6372 52.6087 77.0208 53.7735 75.2229 54.5807C73.425 55.3893 71.4357 55.8762 69.4646 56.3592C69.453 56.3606 69.4413 56.3619 69.4296 56.3619C69.433 56.3686 69.4347 56.3752 69.4379 56.382L69.4112 56.3647C67.7499 56.5275 66.2116 56.3487 64.7634 55.6695C64.6518 55.6174 64.5371 55.5547 64.5004 55.4573V55.4559C64.5038 55.2531 64.5052 55.0489 64.5086 54.8461C63.7028 51.4985 62.9888 48.1348 62.3711 44.7617L63.2117 44.9753C64.0208 47.3488 64.8315 49.7292 65.3359 52.1563C65.3726 52.3244 65.4059 52.4938 65.4375 52.6633C65.5275 53.1317 65.6388 53.6533 66.1116 53.9389C66.4313 54.1324 66.8524 54.1723 67.252 54.1951C67.5267 54.2097 67.8031 54.2191 68.0778 54.2232C68.2477 54.2245 68.4191 54.2245 68.5888 54.2218C68.7519 54.2204 68.9133 54.2152 69.075 54.2085C70.5883 54.1485 72.0899 53.9124 73.5181 53.5067C74.6801 53.1772 75.8853 52.6607 76.3597 51.7469C76.5111 51.4547 76.5845 51.1291 76.8308 50.881C77.0406 50.6702 77.3517 50.5434 77.6532 50.422C78.2225 50.1938 78.7918 49.9643 79.3612 49.7362C79.4061 49.8309 79.4477 49.9269 79.491 50.023C79.5743 50.2098 79.656 50.4033 79.646 50.6007Z" fill="#111111"/>
</g>
<path d="M76.6965 69.9808C76.3569 71.0468 75.2315 72.7774 74.3659 74.1984C73.1091 76.2625 72.0603 74.8135 72.4931 72.4545C72.926 70.0942 72.2201 70.5065 72.2201 70.5065C72.2201 70.5065 71.669 70.5932 71.088 70.4785C70.815 70.4237 70.6535 70.1983 70.7333 69.9822C70.745 69.9489 70.7583 69.9167 70.7683 69.8848C70.8915 69.5565 71.0063 69.2603 71.1162 68.9975V68.9961C71.3376 68.4704 71.5375 68.0821 71.7337 67.8567C71.8618 67.7086 71.9884 67.6299 72.1199 67.6271C72.5978 67.6164 73.2304 68.0515 73.5467 68.2689C73.8629 68.4864 75.7207 68.6452 76.5764 69.0294C76.843 69.1496 76.8513 69.4964 76.6965 69.9808Z" fill="#565252"/>
<g opacity="0.24">
<path d="M55.6447 77.458C55.643 77.4941 55.6413 77.5315 55.6381 77.5674C55.6331 77.6314 55.6265 77.6955 55.5983 77.7542C55.545 77.8635 55.4269 77.9424 55.307 78.0104C54.0602 78.7189 52.4304 78.7802 50.9006 78.8057C50.4878 78.8124 50.0199 78.8005 49.7454 78.5522C49.4323 78.268 49.5291 77.813 49.286 77.4888C49.1727 77.3366 48.9879 77.2193 48.9131 77.0525C48.7966 76.7991 48.9763 76.5095 49.2461 76.3467C49.4675 76.2132 49.7371 76.1452 50.007 76.0879C50.1518 76.9779 50.9541 77.821 52.0563 77.9358C52.9669 78.0305 53.8343 77.6435 54.7298 77.4861C55.0188 77.4354 55.3384 77.4247 55.6447 77.458Z" fill="#111111"/>
</g>
<g opacity="0.24">
<path d="M76.6964 69.9814C76.3568 71.0474 75.2315 72.7779 74.3658 74.1989C73.109 76.2631 72.0603 74.814 72.493 72.4551C72.926 70.0948 72.22 70.5071 72.22 70.5071C72.22 70.5071 71.6689 70.5938 71.0879 70.479C70.8149 70.4243 70.6535 70.1988 70.7333 69.9827C70.7449 69.9494 70.7583 69.9173 70.7683 69.8853C70.7483 69.8853 70.7267 69.884 70.7067 69.8814C70.5619 69.8641 70.442 69.7854 70.3239 69.716C70.1257 69.5999 69.9111 69.5025 69.6862 69.4265C69.5314 69.6266 69.3716 69.8241 69.2134 70.0176C68.9871 70.2937 68.709 70.5967 68.2979 70.6366C67.8285 70.6834 67.4172 70.3617 66.9446 70.3377C66.7248 70.327 66.4985 70.3818 66.2853 70.3377C65.959 70.2711 65.7626 69.9882 65.7476 69.7187C65.7425 69.624 65.7541 69.5305 65.7775 69.4385C62.8608 69.4265 59.946 69.2024 57.0811 68.7687C55.9274 68.5939 54.7221 68.3591 53.7616 67.8481C53.4704 67.6933 53.2006 67.5118 52.9609 67.2998C52.2617 66.6807 51.9105 65.8534 51.8105 65.0195C52.0819 65.6386 52.5979 66.1884 53.2723 66.5619C53.9566 66.9436 54.7773 67.1382 55.5995 67.2477C57.7919 67.5386 60.0476 67.2544 62.255 67.4679C62.9143 67.532 63.5684 67.64 64.2328 67.6561C64.957 67.6721 65.7993 67.6201 66.3869 67.8856C66.5517 67.9603 66.6981 68.0604 66.8147 68.1939C66.833 68.2139 66.848 68.2352 66.8646 68.2552C66.9579 68.378 67.0294 68.5142 67.151 68.6208C67.4923 68.9249 68.0915 68.9076 68.5843 68.8063C68.7408 68.7743 68.8988 68.7355 69.0571 68.6995C69.3984 68.6249 69.7412 68.5674 70.0808 68.6288C70.1306 68.6381 70.179 68.6488 70.2256 68.6621C70.5086 68.7394 70.7617 68.8809 71.0381 68.9742C71.0631 68.9836 71.0896 68.9916 71.1163 68.9968V68.9982C71.253 69.0409 71.3976 69.0728 71.5442 69.1009C72.2817 69.2396 73.099 69.269 73.4703 69.7707C73.6567 70.0229 73.6667 70.3352 73.6134 70.6234C73.5952 70.7194 73.575 70.8262 73.645 70.9035C73.6966 70.9596 73.7848 70.9863 73.8697 71.0037C74.5222 71.1371 75.2031 70.8903 75.7491 70.5754C76.0738 70.387 76.3767 70.1721 76.6964 69.9814Z" fill="#111111"/>
</g>
<g opacity="0.24">
<path d="M86.0028 21.6335C85.6914 22.8436 85.3086 23.9951 84.8608 24.9571C81.8926 25.5281 78.8845 25.9618 75.8547 26.258C75.58 26.2847 75.2905 26.3087 75.0357 26.2233C74.5896 26.0725 74.4081 25.6522 74.2782 25.2774C73.4692 22.9517 72.78 20.0925 72.0259 17.6827C71.3817 17.7174 70.7973 17.3571 70.6858 16.8367C70.581 16.3589 70.4859 15.8226 70.4993 15.517C70.5192 15.0861 70.8822 14.7137 71.3949 14.5871L71.4931 14.5617C72.2856 14.3895 73.0829 14.2295 73.882 14.0801C73.5823 14.5044 73.4459 15.006 73.7306 15.421C74.1467 16.0281 75.1823 16.0975 76.0463 16.0922C77.8659 16.0801 79.6869 16.0669 81.5065 16.0561L84.4781 16.0361C84.7477 16.0347 85.0158 16.032 85.2854 16.0308C83.4593 16.4164 81.6562 16.8727 79.885 17.3957C79.4788 17.5157 79.0677 17.6425 78.7264 17.8547C78.3387 18.095 78.064 18.4297 77.7993 18.7594C77.2049 19.4972 76.6122 20.2577 76.3626 21.1117C76.1129 21.9669 76.2609 22.9449 77.0102 23.5854C77.7993 24.2619 79.1027 24.4246 80.2246 24.203C81.3451 23.9815 82.3206 23.4358 83.2245 22.8581C84.0469 22.3324 84.8975 21.7467 85.9413 21.6386C85.9612 21.6362 85.9829 21.6348 86.0028 21.6335Z" fill="#111111"/>
</g>
<path d="M57.332 85.0008C74.9231 85.0008 89.1835 84.8017 89.1835 84.5561C89.1835 84.3105 74.9231 84.1113 57.332 84.1113C39.7409 84.1113 25.4805 84.3105 25.4805 84.5561C25.4805 84.8017 39.7409 85.0008 57.332 85.0008Z" fill="#D7D7FF"/>
</svg>
