<svg width="104" height="95" viewBox="0 0 104 95" fill="none" xmlns="http://www.w3.org/2000/svg">
<path d="M78.4975 92.4831H29.6917C27.9182 92.4831 26.4805 90.9332 26.4805 89.0212V13.9013C26.4805 11.9894 27.9182 10.4395 29.6917 10.4395H78.4975C80.2711 10.4395 81.7088 11.9894 81.7088 13.9013V89.0212C81.7088 90.9332 80.2711 92.4831 78.4975 92.4831Z" fill="#586773"/>
<path d="M80.3492 92.4831H31.5433C29.7698 92.4831 28.332 90.9332 28.332 89.0212V13.9013C28.332 11.9894 29.7698 10.4395 31.5433 10.4395H80.3491C82.1226 10.4395 83.5604 11.9894 83.5604 13.9013V89.0212C83.5604 90.9332 82.1227 92.4831 80.3492 92.4831Z" fill="#93ACBF"/>
<path d="M80.3592 85.2298H31.5289C31.4896 85.2298 31.4502 85.2228 31.4142 85.2086C31.2437 85.1592 31.1191 84.9896 31.1191 84.7882V13.8925C31.1191 13.6451 31.3027 13.4473 31.5288 13.4473H80.3592C80.5886 13.4473 80.7722 13.6451 80.7722 13.8925V84.7881C80.7722 85.0319 80.5887 85.2298 80.3592 85.2298Z" fill="#586773"/>
<path d="M80.2547 14.0059H31.6387V84.6722H80.2547V14.0059Z" fill="#E5F0F8"/>
<path d="M50.5098 88.8657C50.5098 88.0254 51.1475 87.3379 51.927 87.3379H59.9648C60.7443 87.3379 61.382 88.0254 61.382 88.8657C61.382 89.706 60.7442 90.3935 59.9648 90.3935H51.927C51.1475 90.3935 50.5098 89.706 50.5098 88.8657Z" fill="#F3BBBB"/>
<path d="M80.2547 14.0059H31.6387V18.8947H80.2547V14.0059Z" fill="#F3BBBB"/>
<path d="M35.1611 16.6667C35.2742 16.1536 34.98 15.6387 34.504 15.5168C34.028 15.3948 33.5504 15.712 33.4372 16.2251C33.3241 16.7383 33.6183 17.2532 34.0943 17.3751C34.5703 17.4971 35.0479 17.1799 35.1611 16.6667Z" fill="#ECE9E9"/>
<path d="M37.7275 16.6667C37.8406 16.1536 37.5464 15.6387 37.0704 15.5168C36.5944 15.3948 36.1168 15.712 36.0037 16.2251C35.8905 16.7383 36.1847 17.2532 36.6607 17.3751C37.1367 17.4971 37.6143 17.1799 37.7275 16.6667Z" fill="#ECE9E9"/>
<path d="M40.29 16.6667C40.4031 16.1536 40.1089 15.6387 39.6329 15.5168C39.1569 15.3948 38.6793 15.712 38.5662 16.2251C38.453 16.7383 38.7472 17.2532 39.2232 17.3751C39.6992 17.4971 40.1768 17.1799 40.29 16.6667Z" fill="#ECE9E9"/>
<path d="M31.5047 54.0696L33.0156 54.7949L33.9731 52.4771L32.4622 51.7518L31.5047 54.0696Z" fill="#F2BB16"/>
<path d="M32.8164 50.8838L34.3329 51.6118L35.3199 49.9774L33.2715 48.9941L32.8164 50.8838Z" fill="#F2BB16"/>
<path d="M31.0665 52.2053L34.5967 53.9C34.7612 53.979 34.9539 53.8993 35.0272 53.7219L35.6288 52.2654C35.7021 52.0881 35.6281 51.8804 35.4636 51.8014L31.9334 50.1067C31.7689 50.0277 31.5762 50.1074 31.503 50.2848L30.9013 51.7413C30.8281 51.9187 30.902 52.1264 31.0665 52.2053Z" fill="#F74242"/>
<path d="M34.9816 52.1123L34.4902 53.3027L34.6337 53.3715L35.125 52.1811L34.9816 52.1123Z" fill="#F2BB16"/>
<path d="M34.4682 51.8646L33.9766 53.0547L34.12 53.1236L34.6116 51.9334L34.4682 51.8646Z" fill="#F2BB16"/>
<path d="M33.9526 51.6163L33.4609 52.8066L33.6044 52.8755L34.0961 51.6852L33.9526 51.6163Z" fill="#F2BB16"/>
<path d="M33.4369 51.3704L32.9453 52.5605L33.0888 52.6294L33.5804 51.4393L33.4369 51.3704Z" fill="#F2BB16"/>
<path d="M32.9214 51.1222L32.4297 52.3125L32.5731 52.3814L33.0648 51.1911L32.9214 51.1222Z" fill="#F2BB16"/>
<path d="M32.4038 50.8742L31.9121 52.0645L32.0556 52.1333L32.5472 50.943L32.4038 50.8742Z" fill="#F2BB16"/>
<path d="M31.8882 50.6241L31.3965 51.8145L31.5399 51.8833L32.0316 50.693L31.8882 50.6241Z" fill="#F2BB16"/>
<path d="M32.9106 48.8845L35.6489 50.199C35.7472 50.2462 35.8624 50.1986 35.9062 50.0925L35.9159 50.0692C35.9597 49.9632 35.9155 49.839 35.8171 49.7918L33.0788 48.4772C32.9805 48.43 32.8653 48.4776 32.8214 48.5837L32.8118 48.6071C32.7681 48.7131 32.8123 48.8373 32.9106 48.8845Z" fill="#F74242"/>
<path d="M16.3415 55.1077L17.8281 54.3262L16.7965 52.0456L15.3099 52.8271L16.3415 55.1077Z" fill="#F2BB16"/>
<path d="M14.9136 51.9782L16.4056 51.1938L15.8787 49.3281L13.8633 50.3877L14.9136 51.9782Z" fill="#F2BB16"/>
<path d="M14.7286 54.2722L18.202 52.4462C18.3639 52.3611 18.4311 52.1507 18.3521 51.9762L17.7039 50.5432C17.625 50.3687 17.4298 50.2963 17.268 50.3813L13.7945 52.2074C13.6327 52.2925 13.5655 52.5028 13.6444 52.6773L14.2926 54.1104C14.3715 54.2848 14.5667 54.3573 14.7286 54.2722Z" fill="#F74242"/>
<path d="M17.3306 50.8984L17.1895 50.9727L17.7196 52.1437L17.8607 52.0695L17.3306 50.8984Z" fill="#F2BB16"/>
<path d="M16.8189 51.166L16.6777 51.2402L17.2074 52.4112L17.3486 52.337L16.8189 51.166Z" fill="#F2BB16"/>
<path d="M16.313 51.4336L16.1719 51.5078L16.7017 52.679L16.8428 52.6048L16.313 51.4336Z" fill="#F2BB16"/>
<path d="M15.8032 51.6992L15.6621 51.7734L16.1918 52.9444L16.3329 52.8702L15.8032 51.6992Z" fill="#F2BB16"/>
<path d="M15.2974 51.9629L15.1562 52.0371L15.686 53.2083L15.8272 53.1341L15.2974 51.9629Z" fill="#F2BB16"/>
<path d="M14.7915 52.2324L14.6504 52.3066L15.1802 53.4778L15.3213 53.4036L14.7915 52.2324Z" fill="#F2BB16"/>
<path d="M14.2837 52.4981L14.1426 52.5723L14.6724 53.7435L14.8135 53.6693L14.2837 52.4981Z" fill="#F2BB16"/>
<path d="M13.5564 50.6157L16.2506 49.1993C16.3473 49.1484 16.3876 49.0227 16.3404 48.9184L16.33 48.8954C16.2828 48.7911 16.1661 48.7478 16.0694 48.7987L13.3751 50.2151C13.2784 50.2659 13.2382 50.3917 13.2854 50.496L13.2957 50.519C13.343 50.6233 13.4597 50.6666 13.5564 50.6157Z" fill="#F74242"/>
<path d="M23.8151 52.7771L25.4688 52.7461L25.4278 50.2093L23.7742 50.2403L23.8151 52.7771Z" fill="#F2BB16"/>
<path d="M24.0911 44.0992L24.9043 44.084L24.8855 42.9222L24.0723 42.9375L24.0911 44.0992Z" fill="#F2BB16"/>
<path d="M24.9536 92.486C35.3857 92.486 43.8427 83.3691 43.8427 72.1229C43.8427 60.8766 35.3857 51.7598 24.9536 51.7598C14.5214 51.7598 6.06445 60.8766 6.06445 72.1229C6.06445 83.3691 14.5214 92.486 24.9536 92.486Z" fill="#F74242"/>
<path d="M25.2541 90.8033C34.8095 90.6241 42.4483 82.0977 42.2821 71.7966C42.1158 61.4955 34.2067 53.2612 24.6512 53.4404C15.0958 53.6196 7.45754 62.1454 7.62376 72.4465C7.78991 82.7477 15.6986 90.9825 25.2541 90.8033Z" fill="#F2BB16"/>
<path d="M21.7227 45.3544L21.7657 48.019C21.7679 48.1547 21.8515 48.2752 21.9719 48.3204L24.5856 49.2752L27.1671 48.2229C27.2858 48.1732 27.3655 48.0497 27.3634 47.914L27.3204 45.2493C27.3184 45.1273 27.2538 45.02 27.1522 44.9677L24.6322 43.5838C24.5434 43.538 24.4429 43.5399 24.3492 43.5891L21.8753 45.0666C21.782 45.1227 21.7208 45.2323 21.7227 45.3544ZM22.2598 45.4936L24.5031 44.156L26.7883 45.4087L26.8259 47.7411L24.5758 48.665L22.2974 47.826L22.2598 45.4936Z" fill="#F74242"/>
<path d="M38.9962 81.5489C36.1245 86.5161 31.0616 89.8577 25.2432 89.9603C16.11 90.1322 8.5607 82.2682 8.39891 72.4321C8.32092 67.4832 10.1304 62.963 13.1062 59.672C16.0448 56.4122 20.1273 54.3538 24.6675 54.276C33.7891 54.1113 41.3475 61.978 41.5002 71.8114C41.5553 75.3822 40.6392 78.7307 38.9962 81.5489Z" fill="#E5F0F8"/>
<path d="M24.9602 72.1203L24.8086 54.2769C24.7619 54.2772 24.7159 54.2747 24.6692 54.2756C20.129 54.3534 16.0465 56.4118 13.1079 59.6716C11.4741 62.4925 10.5489 65.8383 10.6039 69.4091C10.7657 79.2452 18.3241 87.1119 27.4482 86.9374C31.9792 86.8569 36.0617 84.7985 38.9978 81.5485C40.5929 78.8123 41.4948 75.5743 41.4961 72.1202L24.9602 72.1203Z" fill="#ECE9E9"/>
<path d="M41.4943 72.1233C41.4943 72.0197 41.5016 71.918 41.5 71.8141C41.348 62.031 33.8655 54.1978 24.8066 54.2799L24.9583 72.1234L41.4943 72.1233Z" fill="#ECE9E9"/>
<path d="M23.922 56.4917C23.9295 56.9548 24.2837 57.3235 24.7132 57.3155C25.1427 57.3075 25.4848 56.9256 25.4774 56.4626C25.4699 55.9996 25.1157 55.6308 24.6862 55.6388C24.2567 55.6469 23.9146 56.0287 23.922 56.4917Z" fill="#F3BBBB"/>
<path d="M35.7759 61.1178C35.9079 60.6772 35.6836 60.2046 35.2748 60.0623C34.866 59.92 34.4277 60.1619 34.2956 60.6025C34.1636 61.0432 34.388 61.5158 34.7968 61.6581C35.2055 61.8004 35.6439 61.5585 35.7759 61.1178Z" fill="#F3BBBB"/>
<path d="M39.4557 71.0099C39.0262 71.018 38.6841 71.3998 38.6915 71.8628C38.699 72.3259 39.0532 72.6946 39.4827 72.6866C39.9122 72.6786 40.2543 72.2967 40.2469 71.8337C40.2394 71.3707 39.8852 71.0018 39.4557 71.0099Z" fill="#F3BBBB"/>
<path d="M36.149 83.2222C36.2647 82.7762 36.0231 82.3136 35.6094 82.1889C35.1957 82.0642 34.7665 82.3246 34.6509 82.7706C34.5352 83.2166 34.7768 83.6792 35.1905 83.8039C35.6042 83.9286 36.0333 83.6682 36.149 83.2222Z" fill="#F3BBBB"/>
<path d="M23.7541 49.2941L25.4139 49.2629L25.6678 47.332L23.4258 47.3741L23.7541 49.2941Z" fill="#F2BB16"/>
<path d="M25.9871 87.8088C26.011 87.3464 25.6826 86.9507 25.2537 86.9249C24.8248 86.8992 24.4578 87.2531 24.4339 87.7155C24.41 88.1779 24.7383 88.5736 25.1672 88.5994C25.5961 88.6251 25.9632 88.2711 25.9871 87.8088Z" fill="#F3BBBB"/>
<path d="M14.9164 84.2127C15.345 84.1808 15.6683 83.7804 15.6387 83.3184C15.609 82.8564 15.2376 82.5079 14.8091 82.5398C14.3806 82.5718 14.0572 82.9721 14.0869 83.4341C14.1165 83.8961 14.4879 84.2447 14.9164 84.2127Z" fill="#F3BBBB"/>
<path d="M11.2102 72.522C11.277 72.0645 10.987 71.6353 10.5627 71.5634C10.1383 71.4915 9.74023 71.8041 9.67352 72.2615C9.60681 72.719 9.89675 73.1481 10.3211 73.2201C10.7455 73.292 11.1435 72.9794 11.2102 72.522Z" fill="#F3BBBB"/>
<path d="M15.2455 61.5149C15.3789 61.0748 15.1561 60.6014 14.7478 60.4575C14.3395 60.3137 13.9004 60.5539 13.767 60.9941C13.6335 61.4342 13.8564 61.9076 14.2647 62.0514C14.673 62.1953 15.1121 61.9551 15.2455 61.5149Z" fill="#F3BBBB"/>
<path d="M25.9961 73.1148C26.5023 72.4934 26.4454 71.5473 25.869 71.0015C25.2926 70.4558 24.415 70.5172 23.9088 71.1386C23.4026 71.7599 23.4595 72.7061 24.0359 73.2518C24.6123 73.7975 25.4899 73.7362 25.9961 73.1148Z" fill="#F74242"/>
<path d="M25.3074 61.2658L24.754 59.6738L24.252 61.2856L24.5946 61.2791L24.7696 72.1257L25.1402 72.1187L24.9652 61.2722L25.3074 61.2658Z" fill="#F74242"/>
<path d="M24.9512 71.9207L24.9512 72.3202L31.2239 72.3206L31.224 72.679L32.7102 72.1103L31.224 71.541V71.921L24.9512 71.9207Z" fill="#F74242"/>
<path d="M22.6836 51.2854L26.5474 51.213C26.7274 51.2096 26.8708 51.0495 26.8677 50.8555L26.842 49.2614C26.8388 49.0673 26.6903 48.9127 26.5103 48.9161L22.6465 48.9885C22.4665 48.9919 22.3231 49.152 22.3262 49.346L22.352 50.9401C22.355 51.1342 22.5035 51.2888 22.6836 51.2854Z" fill="#F74242"/>
<path d="M26.3601 49.413L26.2031 49.416L26.2245 50.7188L26.3815 50.7158L26.3601 49.413Z" fill="#F2BB16"/>
<path d="M25.7898 49.4248L25.6328 49.4277L25.6537 50.7303L25.8107 50.7274L25.7898 49.4248Z" fill="#F2BB16"/>
<path d="M25.2254 49.4365L25.0684 49.4395L25.0893 50.7422L25.2463 50.7393L25.2254 49.4365Z" fill="#F2BB16"/>
<path d="M24.6609 49.4404L24.5039 49.4434L24.5248 50.7459L24.6818 50.743L24.6609 49.4404Z" fill="#F2BB16"/>
<path d="M24.0964 49.4541L23.9395 49.457L23.9604 50.7598L24.1174 50.7568L24.0964 49.4541Z" fill="#F2BB16"/>
<path d="M23.532 49.4639L23.375 49.4668L23.3959 50.7695L23.5529 50.7666L23.532 49.4639Z" fill="#F2BB16"/>
<path d="M22.9675 49.4775L22.8105 49.4805L22.8315 50.7832L22.9885 50.7803L22.9675 49.4775Z" fill="#F2BB16"/>
<path d="M23.0561 47.4374L26.0532 47.3813C26.1609 47.3792 26.2466 47.2835 26.2447 47.1675L26.2443 47.142C26.2424 47.026 26.1537 46.9336 26.0461 46.9356L23.0489 46.9918C22.9413 46.9938 22.8556 47.0895 22.8575 47.2055L22.8579 47.231C22.8598 47.347 22.9485 47.4394 23.0561 47.4374Z" fill="#F74242"/>
<path d="M24.0917 43.0383L24.8754 43.0237C24.9303 43.0227 24.9744 42.9734 24.9734 42.9143C24.9725 42.8551 24.9268 42.8075 24.8719 42.8086L24.0883 42.8233C24.0334 42.8243 23.9892 42.8736 23.9903 42.9327C23.9912 42.9918 24.0368 43.0394 24.0917 43.0383Z" fill="#F74242"/>
<path d="M65.2333 31.4829L57.3477 31.3385L57.7607 22.4122L57.958 18.1437L57.9692 17.9311L64.1392 15.1348L64.3402 18.1517L64.489 20.3501L65.2333 31.4829Z" fill="#F5AC97"/>
<path d="M64.6078 56.0137C64.6078 56.0137 64.4757 56.799 64.2508 58.136C64.1641 58.6498 64.063 59.2483 63.9516 59.9135C63.2107 64.3338 61.9705 71.7707 60.9139 78.2845V78.2911C60.5425 80.5914 60.1916 82.776 59.8945 84.6714H46.9434L48.7717 68.367L49.7189 59.9134L49.8077 59.1148L58.1508 57.3662L59.9564 56.988L64.6078 56.0137Z" fill="#088CFC"/>
<path d="M73.9515 84.6701H61.5287L60.9178 78.2854V78.2831L60.6392 75.3578L59.1927 73.053L59.1741 68.4548L59.139 59.9121L59.1328 58.5062L59.9707 58.4461L64.2547 58.1347L65.7467 58.0257L67.0591 57.9323L71.3122 57.623L71.535 59.9121L72.0942 65.6451L72.3192 67.9453L73.9515 84.6701Z" fill="#088CFC"/>
<path d="M61.3903 27.7501C64.2837 27.8188 65.692 26.1077 65.9952 25.3531L64.7372 24.9868L57.6507 24.7441L56.791 25.0408C57.1538 25.769 58.4343 27.6799 61.3903 27.7501Z" fill="#F5AC97"/>
<path d="M76.8208 58.4758L75.7346 60.767C75.6888 60.8637 75.6893 60.9784 75.7359 61.0747L76.712 63.0888C76.7763 63.2216 76.9146 63.2922 77.0506 63.2618L78.8565 62.8581C79.0921 62.8055 79.2914 63.0488 79.2139 63.2943L78.7321 64.8201C78.699 64.9249 78.62 65.0053 78.5211 65.035L76.6875 65.5842C76.6378 65.5991 76.5854 65.6004 76.5351 65.588L72.7363 64.6527L70.6914 57.0581L73.6647 54.6836L76.8208 58.4758Z" fill="#EA9D85"/>
<path d="M79.1269 63.5794L76.7067 64.2124L75.7305 63.3633" stroke="#332B27" stroke-width="2.3216" stroke-miterlimit="10"/>
<path d="M78.8792 64.3616L76.6955 64.8326L75.2754 63.9355" stroke="#332B27" stroke-width="2.3216" stroke-miterlimit="10"/>
<path d="M71.6595 47.156L71.5351 59.9119H49.7207L49.8214 27.7528L57.4647 24.7754C57.5504 24.9446 57.6431 25.1216 57.7573 25.3062L57.7858 25.3447C58.1997 25.914 58.9919 26.4526 61.2114 26.5064C63.0597 26.5526 63.9662 26.2756 64.4799 25.914L64.4871 25.9063C64.7654 25.7063 64.9866 25.3113 65.1151 25.0959L72.2731 26.968L71.7878 43.2015L71.6595 47.156Z" fill="#F3BBBB"/>
<path d="M65.9977 25.3516C65.9977 25.3516 65.3786 37.2526 65.4678 44.1315C65.5569 51.0105 65.9977 68.3947 65.9977 68.3947C65.9977 68.3947 70.0388 68.4868 73.756 67.6754C73.756 67.6754 73.812 59.7998 72.7871 54.3685C71.7623 48.9371 71.7788 26.5488 71.7788 26.5488L65.9977 25.3516Z" fill="#F74242"/>
<path d="M87.1298 45.6232L87.098 45.6642C85.6998 47.4711 83.1845 47.7163 81.5084 46.209L67.8516 33.9279C66.1754 32.4206 65.948 29.709 67.3462 27.9021L67.378 27.861C68.7762 26.054 71.2915 25.8089 72.9676 27.3162L86.6245 39.5973C88.3006 41.1047 88.528 43.8163 87.1298 45.6232Z" fill="#F74242"/>
<path d="M65.6855 13.1484C65.6855 13.1484 66.734 10.3267 65.4492 10.5851C64.1644 10.8434 65.6855 13.1484 65.6855 13.1484Z" fill="#322A28"/>
<path d="M56.7934 25.041C56.7934 25.041 59.7764 41.713 59.8767 49.9994C59.9769 58.2859 59.9769 58.2858 59.9769 58.2858L59.6353 68.3964C59.6353 68.3964 51.3242 69.5071 48.4186 68.2295C48.4186 68.2295 48.2157 56.2277 48.988 51.9783C49.7602 47.7289 49.8228 27.7536 49.8228 27.7536L56.7934 25.041Z" fill="#F74242"/>
<path d="M64.7042 23.6034L60.2715 20.1191L64.4866 20.3502L64.7042 23.6034Z" fill="#E99C84"/>
<path d="M21.7507 40.0025C21.8657 39.6458 23.9894 39.6178 25.4678 40.1203C26.7212 40.5445 29.5128 41.8581 30.3331 42.2516L28.8999 47.6647C28.3786 47.5795 27.2977 47.5171 26.806 47.4037C25.4975 47.1019 22.9835 46.0079 23.0442 45.4821C23.1004 44.9609 25.3861 45.4031 25.2439 45.1613C25.1017 44.9196 23.4126 43.9864 22.6538 43.9335C21.8908 43.8759 20.2438 44.043 20.0039 43.6399C19.7598 43.2319 20.207 42.7122 20.207 42.7122C20.207 42.7122 19.5834 42.8545 19.5724 42.4186C19.5612 41.9828 20.4799 41.4999 20.4799 41.4999C20.4799 41.4999 20.1449 41.6211 20.2429 41.1386C20.3452 40.6516 21.9378 40.4406 21.9378 40.4406C21.9378 40.4406 21.6269 40.359 21.7507 40.0025Z" fill="#F5AC97"/>
<path d="M58.3231 65.9473C58.3231 65.9473 52.2735 67.0273 49.4551 65.9473" stroke="#ECE9E9" stroke-width="3.5848" stroke-miterlimit="10" stroke-linecap="round" stroke-linejoin="round"/>
<path d="M65.5976 10.9294C65.5976 10.9294 65.8485 13.7734 66.0265 15.791L66.1736 17.4584C66.2898 18.7759 66.1195 20.7654 64.7839 21.3585C63.4529 21.9512 61.5089 21.5274 60.0562 20.1213C58.603 18.7104 55.0666 12.0483 58.9029 9.05999C62.7437 6.07129 65.4429 10.2585 65.5976 10.9294Z" fill="#F5AC97"/>
<path d="M57.8286 20.5079C57.8286 20.5079 58.8283 18.706 58.7608 17.7244C58.6932 16.7427 59.737 15.6382 59.5686 14.1306C59.4003 12.6229 59.3329 11.9877 60.0569 12.0603C60.7808 12.1329 65.8988 13.367 66.0334 10.7535C66.1681 8.14003 60.1212 5.61733 57.6816 10.0457C57.6816 10.0457 56.0595 9.96567 56.5551 13.673C57.0506 17.38 57.772 18.0115 57.8286 20.5079Z" fill="#322A28"/>
<path d="M59.3657 17.0078C59.9139 17.7643 60.0913 18.3182 59.5404 18.7822C58.9894 19.2461 58.0027 19.2186 57.4546 18.462C56.9064 17.7054 56.9087 16.7161 57.4597 16.252C58.0106 15.7881 58.8176 16.2512 59.3657 17.0078Z" fill="#F5AC97"/>
<path d="M62.2692 15.0045C62.2962 15.3101 62.4667 15.5426 62.6501 15.5238C62.8335 15.505 62.9603 15.242 62.9333 14.9363C62.9064 14.6307 62.7358 14.3983 62.5525 14.4171C62.3691 14.4359 62.2423 14.6989 62.2692 15.0045Z" fill="#332B27"/>
<path d="M77.6495 60.1409L87.5017 45.3204C88.623 43.5223 87.9993 40.9294 86.1106 39.5529C84.2208 38.1816 81.7532 38.5303 80.6271 40.3273L71.1973 55.9882L77.6495 60.1409Z" fill="#F74242"/>
<path d="M65.416 15.2386C65.5994 15.2198 65.7262 14.9569 65.6993 14.6513C65.6723 14.3456 65.5018 14.1132 65.3184 14.132C65.135 14.1508 65.0082 14.4138 65.0352 14.7194C65.0621 15.025 65.2327 15.2575 65.416 15.2386Z" fill="#332B27"/>
<path d="M62.9749 16.9669C62.9124 17.2566 62.4286 17.3829 61.8943 17.2491C61.3599 17.1152 60.9774 16.7718 61.0399 16.4821C61.1023 16.1924 61.5861 16.0661 62.1205 16.1999C62.6548 16.3338 63.0373 16.6772 62.9749 16.9669Z" fill="#E99C84"/>
<path d="M66.0274 15.791L66.1231 16.8751C65.7039 16.972 65.3455 16.8812 65.2658 16.6491C65.1778 16.3735 65.5172 15.9905 66.0274 15.791Z" fill="#E99C84"/>
<path d="M58.0646 17.8208C58.5193 17.6791 58.9082 17.7343 58.9082 17.7343C58.4222 16.9442 57.8281 17.1029 57.8281 17.1029" stroke="#E99C84" stroke-width="3.4926" stroke-miterlimit="10" stroke-linecap="round" stroke-linejoin="round"/>
<path d="M61.7969 14.4264C61.7969 14.4264 62.3468 13.7174 63.0744 13.8532" stroke="#322A28" stroke-width="2.2341" stroke-miterlimit="10"/>
<path d="M65.9232 13.6736C65.9232 13.6736 65.3949 13.2264 64.7578 13.629" stroke="#322A28" stroke-width="2.2341" stroke-miterlimit="10"/>
<path d="M43.6724 54.2385L43.7196 54.2553C45.7918 54.9944 48.0482 53.7713 48.7338 51.5374L54.3197 33.3352C55.0053 31.1012 53.8707 28.6688 51.7984 27.9297L51.7513 27.9129C49.6791 27.1738 47.4227 28.3969 46.7371 30.6308L41.1512 48.833C40.4656 51.0669 41.6002 53.4994 43.6724 54.2385Z" fill="#F74242"/>
<path d="M28.0977 48.7993L44.2134 54.4153C46.1517 54.9881 48.2329 53.5245 48.8413 51.1559C49.4448 48.7879 48.3518 46.3775 46.413 45.7995L29.6822 40.9355L28.0977 48.7993Z" fill="#F74242"/>
<path d="M60.918 78.2907L61.91 74.7202H62.8605L64.374 70.3008" stroke="#ECE9E9" stroke-width="1.8175" stroke-miterlimit="10" stroke-linecap="round" stroke-linejoin="round"/>
<path d="M62.9708 18.4609L64.4684 19.0286C64.4684 19.0286 64.1608 19.8526 63.4044 19.6163C62.648 19.38 62.9708 18.4609 62.9708 18.4609Z" fill="#ECE9E9"/>
<path d="M55.5156 26.6758C55.5156 26.6758 56.6519 36.865 57.3454 41.8982C58.0389 46.9314 58.1589 59.3375 58.3236 63.9339" stroke="#ECE9E9" stroke-width="3.5848" stroke-miterlimit="10" stroke-linecap="round" stroke-linejoin="round"/>
<path d="M67.4353 28.6387C67.4353 28.6387 66.835 39.0426 66.6227 43.6462C66.4104 48.2498 67.4353 64.4543 67.4353 64.4543" stroke="#ECE9E9" stroke-width="3.5848" stroke-miterlimit="10" stroke-linecap="round" stroke-linejoin="round"/>
<path d="M73.2393 65.3438C73.2393 65.3438 70.3355 66.3872 67.4316 65.5586" stroke="#ECE9E9" stroke-width="3.5848" stroke-miterlimit="10" stroke-linecap="round" stroke-linejoin="round"/>
<path d="M67.9726 48.0354C68.2713 48.0354 68.5135 47.7744 68.5135 47.4523C68.5135 47.1302 68.2713 46.8691 67.9726 46.8691C67.6738 46.8691 67.4316 47.1302 67.4316 47.4523C67.4316 47.7744 67.6738 48.0354 67.9726 48.0354Z" fill="#ECE9E9"/>
<path d="M67.9726 53.3929C68.2713 53.3929 68.5135 53.1318 68.5135 52.8097C68.5135 52.4876 68.2713 52.2266 67.9726 52.2266C67.6738 52.2266 67.4316 52.4876 67.4316 52.8097C67.4316 53.1318 67.6738 53.3929 67.9726 53.3929Z" fill="#ECE9E9"/>
<path d="M68.373 57.6253C68.6717 57.6253 68.9139 57.3642 68.9139 57.0421C68.9139 56.7201 68.6717 56.459 68.373 56.459C68.0742 56.459 67.832 56.7201 67.832 57.0421C67.832 57.3642 68.0742 57.6253 68.373 57.6253Z" fill="#ECE9E9"/>
<path d="M68.6581 62.5725C68.9569 62.5725 69.1991 62.3115 69.1991 61.9894C69.1991 61.6673 68.9569 61.4062 68.6581 61.4062C68.3594 61.4062 68.1172 61.6673 68.1172 61.9894C68.1172 62.3115 68.3594 62.5725 68.6581 62.5725Z" fill="#ECE9E9"/>
<path d="M58.5335 19.516C59.2546 19.4087 59.727 18.4453 59.5886 17.3641C59.4502 16.2829 58.7534 15.4934 58.0323 15.6007C57.3112 15.708 56.8388 16.6714 56.9772 17.7526C57.1156 18.8338 57.8124 19.6233 58.5335 19.516Z" fill="#088CFC"/>
<path d="M58.0471 19.0828C58.5343 19.0103 58.8455 18.2976 58.7422 17.491C58.639 16.6844 58.1603 16.0893 57.6732 16.1617C57.186 16.2342 56.8747 16.9469 56.978 17.7535C57.0812 18.5601 57.5599 19.1553 58.0471 19.0828Z" fill="#2EC6FC"/>
<path d="M58.7227 19.0586C58.7227 19.0586 60.6887 21.3462 63.6995 21.0153" stroke="#088CFC" stroke-width="3.3951" stroke-miterlimit="10"/>
<path d="M63.8971 21.4447C64.2642 21.4447 64.5618 21.2599 64.5618 21.0319C64.5618 20.804 64.2642 20.6191 63.8971 20.6191C63.53 20.6191 63.2324 20.804 63.2324 21.0319C63.2324 21.2599 63.53 21.4447 63.8971 21.4447Z" fill="#088CFC"/>
<path d="M58.285 15.7896C58.285 15.7896 57.0426 9.78455 60.9951 7.67273C60.9951 7.67273 59.681 7.44332 58.8534 8.60301C58.8534 8.60301 56.6184 11.1077 57.3442 16.0639L58.285 15.7896Z" fill="#088CFC"/>
<path d="M49.3848 49.414L52.5321 39.1582" stroke="#ECE9E9" stroke-width="3.5848" stroke-miterlimit="10" stroke-linecap="round" stroke-linejoin="round"/>
<path d="M100.091 94.6295H1.02951C0.460891 94.6295 0 94.1326 0 93.5197V93.2446C0 92.6316 0.46095 92.1348 1.02951 92.1348H100.091C100.66 92.1348 101.121 92.6317 101.121 93.2446V93.5197C101.121 94.1326 100.66 94.6295 100.091 94.6295Z" fill="#0775EF"/>
<path d="M29.1937 6.48678C28.9993 6.2133 28.3305 5.5974 27.9073 5.65213C27.5394 5.69969 27.2995 6.34106 26.9288 6.35763C26.6826 6.36862 26.1731 6.11698 25.8045 5.59606C25.8045 5.59606 25.0152 4.68064 25.0674 4.23668C25.1197 3.79271 25.7963 3.7214 25.8184 3.11756C25.8302 2.79455 25.3738 1.94891 25.0013 1.66858C24.8644 1.56546 24.6817 1.56609 24.5462 1.67118C24.2032 1.93697 23.4977 2.62273 23.5833 3.71651C23.6959 5.15489 24.8723 6.32963 24.8723 6.32963C24.8723 6.32963 26.0323 7.7388 27.0671 7.96123C28.1961 8.20391 28.8263 7.69956 29.1417 7.28163C29.4569 6.86376 29.3881 6.76032 29.1937 6.48678Z" fill="#E5F0F8"/>
<path d="M2.625 25.414L3.71842 24.2436C3.75688 24.2049 3.7941 24.1627 3.83009 24.117C3.86602 24.0713 3.89806 24.0236 3.92633 23.9738C3.95455 23.924 3.97698 23.8715 3.99371 23.8161C4.01038 23.7608 4.01869 23.7026 4.01869 23.6418C4.01869 23.5699 4.00649 23.5048 3.98217 23.4467C3.95773 23.3886 3.92445 23.3396 3.88204 23.2994C3.83969 23.2594 3.78963 23.2282 3.7319 23.206C3.67412 23.1839 3.61316 23.1728 3.54902 23.1728C3.41561 23.1728 3.30517 23.2129 3.21794 23.2932C3.13065 23.3735 3.07547 23.4841 3.05244 23.6252L2.65203 23.5878C2.66994 23.4578 2.70528 23.345 2.75788 23.2496C2.81047 23.1541 2.87591 23.0746 2.95425 23.011C3.03247 22.9473 3.12235 22.9003 3.22372 22.8699C3.32508 22.8395 3.43475 22.8242 3.55291 22.8242C3.67088 22.8242 3.78197 22.8416 3.88587 22.8761C3.98983 22.9108 4.08088 22.9619 4.15928 23.0297C4.2375 23.0975 4.29911 23.1819 4.34405 23.2829C4.38893 23.3839 4.41143 23.5022 4.41143 23.6377C4.41143 23.7346 4.39794 23.8252 4.37097 23.9096C4.34399 23.994 4.30871 24.0735 4.26512 24.1482C4.22148 24.2229 4.17141 24.2935 4.11499 24.3599C4.05844 24.4263 3.99948 24.4913 3.93788 24.5549L3.04083 25.4888H4.41143V25.8374H2.625V25.414Z" fill="#F3BBBB"/>
<path d="M5.88149 25.1875H4.71875V24.7808L5.80445 22.8965H6.25109V24.8388H6.63606V25.1875H6.25109V25.835H5.88149V25.1875ZM5.88149 23.3697H5.87383L5.04217 24.8389H5.88149V23.3697Z" fill="#F3BBBB"/>
<path d="M6.99994 26.0186L6.73047 25.9107L7.96248 22.7148L8.22811 22.8228L6.99994 26.0186Z" fill="#F3BBBB"/>
<path d="M9.70725 23.2451H8.38672V22.8965H10.1V23.2368L9.0143 25.835H8.59852L9.70725 23.2451Z" fill="#F3BBBB"/>
<path d="M4.16808 29.2137C2.43684 28.3007 1.36133 26.4436 1.36133 24.3671C1.36133 21.3937 3.60529 18.9746 6.36345 18.9746C9.12161 18.9746 11.3656 21.3937 11.3656 24.3671C11.3656 26.114 10.5749 27.7604 9.2506 28.7711L9.08586 28.5202C10.3348 27.567 11.0804 26.0144 11.0804 24.3671C11.0804 21.5632 8.96441 19.282 6.36345 19.282C3.7625 19.282 1.64646 21.5632 1.64646 24.3671C1.64646 26.3252 2.66072 28.0766 4.29342 28.9376L4.16808 29.2137Z" fill="#F3BBBB"/>
<path d="M8.68164 28.9963L10.0592 28.8493L9.25232 27.6367L8.68164 28.9963Z" fill="#F3BBBB"/>
<path d="M94.3281 84.0683L95.4215 82.8979C95.46 82.8592 95.4972 82.8169 95.5332 82.7713C95.5691 82.7256 95.6012 82.6779 95.6295 82.6281C95.6577 82.5783 95.6801 82.5258 95.6968 82.4704C95.7135 82.4151 95.7218 82.3569 95.7218 82.2961C95.7218 82.2242 95.7096 82.1591 95.6853 82.101C95.6609 82.0429 95.6276 81.9939 95.5852 81.9537C95.5428 81.9137 95.4928 81.8825 95.435 81.8603C95.3772 81.8382 95.3163 81.8271 95.2521 81.8271C95.1187 81.8271 95.0083 81.8672 94.9211 81.9475C94.8338 82.0278 94.7786 82.1384 94.7556 82.2795L94.3552 82.2421C94.3731 82.1121 94.4084 81.9993 94.461 81.9039C94.5136 81.8084 94.579 81.7289 94.6574 81.6653C94.7356 81.6016 94.8255 81.5546 94.9268 81.5242C95.0282 81.4938 95.1379 81.4785 95.256 81.4785C95.374 81.4785 95.4851 81.4959 95.589 81.5304C95.693 81.5651 95.784 81.6162 95.8624 81.684C95.9406 81.7518 96.0022 81.8362 96.0472 81.9371C96.0921 82.0382 96.1146 82.1565 96.1146 82.292C96.1146 82.3889 96.1011 82.4795 96.0741 82.5639C96.0471 82.6483 96.0118 82.7278 95.9682 82.8025C95.9246 82.8772 95.8745 82.9478 95.8181 83.0142C95.7616 83.0806 95.7026 83.1456 95.641 83.2092L94.744 84.1431H96.1146V84.4917H94.3281V84.0683Z" fill="#F3BBBB"/>
<path d="M97.5846 83.8418H96.4219V83.4351L97.5076 81.5508H97.9542V83.4931H98.3392V83.8418H97.9542V84.4893H97.5846V83.8418ZM97.5846 82.024H97.577L96.7453 83.4932H97.5846V82.024Z" fill="#F3BBBB"/>
<path d="M98.7031 84.6729L98.4336 84.565L99.6656 81.3691L99.9312 81.4771L98.7031 84.6729Z" fill="#F3BBBB"/>
<path d="M101.41 81.8994H100.09V81.5508H101.803V81.8911L100.717 84.4893H100.302L101.41 81.8994Z" fill="#F3BBBB"/>
<path d="M95.8712 87.868C94.14 86.955 93.0645 85.0979 93.0645 83.0214C93.0645 80.048 95.3084 77.6289 98.0666 77.6289C100.825 77.6289 103.069 80.048 103.069 83.0214C103.069 84.7683 102.278 86.4147 100.954 87.4254L100.789 87.1745C102.038 86.2213 102.784 84.6687 102.784 83.0214C102.784 80.2175 100.668 77.9363 98.0666 77.9363C95.4656 77.9363 93.3496 80.2175 93.3496 83.0214C93.3496 84.9795 94.3638 86.7309 95.9965 87.5919L95.8712 87.868Z" fill="#F3BBBB"/>
<path d="M100.385 87.6506L101.762 87.5036L100.955 86.291L100.385 87.6506Z" fill="#F3BBBB"/>
<path d="M81.0736 48.2606C81.0736 48.9634 80.6141 49.5796 79.9232 49.927C79.5468 50.1169 79.1009 50.2263 78.6237 50.2263C78.3476 50.2263 78.0824 50.1892 77.8347 50.1218L76.0332 50.952L76.5495 49.3068C76.3116 49.0038 76.1733 48.6453 76.1733 48.2606C76.1733 47.1749 77.2703 46.2949 78.6236 46.2949C79.5914 46.2949 80.4281 46.7453 80.8262 47.3991C80.9846 47.6592 81.0736 47.9515 81.0736 48.2606Z" fill="#ECE9E9"/>
<path d="M92.4624 40.2159C91.9617 40.0734 91.472 39.9133 91.0429 39.7533C90.9659 39.7236 90.8889 39.6939 90.8177 39.6939C89.9375 39.6584 89.1836 38.9585 89.1836 37.6716C89.1836 36.3907 89.9097 35.5664 90.9108 35.5664C91.9178 35.5664 92.5722 36.4086 92.5722 37.5885C92.5722 38.6147 92.1324 39.2729 91.516 39.5041V39.5278C91.8846 39.6287 92.2864 39.7236 92.6 39.783L92.4624 40.2159ZM92.066 37.6124C92.066 36.8118 91.6812 35.9874 90.8946 35.9874C90.0856 35.9874 89.6897 36.7939 89.6951 37.6597C89.6897 38.5079 90.1242 39.2728 90.8723 39.2728C91.6373 39.2728 92.066 38.5255 92.066 37.6124Z" fill="#ECE9E9"/>
<path d="M41.4478 4.35684L41.2466 4.25569L41.2457 4.25766L41.2449 4.25595C41.3493 3.92869 41.4058 3.5775 41.4058 3.2122C41.4058 1.438 40.0717 0 38.4261 0C36.7804 0 35.4465 1.438 35.4465 3.2122C35.4465 3.57845 35.5032 3.93034 35.608 4.25824V4.25849L35.4119 4.35691C35.3968 4.36453 35.3903 4.38402 35.3974 4.40041L35.8026 5.33748C35.8097 5.35386 35.8278 5.36104 35.843 5.35342L36.044 5.25214L36.0459 5.25639L36.1463 5.28039L36.5359 5.37386L36.5567 5.37882C36.5567 5.37882 36.6445 5.44136 36.7042 5.41132L36.9703 5.27754C37.0308 5.24725 37.057 5.16972 37.0287 5.10451L36.3538 3.54372C36.3255 3.47851 36.2536 3.45025 36.193 3.48073L35.9269 3.61451C35.8664 3.64499 35.8552 3.75725 35.8552 3.75725L35.7581 3.95872C35.7009 3.72023 35.6703 3.47012 35.6703 3.21214C35.6703 1.57152 36.9042 0.241284 38.4261 0.241284C39.948 0.241284 41.1817 1.57146 41.1817 3.21214C41.1817 3.46631 41.1522 3.71287 41.0965 3.94819L41.0044 3.75725C41.0044 3.75725 40.9929 3.64474 40.9329 3.61451L40.6668 3.48073C40.6063 3.45025 40.5343 3.47851 40.506 3.54372L39.831 5.10432C39.8029 5.16953 39.8291 5.24712 39.8896 5.27735L40.1557 5.41113C40.2162 5.44161 40.3031 5.37862 40.3031 5.37862L40.3141 5.37596C39.8946 5.80157 39.3513 6.08692 38.7488 6.16267C38.7185 6.09702 38.6573 6.05086 38.5852 6.04591L37.9691 6.00489C37.8945 5.99993 37.8275 6.04032 37.7906 6.1035C37.7714 6.1362 37.7604 6.17474 37.7604 6.21645V6.41774C37.7604 6.53991 37.8561 6.63674 37.9691 6.62912L38.5852 6.5881C38.6804 6.58181 38.7563 6.50314 38.7679 6.40364C39.5426 6.30814 40.227 5.89262 40.7044 5.28255L40.8139 5.25633L40.8158 5.2522L41.0168 5.35323C41.032 5.36085 41.05 5.3538 41.0571 5.33741L41.4625 4.40034C41.4695 4.38396 41.463 4.36446 41.4478 4.35684ZM41.2442 4.26128L41.2412 4.2682V4.26801L41.2442 4.26128ZM41.2409 4.26903L41.2407 4.26922L41.2409 4.26903Z" fill="#E5F0F8"/>
<path d="M30.8567 25.6529C30.9046 22.9677 28.9241 20.7491 26.4333 20.6975C23.9424 20.6459 21.8844 22.7809 21.8366 25.4661C21.7888 28.1513 23.7692 30.3699 26.2601 30.4215C28.7509 30.4731 30.8089 28.3381 30.8567 25.6529Z" fill="#40A87B"/>
<path d="M30.1414 28.9952C31.903 27.0962 31.903 24.0171 30.1414 22.118C28.3797 20.2189 25.5236 20.2189 23.762 22.118C22.0003 24.0171 22.0003 27.0962 23.762 28.9952C25.5236 30.8943 28.3797 30.8943 30.1414 28.9952Z" fill="#6ADB6A"/>
<path d="M29.3267 26.7151C29.169 26.4932 28.6264 25.9936 28.2831 26.0379C27.9847 26.0765 27.7901 26.5968 27.4894 26.6102C27.2896 26.6192 26.8763 26.415 26.5773 25.9925C26.5773 25.9925 25.9369 25.2499 25.9793 24.8897C26.0217 24.5296 26.5706 24.4717 26.5885 23.9819C26.5981 23.7198 26.2279 23.0339 25.9257 22.8064C25.8146 22.7228 25.6664 22.7233 25.5564 22.8085C25.2782 23.0242 24.7059 23.5805 24.7753 24.4677C24.8667 25.6346 25.821 26.5876 25.821 26.5876C25.821 26.5876 26.7621 27.7308 27.6015 27.9113C28.5173 28.1082 29.0286 27.699 29.2844 27.3599C29.5403 27.0209 29.4844 26.9369 29.3267 26.7151Z" fill="#ECE9E9"/>
</svg>
