<svg width="116" height="95" viewBox="0 0 116 95" fill="none" xmlns="http://www.w3.org/2000/svg">
<path d="M28.4275 17.931C25.6977 22.3593 24.1183 27.6412 20.9296 31.6735C17.4139 36.1194 12.3031 38.5935 8.35806 42.5702C1.79666 49.1847 -0.664273 61.5494 5.14722 68.9793C11.9695 77.7015 24.8856 75.0888 34.0089 80.6393C40.4124 84.5353 44.7681 92.3886 51.8246 94.4703C57.2112 96.0594 62.9133 93.8387 67.8275 90.9179C72.7413 87.9971 77.378 84.3119 82.7421 82.6317C91.3 79.9508 101.373 82.4456 108.559 76.6299C115.519 70.9981 116.635 59.9015 115.386 50.4383C114.212 41.5413 111.137 32.345 104.544 27.125C99.2627 22.9429 92.4881 21.8929 86.7396 18.5558C80.6082 14.9967 75.9319 9.02 70.307 4.54679C56.7569 -6.22964 37.1817 3.73091 28.4275 17.931Z" fill="white"/>
<path d="M5.53023 44.9858C5.44744 55.4182 10.8959 66.2103 19.745 69.7093C22.9276 70.9675 26.3904 71.2774 29.4728 72.8123C35.7996 75.9623 39.5592 83.747 45.989 86.6293C51.6139 89.151 58.0396 87.3568 63.6319 84.7477C69.2245 82.1391 74.6455 78.6979 80.6637 77.8565C84.5724 77.3097 88.5388 77.8959 92.4721 77.6551C96.4058 77.4142 100.572 76.1507 103.075 72.771C106.423 68.2485 105.723 61.5622 104.099 55.9919C100.404 43.3168 92.7572 32.1089 82.7701 24.7301C75.8303 19.6029 67.8826 16.3304 59.762 14.2439C50.2805 11.8079 40.3435 10.9812 30.7029 12.7126C26.5023 13.467 20.8588 14.4462 17.215 17.0517C13.9464 19.389 11.3619 24.5462 9.58224 28.2802C7.131 33.4226 5.57667 39.1378 5.53023 44.9858Z" fill="white"/>
<path d="M90.7927 52.5967C91.0536 51.4274 92.5611 49.6306 93.8255 50.4074C93.9232 50.4671 94.0101 50.5469 94.0848 50.6384C94.4066 51.0322 94.7196 51.4449 95.0156 51.875C95.8765 53.1242 97.6752 52.5501 97.8121 50.9847C97.9114 49.8508 97.9353 48.6914 98.018 47.5602C98.1485 45.7759 98.4582 43.8768 99.2521 42.3639C99.7436 41.4274 101.002 41.5736 101.315 42.6003L102.159 45.3686C102.393 46.1352 103.355 46.1827 103.647 45.4408C105.142 41.6256 106.992 37.8485 109.975 35.6422C110.68 35.1206 111.634 35.5915 111.746 36.524C112.021 38.8079 111.598 41.1973 110.53 43.1753C109.77 44.5823 108.66 46.0046 108.414 47.5274C108.312 48.1616 108.847 48.6851 109.409 48.5272C110.126 48.3258 110.878 48.28 111.611 48.3908C112.704 48.5554 113.369 49.8342 112.956 50.969C112.496 52.2334 111.412 53.352 110.32 54.0966C108.509 55.3323 106.321 56.39 105.749 58.7618C105.726 58.8546 105.719 58.952 105.726 59.048C105.877 61.1794 108.73 59.7414 109.764 61.1018C110.223 61.706 110.092 62.664 109.66 63.2929C109.229 63.9217 107.306 65.8181 106.742 66.3003C102.119 70.2514 96.412 73.7194 94.1869 72.2747C92.5361 71.2032 91.1461 63.3476 91.0153 62.6205C90.3752 59.0722 89.9988 56.1545 90.7927 52.5967Z" fill="url(#paint0_linear_263_3909)"/>
<path d="M106.919 44.4941C102.855 51.4827 96.5743 64.7575 94.6113 71.5729C93.5775 75.1621 92.8566 78.8625 92.4629 82.6055" stroke="#ECE9E9" stroke-width="1.1008" stroke-miterlimit="10" stroke-linecap="round" stroke-linejoin="round"/>
<path d="M100.145 50.8301C100.147 51.349 100.151 51.8675 100.153 52.3865C100.16 53.5589 100.265 54.9368 101.163 55.5545C101.742 55.9523 102.503 55.8886 103.124 55.5782C103.745 55.2679 104.255 54.744 104.751 54.2273" stroke="#ECE9E9" stroke-width="1.1008" stroke-miterlimit="10" stroke-linecap="round" stroke-linejoin="round"/>
<path d="M95.5889 56.9121C95.2699 58.2949 94.9492 59.6894 94.8915 61.1153C94.8337 62.5412 95.0579 64.0195 95.7549 65.2194C96.2128 66.0074 97.2478 66.4618 98.912 65.9164C100.07 65.5365 101.937 63.7957 102.825 63.0068" stroke="#ECE9E9" stroke-width="1.1008" stroke-miterlimit="10" stroke-linecap="round" stroke-linejoin="round"/>
<path d="M110.016 49.0697C109.949 49.0876 109.88 49.1114 109.826 49.1598C109.687 49.285 109.696 49.5406 109.806 49.6976C109.916 49.8546 110.096 49.93 110.271 49.9694C110.552 50.0327 110.846 50.0219 111.123 49.9389C111.292 49.8878 111.485 49.7604 111.472 49.5658C111.464 49.4438 111.375 49.3487 111.284 49.28C110.927 49.0096 110.431 48.9607 110.016 49.0697Z" fill="#ECE9E9"/>
<path d="M108.675 53.0144C108.637 53.0242 108.599 53.0372 108.569 53.0646C108.492 53.1341 108.497 53.2759 108.558 53.3629C108.619 53.4499 108.719 53.4921 108.816 53.514C108.972 53.549 109.135 53.5432 109.288 53.497C109.382 53.4687 109.49 53.3979 109.482 53.2898C109.478 53.222 109.428 53.1691 109.378 53.131C109.18 52.9812 108.905 52.9538 108.675 53.0144Z" fill="#ECE9E9"/>
<path d="M110.454 51.09C110.476 51.0712 110.497 51.0505 110.51 51.0232C110.541 50.9532 110.501 50.863 110.438 50.8263C110.376 50.7895 110.3 50.7949 110.231 50.8124C110.121 50.8402 110.017 50.8971 109.929 50.977C109.876 51.0259 109.825 51.1066 109.858 51.1743C109.879 51.2169 109.925 51.2349 109.968 51.2429C110.136 51.2757 110.321 51.2039 110.454 51.09Z" fill="#ECE9E9"/>
<path d="M111.816 51.624C111.829 51.6128 111.842 51.5998 111.85 51.5832C111.869 51.5401 111.844 51.485 111.806 51.4621C111.767 51.4397 111.721 51.4428 111.678 51.4536C111.611 51.4706 111.547 51.5056 111.493 51.5545C111.461 51.5845 111.43 51.6339 111.45 51.6756C111.463 51.7016 111.491 51.7128 111.517 51.7178C111.62 51.7379 111.734 51.694 111.816 51.624Z" fill="#ECE9E9"/>
<path d="M110.984 52.8556C111.005 52.8368 111.026 52.8162 111.039 52.7888C111.071 52.7188 111.03 52.6287 110.967 52.5919C110.905 52.5551 110.829 52.5605 110.76 52.578C110.65 52.6058 110.546 52.6628 110.459 52.7426C110.405 52.7915 110.354 52.8722 110.387 52.9399C110.408 52.9826 110.454 53.0005 110.497 53.0086C110.665 53.0413 110.85 52.9696 110.984 52.8556Z" fill="#ECE9E9"/>
<path d="M106.095 61.0247C106.027 61.0426 105.958 61.0664 105.904 61.1148C105.765 61.24 105.774 61.4956 105.884 61.6526C105.994 61.8096 106.174 61.8849 106.349 61.9244C106.63 61.9877 106.924 61.9769 107.201 61.8939C107.37 61.8428 107.563 61.7154 107.55 61.5207C107.542 61.3987 107.453 61.3036 107.362 61.235C107.004 60.965 106.509 60.9157 106.095 61.0247Z" fill="#ECE9E9"/>
<path d="M104.753 64.9694C104.716 64.9793 104.678 64.9923 104.647 65.0197C104.57 65.0892 104.575 65.2309 104.636 65.318C104.697 65.405 104.797 65.4471 104.894 65.4691C105.05 65.5041 105.213 65.4983 105.367 65.4521C105.461 65.4238 105.568 65.3529 105.56 65.2448C105.556 65.1771 105.506 65.1246 105.456 65.0861C105.258 64.9363 104.983 64.9089 104.753 64.9694Z" fill="#ECE9E9"/>
<path d="M106.532 63.047C106.554 63.0286 106.575 63.0076 106.588 62.9802C106.62 62.9102 106.579 62.8196 106.516 62.7833C106.454 62.7465 106.378 62.7519 106.309 62.7694C106.199 62.7972 106.095 62.8542 106.007 62.9344C105.954 62.9833 105.903 63.0641 105.936 63.1318C105.957 63.1744 106.003 63.1924 106.046 63.2004C106.214 63.2332 106.399 63.1614 106.532 63.047Z" fill="#ECE9E9"/>
<path d="M108.419 62.2638C108.439 62.2853 108.46 62.306 108.486 62.3163C108.553 62.3423 108.628 62.2862 108.653 62.2127C108.678 62.1391 108.664 62.0566 108.64 61.983C108.601 61.865 108.537 61.7574 108.454 61.6713C108.404 61.6184 108.325 61.573 108.269 61.6179C108.234 61.6462 108.223 61.6991 108.221 61.7471C108.213 61.9359 108.301 62.1315 108.419 62.2638Z" fill="#ECE9E9"/>
<path d="M107.894 63.5811C107.907 63.5694 107.92 63.5568 107.928 63.5402C107.947 63.4972 107.922 63.442 107.884 63.4191C107.845 63.3967 107.799 63.3998 107.756 63.4106C107.689 63.4277 107.625 63.4626 107.572 63.5115C107.539 63.5416 107.508 63.5909 107.528 63.6326C107.54 63.6587 107.569 63.6699 107.595 63.6748C107.698 63.695 107.812 63.651 107.894 63.5811Z" fill="#ECE9E9"/>
<path d="M107.062 64.8107C107.084 64.7919 107.105 64.7712 107.117 64.7439C107.149 64.6739 107.108 64.5833 107.046 64.547C106.983 64.5102 106.907 64.5156 106.838 64.5331C106.728 64.5609 106.624 64.6178 106.537 64.6977C106.483 64.7466 106.433 64.8273 106.466 64.895C106.486 64.9376 106.532 64.9556 106.575 64.9637C106.743 64.9968 106.929 64.9246 107.062 64.8107Z" fill="#ECE9E9"/>
<mask id="mask0_263_3909" style="mask-type:luminance" maskUnits="userSpaceOnUse" x="89" y="58" width="27" height="23">
<path d="M91.6588 80.5488L89.0957 80.0402L89.5686 77.0969C90.7163 69.9558 94.925 63.8854 100.846 60.8314L101.179 60.6596C105.616 58.3707 110.654 57.9666 115.341 59.5243L115.513 59.5813C115.223 64.9812 113.172 70.0787 109.744 73.92L109.391 74.3156C104.761 79.5033 98.1322 81.8339 91.6588 80.5488Z" fill="white"/>
</mask>
<g mask="url(#mask0_263_3909)">
<path d="M91.6588 80.5488L89.0957 80.0402L89.5686 77.0969C90.7163 69.9558 94.925 63.8854 100.846 60.8314L101.179 60.6596C105.616 58.3707 110.654 57.9666 115.341 59.5243L115.513 59.5813C115.223 64.9812 113.172 70.0787 109.744 73.92L109.391 74.3156C104.761 79.5033 98.1322 81.8339 91.6588 80.5488Z" fill="url(#paint1_linear_263_3909)"/>
</g>
<mask id="mask1_263_3909" style="mask-type:luminance" maskUnits="userSpaceOnUse" x="89" y="58" width="27" height="23">
<path d="M91.6588 80.5488L89.0957 80.0402L89.5686 77.0969C90.7163 69.9558 94.925 63.8854 100.846 60.8314L101.179 60.6596C105.616 58.3707 110.654 57.9666 115.341 59.5243L115.513 59.5813C115.223 64.9812 113.172 70.0787 109.744 73.92L109.391 74.3156C104.761 79.5033 98.1322 81.8339 91.6588 80.5488Z" fill="white"/>
</mask>
<g mask="url(#mask1_263_3909)">
<path d="M115.513 59.582L89.0957 80.0409" stroke="#8981EB" stroke-width="0.9288" stroke-miterlimit="10"/>
</g>
<mask id="mask2_263_3909" style="mask-type:luminance" maskUnits="userSpaceOnUse" x="89" y="58" width="27" height="23">
<path d="M91.6588 80.5488L89.0957 80.0402L89.5686 77.0969C90.7163 69.9558 94.925 63.8854 100.846 60.8314L101.179 60.6596C105.616 58.3707 110.654 57.9666 115.341 59.5243L115.513 59.5813C115.223 64.9812 113.172 70.0787 109.744 73.92L109.391 74.3156C104.761 79.5033 98.1322 81.8339 91.6588 80.5488Z" fill="white"/>
</mask>
<g mask="url(#mask2_263_3909)">
<path d="M106.255 66.7508L105.076 59.2109" stroke="#8981EB" stroke-width="0.9288" stroke-miterlimit="10"/>
</g>
<mask id="mask3_263_3909" style="mask-type:luminance" maskUnits="userSpaceOnUse" x="89" y="58" width="27" height="23">
<path d="M91.6588 80.5488L89.0957 80.0402L89.5686 77.0969C90.7163 69.9558 94.925 63.8854 100.846 60.8314L101.179 60.6596C105.616 58.3707 110.654 57.9666 115.341 59.5243L115.513 59.5813C115.223 64.9812 113.172 70.0787 109.744 73.92L109.391 74.3156C104.761 79.5033 98.1322 81.8339 91.6588 80.5488Z" fill="white"/>
</mask>
<g mask="url(#mask3_263_3909)">
<path d="M101.307 70.584L109.745 73.9193" stroke="#8981EB" stroke-width="0.9288" stroke-miterlimit="10"/>
</g>
<mask id="mask4_263_3909" style="mask-type:luminance" maskUnits="userSpaceOnUse" x="89" y="58" width="27" height="23">
<path d="M91.6588 80.5488L89.0957 80.0402L89.5686 77.0969C90.7163 69.9558 94.925 63.8854 100.846 60.8314L101.179 60.6596C105.616 58.3707 110.654 57.9666 115.341 59.5243L115.513 59.5813C115.223 64.9812 113.172 70.0787 109.744 73.92L109.391 74.3156C104.761 79.5033 98.1322 81.8339 91.6588 80.5488Z" fill="white"/>
</mask>
<g mask="url(#mask4_263_3909)">
<path d="M93.767 76.3523L91.9688 69.6445" stroke="#8981EB" stroke-width="0.9288" stroke-miterlimit="10"/>
</g>
<mask id="mask5_263_3909" style="mask-type:luminance" maskUnits="userSpaceOnUse" x="89" y="58" width="27" height="23">
<path d="M91.6588 80.5488L89.0957 80.0402L89.5686 77.0969C90.7163 69.9558 94.925 63.8854 100.846 60.8314L101.179 60.6596C105.616 58.3707 110.654 57.9666 115.341 59.5243L115.513 59.5813C115.223 64.9812 113.172 70.0787 109.744 73.92L109.391 74.3156C104.761 79.5033 98.1322 81.8339 91.6588 80.5488Z" fill="white"/>
</mask>
<g mask="url(#mask5_263_3909)">
<path d="M98.5756 72.6986L96.7773 63.666" stroke="#8981EB" stroke-width="0.9288" stroke-miterlimit="10"/>
</g>
<mask id="mask6_263_3909" style="mask-type:luminance" maskUnits="userSpaceOnUse" x="89" y="58" width="27" height="23">
<path d="M91.6588 80.5488L89.0957 80.0402L89.5686 77.0969C90.7163 69.9558 94.925 63.8854 100.846 60.8314L101.179 60.6596C105.616 58.3707 110.654 57.9666 115.341 59.5243L115.513 59.5813C115.223 64.9812 113.172 70.0787 109.744 73.92L109.391 74.3156C104.761 79.5033 98.1322 81.8339 91.6588 80.5488Z" fill="white"/>
</mask>
<g mask="url(#mask6_263_3909)">
<path d="M95.1758 75.2617L102.265 79.4918" stroke="#8981EB" stroke-width="0.9288" stroke-miterlimit="10"/>
</g>
<path d="M9.78558 77.089C8.89272 76.5826 7.75271 74.6992 8.64759 73.5998C8.71665 73.5151 8.79943 73.4451 8.88908 73.3895C9.27554 73.1508 9.67615 72.9248 10.0864 72.7194C11.2797 72.1215 11.1917 70.2044 9.95156 69.7389C9.05344 69.4016 8.11858 69.1342 7.21925 68.814C5.8006 68.3089 4.32622 67.6007 3.26658 66.4897C2.61076 65.8021 2.99359 64.5758 3.8913 64.4785L6.31225 64.217C6.98261 64.1443 7.22329 63.193 6.68297 62.7467C3.90422 60.4511 1.23128 57.8097 0.0690628 54.3663C-0.205541 53.5522 0.375974 52.6996 1.15536 52.783C3.06426 52.9875 4.91218 53.912 6.29125 55.3948C7.27215 56.4498 8.19208 57.8568 9.37449 58.4224C9.86675 58.6579 10.4038 58.2336 10.3938 57.6384C10.3812 56.8803 10.502 56.1192 10.7451 55.4105C11.1077 54.3538 12.2841 53.9573 13.1172 54.6085C14.0456 55.3343 14.7244 56.6516 15.0992 57.8985C15.7206 59.968 16.1188 62.3749 17.9211 63.4451C17.9918 63.4868 18.0693 63.515 18.1481 63.528C19.9075 63.8245 19.3406 60.6718 20.6603 59.925C21.2466 59.5931 21.9953 59.9259 22.4145 60.4888C22.8337 61.0517 23.9672 63.3711 24.2394 64.0358C26.4718 69.4845 28.0847 75.9134 26.4471 77.8326C25.232 79.2567 18.5733 78.9952 17.9566 78.9732C14.9465 78.866 12.5025 78.6292 9.78558 77.089Z" fill="url(#paint2_linear_263_3909)"/>
<path d="M6.60352 59.2773C11.4151 64.8046 20.8562 73.8667 25.9687 77.2594C28.661 79.0459 31.5088 80.5431 34.46 81.7228" stroke="#1F1473" stroke-width="1.1008" stroke-miterlimit="10" stroke-linecap="round" stroke-linejoin="round"/>
<path d="M10.3164 67.3747C10.7376 67.4805 11.1588 67.5864 11.58 67.6927C12.5318 67.9322 13.6706 68.1165 14.3595 67.3495C14.8037 66.8553 14.9116 66.0806 14.7904 65.3957C14.6693 64.7104 14.3515 64.0909 14.0369 63.4863" stroke="#1F1473" stroke-width="1.1008" stroke-miterlimit="10" stroke-linecap="round" stroke-linejoin="round"/>
<path d="M14.2891 73.2019C15.3431 73.811 16.4059 74.4241 17.5496 74.7812C18.6932 75.1382 19.9382 75.2248 21.0572 74.7807C21.7922 74.4887 22.3777 73.5504 22.2845 71.7738C22.2198 70.5367 21.2006 68.3066 20.7471 67.2539" stroke="#1F1473" stroke-width="1.1008" stroke-miterlimit="10" stroke-linecap="round" stroke-linejoin="round"/>
<path d="M10.961 57.1434C10.961 57.2147 10.9658 57.2883 10.9941 57.3524C11.0664 57.5175 11.2751 57.5623 11.4258 57.4856C11.576 57.4089 11.6749 57.2452 11.744 57.0779C11.8542 56.8106 11.9071 56.5145 11.8978 56.2212C11.8918 56.0409 11.8292 55.822 11.6689 55.7938C11.5683 55.7763 11.4726 55.8453 11.3979 55.9216C11.1035 56.2217 10.9593 56.7065 10.961 57.1434Z" fill="#1F1473"/>
<path d="M13.877 59.3127C13.877 59.3521 13.8798 59.3929 13.8955 59.4288C13.9355 59.5203 14.0518 59.5454 14.135 59.5028C14.2186 59.4602 14.2735 59.3692 14.3115 59.2768C14.3724 59.1283 14.4019 58.9642 14.3967 58.8013C14.3934 58.7013 14.3587 58.5798 14.2695 58.5641C14.2137 58.5542 14.1604 58.5928 14.1188 58.6349C13.9561 58.8009 13.8766 59.07 13.877 59.3127Z" fill="#1F1473"/>
<path d="M12.6897 57.1314C12.6792 57.1058 12.6667 57.0803 12.6473 57.0623C12.5973 57.0161 12.5153 57.0377 12.4725 57.0924C12.4297 57.1471 12.418 57.2238 12.418 57.2965C12.4176 57.4122 12.4418 57.5284 12.4882 57.6324C12.5169 57.6961 12.5714 57.7634 12.6332 57.745C12.672 57.7333 12.6962 57.6912 12.712 57.6499C12.7737 57.4889 12.7544 57.2884 12.6897 57.1314Z" fill="#1F1473"/>
<path d="M13.409 55.8823C13.4025 55.8666 13.3948 55.8509 13.3827 55.8397C13.352 55.8114 13.302 55.8244 13.2757 55.8581C13.2495 55.8917 13.2422 55.9388 13.2422 55.9832C13.2418 56.0545 13.2567 56.1254 13.2854 56.1891C13.3028 56.2281 13.3363 56.2698 13.3742 56.2582C13.3981 56.251 13.413 56.225 13.4227 56.1999C13.4603 56.1016 13.4485 55.9787 13.409 55.8823Z" fill="#1F1473"/>
<path d="M14.2327 56.9734C14.2222 56.9478 14.2097 56.9223 14.1903 56.9043C14.1402 56.8577 14.0583 56.8797 14.0155 56.9344C13.9727 56.9891 13.9609 57.0658 13.9609 57.1385C13.9605 57.2546 13.9848 57.3704 14.0312 57.4744C14.0595 57.5381 14.1144 57.6054 14.1762 57.587C14.2149 57.5753 14.2392 57.5332 14.2549 57.4919C14.3163 57.3309 14.2969 57.1304 14.2327 56.9734Z" fill="#1F1473"/>
<path d="M19.8262 63.5731C19.8262 63.6444 19.8314 63.718 19.8593 63.7821C19.9316 63.9472 20.1404 63.992 20.291 63.9153C20.4412 63.8386 20.5401 63.6749 20.6092 63.5076C20.7194 63.2403 20.7723 62.9442 20.7631 62.6509C20.7574 62.4706 20.6944 62.2517 20.5341 62.2234C20.4335 62.2059 20.3378 62.275 20.2631 62.3517C19.9687 62.6513 19.825 63.1362 19.8262 63.5731Z" fill="#1F1473"/>
<path d="M22.7422 65.7408C22.7422 65.7803 22.745 65.8211 22.7608 65.857C22.8008 65.9485 22.9171 65.9736 23.0002 65.931C23.0838 65.8884 23.1384 65.7974 23.1767 65.7045C23.2377 65.556 23.2676 65.3919 23.2619 65.2291C23.2587 65.129 23.2236 65.0075 23.1347 64.9918C23.079 64.9819 23.0257 65.0205 22.9841 65.0627C22.8209 65.2291 22.7414 65.4982 22.7422 65.7408Z" fill="#1F1473"/>
<path d="M21.5569 63.5591C21.5464 63.5336 21.5339 63.508 21.5145 63.4901C21.4645 63.4439 21.3825 63.4654 21.3397 63.5201C21.2969 63.5748 21.2852 63.6515 21.2852 63.7242C21.2848 63.8399 21.309 63.9561 21.3554 64.0601C21.3841 64.1238 21.4386 64.1911 21.5004 64.1727C21.5392 64.1611 21.5634 64.1189 21.5791 64.0776C21.6409 63.9162 21.6215 63.7161 21.5569 63.5591Z" fill="#1F1473"/>
<path d="M21.3191 61.5116C21.3405 61.4968 21.3619 61.4798 21.3756 61.456C21.4108 61.395 21.3813 61.3076 21.3268 61.2672C21.2727 61.2268 21.2024 61.2237 21.1378 61.2327C21.034 61.2466 20.9334 61.2878 20.8462 61.3524C20.7929 61.3919 20.7396 61.4605 20.7638 61.5264C20.7792 61.5677 20.82 61.5892 20.8587 61.6013C21.0102 61.6484 21.187 61.6022 21.3191 61.5116Z" fill="#1F1473"/>
<path d="M22.2762 62.3122C22.2697 62.2965 22.262 62.2808 22.2499 62.2696C22.2192 62.2409 22.1692 62.2543 22.1429 62.288C22.1167 62.3216 22.1094 62.3687 22.1094 62.4131C22.109 62.4844 22.1239 62.5553 22.1526 62.619C22.17 62.658 22.2035 62.6993 22.2414 62.6881C22.2653 62.6809 22.2802 62.6549 22.2899 62.6297C22.3275 62.5311 22.3157 62.4082 22.2762 62.3122Z" fill="#1F1473"/>
<path d="M23.0999 63.4029C23.0894 63.3773 23.0769 63.3518 23.0575 63.3338C23.0074 63.2876 22.9255 63.3091 22.8827 63.3639C22.8398 63.4186 22.8281 63.4953 22.8281 63.568C22.8277 63.6841 22.852 63.7998 22.8984 63.9039C22.9271 63.9676 22.9816 64.0349 23.0434 64.0165C23.0821 64.0048 23.1064 63.9627 23.1221 63.9214C23.1835 63.7599 23.1641 63.5594 23.0999 63.4029Z" fill="#1F1473"/>
<path d="M59.02 84.2308C80.4397 84.2308 97.8037 83.0253 97.8037 81.5382C97.8037 80.0512 80.4397 78.8457 59.02 78.8457C37.6004 78.8457 20.2363 80.0512 20.2363 81.5382C20.2363 83.0253 37.6004 84.2308 59.02 84.2308Z" fill="#7672F2"/>
<path d="M53.8467 45.3795C49.9619 49.4082 48.8917 55.1234 47.8147 60.2349C47.1658 63.3149 46.7676 65.2329 46.7676 65.2329L48.5897 66.0905L58.3445 47.7863C58.6825 47.1368 58.7463 46.3501 58.5057 45.6491C58.1891 44.7264 57.6714 44.1384 56.8859 44.0527L53.8467 45.3795Z" fill="#F2A87E"/>
<path d="M44.7676 38.3697C46.1467 40.4312 47.8003 42.5276 49.6612 44.0522C51.522 45.5767 56.2848 49.827 57.5278 49.3148C57.663 49.2592 58.6355 47.3394 58.7372 47.2264C59.173 46.7425 59.2162 45.9723 59.173 45.7745C58.2643 41.596 55.0466 39.0228 52.1217 36.2262C50.466 34.6429 45.6063 31.5143 43.4866 34.1593C42.1112 35.8759 43.8036 36.9281 44.7676 38.3697Z" fill="#F2A87E"/>
<path d="M47.2685 61.8281L47.0262 62.1892C46.4241 63.0863 46.0409 64.1412 45.9141 65.2518L46.5961 65.9914L48.7659 66.352C48.7659 66.352 48.9359 66.0031 49.1197 66.0336C49.2739 66.0591 49.4241 66.4615 49.6345 66.4965C50.0909 66.5723 50.5965 66.6566 50.7996 66.6902C51.2062 66.7579 55.1524 67.4142 55.1524 67.4142C55.1524 67.4142 55.3245 66.8822 55.2304 66.6727C55.1819 66.5655 54.8415 66.3368 54.6109 66.2134C53.5424 65.6402 50.4979 63.9012 50.1171 62.4955C49.6547 60.7862 47.2685 61.8281 47.2685 61.8281Z" fill="#7672F2"/>
<path d="M55.2547 66.7938C55.2721 67.0378 55.1521 67.4124 55.1521 67.4124C55.1521 67.4124 51.2055 66.7562 50.7993 66.6884C50.5965 66.6548 50.091 66.5705 49.6342 66.4947C49.4238 66.4597 49.2736 66.0574 49.1193 66.0318C48.9356 66.0013 48.7656 66.3503 48.7656 66.3503L45.8516 65.8658L45.9142 65.25L55.2547 66.7938Z" fill="#300367"/>
<path d="M51.3936 64.9664C51.4307 65.052 51.568 64.9847 51.7513 64.8592C52.1972 64.5537 52.1552 64.5887 52.0615 64.5097C51.9961 64.4555 51.9177 64.399 51.6589 64.5842C51.4771 64.7143 51.356 64.8811 51.3936 64.9664Z" fill="#300367"/>
<path d="M50.8486 64.5523C50.8862 64.638 51.0231 64.5712 51.2064 64.4447C51.6523 64.1397 51.6103 64.1747 51.5166 64.0962C51.4511 64.0419 51.3728 63.9845 51.1148 64.1693C50.9322 64.2998 50.8111 64.468 50.8486 64.5523Z" fill="#300367"/>
<path d="M50.3583 64.1033C50.3958 64.189 50.5327 64.1221 50.7165 63.9961C51.1619 63.6911 51.1203 63.7256 51.0262 63.6467C50.9608 63.5924 50.8824 63.5354 50.624 63.7207C50.4423 63.8503 50.3211 64.0181 50.3583 64.1033Z" fill="#300367"/>
<path d="M48.1351 63.1805C49.4661 63.8215 49.9305 63.5806 50.294 63.0271C50.8484 62.1825 51.5398 60.9392 52.1621 59.468C51.0269 59.0159 48.9395 58.7212 48.1121 58.3965C47.5011 60.6095 47.4094 60.7782 47.1699 62.0601C47.0605 62.649 48.1351 63.1805 48.1351 63.1805Z" fill="#DEFFFF"/>
<mask id="mask7_263_3909" style="mask-type:luminance" maskUnits="userSpaceOnUse" x="47" y="57" width="5" height="7">
<path d="M48.1343 63.1796C49.4653 63.8206 49.9297 63.5797 50.2932 63.0262C50.8476 62.1816 51.3189 61.2195 51.986 59.9802C50.8508 59.5281 49.1071 58.1978 48.2801 57.873C47.5273 59.8022 47.5617 60.95 47.1691 62.0587C46.9713 62.619 48.1343 63.1796 48.1343 63.1796Z" fill="white"/>
</mask>
<g mask="url(#mask7_263_3909)">
<path d="M47.8047 59.582C49.1692 60.0727 50.5754 60.4221 51.998 60.6235" stroke="#5305AE" stroke-width="0.4088" stroke-miterlimit="10"/>
<path d="M47.2461 60.2695C48.607 61.3487 50.2679 61.9542 51.9398 61.9807" stroke="#5305AE" stroke-width="0.4088" stroke-miterlimit="10"/>
<path d="M47.0293 61.2188C47.2163 61.7444 47.6585 62.1037 48.1128 62.358C48.7811 62.7321 50.1376 62.9972 50.8487 62.894" stroke="#5305AE" stroke-width="0.4088" stroke-miterlimit="10"/>
</g>
<path d="M43.1451 39.5958C44.1838 41.6429 46.2461 43.2105 47.838 44.7584C48.7854 45.6793 49.7271 46.3942 50.6745 47.3155C51.4713 48.0901 47.1996 49.8887 46.91 60.1812C47.7787 60.5028 50.0954 61.4676 52.1226 61.7896C57.6248 52.1404 60.0393 44.3758 59.6262 43.782C56.3879 39.1253 51.5306 34.3336 46.3976 32.8634C44.8654 32.4247 44.0319 32.1578 43.4884 34.1596C42.9893 35.995 42.3233 37.9762 43.1451 39.5958Z" fill="#0A0C26"/>
<path d="M66.9975 32.8739C66.6579 32.6905 65.967 32.8125 65.629 32.625C65.5603 32.856 65.5195 32.9906 65.5195 32.9906L67.4458 34.9152C67.4458 34.9152 67.8137 34.6304 67.5201 34.1437C67.2261 33.6571 67.2705 33.3983 66.9975 32.8739Z" fill="#F2A87E"/>
<path d="M64.2887 34.8199C63.9337 34.6773 63.2581 34.8791 62.9044 34.7324C62.8579 34.9701 62.8301 35.1087 62.8301 35.1087L64.928 36.7975C64.928 36.7975 65.2672 36.4709 64.9288 36.0215C64.5904 35.5716 64.6098 35.3097 64.2887 34.8199Z" fill="#F2B18B"/>
<path d="M67.7054 74.6934C67.52 74.7037 67.3379 74.5947 67.2491 74.3987C66.307 72.3197 65.7743 70.0748 65.6665 67.7263C65.2473 58.6207 71.4707 50.8395 79.54 50.3816C79.8065 50.3663 80.0331 50.5942 80.0468 50.8898C80.0605 51.1858 79.8558 51.4374 79.5893 51.4527C72.0522 51.8806 66.2391 59.1567 66.6308 67.6716C66.7322 69.8703 67.2305 71.9717 68.1121 73.9165C68.232 74.1811 68.1359 74.5032 67.8976 74.6364C67.8358 74.6714 67.7704 74.6898 67.7054 74.6934Z" fill="url(#paint3_linear_263_3909)"/>
<path d="M80.8082 52.6504C73.5045 52.6504 67.584 59.2129 67.584 67.3084C67.584 75.404 73.5045 81.9664 80.8082 81.9664C88.1118 81.9664 94.0323 75.404 94.0323 67.3084C94.0323 59.2129 88.1114 52.6504 80.8082 52.6504ZM80.8078 54.981C86.95 54.981 91.9292 60.5001 91.9292 67.308C91.9292 74.1162 86.95 79.6354 80.8078 79.6354C74.6655 79.6354 69.6863 74.1162 69.6863 67.308C69.6867 60.5001 74.6659 54.981 80.8078 54.981Z" fill="#444675"/>
<path d="M74.1098 72.8237C73.0797 71.283 72.4707 69.375 72.4707 67.3086" stroke="#D3EFFF" stroke-width="0.6819" stroke-miterlimit="10"/>
<path d="M80.8086 58.0488C83.8539 58.0488 86.5175 59.8622 87.9725 62.5696" stroke="#D3EFFF" stroke-width="0.6819" stroke-miterlimit="10"/>
<path d="M77.084 57.5183C78.2284 56.9805 79.4868 56.6836 80.8073 56.6836C86.0902 56.6836 90.3728 61.4403 90.3728 67.308" stroke="#D3EFFF" stroke-width="0.6819" stroke-miterlimit="10"/>
<path d="M31.8454 72.8216C28.7807 69.4177 28.7807 63.8985 31.8454 60.4941" stroke="#D3EFFF" stroke-width="0.6819" stroke-miterlimit="10"/>
<path d="M38.0957 57.6836C42.43 57.6836 45.9437 61.5863 45.9437 66.4004" stroke="#D3EFFF" stroke-width="0.6819" stroke-miterlimit="10"/>
<path d="M37.0621 52.5957C29.7584 52.5957 23.8379 59.1582 23.8379 67.2537C23.8379 75.3493 29.7584 81.9118 37.0621 81.9118C44.3657 81.9118 50.2862 75.3488 50.2862 67.2537C50.2862 59.1582 44.3657 52.5957 37.0621 52.5957ZM37.0621 54.9267C43.2043 54.9267 48.1835 60.4459 48.1835 67.2542C48.1835 74.0624 43.2043 79.5812 37.0621 79.5812C30.9198 79.5812 25.9406 74.062 25.9406 67.2542C25.9406 60.4455 30.9198 54.9267 37.0621 54.9267Z" fill="#444675"/>
<path d="M51.233 68.1966C50.9661 68.1966 50.75 67.9566 50.75 67.6601C50.75 59.134 44.6102 52.1974 37.0631 52.1974C29.5163 52.1974 23.3761 59.134 23.3761 67.6601C23.3761 67.9562 23.1601 68.1966 22.8931 68.1966C22.6262 68.1966 22.4102 67.9566 22.4102 67.6601C22.4102 58.5424 28.9833 51.125 37.0627 51.125C45.1425 51.125 51.7152 58.5424 51.7152 67.6601C51.7156 67.9566 51.4995 68.1966 51.233 68.1966Z" fill="url(#paint4_linear_263_3909)"/>
<path d="M55.1754 65.1106L37.4215 64.5298L37.4211 64.5334C37.3036 64.515 37.1849 64.502 37.0625 64.502C35.6697 64.502 34.541 65.7556 34.541 67.3026C34.541 68.6643 35.4165 69.7982 36.5763 70.0503V70.0512L54.3597 74.3562C54.3605 74.3562 54.3609 74.3567 54.3617 74.3567L54.3658 74.3575V74.3571C54.6275 74.4185 54.8984 74.4513 55.1754 74.4513C57.4086 74.4513 59.2194 72.3602 59.2194 69.7812C59.219 67.2017 57.4086 65.1106 55.1754 65.1106ZM40.3885 69.3412L40.5896 66.6002L51.2151 67.0097L51.0108 71.3448L40.3885 69.3412Z" fill="#444675"/>
<path d="M45.9434 45.3246C45.9567 45.4883 48.143 50.8214 48.143 50.8214L49.0016 50.5532L46.936 45.1309L45.9434 45.3246Z" fill="#A3A3A3"/>
<path d="M42.7363 44.7296C42.7363 44.7296 43.6752 47.7536 43.796 47.7388C43.9167 47.724 47.5512 46.7852 47.6182 46.7255C47.6852 46.6659 48.6108 44.804 48.6108 44.804L48.2623 44.6699L47.3771 46.2043L45.0434 46.9494L44.3327 44.8785L42.7363 44.7296Z" fill="#A3A3A3"/>
<path d="M51.4286 44.1772C51.4286 44.1772 46.5468 45.786 45.6749 45.7116C44.803 45.6371 41.5708 44.8625 41.5171 44.6688C41.4634 44.475 41.383 42.6279 42.6304 42.3898C43.8779 42.1511 45.0041 42.6279 46.2919 42.5835C47.5798 42.5391 50.1279 41.913 50.812 42.5835C51.4957 43.2536 51.4824 44.0879 51.4286 44.1772Z" fill="#424242"/>
<path d="M80.4073 67.0347L76.8588 61.8331C75.3978 59.8739 74.2105 57.6734 73.3386 55.3047L68.7402 42.8073L69.3314 42.5391L73.9298 55.0365C74.7771 57.3384 75.9308 59.4774 77.3592 61.3931L80.9161 66.6064L80.4073 67.0347Z" fill="#FF7656"/>
<path d="M55.308 69.7608C55.2603 69.7608 55.2127 69.7573 55.165 69.7501C54.7899 69.6918 54.4745 69.4101 54.3424 69.0158L46.5332 45.6334L47.1321 45.3867L54.9413 68.7687C54.9918 68.9212 55.1085 69.0248 55.2531 69.0477C55.3972 69.0688 55.5353 69.0055 55.6218 68.8745L70.3131 46.6359L70.8279 47.0557L56.1366 69.2944C55.9416 69.5904 55.6331 69.7608 55.308 69.7608Z" fill="#FF7656"/>
<path d="M54.7617 69.6713L38.4999 68.3859C37.9382 68.3414 37.4455 67.9849 37.1822 67.4318C36.9185 66.8792 36.9298 66.2262 37.2125 65.6852L47.0514 46.8514L70.11 45.1523L70.1524 45.8601L47.4334 47.534L37.765 66.0418C37.5937 66.3693 37.5865 66.7653 37.7464 67.1004C37.9063 67.4354 38.2047 67.6516 38.5452 67.6785L54.8069 68.964L54.7617 69.6713Z" fill="#FF7656"/>
<path d="M39.6718 67.3081C39.6718 68.9238 38.4927 70.2335 37.0381 70.2335C35.5835 70.2335 34.4043 68.9238 34.4043 67.3081C34.4043 65.6925 35.5835 64.3828 37.0381 64.3828C38.4927 64.3828 39.6718 65.6925 39.6718 67.3081Z" fill="#444675"/>
<path d="M38.5023 67.3086C38.5023 68.2061 37.8473 68.9337 37.0392 68.9337C36.2312 68.9337 35.5762 68.2061 35.5762 67.3086C35.5762 66.4111 36.2312 65.6836 37.0392 65.6836C37.8473 65.6836 38.5023 66.4111 38.5023 67.3086Z" fill="url(#paint5_linear_263_3909)"/>
<path d="M80.9443 70.2335C82.3989 70.2335 83.5781 68.9238 83.5781 67.3081C83.5781 65.6925 82.3989 64.3828 80.9443 64.3828C79.4897 64.3828 78.3105 65.6925 78.3105 67.3081C78.3105 68.9238 79.4897 70.2335 80.9443 70.2335Z" fill="#444675"/>
<path d="M80.9435 68.9337C81.7516 68.9337 82.4066 68.2061 82.4066 67.3086C82.4066 66.4111 81.7516 65.6836 80.9435 65.6836C80.1355 65.6836 79.4805 66.4111 79.4805 67.3086C79.4805 68.2061 80.1355 68.9337 80.9435 68.9337Z" fill="url(#paint6_linear_263_3909)"/>
<path d="M57.8961 69.4055C57.8961 70.9228 56.7888 72.1527 55.4227 72.1527C54.0565 72.1527 52.9492 70.9228 52.9492 69.4055C52.9492 67.8881 54.0565 66.6582 55.4227 66.6582C56.7888 66.6582 57.8961 67.8881 57.8961 69.4055Z" stroke="#ECE9E9" stroke-width="1.5752" stroke-miterlimit="10"/>
<path d="M56.146 68.6107C56.5462 69.0552 56.5462 69.776 56.146 70.2205C55.7458 70.665 55.0968 70.665 54.6966 70.2205C54.2964 69.776 54.2964 69.0552 54.6966 68.6107C55.0968 68.1662 55.7458 68.1662 56.146 68.6107Z" fill="#444675" stroke="#ECE9E9" stroke-width="0.7811" stroke-miterlimit="10"/>
<path d="M55.4219 69.4158L61.7878 71.4248L70.0667 65.6172" stroke="#151852" stroke-width="1.3436" stroke-miterlimit="10"/>
<path d="M70.1312 66.6854L64.0269 71.0213C63.6186 71.3115 63.0755 71.1788 62.8142 70.7253C62.5529 70.2714 62.6725 69.6686 63.0807 69.3784L69.1854 65.0424C69.5941 64.7522 70.1368 64.885 70.3981 65.3384C70.659 65.7919 70.5394 66.3952 70.1312 66.6854Z" fill="#151852"/>
<path d="M66.3193 36.3957C66.3193 36.3957 68.0477 35.8728 68.4289 36.1638C68.8105 36.4549 67.6176 38.751 67.6176 38.751L68.6466 38.6187C68.6466 38.6187 69.7078 36.5124 69.4922 35.439C69.2765 34.3657 65.9922 35.1596 65.9922 35.1596L66.3193 36.3957Z" fill="#858585"/>
<path d="M65.7459 35.1863C65.7459 35.1863 62.4612 36.0771 62.4806 36.2772C62.4999 36.4772 62.6324 37.1913 62.8735 37.2846C63.1146 37.3779 66.2862 36.3987 66.3198 36.396C66.3533 36.3933 66.0601 35.1621 66.0601 35.1621L65.7459 35.1863Z" fill="#262626"/>
<path d="M67.4988 35.3349C67.4988 35.3349 68.9376 34.9648 69.2005 35.7735C69.4634 36.5818 67.3159 38.8213 67.3381 39.1667C67.3599 39.512 68.7147 42.8343 68.7147 42.8343L69.6278 42.4105L68.4534 39.1025C68.4534 39.1025 70.5723 36.4172 70.2198 35.1456C69.8672 33.874 67.5307 34.0785 67.5307 34.0785L67.4988 35.3349Z" fill="#A3A3A3"/>
<path d="M66.2293 35.1126C66.1494 34.6529 66.3085 34.1815 66.6437 33.8975C66.9627 33.6271 67.3399 33.3575 67.5269 33.4086C67.8863 33.5073 68.4702 34.4609 68.5033 34.8C68.536 35.1391 67.7461 36.0352 67.3791 36.1146C67.2555 36.1415 67.096 36.1034 66.9393 36.0411C66.5714 35.8953 66.3032 35.5387 66.2293 35.1126Z" fill="#424242"/>
<path d="M56.1914 48.62C55.6761 54.4953 57.7958 58.1563 60.0314 62.7815C61.3782 65.5687 62.7023 68.712 62.7023 68.712L64.5797 68.0168L60.6061 46.9878C60.4732 46.2522 60.4445 45.749 59.8469 45.4C59.0602 44.9407 58.3212 44.8797 57.6815 45.3924L56.1914 48.62Z" fill="#F2B18B"/>
<path d="M44.5462 42.8791C46.382 44.4405 48.5736 45.3837 50.7397 46.2822C52.9058 47.1806 55.1083 48.0709 56.999 49.5493C58.0676 48.6778 59.0533 48.4522 60.1219 47.5807C60.2382 47.486 60.6941 48.1001 60.7373 47.9476C60.7922 47.7533 60.3585 46.6639 60.2882 46.4759C58.7949 42.4894 54.5579 40.1642 51.0539 38.3669C49.0703 37.3496 42.8574 33.617 41.4731 36.8065C40.5749 38.876 43.2624 41.7874 44.5462 42.8791Z" fill="#F2B18B"/>
<path d="M61.0527 65.7877L61.0858 66.2366C61.1682 67.3521 61.5091 68.4246 62.0752 69.3508L63.027 69.4046L64.8693 68.0815C64.8693 68.0815 64.789 67.6948 64.9448 67.5827C65.0761 67.4885 65.4282 67.68 65.6067 67.5517C65.9944 67.2732 66.4237 66.9651 66.5961 66.8413C66.9414 66.5932 70.2923 64.1868 70.2923 64.1868C70.2923 64.1868 70.1045 63.6616 69.9095 63.5737C69.8093 63.5289 69.418 63.6069 69.1713 63.684C68.0285 64.0393 64.7094 64.9709 63.5872 64.1963C62.2222 63.2535 61.0527 65.7877 61.0527 65.7877Z" fill="#7672F2"/>
<path d="M70.0002 63.6484C70.1585 63.8189 70.2913 64.1876 70.2913 64.1876C70.2913 64.1876 66.9404 66.594 66.5951 66.842C66.4231 66.9658 65.9934 67.2739 65.6057 67.5525C65.4272 67.6807 65.0747 67.4892 64.9438 67.5834C64.788 67.6955 64.8683 68.0822 64.8683 68.0822L62.3937 69.8593L62.0742 69.3515L70.0002 63.6484Z" fill="#300367"/>
<path d="M66.0141 65.1127C66.0932 65.1499 66.1558 64.9983 66.2188 64.7696C66.3715 64.2129 66.3606 64.2699 66.2435 64.2798C66.1623 64.2874 66.0698 64.3022 65.9858 64.6314C65.9269 64.8624 65.9349 65.0764 66.0141 65.1127Z" fill="#300367"/>
<path d="M65.3617 65.2043C65.4409 65.2411 65.5035 65.0903 65.5661 64.8607C65.7187 64.3045 65.7082 64.3615 65.5911 64.3718C65.5099 64.379 65.4167 64.3938 65.3331 64.7221C65.2741 64.9535 65.2834 65.1688 65.3617 65.2043Z" fill="#300367"/>
<path d="M64.7251 65.2263C64.8043 65.2631 64.8669 65.1124 64.9299 64.8827C65.0821 64.327 65.0716 64.3831 64.9541 64.393C64.8725 64.4001 64.7801 64.4154 64.6965 64.7442C64.6375 64.9751 64.6464 65.1895 64.7251 65.2263Z" fill="#300367"/>
<path d="M62.5067 66.1665C63.8866 65.6695 64.0917 65.1479 64.0348 64.4657C63.948 63.4246 63.7501 62.5845 63.4912 60.9375C62.371 61.4322 60.8454 62.4163 60.0312 62.7805C60.6152 64.7805 60.7501 64.9146 61.1159 66.0346C61.3009 66.5998 62.5067 66.1665 62.5067 66.1665Z" fill="#DEFFFF"/>
<mask id="mask8_263_3909" style="mask-type:luminance" maskUnits="userSpaceOnUse" x="60" y="60" width="5" height="7">
<path d="M62.5067 66.1665C63.8866 65.6695 64.0917 65.1479 64.0348 64.4657C63.948 63.4246 63.7287 62.3571 63.4912 60.9375C62.371 61.4322 60.8454 62.4163 60.0312 62.7805C60.6152 64.7805 60.7501 64.9146 61.1159 66.0346C61.3009 66.5998 62.5067 66.1665 62.5067 66.1665Z" fill="white"/>
</mask>
<g mask="url(#mask8_263_3909)">
<path d="M60.1191 63.7108C61.4348 63.0766 62.6976 62.306 63.8848 61.4121" stroke="#5305AE" stroke-width="0.4088" stroke-miterlimit="10"/>
<path d="M60.1074 64.6349C61.7708 64.4447 63.3768 63.679 64.6469 62.4707" stroke="#5305AE" stroke-width="0.4088" stroke-miterlimit="10"/>
<path d="M60.5117 65.5058C60.9648 65.7628 61.5108 65.7072 62.0031 65.5646C62.7271 65.3542 63.9027 64.5572 64.3743 63.957" stroke="#5305AE" stroke-width="0.4088" stroke-miterlimit="10"/>
</g>
<path d="M41.9869 43.4566C43.477 45.1117 46.0204 45.9141 48.2467 46.7825C49.4085 47.2355 52.2119 47.4759 53.8599 47.9594C55.3141 48.3864 53.2808 57.6087 60.2307 64.0415C60.4948 64.3349 61.9615 63.292 63.5344 62.3743C63.7795 62.2312 63.9059 61.9191 63.834 61.6226C63.1096 58.6309 60.3765 44.0312 59.8854 43.5584C55.9081 39.728 44.649 32.4048 41.4074 36.3806C39.8406 38.3025 40.5392 41.8482 41.9869 43.4566Z" fill="#151852"/>
<path d="M68.0543 33.8711C68.3281 33.92 69.0893 35.0391 69.416 35.3051C69.8 35.6177 70.0246 34.9714 69.9733 34.5897C69.926 33.9348 69.2944 33.0777 69.2944 33.0777C68.9754 32.8139 67.7938 32.2568 67.3767 32.3443C67.3767 32.3443 66.3869 32.2039 65.5114 32.0294C65.3385 31.9949 65.7908 32.3905 65.952 33.0095L66.1943 33.5123C66.4628 33.5755 67.3904 33.7531 68.0543 33.8711Z" fill="#F2A87E"/>
<path d="M57.1301 18.5514C57.1301 18.5514 53.3583 17.9136 54.0852 23.4893C54.4305 26.1392 55.2297 29.2628 57.1478 31.984C57.9414 33.1099 59.6395 32.3613 60.3288 31.5243C61.0181 30.6873 59.9864 27.6454 59.3766 23.0228C58.9857 20.0594 57.5331 18.5981 57.1301 18.5514Z" fill="#F2A87E"/>
<path d="M57.318 30.582C57.318 30.582 58.3893 28.6372 60.0374 29.6338C60.6851 30.0254 66.8916 32.4084 66.8916 32.4084L66.7769 33.6127C66.7769 33.6127 58.8594 33.3136 58.4572 33.1162C56.5253 32.1689 57.2025 30.6744 57.318 30.582Z" fill="#F2A87E"/>
<path d="M53.8444 21.6616C53.4172 24.2949 54.0795 26.9789 54.7357 29.5535C54.77 29.6885 54.8124 29.8356 54.9194 29.9101C55.0414 29.9948 55.1989 29.954 55.337 29.9101C57.1663 29.3328 58.9957 28.7551 60.825 28.1778C60.3634 26.2496 59.9019 24.3213 59.4403 22.3931C59.2024 21.4001 58.9537 20.3801 58.4012 19.5557C56.5731 16.8255 54.2531 19.1413 53.8444 21.6616Z" fill="#EF4D41"/>
<path d="M59.6222 24.682C58.6243 28.5205 56.8051 33.2503 54.3373 37.0018C53.339 38.5197 48.5767 38.5318 47.4718 38.3546C41.8287 37.4504 41.5605 36.2259 41.5605 36.2259L48.2556 24.3689C50.8858 20.5918 52.514 19.1911 54.7197 18.3263C57.429 17.2642 61.0206 19.3036 59.6222 24.682Z" fill="#EF4D41"/>
<path d="M50.8483 32.7839C51.7698 32.46 53.8188 31.3782 54.4335 31.2606C53.9658 30.0895 50.9472 27.8267 50.6532 27.2795C50.5139 27.0202 50.5591 23.3584 50.3277 23.7706C50.2114 23.9774 49.4769 24.9063 49.7402 28.3237C49.7971 29.0624 50.2623 31.8173 50.48 32.5744C50.5284 32.7444 50.6952 32.8377 50.8483 32.7839Z" fill="#D9382B"/>
<path d="M64.467 36.0038C64.7448 36.0536 65.5169 37.1897 65.8485 37.4597C66.2382 37.7777 66.4663 37.1211 66.4146 36.734C66.367 36.0693 65.7265 35.1991 65.7265 35.1991C65.4026 34.9314 64.2037 34.3653 63.7801 34.4537C63.7801 34.4537 62.7753 34.3106 61.8869 34.133C61.7117 34.098 62.1704 34.4994 62.3335 35.1283L62.5791 35.6391C62.8517 35.7024 63.7934 35.8831 64.467 36.0038Z" fill="#F2B18B"/>
<path d="M53.3863 20.4484C53.3863 20.4484 49.558 19.7989 50.293 25.459C50.6423 28.1488 51.4519 31.3195 53.3976 34.0829C54.2024 35.2262 55.9264 34.4673 56.6266 33.6182C57.3268 32.7691 56.2805 29.681 55.6639 24.9885C55.2693 21.9797 53.7958 20.4955 53.3863 20.4484Z" fill="#F2B18B"/>
<path d="M53.5735 32.6581C53.5735 32.6581 54.6619 30.6845 56.3341 31.6973C56.9911 32.0951 63.2897 34.5177 63.2897 34.5177L63.1725 35.7399C63.1725 35.7399 55.1368 35.4318 54.7281 35.2313C52.7683 34.2687 53.456 32.7518 53.5735 32.6581Z" fill="#F2B18B"/>
<path d="M50.0505 23.6025C49.6155 26.2748 50.2863 29.0001 50.9514 31.6133C50.9861 31.7505 51.0289 31.8994 51.1376 31.9752C51.2611 32.0614 51.4215 32.0196 51.5616 31.9757C53.4188 31.3908 55.276 30.8059 57.1332 30.2206C56.6656 28.2632 56.1979 26.3058 55.7307 24.3484C55.49 23.3401 55.2376 22.3049 54.6775 21.4679C52.8227 18.6955 50.4668 21.0445 50.0505 23.6025Z" fill="#FF5955"/>
<path d="M58.1001 15.9942L58.4607 15.3223L59.8943 17.5039L59.5701 18.4414C59.205 18.2104 58.8706 17.9237 58.5807 17.5923C58.2512 17.1146 58.0892 16.5521 58.1001 15.9942Z" fill="#F2947A"/>
<path d="M56.625 18.7383L58.099 15.9941C58.0881 16.5521 58.2504 17.1146 58.5795 17.5927C58.8695 17.9242 59.2038 18.2108 59.5689 18.4418L58.8473 20.527L56.625 18.7383Z" fill="#F2B18B"/>
<path d="M59.6007 21.0246C59.3245 21.4341 58.3521 21.1426 57.4285 20.3738C56.5054 19.605 55.9808 18.6496 56.2574 18.2401C56.5341 17.8306 57.5065 18.1221 58.4296 18.8909C59.3532 19.6602 59.8774 20.6151 59.6007 21.0246Z" fill="#F2B18B"/>
<path d="M60.9191 18.4018C61.2773 18.4597 61.6169 18.4646 61.8144 18.3417C63.1034 16.8804 62.6349 12.1766 62.6349 12.1766L61.1125 11.0898L58.7974 12.1318L58.2074 15.1087C58.0499 15.9035 58.2756 16.7387 58.8147 17.3585C59.4116 17.899 60.1393 18.2753 60.9191 18.4018Z" fill="#F2B18B"/>
<path d="M64.1846 10.3951C64.3683 9.93672 64.3602 9.37695 64.101 8.96879C63.9697 8.76247 63.7852 8.60458 63.5909 8.47271C63.2307 8.22782 62.7631 8.06365 62.3948 8.29375C62.3819 8.30182 62.373 8.31573 62.3669 8.33188C62.1909 7.75731 61.6146 7.38233 61.0662 7.4393C60.2174 7.52766 59.5373 8.5678 59.5563 9.52542C59.341 9.11412 58.9094 8.8275 58.4821 8.91497C58.0516 9.00288 57.7395 9.44648 57.6732 9.91968C57.6478 9.93448 57.6207 9.94749 57.5965 9.96408C57.4802 9.79992 57.315 9.67613 57.1305 9.63441C56.7481 9.54785 56.3362 9.78557 56.1435 10.1632C55.9509 10.5404 55.9679 11.0262 56.148 11.411C56.2336 11.5936 56.3547 11.7228 56.532 11.7896C55.6311 11.9699 56.3006 13.7039 57.2767 13.3752C57.328 13.6277 57.3845 13.8695 57.4447 14.083C57.5993 14.6342 57.8416 15.1482 58.1586 15.6062L58.8593 13.8977C59.0531 13.416 59.1759 12.2417 59.6245 12.4153C59.952 12.5418 61.0985 12.8185 61.487 12.8939C62.413 13.0733 64.1272 12.9903 64.3732 11.425C64.4281 11.0684 64.336 10.7095 64.1846 10.3951Z" fill="#151852"/>
<path d="M42.0051 32.7988H27.7754V48.6038H42.0051V32.7988Z" fill="url(#paint7_linear_263_3909)"/>
<path d="M43.7233 28.9824H26.0586V32.7972H43.7233V28.9824Z" fill="#FF9000"/>
<path d="M31.2112 28.9824H29.9844V48.6026H31.2112V28.9824Z" fill="#333333"/>
<path d="M39.7971 28.9824H38.5703V48.6026H39.7971V28.9824Z" fill="#333333"/>
<path d="M46.0396 43.7773H44.0124H43.4333H40.3929H39.8138H36.7734H36.1943H33.1535H32.5744H29.5335H28.9544H26.6377H26.0586V44.4205V48.2802V48.9234H26.6377H28.9544H29.5335H32.5744H33.1535H36.1943H36.7734H39.8138H40.3929H43.4333H44.0124H46.0396H46.6187V48.2802V44.4205V43.7773H46.0396ZM26.6377 48.2802V44.4205H28.9544V48.2802H26.6377ZM29.5335 48.2802V44.4205H32.5744V48.2802H29.5335ZM33.1535 48.2802V44.4205H36.1943V48.2802H33.1535ZM36.773 48.2802V44.4205H39.8134V48.2802H36.773ZM40.3929 48.2802V44.4205H43.4333V48.2802H40.3929ZM46.0396 48.2802H44.0124V44.4205H46.0396V48.2802Z" fill="#FF7656"/>
<path d="M62.9974 15.6373C62.972 15.8517 62.7587 16.8811 62.6945 17.0848C62.5677 17.488 62.3945 17.8737 62.1805 18.229C62.0476 18.4496 61.8893 18.6676 61.6696 18.7721C61.2836 18.9565 60.845 18.743 60.4723 18.5277C59.9764 18.2411 59.4393 17.8836 59.2911 17.2848C59.2362 17.0628 59.2418 16.8282 59.2479 16.5981C59.2681 15.8486 59.2882 15.0991 59.3084 14.3496C60.5522 14.6299 61.8158 14.76 63.0762 14.595C63.0568 14.9959 63.0451 15.239 62.9974 15.6373Z" fill="#ECE9E9"/>
<path d="M59.5057 14.6699C59.3853 14.3636 59.0934 13.972 58.8559 13.7666C58.6185 13.5611 58.2377 13.5181 58.0345 13.7648C57.8342 14.0079 57.8932 14.3945 58.0038 14.7004C58.2578 15.401 58.7251 16.0038 59.311 16.3878" stroke="#E1E5FA" stroke-width="0.5669" stroke-miterlimit="10"/>
<path d="M57.9014 13.8281C58.1397 13.6657 58.5197 13.7788 58.7507 14.0806C58.9816 14.3825 58.9756 14.7592 58.7377 14.9216C58.4995 15.084 58.1191 14.971 57.8885 14.6691C57.6571 14.3672 57.6631 13.9905 57.9014 13.8281Z" fill="#F2B18B"/>
<path d="M89.7273 33.1826C89.569 33.1826 89.4269 33.2552 89.3247 33.3719C89.0198 33.3696 88.7145 33.3597 88.4092 33.3423C88.4613 32.9507 88.4476 32.5475 88.3721 32.1604C88.3062 31.8222 88.1915 31.4983 88.0393 31.1974C88.5304 30.7439 89.0105 30.2712 89.4733 29.7818C89.5222 29.7971 89.5726 29.8078 89.6255 29.8078C89.9365 29.8078 90.1885 29.5279 90.1885 29.1826C90.1885 28.8372 89.9365 28.5573 89.6255 28.5573C89.3146 28.5573 89.0626 28.8372 89.0626 29.1826C89.0626 29.2288 89.0679 29.2736 89.0763 29.3171C88.6358 29.7827 88.1794 30.2335 87.7122 30.6663C87.415 30.264 87.0418 29.9312 86.6207 29.7038C86.6663 29.4409 86.7168 29.1785 86.7741 28.9188C86.9869 28.8296 87.1388 28.6031 87.1388 28.3357C87.1388 27.9904 86.8868 27.7105 86.5758 27.7105C86.2649 27.7105 86.0129 27.9904 86.0129 28.3357C86.0129 28.5232 86.0888 28.6896 86.2063 28.804C86.1575 29.0274 86.1134 29.2521 86.0731 29.4777C85.3316 29.2629 84.5551 29.3858 83.8811 29.7459L82.8574 27.941C82.8965 27.8558 82.9208 27.7607 82.9208 27.6585C82.9208 27.3131 82.6688 27.0332 82.3578 27.0332C82.0469 27.0332 81.7949 27.3131 81.7949 27.6585C81.7949 28.0038 82.0469 28.2837 82.3578 28.2837C82.3619 28.2837 82.3659 28.2824 82.37 28.2824L83.384 30.0702C82.8412 30.4914 82.4083 31.0776 82.1789 31.7576L80.8128 31.4898C80.7296 31.2602 80.5277 31.0978 80.2914 31.0978C79.9805 31.0978 79.7285 31.3777 79.7285 31.7231C79.7285 32.0684 79.9805 32.3483 80.2914 32.3483C80.4651 32.3483 80.6182 32.2595 80.7211 32.1222L82.0324 32.3793C81.9839 32.73 81.9875 33.0965 82.0574 33.4728C82.1563 34.0061 82.3849 34.5022 82.7015 34.9175C82.2593 35.2965 81.8224 35.6836 81.3927 36.0792C81.316 36.0357 81.2304 36.0088 81.1383 36.0088C80.8273 36.0088 80.5753 36.2887 80.5753 36.634C80.5753 36.9794 80.8273 37.2593 81.1383 37.2593C81.4492 37.2593 81.7012 36.9794 81.7012 36.634C81.7012 36.6318 81.7008 36.63 81.7008 36.6282C82.1652 36.1994 82.6381 35.7791 83.117 35.3701C83.3436 35.5755 83.5948 35.7468 83.8637 35.8733C84.3879 36.1205 84.9674 36.1985 85.534 36.1312C85.7242 36.6358 85.9301 37.1328 86.1462 37.623C86.1276 37.6854 86.1151 37.7504 86.1151 37.8195C86.1151 38.1649 86.367 38.4448 86.678 38.4448C86.9889 38.4448 87.2409 38.1649 87.2409 37.8195C87.2409 37.4741 86.9889 37.1942 86.678 37.1942C86.6522 37.1942 86.6271 37.1987 86.6021 37.2028C86.4309 36.809 86.2653 36.412 86.111 36.0092C86.3146 35.9469 86.5136 35.8679 86.7038 35.7666C87.3928 35.3979 87.9812 34.7659 88.2582 33.9756C88.5716 33.9953 88.8845 34.0083 89.1979 34.0124C89.2746 34.2564 89.4814 34.4326 89.7273 34.4326C90.0383 34.4326 90.2902 34.1528 90.2902 33.8074C90.2898 33.4625 90.0383 33.1826 89.7273 33.1826Z" fill="#9EA6FA"/>
<path d="M83.1957 34.7121C83.7546 35.4311 84.6607 35.7948 85.5043 35.6396C85.7034 35.6028 85.9316 35.5033 85.976 35.2848C86.0087 35.1234 85.9219 34.9574 85.806 34.8529C85.6905 34.7484 85.5484 34.6883 85.4175 34.6084C85.1514 34.4465 84.9281 34.198 84.7827 33.9025C84.5941 33.5181 84.5404 33.0736 84.4386 32.6506C84.2553 31.8894 83.27 30.7883 82.7131 31.8594C82.2915 32.6708 82.6973 34.0711 83.1957 34.7121Z" fill="#8F98FA"/>
<path d="M87.3298 32.2476C87.4049 32.1884 87.4497 32.0915 87.4788 31.9946C87.7393 31.1294 86.7055 29.6022 85.922 30.4961C85.4221 31.0666 86.9841 32.5208 87.3298 32.2476Z" fill="#AAB2FA"/>
<path d="M20.8782 42.7932C20.7333 42.8632 20.6291 42.9933 20.5774 43.1453C20.2971 43.2785 20.0136 43.405 19.7277 43.5243C19.6348 43.1422 19.4769 42.7789 19.2686 42.4573C19.0868 42.1765 18.8651 41.9307 18.6172 41.7221C18.9047 41.0884 19.1745 40.442 19.4232 39.7885C19.4733 39.7809 19.5234 39.7683 19.5723 39.745C19.8574 39.6073 19.9878 39.2386 19.8634 38.9224C19.739 38.6057 19.4075 38.4613 19.1228 38.599C18.8377 38.7367 18.7073 39.1054 18.8316 39.4216C18.8482 39.4642 18.8692 39.5028 18.8926 39.5387C18.656 40.1612 18.3999 40.7766 18.127 41.3808C17.7098 41.144 17.2478 41.004 16.7802 40.9825C16.7277 40.721 16.6796 40.4586 16.6384 40.1944C16.8012 40.0182 16.8593 39.7432 16.7632 39.4979C16.6392 39.1812 16.3073 39.0363 16.0226 39.1745C15.7375 39.3122 15.6075 39.6809 15.7314 39.9971C15.7989 40.1689 15.9281 40.2877 16.0771 40.3407C16.1127 40.5672 16.1534 40.7928 16.1971 41.0175C15.4399 41.1494 14.7723 41.6064 14.2837 42.2357L12.6963 41.035C12.7015 40.9394 12.6894 40.8417 12.6527 40.7479C12.5287 40.4313 12.1967 40.2864 11.912 40.4245C11.6269 40.5622 11.4965 40.9309 11.6209 41.2471C11.7448 41.5638 12.0768 41.7082 12.3615 41.5705C12.3651 41.5687 12.3684 41.566 12.372 41.5638L13.9445 42.7529C13.5984 43.3795 13.4122 44.1088 13.4466 44.8345L12.0978 45.1951C11.9391 45.0215 11.6956 44.9619 11.4787 45.0668C11.1936 45.205 11.0636 45.5732 11.1876 45.8894C11.3115 46.2061 11.6435 46.3505 11.9282 46.2128C12.0873 46.1357 12.1955 45.9863 12.2411 45.815L13.5358 45.4687C13.6174 45.8114 13.7527 46.1465 13.9518 46.4604C14.234 46.9054 14.6221 47.2588 15.0619 47.4992C14.7929 48.0428 14.5313 48.5918 14.2797 49.1449C14.1937 49.1391 14.1056 49.1525 14.0212 49.1933C13.7361 49.331 13.6057 49.6997 13.7301 50.0159C13.8544 50.3321 14.186 50.4775 14.4707 50.3393C14.7558 50.2016 14.8858 49.8329 14.7618 49.5167C14.761 49.5149 14.7598 49.5131 14.759 49.5113C15.0304 48.9121 15.3131 48.3173 15.605 47.7293C15.8865 47.8172 16.1785 47.8625 16.4704 47.8594C17.0398 47.8531 17.5991 47.6679 18.0942 47.3548C18.45 47.7329 18.8175 48.0971 19.1923 48.451C19.1975 48.516 19.2096 48.5815 19.2342 48.6452C19.3582 48.9619 19.6902 49.1068 19.9749 48.9686C20.26 48.8309 20.3904 48.4622 20.266 48.146C20.1421 47.8293 19.8101 47.6849 19.5254 47.8226C19.5016 47.8343 19.4806 47.8495 19.4588 47.8639C19.1603 47.5791 18.8656 47.2884 18.5792 46.9874C18.7432 46.8399 18.8979 46.6793 19.0356 46.5021C19.5347 45.8585 19.8469 45.0179 19.8166 44.1707C20.111 44.05 20.4025 43.9226 20.6913 43.7876C20.8492 43.9774 21.1024 44.0473 21.3277 43.9383C21.6128 43.8006 21.7428 43.4324 21.6189 43.1157C21.4949 42.8004 21.1633 42.6555 20.8782 42.7932Z" fill="#9EA6FA"/>
<path d="M15.4399 47.0922C16.2108 47.5035 17.1723 47.4349 17.8899 46.9186C18.0596 46.7966 18.2324 46.6042 18.1948 46.384C18.1666 46.2211 18.0272 46.1077 17.8839 46.0633C17.7401 46.0184 17.5883 46.0265 17.4401 46.0117C17.1376 45.9812 16.844 45.8524 16.6042 45.6457C16.2932 45.377 16.084 44.9931 15.8385 44.6508C15.3967 44.0341 14.0976 43.4618 13.972 44.6907C13.8767 45.6219 14.7526 46.7257 15.4399 47.0922Z" fill="#8F98FA"/>
<path d="M18.3451 42.9995C18.3928 42.9116 18.3988 42.8035 18.3908 42.7013C18.3185 41.7925 16.8215 40.8511 16.4249 42.0181C16.1717 42.7627 18.1263 43.4028 18.3451 42.9995Z" fill="#AAB2FA"/>
<path d="M41.8729 15.2654C41.7942 15.2694 41.7247 15.3089 41.6763 15.3695C41.5244 15.3757 41.3722 15.378 41.2199 15.3771C41.2381 15.1811 41.2232 14.9806 41.1783 14.7895C41.1388 14.6226 41.0754 14.4643 40.9938 14.3181C41.2296 14.0804 41.459 13.8337 41.6799 13.5789C41.7045 13.5852 41.7296 13.5897 41.7562 13.5883C41.9109 13.5807 42.0308 13.4354 42.024 13.2636C42.0171 13.0918 41.8862 12.9586 41.7316 12.9662C41.5769 12.9738 41.457 13.1192 41.4638 13.291C41.4646 13.3138 41.4683 13.3363 41.4731 13.3578C41.2627 13.6004 41.0447 13.8355 40.8205 14.0624C40.6647 13.8691 40.4724 13.7126 40.2584 13.6099C40.2762 13.478 40.296 13.3461 40.3194 13.2152C40.4236 13.1654 40.4947 13.0492 40.4894 12.916C40.4825 12.7442 40.3517 12.611 40.197 12.6186C40.0424 12.6262 39.9224 12.7716 39.9293 12.9433C39.9329 13.0366 39.9741 13.1178 40.0347 13.1716C40.0149 13.2842 39.9975 13.3968 39.9814 13.5103C39.6083 13.421 39.2238 13.5013 38.8955 13.6964L38.3507 12.8227C38.3685 12.7792 38.3786 12.7316 38.3766 12.6805C38.3697 12.5087 38.2389 12.3755 38.0842 12.3831C37.9295 12.3907 37.8096 12.5361 37.8165 12.7079C37.8233 12.8796 37.9542 13.0129 38.1088 13.0057C38.1109 13.0057 38.1129 13.0048 38.1149 13.0048L38.6548 13.87C38.3931 14.0929 38.1888 14.3948 38.0878 14.7393L37.4025 14.6388C37.3565 14.5267 37.2531 14.4504 37.1352 14.4562C36.9805 14.4639 36.8606 14.6092 36.8675 14.781C36.8743 14.9528 37.0052 15.086 37.1598 15.0784C37.2463 15.0743 37.3206 15.0263 37.3694 14.9555L38.0273 15.0519C38.0099 15.2277 38.0188 15.4103 38.0612 15.596C38.1209 15.8592 38.2445 16.1006 38.4101 16.2997C38.1973 16.4989 37.9873 16.702 37.7813 16.9097C37.7422 16.89 37.699 16.8788 37.6533 16.881C37.4987 16.8886 37.3787 17.034 37.3852 17.2057C37.392 17.3775 37.5229 17.5107 37.6775 17.5036C37.8322 17.4959 37.9521 17.3506 37.9453 17.1788C37.9453 17.1779 37.9449 17.177 37.9449 17.1757C38.1674 16.951 38.3947 16.7303 38.6253 16.515C38.742 16.6119 38.8705 16.6908 39.0069 16.7473C39.2727 16.8577 39.5626 16.8823 39.8433 16.8353C39.9479 17.0819 40.0601 17.3242 40.1772 17.5632C40.1692 17.5946 40.1643 17.6274 40.1655 17.6619C40.1724 17.8337 40.3032 17.9669 40.4579 17.9593C40.6126 17.9516 40.7325 17.8063 40.7256 17.6345C40.7188 17.4627 40.5879 17.3295 40.4333 17.3372C40.4203 17.3376 40.4078 17.3407 40.3957 17.3434C40.3028 17.1515 40.2124 16.9581 40.128 16.7612C40.2281 16.7254 40.3259 16.6814 40.4183 16.6262C40.7539 16.4262 41.0346 16.0974 41.1569 15.6969C41.3132 15.6991 41.4695 15.6978 41.6254 15.6924C41.6682 15.8122 41.7748 15.8947 41.8971 15.8888C42.0518 15.8812 42.1718 15.7359 42.1649 15.5641C42.1584 15.391 42.0276 15.2578 41.8729 15.2654Z" fill="#9EA6FA"/>
<path d="M38.6495 16.184C38.9419 16.5284 39.4002 16.6877 39.817 16.5899C39.9155 16.567 40.027 16.5118 40.0447 16.402C40.0581 16.3208 40.0112 16.24 39.9519 16.1907C39.8921 16.1414 39.8202 16.1149 39.7536 16.0786C39.6179 16.0046 39.502 15.8861 39.4241 15.7422C39.3227 15.5556 39.2872 15.3353 39.2282 15.1272C39.122 14.7527 38.6099 14.2284 38.3539 14.7751C38.1593 15.19 38.3891 15.8772 38.6495 16.184Z" fill="#8F98FA"/>
<path d="M40.6612 14.857C40.6976 14.8256 40.7178 14.7767 40.7307 14.7273C40.8433 14.2905 40.299 13.5553 39.9263 14.0191C39.6888 14.3147 40.4944 15.001 40.6612 14.857Z" fill="#AAB2FA"/>
<defs>
<linearGradient id="paint0_linear_263_3909" x1="101.157" y1="41.8104" x2="105.178" y2="111.528" gradientUnits="userSpaceOnUse">
<stop stop-color="#FFBA00"/>
<stop offset="1" stop-color="#FF9500"/>
</linearGradient>
<linearGradient id="paint1_linear_263_3909" x1="109.878" y1="55.8185" x2="92.2854" y2="82.1694" gradientUnits="userSpaceOnUse">
<stop offset="0.0922" stop-color="#5640D4"/>
<stop offset="1" stop-color="#332292"/>
</linearGradient>
<linearGradient id="paint2_linear_263_3909" x1="-0.608652" y1="60.1832" x2="67.8186" y2="86.2429" gradientUnits="userSpaceOnUse">
<stop offset="0.1872" stop-color="#4D47BD"/>
<stop offset="0.8586" stop-color="#252259"/>
<stop offset="1"/>
</linearGradient>
<linearGradient id="paint3_linear_263_3909" x1="65.6465" y1="62.5377" x2="80.0474" y2="62.5377" gradientUnits="userSpaceOnUse">
<stop stop-color="#FFBA00"/>
<stop offset="1" stop-color="#FF9500"/>
</linearGradient>
<linearGradient id="paint4_linear_263_3909" x1="22.4105" y1="59.6609" x2="51.7157" y2="59.6609" gradientUnits="userSpaceOnUse">
<stop stop-color="#FFBA00"/>
<stop offset="1" stop-color="#FF9500"/>
</linearGradient>
<linearGradient id="paint5_linear_263_3909" x1="29.8964" y1="54.5144" x2="45.7757" y2="77.5702" gradientUnits="userSpaceOnUse">
<stop stop-color="#FFBA00"/>
<stop offset="1" stop-color="#FF9500"/>
</linearGradient>
<linearGradient id="paint6_linear_263_3909" x1="73.8008" y1="54.5145" x2="89.6799" y2="77.57" gradientUnits="userSpaceOnUse">
<stop stop-color="#FFBA00"/>
<stop offset="1" stop-color="#FF9500"/>
</linearGradient>
<linearGradient id="paint7_linear_263_3909" x1="35.704" y1="25.3979" x2="32.4781" y2="74.59" gradientUnits="userSpaceOnUse">
<stop stop-color="#FFBA00"/>
<stop offset="1" stop-color="#FF9500"/>
</linearGradient>
</defs>
</svg>
