<svg width="131" height="46" viewBox="0 0 131 46" fill="none" xmlns="http://www.w3.org/2000/svg">
<mask id="path-1-outside-1_310_23" maskUnits="userSpaceOnUse" x="0" y="8" width="127" height="29" fill="black">
<rect fill="white" y="8" width="127" height="29"/>
<path d="M1.26562 34.9297C1.39453 34.7422 1.54102 34.4668 1.70508 34.1035C1.86914 33.7285 1.99805 33.2598 2.0918 32.6973C2.2207 31.877 2.36133 30.957 2.51367 29.9375C2.67773 28.9062 2.8418 27.8281 3.00586 26.7031C3.18164 25.5781 3.35156 24.4297 3.51562 23.2578C3.69141 22.0742 3.85547 20.9141 4.00781 19.7773C4.17188 18.6289 4.32422 17.5273 4.46484 16.4727C4.61719 15.4062 4.75195 14.4336 4.86914 13.5547C4.98633 12.6758 5.08008 11.9141 5.15039 11.2695C5.23242 10.6133 5.29102 10.1211 5.32617 9.79297H7.55859L18.6152 30.4648L29.584 9.79297H31.2539L34.1367 30.6758C34.2188 31.332 34.3066 31.8945 34.4004 32.3633C34.4941 32.832 34.5879 33.2363 34.6816 33.5762C34.7754 33.9043 34.8633 34.1797 34.9453 34.4023C35.0391 34.6133 35.127 34.7891 35.209 34.9297V35H30.7793V34.9297C30.8379 34.8008 30.8906 34.5898 30.9375 34.2969C30.9961 34.0039 31.0254 33.6523 31.0254 33.2422C31.0254 33.0898 31.0195 32.9375 31.0078 32.7852C30.9961 32.6211 30.9785 32.4453 30.9551 32.2578L28.7227 15.418L18.3516 34.9297L17.1387 34.7891L6.69727 15.2422C6.28711 18.0195 5.92969 20.5859 5.625 22.9414C5.49609 23.9492 5.36719 24.957 5.23828 25.9648C5.10938 26.9609 4.99219 27.8926 4.88672 28.7598C4.79297 29.627 4.7168 30.3945 4.6582 31.0625C4.59961 31.7188 4.57031 32.2051 4.57031 32.5215C4.57031 32.9199 4.58203 33.2715 4.60547 33.5762C4.62891 33.8809 4.65234 34.1387 4.67578 34.3496C4.71094 34.5957 4.74609 34.8125 4.78125 35H1.26562V34.9297ZM52.8377 9.37109C54.7948 9.37109 56.5995 9.69336 58.2518 10.3379C59.9159 10.9707 61.3514 11.8672 62.5584 13.0273C63.7655 14.1758 64.7088 15.5586 65.3885 17.1758C66.0682 18.793 66.408 20.5801 66.408 22.5371C66.408 23.6504 66.2791 24.7461 66.0213 25.8242C65.7635 26.9023 65.3827 27.9219 64.8787 28.8828C64.3866 29.8438 63.7772 30.7344 63.0506 31.5547C62.3241 32.3633 61.492 33.0664 60.5545 33.6641C59.6287 34.25 58.6034 34.707 57.4784 35.0352C56.3534 35.375 55.1405 35.5449 53.8397 35.5449C51.8827 35.5449 50.0721 35.2344 48.408 34.6133C46.7557 33.9805 45.326 33.0898 44.119 31.9414C42.912 30.793 41.9686 29.416 41.2889 27.8105C40.6092 26.1934 40.2694 24.4004 40.2694 22.4316C40.2694 21.3184 40.3983 20.2227 40.6561 19.1445C40.9139 18.0664 41.2889 17.041 41.7811 16.0684C42.285 15.0957 42.8944 14.2051 43.6092 13.3965C44.3358 12.5762 45.162 11.8672 46.0877 11.2695C47.0252 10.6719 48.0565 10.209 49.1815 9.88086C50.3182 9.54102 51.537 9.37109 52.8377 9.37109ZM53.8397 33.9629C55.1405 33.9629 56.3299 33.7285 57.408 33.2598C58.4862 32.791 59.412 32.1113 60.1854 31.2207C60.9705 30.3301 61.5799 29.2461 62.0135 27.9688C62.4471 26.6797 62.6639 25.2207 62.6639 23.5918C62.6639 21.7871 62.453 20.1172 62.0311 18.582C61.6209 17.0352 61.0057 15.6992 60.1854 14.5742C59.3651 13.4375 58.3397 12.5527 57.1092 11.9199C55.8905 11.2754 54.4666 10.9531 52.8377 10.9531C51.537 10.9531 50.3475 11.1875 49.2694 11.6562C48.1912 12.1133 47.2596 12.7812 46.4745 13.6602C45.701 14.5391 45.0975 15.6172 44.6639 16.8945C44.2303 18.1719 44.0135 19.625 44.0135 21.2539C44.0135 23.0469 44.2186 24.7227 44.6287 26.2812C45.0389 27.8281 45.6541 29.1699 46.4745 30.3066C47.2948 31.4434 48.3202 32.3398 49.5506 32.9961C50.7811 33.6406 52.2108 33.9629 53.8397 33.9629ZM84.0368 9.37109C85.9938 9.37109 87.7985 9.69336 89.4509 10.3379C91.1149 10.9707 92.5505 11.8672 93.7575 13.0273C94.9645 14.1758 95.9079 15.5586 96.5876 17.1758C97.2673 18.793 97.6071 20.5801 97.6071 22.5371C97.6071 23.6504 97.4782 24.7461 97.2204 25.8242C96.9626 26.9023 96.5817 27.9219 96.0778 28.8828C95.5856 29.8438 94.9762 30.7344 94.2497 31.5547C93.5231 32.3633 92.6911 33.0664 91.7536 33.6641C90.8278 34.25 89.8024 34.707 88.6774 35.0352C87.5524 35.375 86.3395 35.5449 85.0387 35.5449C83.0817 35.5449 81.2712 35.2344 79.6071 34.6133C77.9548 33.9805 76.5251 33.0898 75.318 31.9414C74.111 30.793 73.1677 29.416 72.488 27.8105C71.8083 26.1934 71.4684 24.4004 71.4684 22.4316C71.4684 21.3184 71.5973 20.2227 71.8552 19.1445C72.113 18.0664 72.488 17.041 72.9802 16.0684C73.4841 15.0957 74.0934 14.2051 74.8083 13.3965C75.5348 12.5762 76.361 11.8672 77.2868 11.2695C78.2243 10.6719 79.2555 10.209 80.3805 9.88086C81.5173 9.54102 82.736 9.37109 84.0368 9.37109ZM85.0387 33.9629C86.3395 33.9629 87.529 33.7285 88.6071 33.2598C89.6852 32.791 90.611 32.1113 91.3845 31.2207C92.1696 30.3301 92.779 29.2461 93.2126 27.9688C93.6462 26.6797 93.863 25.2207 93.863 23.5918C93.863 21.7871 93.652 20.1172 93.2302 18.582C92.82 17.0352 92.2048 15.6992 91.3845 14.5742C90.5641 13.4375 89.5387 12.5527 88.3083 11.9199C87.0895 11.2754 85.6657 10.9531 84.0368 10.9531C82.736 10.9531 81.5466 11.1875 80.4684 11.6562C79.3903 12.1133 78.4587 12.7812 77.6735 13.6602C76.9001 14.5391 76.2966 15.6172 75.863 16.8945C75.4294 18.1719 75.2126 19.625 75.2126 21.2539C75.2126 23.0469 75.4177 24.7227 75.8278 26.2812C76.238 27.8281 76.8532 29.1699 77.6735 30.3066C78.4938 31.4434 79.5192 32.3398 80.7497 32.9961C81.9802 33.6406 83.4098 33.9629 85.0387 33.9629ZM104.724 9.79297L122.83 29.0586V16.6836C122.83 15.6875 122.818 14.8203 122.794 14.082C122.771 13.332 122.736 12.6875 122.689 12.1484C122.642 11.5977 122.584 11.1406 122.513 10.7773C122.455 10.4141 122.39 10.1094 122.32 9.86328V9.79297H125.449V9.86328C125.378 10.1094 125.314 10.4141 125.255 10.7773C125.197 11.1406 125.144 11.5977 125.097 12.1484C125.05 12.6875 125.015 13.332 124.992 14.082C124.968 14.8203 124.957 15.6875 124.957 16.6836V35.3516H124.341L106.236 16.1035V28.127C106.236 29.123 106.248 29.9961 106.271 30.7461C106.294 31.4844 106.33 32.123 106.376 32.6621C106.423 33.2012 106.476 33.6523 106.535 34.0156C106.593 34.3789 106.658 34.6836 106.728 34.9297V35H103.599V34.9297C103.669 34.6836 103.734 34.3789 103.793 34.0156C103.863 33.6523 103.921 33.2012 103.968 32.6621C104.015 32.123 104.05 31.4844 104.074 30.7461C104.097 29.9961 104.109 29.123 104.109 28.127V16.6836C104.109 15.6875 104.097 14.8203 104.074 14.082C104.05 13.332 104.015 12.6875 103.968 12.1484C103.921 11.5977 103.863 11.1406 103.793 10.7773C103.734 10.4141 103.669 10.1094 103.599 9.86328V9.79297H104.724Z"/>
</mask>
<path d="M1.26562 34.9297C1.39453 34.7422 1.54102 34.4668 1.70508 34.1035C1.86914 33.7285 1.99805 33.2598 2.0918 32.6973C2.2207 31.877 2.36133 30.957 2.51367 29.9375C2.67773 28.9062 2.8418 27.8281 3.00586 26.7031C3.18164 25.5781 3.35156 24.4297 3.51562 23.2578C3.69141 22.0742 3.85547 20.9141 4.00781 19.7773C4.17188 18.6289 4.32422 17.5273 4.46484 16.4727C4.61719 15.4062 4.75195 14.4336 4.86914 13.5547C4.98633 12.6758 5.08008 11.9141 5.15039 11.2695C5.23242 10.6133 5.29102 10.1211 5.32617 9.79297H7.55859L18.6152 30.4648L29.584 9.79297H31.2539L34.1367 30.6758C34.2188 31.332 34.3066 31.8945 34.4004 32.3633C34.4941 32.832 34.5879 33.2363 34.6816 33.5762C34.7754 33.9043 34.8633 34.1797 34.9453 34.4023C35.0391 34.6133 35.127 34.7891 35.209 34.9297V35H30.7793V34.9297C30.8379 34.8008 30.8906 34.5898 30.9375 34.2969C30.9961 34.0039 31.0254 33.6523 31.0254 33.2422C31.0254 33.0898 31.0195 32.9375 31.0078 32.7852C30.9961 32.6211 30.9785 32.4453 30.9551 32.2578L28.7227 15.418L18.3516 34.9297L17.1387 34.7891L6.69727 15.2422C6.28711 18.0195 5.92969 20.5859 5.625 22.9414C5.49609 23.9492 5.36719 24.957 5.23828 25.9648C5.10938 26.9609 4.99219 27.8926 4.88672 28.7598C4.79297 29.627 4.7168 30.3945 4.6582 31.0625C4.59961 31.7188 4.57031 32.2051 4.57031 32.5215C4.57031 32.9199 4.58203 33.2715 4.60547 33.5762C4.62891 33.8809 4.65234 34.1387 4.67578 34.3496C4.71094 34.5957 4.74609 34.8125 4.78125 35H1.26562V34.9297ZM52.8377 9.37109C54.7948 9.37109 56.5995 9.69336 58.2518 10.3379C59.9159 10.9707 61.3514 11.8672 62.5584 13.0273C63.7655 14.1758 64.7088 15.5586 65.3885 17.1758C66.0682 18.793 66.408 20.5801 66.408 22.5371C66.408 23.6504 66.2791 24.7461 66.0213 25.8242C65.7635 26.9023 65.3827 27.9219 64.8787 28.8828C64.3866 29.8438 63.7772 30.7344 63.0506 31.5547C62.3241 32.3633 61.492 33.0664 60.5545 33.6641C59.6287 34.25 58.6034 34.707 57.4784 35.0352C56.3534 35.375 55.1405 35.5449 53.8397 35.5449C51.8827 35.5449 50.0721 35.2344 48.408 34.6133C46.7557 33.9805 45.326 33.0898 44.119 31.9414C42.912 30.793 41.9686 29.416 41.2889 27.8105C40.6092 26.1934 40.2694 24.4004 40.2694 22.4316C40.2694 21.3184 40.3983 20.2227 40.6561 19.1445C40.9139 18.0664 41.2889 17.041 41.7811 16.0684C42.285 15.0957 42.8944 14.2051 43.6092 13.3965C44.3358 12.5762 45.162 11.8672 46.0877 11.2695C47.0252 10.6719 48.0565 10.209 49.1815 9.88086C50.3182 9.54102 51.537 9.37109 52.8377 9.37109ZM53.8397 33.9629C55.1405 33.9629 56.3299 33.7285 57.408 33.2598C58.4862 32.791 59.412 32.1113 60.1854 31.2207C60.9705 30.3301 61.5799 29.2461 62.0135 27.9688C62.4471 26.6797 62.6639 25.2207 62.6639 23.5918C62.6639 21.7871 62.453 20.1172 62.0311 18.582C61.6209 17.0352 61.0057 15.6992 60.1854 14.5742C59.3651 13.4375 58.3397 12.5527 57.1092 11.9199C55.8905 11.2754 54.4666 10.9531 52.8377 10.9531C51.537 10.9531 50.3475 11.1875 49.2694 11.6562C48.1912 12.1133 47.2596 12.7812 46.4745 13.6602C45.701 14.5391 45.0975 15.6172 44.6639 16.8945C44.2303 18.1719 44.0135 19.625 44.0135 21.2539C44.0135 23.0469 44.2186 24.7227 44.6287 26.2812C45.0389 27.8281 45.6541 29.1699 46.4745 30.3066C47.2948 31.4434 48.3202 32.3398 49.5506 32.9961C50.7811 33.6406 52.2108 33.9629 53.8397 33.9629ZM84.0368 9.37109C85.9938 9.37109 87.7985 9.69336 89.4509 10.3379C91.1149 10.9707 92.5505 11.8672 93.7575 13.0273C94.9645 14.1758 95.9079 15.5586 96.5876 17.1758C97.2673 18.793 97.6071 20.5801 97.6071 22.5371C97.6071 23.6504 97.4782 24.7461 97.2204 25.8242C96.9626 26.9023 96.5817 27.9219 96.0778 28.8828C95.5856 29.8438 94.9762 30.7344 94.2497 31.5547C93.5231 32.3633 92.6911 33.0664 91.7536 33.6641C90.8278 34.25 89.8024 34.707 88.6774 35.0352C87.5524 35.375 86.3395 35.5449 85.0387 35.5449C83.0817 35.5449 81.2712 35.2344 79.6071 34.6133C77.9548 33.9805 76.5251 33.0898 75.318 31.9414C74.111 30.793 73.1677 29.416 72.488 27.8105C71.8083 26.1934 71.4684 24.4004 71.4684 22.4316C71.4684 21.3184 71.5973 20.2227 71.8552 19.1445C72.113 18.0664 72.488 17.041 72.9802 16.0684C73.4841 15.0957 74.0934 14.2051 74.8083 13.3965C75.5348 12.5762 76.361 11.8672 77.2868 11.2695C78.2243 10.6719 79.2555 10.209 80.3805 9.88086C81.5173 9.54102 82.736 9.37109 84.0368 9.37109ZM85.0387 33.9629C86.3395 33.9629 87.529 33.7285 88.6071 33.2598C89.6852 32.791 90.611 32.1113 91.3845 31.2207C92.1696 30.3301 92.779 29.2461 93.2126 27.9688C93.6462 26.6797 93.863 25.2207 93.863 23.5918C93.863 21.7871 93.652 20.1172 93.2302 18.582C92.82 17.0352 92.2048 15.6992 91.3845 14.5742C90.5641 13.4375 89.5387 12.5527 88.3083 11.9199C87.0895 11.2754 85.6657 10.9531 84.0368 10.9531C82.736 10.9531 81.5466 11.1875 80.4684 11.6562C79.3903 12.1133 78.4587 12.7812 77.6735 13.6602C76.9001 14.5391 76.2966 15.6172 75.863 16.8945C75.4294 18.1719 75.2126 19.625 75.2126 21.2539C75.2126 23.0469 75.4177 24.7227 75.8278 26.2812C76.238 27.8281 76.8532 29.1699 77.6735 30.3066C78.4938 31.4434 79.5192 32.3398 80.7497 32.9961C81.9802 33.6406 83.4098 33.9629 85.0387 33.9629ZM104.724 9.79297L122.83 29.0586V16.6836C122.83 15.6875 122.818 14.8203 122.794 14.082C122.771 13.332 122.736 12.6875 122.689 12.1484C122.642 11.5977 122.584 11.1406 122.513 10.7773C122.455 10.4141 122.39 10.1094 122.32 9.86328V9.79297H125.449V9.86328C125.378 10.1094 125.314 10.4141 125.255 10.7773C125.197 11.1406 125.144 11.5977 125.097 12.1484C125.05 12.6875 125.015 13.332 124.992 14.082C124.968 14.8203 124.957 15.6875 124.957 16.6836V35.3516H124.341L106.236 16.1035V28.127C106.236 29.123 106.248 29.9961 106.271 30.7461C106.294 31.4844 106.33 32.123 106.376 32.6621C106.423 33.2012 106.476 33.6523 106.535 34.0156C106.593 34.3789 106.658 34.6836 106.728 34.9297V35H103.599V34.9297C103.669 34.6836 103.734 34.3789 103.793 34.0156C103.863 33.6523 103.921 33.2012 103.968 32.6621C104.015 32.123 104.05 31.4844 104.074 30.7461C104.097 29.9961 104.109 29.123 104.109 28.127V16.6836C104.109 15.6875 104.097 14.8203 104.074 14.082C104.05 13.332 104.015 12.6875 103.968 12.1484C103.921 11.5977 103.863 11.1406 103.793 10.7773C103.734 10.4141 103.669 10.1094 103.599 9.86328V9.79297H104.724Z" fill="white"/>
<path d="M1.26562 34.9297L0.441583 34.3632L0.265625 34.6191V34.9297H1.26562ZM1.70508 34.1035L2.61651 34.5151L2.62124 34.5043L1.70508 34.1035ZM2.0918 32.6973L3.07823 32.8617L3.07967 32.8525L2.0918 32.6973ZM2.51367 29.9375L1.52605 29.7804L1.52465 29.7897L2.51367 29.9375ZM3.00586 26.7031L2.0178 26.5487L2.01633 26.5588L3.00586 26.7031ZM3.51562 23.2578L2.52644 23.1109L2.52528 23.1192L3.51562 23.2578ZM4.00781 19.7773L3.01783 19.6359L3.01667 19.6445L4.00781 19.7773ZM4.46484 16.4727L3.47485 16.3312L3.47362 16.3405L4.46484 16.4727ZM5.15039 11.2695L4.15811 11.1455L4.15714 11.1533L4.15629 11.1611L5.15039 11.2695ZM5.32617 9.79297V8.79297H4.42759L4.33186 9.68644L5.32617 9.79297ZM7.55859 9.79297L8.44039 9.32133L8.15778 8.79297H7.55859V9.79297ZM18.6152 30.4648L17.7334 30.9365L18.6188 32.5917L19.4986 30.9336L18.6152 30.4648ZM29.584 9.79297V8.79297H28.9825L28.7006 9.32425L29.584 9.79297ZM31.2539 9.79297L32.2445 9.65622L32.1253 8.79297H31.2539V9.79297ZM34.1367 30.6758L35.1291 30.5517L35.1273 30.539L34.1367 30.6758ZM34.6816 33.5762L33.7176 33.8421L33.7201 33.8509L34.6816 33.5762ZM34.9453 34.4023L34.007 34.748L34.0182 34.7787L34.0315 34.8085L34.9453 34.4023ZM35.209 34.9297H36.209V34.6593L36.0728 34.4258L35.209 34.9297ZM35.209 35V36H36.209V35H35.209ZM30.7793 35H29.7793V36H30.7793V35ZM30.7793 34.9297L29.8689 34.5159L29.7793 34.7131V34.9297H30.7793ZM30.9375 34.2969L29.9569 34.1008L29.9531 34.1198L29.9501 34.1389L30.9375 34.2969ZM31.0078 32.7852L30.0103 32.8564L30.0108 32.8619L31.0078 32.7852ZM30.9551 32.2578L31.9474 32.1338L31.9464 32.1264L30.9551 32.2578ZM28.7227 15.418L29.714 15.2866L29.304 12.1937L27.8396 14.9486L28.7227 15.418ZM18.3516 34.9297L18.2364 35.923L18.9143 36.0016L19.2346 35.399L18.3516 34.9297ZM17.1387 34.7891L16.2566 35.2602L16.5033 35.7221L17.0235 35.7824L17.1387 34.7891ZM6.69727 15.2422L7.57931 14.771L6.1509 12.097L5.708 15.0961L6.69727 15.2422ZM5.625 22.9414L4.63326 22.8131L4.63308 22.8145L5.625 22.9414ZM5.23828 25.9648L6.23001 26.0932L6.2302 26.0917L5.23828 25.9648ZM4.88672 28.7598L3.89395 28.639L3.89251 28.6523L4.88672 28.7598ZM4.6582 31.0625L5.65424 31.1514L5.65438 31.1499L4.6582 31.0625ZM4.67578 34.3496L3.6819 34.46L3.68362 34.4756L3.68583 34.491L4.67578 34.3496ZM4.78125 35V36H5.98618L5.76412 34.8157L4.78125 35ZM1.26562 35H0.265625V36H1.26562V35ZM1.26562 34.9297L2.08967 35.4962C2.26819 35.2365 2.44321 34.8987 2.61645 34.5151L1.70508 34.1035L0.793708 33.6919C0.638824 34.0349 0.520868 34.2478 0.441583 34.3632L1.26562 34.9297ZM1.70508 34.1035L2.62124 34.5043C2.82847 34.0307 2.97575 33.4763 3.07819 32.8617L2.0918 32.6973L1.1054 32.5329C1.02034 33.0432 0.909816 33.4264 0.788921 33.7027L1.70508 34.1035ZM2.0918 32.6973L3.07967 32.8525C3.20905 32.0292 3.35006 31.1067 3.50269 30.0853L2.51367 29.9375L1.52465 29.7897C1.3726 30.8073 1.23236 31.7247 1.10392 32.542L2.0918 32.6973ZM2.51367 29.9375L3.50125 30.0946C3.66605 29.0587 3.83076 27.9763 3.99539 26.8474L3.00586 26.7031L2.01633 26.5588C1.85283 27.6799 1.68942 28.7538 1.52609 29.7804L2.51367 29.9375ZM3.00586 26.7031L3.99387 26.8575C4.1705 25.7271 4.3412 24.5734 4.50597 23.3965L3.51562 23.2578L2.52528 23.1192C2.36193 24.286 2.19278 25.4292 2.01785 26.5487L3.00586 26.7031ZM3.51562 23.2578L4.50478 23.4047C4.68122 22.2166 4.84595 21.0518 4.99895 19.9102L4.00781 19.7773L3.01667 19.6445C2.86499 20.7763 2.70159 21.9318 2.52647 23.1109L3.51562 23.2578ZM4.00781 19.7773L4.99776 19.9188C5.16223 18.7675 5.315 17.6629 5.45607 16.6048L4.46484 16.4727L3.47362 16.3405C3.33344 17.3918 3.18152 18.4903 3.01786 19.6359L4.00781 19.7773ZM4.46484 16.4727L5.45479 16.6141C5.60749 15.5452 5.74269 14.5694 5.86037 13.6869L4.86914 13.5547L3.87791 13.4225C3.76121 14.2978 3.62689 15.2673 3.47489 16.3312L4.46484 16.4727ZM4.86914 13.5547L5.86037 13.6869C5.97826 12.8027 6.07307 12.0327 6.14449 11.378L5.15039 11.2695L4.15629 11.1611C4.08709 11.7954 3.9944 12.5489 3.87791 13.4225L4.86914 13.5547ZM5.15039 11.2695L6.14267 11.3936C6.22486 10.736 6.28435 10.2367 6.32048 9.8995L5.32617 9.79297L4.33186 9.68644C4.29768 10.0055 4.23998 10.4905 4.15811 11.1455L5.15039 11.2695ZM5.32617 9.79297V10.793H7.55859V9.79297V8.79297H5.32617V9.79297ZM7.55859 9.79297L6.6768 10.2646L17.7334 30.9365L18.6152 30.4648L19.497 29.9932L8.44039 9.32133L7.55859 9.79297ZM18.6152 30.4648L19.4986 30.9336L30.4673 10.2617L29.584 9.79297L28.7006 9.32425L17.7319 29.9961L18.6152 30.4648ZM29.584 9.79297V10.793H31.2539V9.79297V8.79297H29.584V9.79297ZM31.2539 9.79297L30.2633 9.92972L33.1461 30.8125L34.1367 30.6758L35.1273 30.539L32.2445 9.65622L31.2539 9.79297ZM34.1367 30.6758L33.1444 30.7998C33.2284 31.4718 33.3199 32.0597 33.4198 32.5594L34.4004 32.3633L35.381 32.1672C35.2934 31.7294 35.2091 31.1922 35.129 30.5517L34.1367 30.6758ZM34.4004 32.3633L33.4198 32.5594C33.5167 33.044 33.6158 33.4727 33.7176 33.8421L34.6816 33.5762L35.6456 33.3102C35.56 32.9999 35.4716 32.6201 35.381 32.1672L34.4004 32.3633ZM34.6816 33.5762L33.7201 33.8509C33.818 34.1936 33.9135 34.4944 34.007 34.748L34.9453 34.4023L35.8837 34.0566C35.8131 33.865 35.7328 33.615 35.6432 33.3015L34.6816 33.5762ZM34.9453 34.4023L34.0315 34.8085C34.1345 35.0403 34.2389 35.2513 34.3452 35.4336L35.209 34.9297L36.0728 34.4258C36.015 34.3268 35.9436 34.1863 35.8591 33.9962L34.9453 34.4023ZM35.209 34.9297H34.209V35H35.209H36.209V34.9297H35.209ZM35.209 35V34H30.7793V35V36H35.209V35ZM30.7793 35H31.7793V34.9297H30.7793H29.7793V35H30.7793ZM30.7793 34.9297L31.6897 35.3435C31.8071 35.0851 31.8759 34.7617 31.9249 34.4549L30.9375 34.2969L29.9501 34.1389C29.9297 34.2664 29.91 34.3627 29.8927 34.4323C29.8741 34.5066 29.8636 34.5276 29.8689 34.5159L30.7793 34.9297ZM30.9375 34.2969L31.9181 34.493C31.9934 34.1166 32.0254 33.6957 32.0254 33.2422H31.0254H30.0254C30.0254 33.609 29.9988 33.8912 29.9569 34.1008L30.9375 34.2969ZM31.0254 33.2422H32.0254C32.0254 33.0642 32.0185 32.8862 32.0049 32.7085L31.0078 32.7852L30.0108 32.8619C30.0205 32.9888 30.0254 33.1155 30.0254 33.2422H31.0254ZM31.0078 32.7852L32.0053 32.7139C31.9921 32.5298 31.9727 32.3363 31.9474 32.1338L30.9551 32.2578L29.9628 32.3818C29.9844 32.5543 30.0001 32.7123 30.0104 32.8564L31.0078 32.7852ZM30.9551 32.2578L31.9464 32.1264L29.714 15.2866L28.7227 15.418L27.7313 15.5494L29.9638 32.3892L30.9551 32.2578ZM28.7227 15.418L27.8396 14.9486L17.4685 34.4603L18.3516 34.9297L19.2346 35.399L29.6057 15.8873L28.7227 15.418ZM18.3516 34.9297L18.4667 33.9363L17.2538 33.7957L17.1387 34.7891L17.0235 35.7824L18.2364 35.923L18.3516 34.9297ZM17.1387 34.7891L18.0207 34.3179L7.57931 14.771L6.69727 15.2422L5.81522 15.7134L16.2566 35.2602L17.1387 34.7891ZM6.69727 15.2422L5.708 15.0961C5.29712 17.8783 4.93884 20.4508 4.63326 22.8131L5.625 22.9414L6.61674 23.0697C6.92053 20.7211 7.2771 18.1607 7.68654 15.3883L6.69727 15.2422ZM5.625 22.9414L4.63308 22.8145C4.63283 22.8165 4.63258 22.8185 4.63233 22.8204C4.63207 22.8224 4.63182 22.8244 4.63157 22.8263C4.63132 22.8283 4.63107 22.8303 4.63082 22.8322C4.63056 22.8342 4.63031 22.8362 4.63006 22.8382C4.62981 22.8401 4.62956 22.8421 4.6293 22.8441C4.62905 22.846 4.6288 22.848 4.62855 22.85C4.6283 22.8519 4.62805 22.8539 4.62779 22.8559C4.62754 22.8578 4.62729 22.8598 4.62704 22.8618C4.62679 22.8637 4.62654 22.8657 4.62628 22.8677C4.62603 22.8696 4.62578 22.8716 4.62553 22.8736C4.62528 22.8756 4.62502 22.8775 4.62477 22.8795C4.62452 22.8815 4.62427 22.8834 4.62402 22.8854C4.62377 22.8874 4.62351 22.8893 4.62326 22.8913C4.62301 22.8933 4.62276 22.8952 4.62251 22.8972C4.62225 22.8992 4.622 22.9011 4.62175 22.9031C4.6215 22.9051 4.62125 22.907 4.621 22.909C4.62074 22.911 4.62049 22.913 4.62024 22.9149C4.61999 22.9169 4.61974 22.9189 4.61949 22.9208C4.61923 22.9228 4.61898 22.9248 4.61873 22.9267C4.61848 22.9287 4.61823 22.9307 4.61797 22.9326C4.61772 22.9346 4.61747 22.9366 4.61722 22.9385C4.61697 22.9405 4.61672 22.9425 4.61646 22.9444C4.61621 22.9464 4.61596 22.9484 4.61571 22.9504C4.61546 22.9523 4.61521 22.9543 4.61495 22.9563C4.6147 22.9582 4.61445 22.9602 4.6142 22.9622C4.61395 22.9641 4.61369 22.9661 4.61344 22.9681C4.61319 22.97 4.61294 22.972 4.61269 22.974C4.61244 22.9759 4.61218 22.9779 4.61193 22.9799C4.61168 22.9818 4.61143 22.9838 4.61118 22.9858C4.61093 22.9878 4.61067 22.9897 4.61042 22.9917C4.61017 22.9937 4.60992 22.9956 4.60967 22.9976C4.60941 22.9996 4.60916 23.0015 4.60891 23.0035C4.60866 23.0055 4.60841 23.0074 4.60816 23.0094C4.6079 23.0114 4.60765 23.0133 4.6074 23.0153C4.60715 23.0173 4.6069 23.0192 4.60665 23.0212C4.60639 23.0232 4.60614 23.0251 4.60589 23.0271C4.60564 23.0291 4.60539 23.0311 4.60513 23.033C4.60488 23.035 4.60463 23.037 4.60438 23.0389C4.60413 23.0409 4.60388 23.0429 4.60362 23.0448C4.60337 23.0468 4.60312 23.0488 4.60287 23.0507C4.60262 23.0527 4.60237 23.0547 4.60211 23.0566C4.60186 23.0586 4.60161 23.0606 4.60136 23.0625C4.60111 23.0645 4.60085 23.0665 4.6006 23.0685C4.60035 23.0704 4.6001 23.0724 4.59985 23.0744C4.5996 23.0763 4.59934 23.0783 4.59909 23.0803C4.59884 23.0822 4.59859 23.0842 4.59834 23.0862C4.59809 23.0881 4.59783 23.0901 4.59758 23.0921C4.59733 23.094 4.59708 23.096 4.59683 23.098C4.59657 23.0999 4.59632 23.1019 4.59607 23.1039C4.59582 23.1059 4.59557 23.1078 4.59532 23.1098C4.59506 23.1118 4.59481 23.1137 4.59456 23.1157C4.59431 23.1177 4.59406 23.1196 4.5938 23.1216C4.59355 23.1236 4.5933 23.1255 4.59305 23.1275C4.5928 23.1295 4.59255 23.1314 4.59229 23.1334C4.59204 23.1354 4.59179 23.1373 4.59154 23.1393C4.59129 23.1413 4.59104 23.1433 4.59078 23.1452C4.59053 23.1472 4.59028 23.1492 4.59003 23.1511C4.58978 23.1531 4.58952 23.1551 4.58927 23.157C4.58902 23.159 4.58877 23.161 4.58852 23.1629C4.58827 23.1649 4.58801 23.1669 4.58776 23.1688C4.58751 23.1708 4.58726 23.1728 4.58701 23.1747C4.58676 23.1767 4.5865 23.1787 4.58625 23.1807C4.586 23.1826 4.58575 23.1846 4.5855 23.1866C4.58524 23.1885 4.58499 23.1905 4.58474 23.1925C4.58449 23.1944 4.58424 23.1964 4.58399 23.1984C4.58373 23.2003 4.58348 23.2023 4.58323 23.2043C4.58298 23.2062 4.58273 23.2082 4.58248 23.2102C4.58222 23.2121 4.58197 23.2141 4.58172 23.2161C4.58147 23.2181 4.58122 23.22 4.58096 23.222C4.58071 23.224 4.58046 23.2259 4.58021 23.2279C4.57996 23.2299 4.57971 23.2318 4.57945 23.2338C4.5792 23.2358 4.57895 23.2377 4.5787 23.2397C4.57845 23.2417 4.5782 23.2436 4.57794 23.2456C4.57769 23.2476 4.57744 23.2495 4.57719 23.2515C4.57694 23.2535 4.57668 23.2555 4.57643 23.2574C4.57618 23.2594 4.57593 23.2614 4.57568 23.2633C4.57543 23.2653 4.57517 23.2673 4.57492 23.2692C4.57467 23.2712 4.57442 23.2732 4.57417 23.2751C4.57392 23.2771 4.57366 23.2791 4.57341 23.281C4.57316 23.283 4.57291 23.285 4.57266 23.2869C4.5724 23.2889 4.57215 23.2909 4.5719 23.2929C4.57165 23.2948 4.5714 23.2968 4.57115 23.2988C4.57089 23.3007 4.57064 23.3027 4.57039 23.3047C4.57014 23.3066 4.56989 23.3086 4.56964 23.3106C4.56938 23.3125 4.56913 23.3145 4.56888 23.3165C4.56863 23.3184 4.56838 23.3204 4.56812 23.3224C4.56787 23.3243 4.56762 23.3263 4.56737 23.3283C4.56712 23.3302 4.56687 23.3322 4.56661 23.3342C4.56636 23.3362 4.56611 23.3381 4.56586 23.3401C4.56561 23.3421 4.56535 23.344 4.5651 23.346C4.56485 23.348 4.5646 23.3499 4.56435 23.3519C4.5641 23.3539 4.56384 23.3558 4.56359 23.3578C4.56334 23.3598 4.56309 23.3617 4.56284 23.3637C4.56259 23.3657 4.56233 23.3676 4.56208 23.3696C4.56183 23.3716 4.56158 23.3736 4.56133 23.3755C4.56107 23.3775 4.56082 23.3795 4.56057 23.3814C4.56032 23.3834 4.56007 23.3854 4.55982 23.3873C4.55956 23.3893 4.55931 23.3913 4.55906 23.3932C4.55881 23.3952 4.55856 23.3972 4.55831 23.3991C4.55805 23.4011 4.5578 23.4031 4.55755 23.405C4.5573 23.407 4.55705 23.409 4.55679 23.411C4.55654 23.4129 4.55629 23.4149 4.55604 23.4169C4.55579 23.4188 4.55554 23.4208 4.55528 23.4228C4.55503 23.4247 4.55478 23.4267 4.55453 23.4287C4.55428 23.4306 4.55403 23.4326 4.55377 23.4346C4.55352 23.4365 4.55327 23.4385 4.55302 23.4405C4.55277 23.4424 4.55251 23.4444 4.55226 23.4464C4.55201 23.4484 4.55176 23.4503 4.55151 23.4523C4.55126 23.4543 4.551 23.4562 4.55075 23.4582C4.5505 23.4602 4.55025 23.4621 4.55 23.4641C4.54975 23.4661 4.54949 23.468 4.54924 23.47C4.54899 23.472 4.54874 23.4739 4.54849 23.4759C4.54823 23.4779 4.54798 23.4798 4.54773 23.4818C4.54748 23.4838 4.54723 23.4858 4.54698 23.4877C4.54672 23.4897 4.54647 23.4917 4.54622 23.4936C4.54597 23.4956 4.54572 23.4976 4.54547 23.4995C4.54521 23.5015 4.54496 23.5035 4.54471 23.5054C4.54446 23.5074 4.54421 23.5094 4.54395 23.5113C4.5437 23.5133 4.54345 23.5153 4.5432 23.5172C4.54295 23.5192 4.5427 23.5212 4.54244 23.5232C4.54219 23.5251 4.54194 23.5271 4.54169 23.5291C4.54144 23.531 4.54119 23.533 4.54093 23.535C4.54068 23.5369 4.54043 23.5389 4.54018 23.5409C4.53993 23.5428 4.53967 23.5448 4.53942 23.5468C4.53917 23.5487 4.53892 23.5507 4.53867 23.5527C4.53842 23.5546 4.53816 23.5566 4.53791 23.5586C4.53766 23.5606 4.53741 23.5625 4.53716 23.5645C4.5369 23.5665 4.53665 23.5684 4.5364 23.5704C4.53615 23.5724 4.5359 23.5743 4.53565 23.5763C4.53539 23.5783 4.53514 23.5802 4.53489 23.5822C4.53464 23.5842 4.53439 23.5861 4.53414 23.5881C4.53388 23.5901 4.53363 23.592 4.53338 23.594C4.53313 23.596 4.53288 23.5979 4.53262 23.5999C4.53237 23.6019 4.53212 23.6039 4.53187 23.6058C4.53162 23.6078 4.53137 23.6098 4.53111 23.6117C4.53086 23.6137 4.53061 23.6157 4.53036 23.6176C4.53011 23.6196 4.52986 23.6216 4.5296 23.6235C4.52935 23.6255 4.5291 23.6275 4.52885 23.6294C4.5286 23.6314 4.52834 23.6334 4.52809 23.6353C4.52784 23.6373 4.52759 23.6393 4.52734 23.6413C4.52709 23.6432 4.52683 23.6452 4.52658 23.6472C4.52633 23.6491 4.52608 23.6511 4.52583 23.6531C4.52558 23.655 4.52532 23.657 4.52507 23.659C4.52482 23.6609 4.52457 23.6629 4.52432 23.6649C4.52406 23.6668 4.52381 23.6688 4.52356 23.6708C4.52331 23.6727 4.52306 23.6747 4.52281 23.6767C4.52255 23.6787 4.5223 23.6806 4.52205 23.6826C4.5218 23.6846 4.52155 23.6865 4.5213 23.6885C4.52104 23.6905 4.52079 23.6924 4.52054 23.6944C4.52029 23.6964 4.52004 23.6983 4.51978 23.7003C4.51953 23.7023 4.51928 23.7042 4.51903 23.7062C4.51878 23.7082 4.51853 23.7101 4.51827 23.7121C4.51802 23.7141 4.51777 23.7161 4.51752 23.718C4.51727 23.72 4.51702 23.722 4.51676 23.7239C4.51651 23.7259 4.51626 23.7279 4.51601 23.7298C4.51576 23.7318 4.5155 23.7338 4.51525 23.7357C4.515 23.7377 4.51475 23.7397 4.5145 23.7416C4.51425 23.7436 4.51399 23.7456 4.51374 23.7475C4.51349 23.7495 4.51324 23.7515 4.51299 23.7535C4.51274 23.7554 4.51248 23.7574 4.51223 23.7594C4.51198 23.7613 4.51173 23.7633 4.51148 23.7653C4.51122 23.7672 4.51097 23.7692 4.51072 23.7712C4.51047 23.7731 4.51022 23.7751 4.50997 23.7771C4.50971 23.779 4.50946 23.781 4.50921 23.783C4.50896 23.7849 4.50871 23.7869 4.50845 23.7889C4.5082 23.7909 4.50795 23.7928 4.5077 23.7948C4.50745 23.7968 4.5072 23.7987 4.50694 23.8007C4.50669 23.8027 4.50644 23.8046 4.50619 23.8066C4.50594 23.8086 4.50569 23.8105 4.50543 23.8125C4.50518 23.8145 4.50493 23.8164 4.50468 23.8184C4.50443 23.8204 4.50417 23.8223 4.50392 23.8243C4.50367 23.8263 4.50342 23.8283 4.50317 23.8302C4.50292 23.8322 4.50266 23.8342 4.50241 23.8361C4.50216 23.8381 4.50191 23.8401 4.50166 23.842C4.50141 23.844 4.50115 23.846 4.5009 23.8479C4.50065 23.8499 4.5004 23.8519 4.50015 23.8538C4.49989 23.8558 4.49964 23.8578 4.49939 23.8597C4.49914 23.8617 4.49889 23.8637 4.49864 23.8656C4.49838 23.8676 4.49813 23.8696 4.49788 23.8716C4.49763 23.8735 4.49738 23.8755 4.49713 23.8775C4.49687 23.8794 4.49662 23.8814 4.49637 23.8834C4.49612 23.8853 4.49587 23.8873 4.49561 23.8893C4.49536 23.8912 4.49511 23.8932 4.49486 23.8952C4.49461 23.8971 4.49436 23.8991 4.4941 23.9011C4.49385 23.903 4.4936 23.905 4.49335 23.907C4.4931 23.909 4.49285 23.9109 4.49259 23.9129C4.49234 23.9149 4.49209 23.9168 4.49184 23.9188C4.49159 23.9208 4.49133 23.9227 4.49108 23.9247C4.49083 23.9267 4.49058 23.9286 4.49033 23.9306C4.49008 23.9326 4.48982 23.9345 4.48957 23.9365C4.48932 23.9385 4.48907 23.9404 4.48882 23.9424C4.48857 23.9444 4.48831 23.9464 4.48806 23.9483C4.48781 23.9503 4.48756 23.9523 4.48731 23.9542C4.48705 23.9562 4.4868 23.9582 4.48655 23.9601C4.4863 23.9621 4.48605 23.9641 4.4858 23.966C4.48554 23.968 4.48529 23.97 4.48504 23.9719C4.48479 23.9739 4.48454 23.9759 4.48428 23.9778C4.48403 23.9798 4.48378 23.9818 4.48353 23.9838C4.48328 23.9857 4.48303 23.9877 4.48277 23.9897C4.48252 23.9916 4.48227 23.9936 4.48202 23.9956C4.48177 23.9975 4.48152 23.9995 4.48126 24.0015C4.48101 24.0034 4.48076 24.0054 4.48051 24.0074C4.48026 24.0093 4.48 24.0113 4.47975 24.0133C4.4795 24.0152 4.47925 24.0172 4.479 24.0192C4.47875 24.0212 4.47849 24.0231 4.47824 24.0251C4.47799 24.0271 4.47774 24.029 4.47749 24.031C4.47724 24.033 4.47698 24.0349 4.47673 24.0369C4.47648 24.0389 4.47623 24.0408 4.47598 24.0428C4.47572 24.0448 4.47547 24.0467 4.47522 24.0487C4.47497 24.0507 4.47472 24.0526 4.47447 24.0546C4.47421 24.0566 4.47396 24.0586 4.47371 24.0605C4.47346 24.0625 4.47321 24.0645 4.47296 24.0664C4.4727 24.0684 4.47245 24.0704 4.4722 24.0723C4.47195 24.0743 4.4717 24.0763 4.47144 24.0782C4.47119 24.0802 4.47094 24.0822 4.47069 24.0841C4.47044 24.0861 4.47019 24.0881 4.46993 24.09C4.46968 24.092 4.46943 24.094 4.46918 24.096C4.46893 24.0979 4.46868 24.0999 4.46842 24.1019C4.46817 24.1038 4.46792 24.1058 4.46767 24.1078C4.46742 24.1097 4.46716 24.1117 4.46691 24.1137C4.46666 24.1156 4.46641 24.1176 4.46616 24.1196C4.46591 24.1215 4.46565 24.1235 4.4654 24.1255C4.46515 24.1274 4.4649 24.1294 4.46465 24.1314C4.4644 24.1334 4.46414 24.1353 4.46389 24.1373C4.46364 24.1393 4.46339 24.1412 4.46314 24.1432C4.46288 24.1452 4.46263 24.1471 4.46238 24.1491C4.46213 24.1511 4.46188 24.153 4.46163 24.155C4.46137 24.157 4.46112 24.1589 4.46087 24.1609C4.46062 24.1629 4.46037 24.1648 4.46012 24.1668C4.45986 24.1688 4.45961 24.1707 4.45936 24.1727C4.45911 24.1747 4.45886 24.1767 4.4586 24.1786C4.45835 24.1806 4.4581 24.1826 4.45785 24.1845C4.4576 24.1865 4.45735 24.1885 4.45709 24.1904C4.45684 24.1924 4.45659 24.1944 4.45634 24.1963C4.45609 24.1983 4.45583 24.2003 4.45558 24.2022C4.45533 24.2042 4.45508 24.2062 4.45483 24.2081C4.45458 24.2101 4.45432 24.2121 4.45407 24.2141C4.45382 24.216 4.45357 24.218 4.45332 24.22C4.45307 24.2219 4.45281 24.2239 4.45256 24.2259C4.45231 24.2278 4.45206 24.2298 4.45181 24.2318C4.45155 24.2337 4.4513 24.2357 4.45105 24.2377C4.4508 24.2396 4.45055 24.2416 4.4503 24.2436C4.45004 24.2455 4.44979 24.2475 4.44954 24.2495C4.44929 24.2515 4.44904 24.2534 4.44879 24.2554C4.44853 24.2574 4.44828 24.2593 4.44803 24.2613C4.44778 24.2633 4.44753 24.2652 4.44727 24.2672C4.44702 24.2692 4.44677 24.2711 4.44652 24.2731C4.44627 24.2751 4.44602 24.277 4.44576 24.279C4.44551 24.281 4.44526 24.2829 4.44501 24.2849C4.44476 24.2869 4.44451 24.2889 4.44425 24.2908C4.444 24.2928 4.44375 24.2948 4.4435 24.2967C4.44325 24.2987 4.44299 24.3007 4.44274 24.3026C4.44249 24.3046 4.44224 24.3066 4.44199 24.3085C4.44174 24.3105 4.44148 24.3125 4.44123 24.3144C4.44098 24.3164 4.44073 24.3184 4.44048 24.3203C4.44023 24.3223 4.43997 24.3243 4.43972 24.3263C4.43947 24.3282 4.43922 24.3302 4.43897 24.3322C4.43871 24.3341 4.43846 24.3361 4.43821 24.3381C4.43796 24.34 4.43771 24.342 4.43746 24.344C4.4372 24.3459 4.43695 24.3479 4.4367 24.3499C4.43645 24.3518 4.4362 24.3538 4.43595 24.3558C4.43569 24.3577 4.43544 24.3597 4.43519 24.3617C4.43494 24.3637 4.43469 24.3656 4.43443 24.3676C4.43418 24.3696 4.43393 24.3715 4.43368 24.3735C4.43343 24.3755 4.43318 24.3774 4.43292 24.3794C4.43267 24.3814 4.43242 24.3833 4.43217 24.3853C4.43192 24.3873 4.43167 24.3892 4.43141 24.3912C4.43116 24.3932 4.43091 24.3951 4.43066 24.3971C4.43041 24.3991 4.43015 24.4011 4.4299 24.403C4.42965 24.405 4.4294 24.407 4.42915 24.4089C4.4289 24.4109 4.42864 24.4129 4.42839 24.4148C4.42814 24.4168 4.42789 24.4188 4.42764 24.4207C4.42738 24.4227 4.42713 24.4247 4.42688 24.4266C4.42663 24.4286 4.42638 24.4306 4.42613 24.4325C4.42587 24.4345 4.42562 24.4365 4.42537 24.4384C4.42512 24.4404 4.42487 24.4424 4.42462 24.4444C4.42436 24.4463 4.42411 24.4483 4.42386 24.4503C4.42361 24.4522 4.42336 24.4542 4.4231 24.4562C4.42285 24.4581 4.4226 24.4601 4.42235 24.4621C4.4221 24.464 4.42185 24.466 4.42159 24.468C4.42134 24.4699 4.42109 24.4719 4.42084 24.4739C4.42059 24.4758 4.42034 24.4778 4.42008 24.4798C4.41983 24.4818 4.41958 24.4837 4.41933 24.4857C4.41908 24.4877 4.41882 24.4896 4.41857 24.4916C4.41832 24.4936 4.41807 24.4955 4.41782 24.4975C4.41757 24.4995 4.41731 24.5014 4.41706 24.5034C4.41681 24.5054 4.41656 24.5073 4.41631 24.5093C4.41606 24.5113 4.4158 24.5132 4.41555 24.5152C4.4153 24.5172 4.41505 24.5192 4.4148 24.5211C4.41454 24.5231 4.41429 24.5251 4.41404 24.527C4.41379 24.529 4.41354 24.531 4.41329 24.5329C4.41303 24.5349 4.41278 24.5369 4.41253 24.5388C4.41228 24.5408 4.41203 24.5428 4.41178 24.5447C4.41152 24.5467 4.41127 24.5487 4.41102 24.5506C4.41077 24.5526 4.41052 24.5546 4.41026 24.5566C4.41001 24.5585 4.40976 24.5605 4.40951 24.5625C4.40926 24.5644 4.40901 24.5664 4.40875 24.5684C4.4085 24.5703 4.40825 24.5723 4.408 24.5743C4.40775 24.5762 4.4075 24.5782 4.40724 24.5802C4.40699 24.5821 4.40674 24.5841 4.40649 24.5861C4.40624 24.588 4.40598 24.59 4.40573 24.592C4.40548 24.594 4.40523 24.5959 4.40498 24.5979C4.40473 24.5999 4.40447 24.6018 4.40422 24.6038C4.40397 24.6058 4.40372 24.6077 4.40347 24.6097C4.40322 24.6117 4.40296 24.6136 4.40271 24.6156C4.40246 24.6176 4.40221 24.6195 4.40196 24.6215C4.4017 24.6235 4.40145 24.6254 4.4012 24.6274C4.40095 24.6294 4.4007 24.6314 4.40045 24.6333C4.40019 24.6353 4.39994 24.6373 4.39969 24.6392C4.39944 24.6412 4.39919 24.6432 4.39893 24.6451C4.39868 24.6471 4.39843 24.6491 4.39818 24.651C4.39793 24.653 4.39768 24.655 4.39742 24.6569C4.39717 24.6589 4.39692 24.6609 4.39667 24.6628C4.39642 24.6648 4.39617 24.6668 4.39591 24.6688C4.39566 24.6707 4.39541 24.6727 4.39516 24.6747C4.39491 24.6766 4.39465 24.6786 4.3944 24.6806C4.39415 24.6825 4.3939 24.6845 4.39365 24.6865C4.3934 24.6884 4.39314 24.6904 4.39289 24.6924C4.39264 24.6943 4.39239 24.6963 4.39214 24.6983C4.39189 24.7002 4.39163 24.7022 4.39138 24.7042C4.39113 24.7061 4.39088 24.7081 4.39063 24.7101C4.39037 24.7121 4.39012 24.714 4.38987 24.716C4.38962 24.718 4.38937 24.7199 4.38912 24.7219C4.38886 24.7239 4.38861 24.7258 4.38836 24.7278C4.38811 24.7298 4.38786 24.7317 4.38761 24.7337C4.38735 24.7357 4.3871 24.7376 4.38685 24.7396C4.3866 24.7416 4.38635 24.7435 4.38609 24.7455C4.38584 24.7475 4.38559 24.7495 4.38534 24.7514C4.38509 24.7534 4.38484 24.7554 4.38458 24.7573C4.38433 24.7593 4.38408 24.7613 4.38383 24.7632C4.38358 24.7652 4.38333 24.7672 4.38307 24.7691C4.38282 24.7711 4.38257 24.7731 4.38232 24.775C4.38207 24.777 4.38181 24.779 4.38156 24.7809C4.38131 24.7829 4.38106 24.7849 4.38081 24.7869C4.38056 24.7888 4.3803 24.7908 4.38005 24.7928C4.3798 24.7947 4.37955 24.7967 4.3793 24.7987C4.37905 24.8006 4.37879 24.8026 4.37854 24.8046C4.37829 24.8065 4.37804 24.8085 4.37779 24.8105C4.37753 24.8124 4.37728 24.8144 4.37703 24.8164C4.37678 24.8183 4.37653 24.8203 4.37628 24.8223C4.37602 24.8243 4.37577 24.8262 4.37552 24.8282C4.37527 24.8302 4.37502 24.8321 4.37477 24.8341C4.37451 24.8361 4.37426 24.838 4.37401 24.84C4.37376 24.842 4.37351 24.8439 4.37325 24.8459C4.373 24.8479 4.37275 24.8498 4.3725 24.8518C4.37225 24.8538 4.372 24.8557 4.37174 24.8577C4.37149 24.8597 4.37124 24.8617 4.37099 24.8636C4.37074 24.8656 4.37048 24.8676 4.37023 24.8695C4.36998 24.8715 4.36973 24.8735 4.36948 24.8754C4.36923 24.8774 4.36897 24.8794 4.36872 24.8813C4.36847 24.8833 4.36822 24.8853 4.36797 24.8872C4.36772 24.8892 4.36746 24.8912 4.36721 24.8931C4.36696 24.8951 4.36671 24.8971 4.36646 24.8991C4.3662 24.901 4.36595 24.903 4.3657 24.905C4.36545 24.9069 4.3652 24.9089 4.36495 24.9109C4.36469 24.9128 4.36444 24.9148 4.36419 24.9168C4.36394 24.9187 4.36369 24.9207 4.36344 24.9227C4.36318 24.9246 4.36293 24.9266 4.36268 24.9286C4.36243 24.9305 4.36218 24.9325 4.36192 24.9345C4.36167 24.9365 4.36142 24.9384 4.36117 24.9404C4.36092 24.9424 4.36067 24.9443 4.36041 24.9463C4.36016 24.9483 4.35991 24.9502 4.35966 24.9522C4.35941 24.9542 4.35916 24.9561 4.3589 24.9581C4.35865 24.9601 4.3584 24.962 4.35815 24.964C4.3579 24.966 4.35764 24.9679 4.35739 24.9699C4.35714 24.9719 4.35689 24.9738 4.35664 24.9758C4.35639 24.9778 4.35613 24.9798 4.35588 24.9817C4.35563 24.9837 4.35538 24.9857 4.35513 24.9876C4.35488 24.9896 4.35462 24.9916 4.35437 24.9935C4.35412 24.9955 4.35387 24.9975 4.35362 24.9994C4.35336 25.0014 4.35311 25.0034 4.35286 25.0053C4.35261 25.0073 4.35236 25.0093 4.35211 25.0112C4.35185 25.0132 4.3516 25.0152 4.35135 25.0172C4.3511 25.0191 4.35085 25.0211 4.3506 25.0231C4.35034 25.025 4.35009 25.027 4.34984 25.029C4.34959 25.0309 4.34934 25.0329 4.34908 25.0349C4.34883 25.0368 4.34858 25.0388 4.34833 25.0408C4.34808 25.0427 4.34783 25.0447 4.34757 25.0467C4.34732 25.0486 4.34707 25.0506 4.34682 25.0526C4.34657 25.0546 4.34632 25.0565 4.34606 25.0585C4.34581 25.0605 4.34556 25.0624 4.34531 25.0644C4.34506 25.0664 4.3448 25.0683 4.34455 25.0703C4.3443 25.0723 4.34405 25.0742 4.3438 25.0762C4.34355 25.0782 4.34329 25.0801 4.34304 25.0821C4.34279 25.0841 4.34254 25.086 4.34229 25.088C4.34203 25.09 4.34178 25.092 4.34153 25.0939C4.34128 25.0959 4.34103 25.0979 4.34078 25.0998C4.34052 25.1018 4.34027 25.1038 4.34002 25.1057C4.33977 25.1077 4.33952 25.1097 4.33927 25.1116C4.33901 25.1136 4.33876 25.1156 4.33851 25.1175C4.33826 25.1195 4.33801 25.1215 4.33775 25.1234C4.3375 25.1254 4.33725 25.1274 4.337 25.1294C4.33675 25.1313 4.3365 25.1333 4.33624 25.1353C4.33599 25.1372 4.33574 25.1392 4.33549 25.1412C4.33524 25.1431 4.33499 25.1451 4.33473 25.1471C4.33448 25.149 4.33423 25.151 4.33398 25.153C4.33373 25.1549 4.33347 25.1569 4.33322 25.1589C4.33297 25.1608 4.33272 25.1628 4.33247 25.1648C4.33222 25.1668 4.33196 25.1687 4.33171 25.1707C4.33146 25.1727 4.33121 25.1746 4.33096 25.1766C4.33071 25.1786 4.33045 25.1805 4.3302 25.1825C4.32995 25.1845 4.3297 25.1864 4.32945 25.1884C4.32919 25.1904 4.32894 25.1923 4.32869 25.1943C4.32844 25.1963 4.32819 25.1982 4.32794 25.2002C4.32768 25.2022 4.32743 25.2042 4.32718 25.2061C4.32693 25.2081 4.32668 25.2101 4.32643 25.212C4.32617 25.214 4.32592 25.216 4.32567 25.2179C4.32542 25.2199 4.32517 25.2219 4.32491 25.2238C4.32466 25.2258 4.32441 25.2278 4.32416 25.2297C4.32391 25.2317 4.32366 25.2337 4.3234 25.2356C4.32315 25.2376 4.3229 25.2396 4.32265 25.2416C4.3224 25.2435 4.32215 25.2455 4.32189 25.2475C4.32164 25.2494 4.32139 25.2514 4.32114 25.2534C4.32089 25.2553 4.32063 25.2573 4.32038 25.2593C4.32013 25.2612 4.31988 25.2632 4.31963 25.2652C4.31938 25.2671 4.31912 25.2691 4.31887 25.2711C4.31862 25.273 4.31837 25.275 4.31812 25.277C4.31787 25.2789 4.31761 25.2809 4.31736 25.2829C4.31711 25.2849 4.31686 25.2868 4.31661 25.2888C4.31635 25.2908 4.3161 25.2927 4.31585 25.2947C4.3156 25.2967 4.31535 25.2986 4.3151 25.3006C4.31484 25.3026 4.31459 25.3045 4.31434 25.3065C4.31409 25.3085 4.31384 25.3104 4.31358 25.3124C4.31333 25.3144 4.31308 25.3163 4.31283 25.3183C4.31258 25.3203 4.31233 25.3223 4.31207 25.3242C4.31182 25.3262 4.31157 25.3282 4.31132 25.3301C4.31107 25.3321 4.31082 25.3341 4.31056 25.336C4.31031 25.338 4.31006 25.34 4.30981 25.3419C4.30956 25.3439 4.3093 25.3459 4.30905 25.3478C4.3088 25.3498 4.30855 25.3518 4.3083 25.3537C4.30805 25.3557 4.30779 25.3577 4.30754 25.3597C4.30729 25.3616 4.30704 25.3636 4.30679 25.3656C4.30654 25.3675 4.30628 25.3695 4.30603 25.3715C4.30578 25.3734 4.30553 25.3754 4.30528 25.3774C4.30502 25.3793 4.30477 25.3813 4.30452 25.3833C4.30427 25.3852 4.30402 25.3872 4.30377 25.3892C4.30351 25.3911 4.30326 25.3931 4.30301 25.3951C4.30276 25.3971 4.30251 25.399 4.30226 25.401C4.302 25.403 4.30175 25.4049 4.3015 25.4069C4.30125 25.4089 4.301 25.4108 4.30074 25.4128C4.30049 25.4148 4.30024 25.4167 4.29999 25.4187C4.29974 25.4207 4.29949 25.4226 4.29923 25.4246C4.29898 25.4266 4.29873 25.4285 4.29848 25.4305C4.29823 25.4325 4.29798 25.4345 4.29772 25.4364C4.29747 25.4384 4.29722 25.4404 4.29697 25.4423C4.29672 25.4443 4.29646 25.4463 4.29621 25.4482C4.29596 25.4502 4.29571 25.4522 4.29546 25.4541C4.29521 25.4561 4.29495 25.4581 4.2947 25.46C4.29445 25.462 4.2942 25.464 4.29395 25.4659C4.2937 25.4679 4.29344 25.4699 4.29319 25.4719C4.29294 25.4738 4.29269 25.4758 4.29244 25.4778C4.29218 25.4797 4.29193 25.4817 4.29168 25.4837C4.29143 25.4856 4.29118 25.4876 4.29093 25.4896C4.29067 25.4915 4.29042 25.4935 4.29017 25.4955C4.28992 25.4974 4.28967 25.4994 4.28941 25.5014C4.28916 25.5033 4.28891 25.5053 4.28866 25.5073C4.28841 25.5093 4.28816 25.5112 4.2879 25.5132C4.28765 25.5152 4.2874 25.5171 4.28715 25.5191C4.2869 25.5211 4.28665 25.523 4.28639 25.525C4.28614 25.527 4.28589 25.5289 4.28564 25.5309C4.28539 25.5329 4.28513 25.5348 4.28488 25.5368C4.28463 25.5388 4.28438 25.5407 4.28413 25.5427C4.28388 25.5447 4.28362 25.5466 4.28337 25.5486C4.28312 25.5506 4.28287 25.5526 4.28262 25.5545C4.28237 25.5565 4.28211 25.5585 4.28186 25.5604C4.28161 25.5624 4.28136 25.5644 4.28111 25.5663C4.28085 25.5683 4.2806 25.5703 4.28035 25.5722C4.2801 25.5742 4.27985 25.5762 4.2796 25.5781C4.27934 25.5801 4.27909 25.5821 4.27884 25.584C4.27859 25.586 4.27834 25.588 4.27809 25.59C4.27783 25.5919 4.27758 25.5939 4.27733 25.5959C4.27708 25.5978 4.27683 25.5998 4.27657 25.6018C4.27632 25.6037 4.27607 25.6057 4.27582 25.6077C4.27557 25.6096 4.27532 25.6116 4.27506 25.6136C4.27481 25.6155 4.27456 25.6175 4.27431 25.6195C4.27406 25.6214 4.27381 25.6234 4.27355 25.6254C4.2733 25.6274 4.27305 25.6293 4.2728 25.6313C4.27255 25.6333 4.27229 25.6352 4.27204 25.6372C4.27179 25.6392 4.27154 25.6411 4.27129 25.6431C4.27104 25.6451 4.27078 25.647 4.27053 25.649C4.27028 25.651 4.27003 25.6529 4.26978 25.6549C4.26953 25.6569 4.26927 25.6588 4.26902 25.6608C4.26877 25.6628 4.26852 25.6648 4.26827 25.6667C4.26801 25.6687 4.26776 25.6707 4.26751 25.6726C4.26726 25.6746 4.26701 25.6766 4.26676 25.6785C4.2665 25.6805 4.26625 25.6825 4.266 25.6844C4.26575 25.6864 4.2655 25.6884 4.26525 25.6903C4.26499 25.6923 4.26474 25.6943 4.26449 25.6962C4.26424 25.6982 4.26399 25.7002 4.26373 25.7022C4.26348 25.7041 4.26323 25.7061 4.26298 25.7081C4.26273 25.71 4.26248 25.712 4.26222 25.714C4.26197 25.7159 4.26172 25.7179 4.26147 25.7199C4.26122 25.7218 4.26096 25.7238 4.26071 25.7258C4.26046 25.7277 4.26021 25.7297 4.25996 25.7317C4.25971 25.7336 4.25945 25.7356 4.2592 25.7376C4.25895 25.7396 4.2587 25.7415 4.25845 25.7435C4.2582 25.7455 4.25794 25.7474 4.25769 25.7494C4.25744 25.7514 4.25719 25.7533 4.25694 25.7553C4.25668 25.7573 4.25643 25.7592 4.25618 25.7612C4.25593 25.7632 4.25568 25.7651 4.25543 25.7671C4.25517 25.7691 4.25492 25.771 4.25467 25.773C4.25442 25.775 4.25417 25.777 4.25392 25.7789C4.25366 25.7809 4.25341 25.7829 4.25316 25.7848C4.25291 25.7868 4.25266 25.7888 4.2524 25.7907C4.25215 25.7927 4.2519 25.7947 4.25165 25.7966C4.2514 25.7986 4.25115 25.8006 4.25089 25.8025C4.25064 25.8045 4.25039 25.8065 4.25014 25.8084C4.24989 25.8104 4.24964 25.8124 4.24938 25.8143C4.24913 25.8163 4.24888 25.8183 4.24863 25.8203C4.24838 25.8222 4.24812 25.8242 4.24787 25.8262C4.24762 25.8281 4.24737 25.8301 4.24712 25.8321C4.24687 25.834 4.24661 25.836 4.24636 25.838L5.23828 25.9648L6.2302 26.0917C6.23045 26.0897 6.2307 26.0878 6.23096 26.0858C6.23121 26.0838 6.23146 26.0819 6.23171 26.0799C6.23196 26.0779 6.23221 26.076 6.23247 26.074C6.23272 26.072 6.23297 26.0701 6.23322 26.0681C6.23347 26.0661 6.23372 26.0642 6.23398 26.0622C6.23423 26.0602 6.23448 26.0583 6.23473 26.0563C6.23498 26.0543 6.23524 26.0523 6.23549 26.0504C6.23574 26.0484 6.23599 26.0464 6.23624 26.0445C6.23649 26.0425 6.23675 26.0405 6.237 26.0386C6.23725 26.0366 6.2375 26.0346 6.23775 26.0327C6.23801 26.0307 6.23826 26.0287 6.23851 26.0268C6.23876 26.0248 6.23901 26.0228 6.23926 26.0209C6.23952 26.0189 6.23977 26.0169 6.24002 26.015C6.24027 26.013 6.24052 26.011 6.24077 26.009C6.24103 26.0071 6.24128 26.0051 6.24153 26.0031C6.24178 26.0012 6.24203 25.9992 6.24229 25.9972C6.24254 25.9953 6.24279 25.9933 6.24304 25.9913C6.24329 25.9894 6.24354 25.9874 6.2438 25.9854C6.24405 25.9835 6.2443 25.9815 6.24455 25.9795C6.2448 25.9776 6.24505 25.9756 6.24531 25.9736C6.24556 25.9716 6.24581 25.9697 6.24606 25.9677C6.24631 25.9657 6.24657 25.9638 6.24682 25.9618C6.24707 25.9598 6.24732 25.9579 6.24757 25.9559C6.24782 25.9539 6.24808 25.952 6.24833 25.95C6.24858 25.948 6.24883 25.9461 6.24908 25.9441C6.24933 25.9421 6.24959 25.9402 6.24984 25.9382C6.25009 25.9362 6.25034 25.9342 6.25059 25.9323C6.25085 25.9303 6.2511 25.9283 6.25135 25.9264C6.2516 25.9244 6.25185 25.9224 6.2521 25.9205C6.25236 25.9185 6.25261 25.9165 6.25286 25.9146C6.25311 25.9126 6.25336 25.9106 6.25361 25.9087C6.25387 25.9067 6.25412 25.9047 6.25437 25.9028C6.25462 25.9008 6.25487 25.8988 6.25513 25.8968C6.25538 25.8949 6.25563 25.8929 6.25588 25.8909C6.25613 25.889 6.25638 25.887 6.25664 25.885C6.25689 25.8831 6.25714 25.8811 6.25739 25.8791C6.25764 25.8772 6.25789 25.8752 6.25815 25.8732C6.2584 25.8713 6.25865 25.8693 6.2589 25.8673C6.25915 25.8654 6.25941 25.8634 6.25966 25.8614C6.25991 25.8594 6.26016 25.8575 6.26041 25.8555C6.26066 25.8535 6.26092 25.8516 6.26117 25.8496C6.26142 25.8476 6.26167 25.8457 6.26192 25.8437C6.26217 25.8417 6.26243 25.8398 6.26268 25.8378C6.26293 25.8358 6.26318 25.8339 6.26343 25.8319C6.26369 25.8299 6.26394 25.828 6.26419 25.826C6.26444 25.824 6.26469 25.822 6.26494 25.8201C6.2652 25.8181 6.26545 25.8161 6.2657 25.8142C6.26595 25.8122 6.2662 25.8102 6.26646 25.8083C6.26671 25.8063 6.26696 25.8043 6.26721 25.8024C6.26746 25.8004 6.26771 25.7984 6.26797 25.7965C6.26822 25.7945 6.26847 25.7925 6.26872 25.7906C6.26897 25.7886 6.26922 25.7866 6.26948 25.7846C6.26973 25.7827 6.26998 25.7807 6.27023 25.7787C6.27048 25.7768 6.27074 25.7748 6.27099 25.7728C6.27124 25.7709 6.27149 25.7689 6.27174 25.7669C6.27199 25.765 6.27225 25.763 6.2725 25.761C6.27275 25.7591 6.273 25.7571 6.27325 25.7551C6.2735 25.7532 6.27376 25.7512 6.27401 25.7492C6.27426 25.7472 6.27451 25.7453 6.27476 25.7433C6.27502 25.7413 6.27527 25.7394 6.27552 25.7374C6.27577 25.7354 6.27602 25.7335 6.27627 25.7315C6.27653 25.7295 6.27678 25.7276 6.27703 25.7256C6.27728 25.7236 6.27753 25.7217 6.27778 25.7197C6.27804 25.7177 6.27829 25.7158 6.27854 25.7138C6.27879 25.7118 6.27904 25.7099 6.2793 25.7079C6.27955 25.7059 6.2798 25.7039 6.28005 25.702C6.2803 25.7 6.28055 25.698 6.28081 25.6961C6.28106 25.6941 6.28131 25.6921 6.28156 25.6902C6.28181 25.6882 6.28206 25.6862 6.28232 25.6843C6.28257 25.6823 6.28282 25.6803 6.28307 25.6784C6.28332 25.6764 6.28358 25.6744 6.28383 25.6725C6.28408 25.6705 6.28433 25.6685 6.28458 25.6665C6.28483 25.6646 6.28509 25.6626 6.28534 25.6606C6.28559 25.6587 6.28584 25.6567 6.28609 25.6547C6.28634 25.6528 6.2866 25.6508 6.28685 25.6488C6.2871 25.6469 6.28735 25.6449 6.2876 25.6429C6.28786 25.641 6.28811 25.639 6.28836 25.637C6.28861 25.6351 6.28886 25.6331 6.28911 25.6311C6.28937 25.6291 6.28962 25.6272 6.28987 25.6252C6.29012 25.6232 6.29037 25.6213 6.29062 25.6193C6.29088 25.6173 6.29113 25.6154 6.29138 25.6134C6.29163 25.6114 6.29188 25.6095 6.29214 25.6075C6.29239 25.6055 6.29264 25.6036 6.29289 25.6016C6.29314 25.5996 6.29339 25.5977 6.29365 25.5957C6.2939 25.5937 6.29415 25.5917 6.2944 25.5898C6.29465 25.5878 6.29491 25.5858 6.29516 25.5839C6.29541 25.5819 6.29566 25.5799 6.29591 25.578C6.29616 25.576 6.29642 25.574 6.29667 25.5721C6.29692 25.5701 6.29717 25.5681 6.29742 25.5662C6.29767 25.5642 6.29793 25.5622 6.29818 25.5603C6.29843 25.5583 6.29868 25.5563 6.29893 25.5543C6.29919 25.5524 6.29944 25.5504 6.29969 25.5484C6.29994 25.5465 6.30019 25.5445 6.30044 25.5425C6.3007 25.5406 6.30095 25.5386 6.3012 25.5366C6.30145 25.5347 6.3017 25.5327 6.30195 25.5307C6.30221 25.5288 6.30246 25.5268 6.30271 25.5248C6.30296 25.5229 6.30321 25.5209 6.30347 25.5189C6.30372 25.5169 6.30397 25.515 6.30422 25.513C6.30447 25.511 6.30472 25.5091 6.30498 25.5071C6.30523 25.5051 6.30548 25.5032 6.30573 25.5012C6.30598 25.4992 6.30623 25.4973 6.30649 25.4953C6.30674 25.4933 6.30699 25.4914 6.30724 25.4894C6.30749 25.4874 6.30775 25.4855 6.308 25.4835C6.30825 25.4815 6.3085 25.4795 6.30875 25.4776C6.309 25.4756 6.30926 25.4736 6.30951 25.4717C6.30976 25.4697 6.31001 25.4677 6.31026 25.4658C6.31051 25.4638 6.31077 25.4618 6.31102 25.4599C6.31127 25.4579 6.31152 25.4559 6.31177 25.454C6.31203 25.452 6.31228 25.45 6.31253 25.4481C6.31278 25.4461 6.31303 25.4441 6.31328 25.4422C6.31354 25.4402 6.31379 25.4382 6.31404 25.4362C6.31429 25.4343 6.31454 25.4323 6.31479 25.4303C6.31505 25.4284 6.3153 25.4264 6.31555 25.4244C6.3158 25.4225 6.31605 25.4205 6.31631 25.4185C6.31656 25.4166 6.31681 25.4146 6.31706 25.4126C6.31731 25.4107 6.31756 25.4087 6.31782 25.4067C6.31807 25.4048 6.31832 25.4028 6.31857 25.4008C6.31882 25.3988 6.31907 25.3969 6.31933 25.3949C6.31958 25.3929 6.31983 25.391 6.32008 25.389C6.32033 25.387 6.32059 25.3851 6.32084 25.3831C6.32109 25.3811 6.32134 25.3792 6.32159 25.3772C6.32184 25.3752 6.3221 25.3733 6.32235 25.3713C6.3226 25.3693 6.32285 25.3674 6.3231 25.3654C6.32336 25.3634 6.32361 25.3614 6.32386 25.3595C6.32411 25.3575 6.32436 25.3555 6.32461 25.3536C6.32487 25.3516 6.32512 25.3496 6.32537 25.3477C6.32562 25.3457 6.32587 25.3437 6.32612 25.3418C6.32638 25.3398 6.32663 25.3378 6.32688 25.3359C6.32713 25.3339 6.32738 25.3319 6.32764 25.33C6.32789 25.328 6.32814 25.326 6.32839 25.324C6.32864 25.3221 6.32889 25.3201 6.32915 25.3181C6.3294 25.3162 6.32965 25.3142 6.3299 25.3122C6.33015 25.3103 6.3304 25.3083 6.33066 25.3063C6.33091 25.3044 6.33116 25.3024 6.33141 25.3004C6.33166 25.2985 6.33192 25.2965 6.33217 25.2945C6.33242 25.2926 6.33267 25.2906 6.33292 25.2886C6.33317 25.2866 6.33343 25.2847 6.33368 25.2827C6.33393 25.2807 6.33418 25.2788 6.33443 25.2768C6.33468 25.2748 6.33494 25.2729 6.33519 25.2709C6.33544 25.2689 6.33569 25.267 6.33594 25.265C6.3362 25.263 6.33645 25.2611 6.3367 25.2591C6.33695 25.2571 6.3372 25.2552 6.33745 25.2532C6.33771 25.2512 6.33796 25.2492 6.33821 25.2473C6.33846 25.2453 6.33871 25.2433 6.33896 25.2414C6.33922 25.2394 6.33947 25.2374 6.33972 25.2355C6.33997 25.2335 6.34022 25.2315 6.34048 25.2296C6.34073 25.2276 6.34098 25.2256 6.34123 25.2237C6.34148 25.2217 6.34173 25.2197 6.34199 25.2178C6.34224 25.2158 6.34249 25.2138 6.34274 25.2118C6.34299 25.2099 6.34324 25.2079 6.3435 25.2059C6.34375 25.204 6.344 25.202 6.34425 25.2C6.3445 25.1981 6.34476 25.1961 6.34501 25.1941C6.34526 25.1922 6.34551 25.1902 6.34576 25.1882C6.34601 25.1863 6.34627 25.1843 6.34652 25.1823C6.34677 25.1804 6.34702 25.1784 6.34727 25.1764C6.34753 25.1745 6.34778 25.1725 6.34803 25.1705C6.34828 25.1685 6.34853 25.1666 6.34878 25.1646C6.34904 25.1626 6.34929 25.1607 6.34954 25.1587C6.34979 25.1567 6.35004 25.1548 6.35029 25.1528C6.35055 25.1508 6.3508 25.1489 6.35105 25.1469C6.3513 25.1449 6.35155 25.143 6.35181 25.141C6.35206 25.139 6.35231 25.1371 6.35256 25.1351C6.35281 25.1331 6.35306 25.1311 6.35332 25.1292C6.35357 25.1272 6.35382 25.1252 6.35407 25.1233C6.35432 25.1213 6.35457 25.1193 6.35483 25.1174C6.35508 25.1154 6.35533 25.1134 6.35558 25.1115C6.35583 25.1095 6.35609 25.1075 6.35634 25.1056C6.35659 25.1036 6.35684 25.1016 6.35709 25.0997C6.35734 25.0977 6.3576 25.0957 6.35785 25.0937C6.3581 25.0918 6.35835 25.0898 6.3586 25.0878C6.35885 25.0859 6.35911 25.0839 6.35936 25.0819C6.35961 25.08 6.35986 25.078 6.36011 25.076C6.36037 25.0741 6.36062 25.0721 6.36087 25.0701C6.36112 25.0682 6.36137 25.0662 6.36162 25.0642C6.36188 25.0623 6.36213 25.0603 6.36238 25.0583C6.36263 25.0563 6.36288 25.0544 6.36313 25.0524C6.36339 25.0504 6.36364 25.0485 6.36389 25.0465C6.36414 25.0445 6.36439 25.0426 6.36465 25.0406C6.3649 25.0386 6.36515 25.0367 6.3654 25.0347C6.36565 25.0327 6.3659 25.0308 6.36616 25.0288C6.36641 25.0268 6.36666 25.0249 6.36691 25.0229C6.36716 25.0209 6.36741 25.0189 6.36767 25.017C6.36792 25.015 6.36817 25.013 6.36842 25.0111C6.36867 25.0091 6.36893 25.0071 6.36918 25.0052C6.36943 25.0032 6.36968 25.0012 6.36993 24.9993C6.37018 24.9973 6.37044 24.9953 6.37069 24.9934C6.37094 24.9914 6.37119 24.9894 6.37144 24.9875C6.37169 24.9855 6.37195 24.9835 6.3722 24.9815C6.37245 24.9796 6.3727 24.9776 6.37295 24.9756C6.37321 24.9737 6.37346 24.9717 6.37371 24.9697C6.37396 24.9678 6.37421 24.9658 6.37446 24.9638C6.37472 24.9619 6.37497 24.9599 6.37522 24.9579C6.37547 24.956 6.37572 24.954 6.37598 24.952C6.37623 24.9501 6.37648 24.9481 6.37673 24.9461C6.37698 24.9441 6.37723 24.9422 6.37749 24.9402C6.37774 24.9382 6.37799 24.9363 6.37824 24.9343C6.37849 24.9323 6.37874 24.9304 6.379 24.9284C6.37925 24.9264 6.3795 24.9245 6.37975 24.9225C6.38 24.9205 6.38026 24.9186 6.38051 24.9166C6.38076 24.9146 6.38101 24.9127 6.38126 24.9107C6.38151 24.9087 6.38177 24.9068 6.38202 24.9048C6.38227 24.9028 6.38252 24.9008 6.38277 24.8989C6.38302 24.8969 6.38328 24.8949 6.38353 24.893C6.38378 24.891 6.38403 24.889 6.38428 24.8871C6.38454 24.8851 6.38479 24.8831 6.38504 24.8812C6.38529 24.8792 6.38554 24.8772 6.38579 24.8753C6.38605 24.8733 6.3863 24.8713 6.38655 24.8694C6.3868 24.8674 6.38705 24.8654 6.3873 24.8634C6.38756 24.8615 6.38781 24.8595 6.38806 24.8575C6.38831 24.8556 6.38856 24.8536 6.38882 24.8516C6.38907 24.8497 6.38932 24.8477 6.38957 24.8457C6.38982 24.8438 6.39007 24.8418 6.39033 24.8398C6.39058 24.8379 6.39083 24.8359 6.39108 24.8339C6.39133 24.832 6.39158 24.83 6.39184 24.828C6.39209 24.826 6.39234 24.8241 6.39259 24.8221C6.39284 24.8201 6.3931 24.8182 6.39335 24.8162C6.3936 24.8142 6.39385 24.8123 6.3941 24.8103C6.39435 24.8083 6.39461 24.8064 6.39486 24.8044C6.39511 24.8024 6.39536 24.8005 6.39561 24.7985C6.39586 24.7965 6.39612 24.7946 6.39637 24.7926C6.39662 24.7906 6.39687 24.7886 6.39712 24.7867C6.39738 24.7847 6.39763 24.7827 6.39788 24.7808C6.39813 24.7788 6.39838 24.7768 6.39863 24.7749C6.39889 24.7729 6.39914 24.7709 6.39939 24.769C6.39964 24.767 6.39989 24.765 6.40014 24.7631C6.4004 24.7611 6.40065 24.7591 6.4009 24.7572C6.40115 24.7552 6.4014 24.7532 6.40166 24.7512C6.40191 24.7493 6.40216 24.7473 6.40241 24.7453C6.40266 24.7434 6.40291 24.7414 6.40317 24.7394C6.40342 24.7375 6.40367 24.7355 6.40392 24.7335C6.40417 24.7316 6.40443 24.7296 6.40468 24.7276C6.40493 24.7257 6.40518 24.7237 6.40543 24.7217C6.40568 24.7198 6.40594 24.7178 6.40619 24.7158C6.40644 24.7138 6.40669 24.7119 6.40694 24.7099C6.40719 24.7079 6.40745 24.706 6.4077 24.704C6.40795 24.702 6.4082 24.7001 6.40845 24.6981C6.40871 24.6961 6.40896 24.6942 6.40921 24.6922C6.40946 24.6902 6.40971 24.6883 6.40996 24.6863C6.41022 24.6843 6.41047 24.6824 6.41072 24.6804C6.41097 24.6784 6.41122 24.6764 6.41147 24.6745C6.41173 24.6725 6.41198 24.6705 6.41223 24.6686C6.41248 24.6666 6.41273 24.6646 6.41299 24.6627C6.41324 24.6607 6.41349 24.6587 6.41374 24.6568C6.41399 24.6548 6.41424 24.6528 6.4145 24.6509C6.41475 24.6489 6.415 24.6469 6.41525 24.645C6.4155 24.643 6.41575 24.641 6.41601 24.639C6.41626 24.6371 6.41651 24.6351 6.41676 24.6331C6.41701 24.6312 6.41727 24.6292 6.41752 24.6272C6.41777 24.6253 6.41802 24.6233 6.41827 24.6213C6.41852 24.6194 6.41878 24.6174 6.41903 24.6154C6.41928 24.6135 6.41953 24.6115 6.41978 24.6095C6.42003 24.6076 6.42029 24.6056 6.42054 24.6036C6.42079 24.6017 6.42104 24.5997 6.42129 24.5977C6.42155 24.5957 6.4218 24.5938 6.42205 24.5918C6.4223 24.5898 6.42255 24.5879 6.4228 24.5859C6.42306 24.5839 6.42331 24.582 6.42356 24.58C6.42381 24.578 6.42406 24.5761 6.42431 24.5741C6.42457 24.5721 6.42482 24.5702 6.42507 24.5682C6.42532 24.5662 6.42557 24.5643 6.42583 24.5623C6.42608 24.5603 6.42633 24.5583 6.42658 24.5564C6.42683 24.5544 6.42708 24.5524 6.42734 24.5505C6.42759 24.5485 6.42784 24.5465 6.42809 24.5446C6.42834 24.5426 6.42859 24.5406 6.42885 24.5387C6.4291 24.5367 6.42935 24.5347 6.4296 24.5328C6.42985 24.5308 6.43011 24.5288 6.43036 24.5269C6.43061 24.5249 6.43086 24.5229 6.43111 24.5209C6.43136 24.519 6.43162 24.517 6.43187 24.515C6.43212 24.5131 6.43237 24.5111 6.43262 24.5091C6.43288 24.5072 6.43313 24.5052 6.43338 24.5032C6.43363 24.5013 6.43388 24.4993 6.43413 24.4973C6.43439 24.4954 6.43464 24.4934 6.43489 24.4914C6.43514 24.4895 6.43539 24.4875 6.43564 24.4855C6.4359 24.4835 6.43615 24.4816 6.4364 24.4796C6.43665 24.4776 6.4369 24.4757 6.43716 24.4737C6.43741 24.4717 6.43766 24.4698 6.43791 24.4678C6.43816 24.4658 6.43841 24.4639 6.43867 24.4619C6.43892 24.4599 6.43917 24.458 6.43942 24.456C6.43967 24.454 6.43992 24.4521 6.44018 24.4501C6.44043 24.4481 6.44068 24.4461 6.44093 24.4442C6.44118 24.4422 6.44144 24.4402 6.44169 24.4383C6.44194 24.4363 6.44219 24.4343 6.44244 24.4324C6.44269 24.4304 6.44295 24.4284 6.4432 24.4265C6.44345 24.4245 6.4437 24.4225 6.44395 24.4206C6.4442 24.4186 6.44446 24.4166 6.44471 24.4147C6.44496 24.4127 6.44521 24.4107 6.44546 24.4087C6.44572 24.4068 6.44597 24.4048 6.44622 24.4028C6.44647 24.4009 6.44672 24.3989 6.44697 24.3969C6.44723 24.395 6.44748 24.393 6.44773 24.391C6.44798 24.3891 6.44823 24.3871 6.44848 24.3851C6.44874 24.3832 6.44899 24.3812 6.44924 24.3792C6.44949 24.3773 6.44974 24.3753 6.45 24.3733C6.45025 24.3713 6.4505 24.3694 6.45075 24.3674C6.451 24.3654 6.45125 24.3635 6.45151 24.3615C6.45176 24.3595 6.45201 24.3576 6.45226 24.3556C6.45251 24.3536 6.45276 24.3517 6.45302 24.3497C6.45327 24.3477 6.45352 24.3458 6.45377 24.3438C6.45402 24.3418 6.45428 24.3399 6.45453 24.3379C6.45478 24.3359 6.45503 24.334 6.45528 24.332C6.45553 24.33 6.45579 24.328 6.45604 24.3261C6.45629 24.3241 6.45654 24.3221 6.45679 24.3202C6.45704 24.3182 6.4573 24.3162 6.45755 24.3143C6.4578 24.3123 6.45805 24.3103 6.4583 24.3084C6.45856 24.3064 6.45881 24.3044 6.45906 24.3025C6.45931 24.3005 6.45956 24.2985 6.45981 24.2966C6.46007 24.2946 6.46032 24.2926 6.46057 24.2906C6.46082 24.2887 6.46107 24.2867 6.46133 24.2847C6.46158 24.2828 6.46183 24.2808 6.46208 24.2788C6.46233 24.2769 6.46258 24.2749 6.46284 24.2729C6.46309 24.271 6.46334 24.269 6.46359 24.267C6.46384 24.2651 6.46409 24.2631 6.46435 24.2611C6.4646 24.2592 6.46485 24.2572 6.4651 24.2552C6.46535 24.2532 6.46561 24.2513 6.46586 24.2493C6.46611 24.2473 6.46636 24.2454 6.46661 24.2434C6.46686 24.2414 6.46712 24.2395 6.46737 24.2375C6.46762 24.2355 6.46787 24.2336 6.46812 24.2316C6.46837 24.2296 6.46863 24.2277 6.46888 24.2257C6.46913 24.2237 6.46938 24.2218 6.46963 24.2198C6.46989 24.2178 6.47014 24.2158 6.47039 24.2139C6.47064 24.2119 6.47089 24.2099 6.47114 24.208C6.4714 24.206 6.47165 24.204 6.4719 24.2021C6.47215 24.2001 6.4724 24.1981 6.47265 24.1962C6.47291 24.1942 6.47316 24.1922 6.47341 24.1903C6.47366 24.1883 6.47391 24.1863 6.47417 24.1844C6.47442 24.1824 6.47467 24.1804 6.47492 24.1784C6.47517 24.1765 6.47542 24.1745 6.47568 24.1725C6.47593 24.1706 6.47618 24.1686 6.47643 24.1666C6.47668 24.1647 6.47693 24.1627 6.47719 24.1607C6.47744 24.1588 6.47769 24.1568 6.47794 24.1548C6.47819 24.1529 6.47845 24.1509 6.4787 24.1489C6.47895 24.147 6.4792 24.145 6.47945 24.143C6.4797 24.141 6.47996 24.1391 6.48021 24.1371C6.48046 24.1351 6.48071 24.1332 6.48096 24.1312C6.48121 24.1292 6.48147 24.1273 6.48172 24.1253C6.48197 24.1233 6.48222 24.1214 6.48247 24.1194C6.48273 24.1174 6.48298 24.1155 6.48323 24.1135C6.48348 24.1115 6.48373 24.1096 6.48398 24.1076C6.48424 24.1056 6.48449 24.1036 6.48474 24.1017C6.48499 24.0997 6.48524 24.0977 6.48549 24.0958C6.48575 24.0938 6.486 24.0918 6.48625 24.0899C6.4865 24.0879 6.48675 24.0859 6.48701 24.084C6.48726 24.082 6.48751 24.08 6.48776 24.0781C6.48801 24.0761 6.48826 24.0741 6.48852 24.0722C6.48877 24.0702 6.48902 24.0682 6.48927 24.0663C6.48952 24.0643 6.48978 24.0623 6.49003 24.0603C6.49028 24.0584 6.49053 24.0564 6.49078 24.0544C6.49103 24.0525 6.49129 24.0505 6.49154 24.0485C6.49179 24.0466 6.49204 24.0446 6.49229 24.0426C6.49254 24.0407 6.4928 24.0387 6.49305 24.0367C6.4933 24.0348 6.49355 24.0328 6.4938 24.0308C6.49406 24.0289 6.49431 24.0269 6.49456 24.0249C6.49481 24.0229 6.49506 24.021 6.49531 24.019C6.49557 24.017 6.49582 24.0151 6.49607 24.0131C6.49632 24.0111 6.49657 24.0092 6.49682 24.0072C6.49708 24.0052 6.49733 24.0033 6.49758 24.0013C6.49783 23.9993 6.49808 23.9974 6.49834 23.9954C6.49859 23.9934 6.49884 23.9915 6.49909 23.9895C6.49934 23.9875 6.49959 23.9855 6.49985 23.9836C6.5001 23.9816 6.50035 23.9796 6.5006 23.9777C6.50085 23.9757 6.5011 23.9737 6.50136 23.9718C6.50161 23.9698 6.50186 23.9678 6.50211 23.9659C6.50236 23.9639 6.50262 23.9619 6.50287 23.96C6.50312 23.958 6.50337 23.956 6.50362 23.9541C6.50387 23.9521 6.50413 23.9501 6.50438 23.9481C6.50463 23.9462 6.50488 23.9442 6.50513 23.9422C6.50538 23.9403 6.50564 23.9383 6.50589 23.9363C6.50614 23.9344 6.50639 23.9324 6.50664 23.9304C6.5069 23.9285 6.50715 23.9265 6.5074 23.9245C6.50765 23.9226 6.5079 23.9206 6.50815 23.9186C6.50841 23.9167 6.50866 23.9147 6.50891 23.9127C6.50916 23.9107 6.50941 23.9088 6.50966 23.9068C6.50992 23.9048 6.51017 23.9029 6.51042 23.9009C6.51067 23.8989 6.51092 23.897 6.51118 23.895C6.51143 23.893 6.51168 23.8911 6.51193 23.8891C6.51218 23.8871 6.51243 23.8852 6.51269 23.8832C6.51294 23.8812 6.51319 23.8793 6.51344 23.8773C6.51369 23.8753 6.51394 23.8733 6.5142 23.8714C6.51445 23.8694 6.5147 23.8674 6.51495 23.8655C6.5152 23.8635 6.51546 23.8615 6.51571 23.8596C6.51596 23.8576 6.51621 23.8556 6.51646 23.8537C6.51671 23.8517 6.51697 23.8497 6.51722 23.8478C6.51747 23.8458 6.51772 23.8438 6.51797 23.8419C6.51823 23.8399 6.51848 23.8379 6.51873 23.8359C6.51898 23.834 6.51923 23.832 6.51948 23.83C6.51974 23.8281 6.51999 23.8261 6.52024 23.8241C6.52049 23.8222 6.52074 23.8202 6.52099 23.8182C6.52125 23.8163 6.5215 23.8143 6.52175 23.8123C6.522 23.8104 6.52225 23.8084 6.52251 23.8064C6.52276 23.8045 6.52301 23.8025 6.52326 23.8005C6.52351 23.7985 6.52376 23.7966 6.52402 23.7946C6.52427 23.7926 6.52452 23.7907 6.52477 23.7887C6.52502 23.7867 6.52527 23.7848 6.52553 23.7828C6.52578 23.7808 6.52603 23.7789 6.52628 23.7769C6.52653 23.7749 6.52679 23.773 6.52704 23.771C6.52729 23.769 6.52754 23.7671 6.52779 23.7651C6.52804 23.7631 6.5283 23.7612 6.52855 23.7592C6.5288 23.7572 6.52905 23.7552 6.5293 23.7533C6.52955 23.7513 6.52981 23.7493 6.53006 23.7474C6.53031 23.7454 6.53056 23.7434 6.53081 23.7415C6.53107 23.7395 6.53132 23.7375 6.53157 23.7356C6.53182 23.7336 6.53207 23.7316 6.53232 23.7297C6.53258 23.7277 6.53283 23.7257 6.53308 23.7238C6.53333 23.7218 6.53358 23.7198 6.53383 23.7178C6.53409 23.7159 6.53434 23.7139 6.53459 23.7119C6.53484 23.71 6.53509 23.708 6.53535 23.706C6.5356 23.7041 6.53585 23.7021 6.5361 23.7001C6.53635 23.6982 6.5366 23.6962 6.53686 23.6942C6.53711 23.6923 6.53736 23.6903 6.53761 23.6883C6.53786 23.6864 6.53811 23.6844 6.53837 23.6824C6.53862 23.6804 6.53887 23.6785 6.53912 23.6765C6.53937 23.6745 6.53963 23.6726 6.53988 23.6706C6.54013 23.6686 6.54038 23.6667 6.54063 23.6647C6.54088 23.6627 6.54114 23.6608 6.54139 23.6588C6.54164 23.6568 6.54189 23.6549 6.54214 23.6529C6.54239 23.6509 6.54265 23.649 6.5429 23.647C6.54315 23.645 6.5434 23.643 6.54365 23.6411C6.54391 23.6391 6.54416 23.6371 6.54441 23.6352C6.54466 23.6332 6.54491 23.6312 6.54516 23.6293C6.54542 23.6273 6.54567 23.6253 6.54592 23.6234C6.54617 23.6214 6.54642 23.6194 6.54668 23.6175C6.54693 23.6155 6.54718 23.6135 6.54743 23.6116C6.54768 23.6096 6.54793 23.6076 6.54819 23.6056C6.54844 23.6037 6.54869 23.6017 6.54894 23.5997C6.54919 23.5978 6.54944 23.5958 6.5497 23.5938C6.54995 23.5919 6.5502 23.5899 6.55045 23.5879C6.5507 23.586 6.55096 23.584 6.55121 23.582C6.55146 23.5801 6.55171 23.5781 6.55196 23.5761C6.55221 23.5742 6.55247 23.5722 6.55272 23.5702C6.55297 23.5682 6.55322 23.5663 6.55347 23.5643C6.55372 23.5623 6.55398 23.5604 6.55423 23.5584C6.55448 23.5564 6.55473 23.5545 6.55498 23.5525C6.55524 23.5505 6.55549 23.5486 6.55574 23.5466C6.55599 23.5446 6.55624 23.5427 6.55649 23.5407C6.55675 23.5387 6.557 23.5368 6.55725 23.5348C6.5575 23.5328 6.55775 23.5308 6.558 23.5289C6.55826 23.5269 6.55851 23.5249 6.55876 23.523C6.55901 23.521 6.55926 23.519 6.55952 23.5171C6.55977 23.5151 6.56002 23.5131 6.56027 23.5112C6.56052 23.5092 6.56077 23.5072 6.56103 23.5053C6.56128 23.5033 6.56153 23.5013 6.56178 23.4994C6.56203 23.4974 6.56228 23.4954 6.56254 23.4935C6.56279 23.4915 6.56304 23.4895 6.56329 23.4875C6.56354 23.4856 6.5638 23.4836 6.56405 23.4816C6.5643 23.4797 6.56455 23.4777 6.5648 23.4757C6.56505 23.4738 6.56531 23.4718 6.56556 23.4698C6.56581 23.4679 6.56606 23.4659 6.56631 23.4639C6.56656 23.462 6.56682 23.46 6.56707 23.458C6.56732 23.4561 6.56757 23.4541 6.56782 23.4521C6.56808 23.4501 6.56833 23.4482 6.56858 23.4462C6.56883 23.4442 6.56908 23.4423 6.56933 23.4403C6.56959 23.4383 6.56984 23.4364 6.57009 23.4344C6.57034 23.4324 6.57059 23.4305 6.57085 23.4285C6.5711 23.4265 6.57135 23.4246 6.5716 23.4226C6.57185 23.4206 6.5721 23.4187 6.57236 23.4167C6.57261 23.4147 6.57286 23.4127 6.57311 23.4108C6.57336 23.4088 6.57361 23.4068 6.57387 23.4049C6.57412 23.4029 6.57437 23.4009 6.57462 23.399C6.57487 23.397 6.57513 23.395 6.57538 23.3931C6.57563 23.3911 6.57588 23.3891 6.57613 23.3872C6.57638 23.3852 6.57664 23.3832 6.57689 23.3813C6.57714 23.3793 6.57739 23.3773 6.57764 23.3753C6.57789 23.3734 6.57815 23.3714 6.5784 23.3694C6.57865 23.3675 6.5789 23.3655 6.57915 23.3635C6.57941 23.3616 6.57966 23.3596 6.57991 23.3576C6.58016 23.3557 6.58041 23.3537 6.58066 23.3517C6.58092 23.3498 6.58117 23.3478 6.58142 23.3458C6.58167 23.3439 6.58192 23.3419 6.58217 23.3399C6.58243 23.3379 6.58268 23.336 6.58293 23.334C6.58318 23.332 6.58343 23.3301 6.58369 23.3281C6.58394 23.3261 6.58419 23.3242 6.58444 23.3222C6.58469 23.3202 6.58494 23.3183 6.5852 23.3163C6.58545 23.3143 6.5857 23.3124 6.58595 23.3104C6.5862 23.3084 6.58645 23.3065 6.58671 23.3045C6.58696 23.3025 6.58721 23.3005 6.58746 23.2986C6.58771 23.2966 6.58797 23.2946 6.58822 23.2927C6.58847 23.2907 6.58872 23.2887 6.58897 23.2868C6.58922 23.2848 6.58948 23.2828 6.58973 23.2809C6.58998 23.2789 6.59023 23.2769 6.59048 23.275C6.59073 23.273 6.59099 23.271 6.59124 23.2691C6.59149 23.2671 6.59174 23.2651 6.59199 23.2631C6.59225 23.2612 6.5925 23.2592 6.59275 23.2572C6.593 23.2553 6.59325 23.2533 6.5935 23.2513C6.59376 23.2494 6.59401 23.2474 6.59426 23.2454C6.59451 23.2435 6.59476 23.2415 6.59501 23.2395C6.59527 23.2376 6.59552 23.2356 6.59577 23.2336C6.59602 23.2317 6.59627 23.2297 6.59653 23.2277C6.59678 23.2258 6.59703 23.2238 6.59728 23.2218C6.59753 23.2198 6.59778 23.2179 6.59804 23.2159C6.59829 23.2139 6.59854 23.212 6.59879 23.21C6.59904 23.208 6.5993 23.2061 6.59955 23.2041C6.5998 23.2021 6.60005 23.2002 6.6003 23.1982C6.60055 23.1962 6.60081 23.1943 6.60106 23.1923C6.60131 23.1903 6.60156 23.1884 6.60181 23.1864C6.60206 23.1844 6.60232 23.1824 6.60257 23.1805C6.60282 23.1785 6.60307 23.1765 6.60332 23.1746C6.60358 23.1726 6.60383 23.1706 6.60408 23.1687C6.60433 23.1667 6.60458 23.1647 6.60483 23.1628C6.60509 23.1608 6.60534 23.1588 6.60559 23.1569C6.60584 23.1549 6.60609 23.1529 6.60634 23.151C6.6066 23.149 6.60685 23.147 6.6071 23.145C6.60735 23.1431 6.6076 23.1411 6.60786 23.1391C6.60811 23.1372 6.60836 23.1352 6.60861 23.1332C6.60886 23.1313 6.60911 23.1293 6.60937 23.1273C6.60962 23.1254 6.60987 23.1234 6.61012 23.1214C6.61037 23.1195 6.61062 23.1175 6.61088 23.1155C6.61113 23.1136 6.61138 23.1116 6.61163 23.1096C6.61188 23.1076 6.61214 23.1057 6.61239 23.1037C6.61264 23.1017 6.61289 23.0998 6.61314 23.0978C6.61339 23.0958 6.61365 23.0939 6.6139 23.0919C6.61415 23.0899 6.6144 23.088 6.61465 23.086C6.6149 23.084 6.61516 23.0821 6.61541 23.0801C6.61566 23.0781 6.61591 23.0762 6.61616 23.0742C6.61642 23.0722 6.61667 23.0702 6.61692 23.0683L5.625 22.9414ZM5.23828 25.9648L4.24655 25.8365C4.11736 26.8348 3.99985 27.769 3.89403 28.639L4.88672 28.7598L5.8794 28.8805C5.98452 28.0162 6.10139 27.0871 6.23001 26.0932L5.23828 25.9648ZM4.88672 28.7598L3.89251 28.6523C3.79824 29.5243 3.72135 30.2988 3.66203 30.9751L4.6582 31.0625L5.65438 31.1499C5.71224 30.4903 5.7877 29.7296 5.88093 28.8672L4.88672 28.7598ZM4.6582 31.0625L3.66217 30.9736C3.60311 31.6349 3.57031 32.1582 3.57031 32.5215H4.57031H5.57031C5.57031 32.252 5.5961 31.8026 5.65424 31.1514L4.6582 31.0625ZM4.57031 32.5215H3.57031C3.57031 32.9383 3.58253 33.3164 3.60841 33.6529L4.60547 33.5762L5.60252 33.4995C5.58153 33.2266 5.57031 32.9015 5.57031 32.5215H4.57031ZM4.60547 33.5762L3.60841 33.6529C3.63238 33.9644 3.6568 34.2342 3.6819 34.46L4.67578 34.3496L5.66966 34.2392C5.64788 34.0432 5.62544 33.7973 5.60252 33.4995L4.60547 33.5762ZM4.67578 34.3496L3.68583 34.491C3.72246 34.7474 3.7599 34.9791 3.79838 35.1843L4.78125 35L5.76412 34.8157C5.73229 34.6459 5.69941 34.444 5.66573 34.2082L4.67578 34.3496ZM4.78125 35V34H1.26562V35V36H4.78125V35ZM1.26562 35H2.26562V34.9297H1.26562H0.265625V35H1.26562ZM58.2518 10.3379L57.8884 11.2696L57.8963 11.2726L58.2518 10.3379ZM62.5584 13.0273L61.8655 13.7483L61.8691 13.7518L62.5584 13.0273ZM64.8787 28.8828L63.9931 28.4184L63.9887 28.4269L64.8787 28.8828ZM63.0506 31.5547L63.7945 32.2231L63.7992 32.2177L63.0506 31.5547ZM60.5545 33.6641L61.0893 34.509L61.0921 34.5073L60.5545 33.6641ZM57.4784 35.0352L57.1983 34.0751L57.1892 34.0779L57.4784 35.0352ZM48.408 34.6133L48.0504 35.5472L48.0584 35.5502L48.408 34.6133ZM41.2889 27.8105L40.367 28.198L40.368 28.2004L41.2889 27.8105ZM41.7811 16.0684L40.8931 15.6083L40.8888 15.6169L41.7811 16.0684ZM43.6092 13.3965L42.8606 12.7334L42.86 12.7341L43.6092 13.3965ZM46.0877 11.2695L45.5502 10.4263L45.5454 10.4294L46.0877 11.2695ZM49.1815 9.88086L49.4615 10.8409L49.4679 10.839L49.1815 9.88086ZM60.1854 31.2207L59.4352 30.5594L59.4304 30.565L60.1854 31.2207ZM62.0135 27.9688L62.9605 28.2902L62.9613 28.2876L62.0135 27.9688ZM62.0311 18.582L61.0645 18.8383L61.0668 18.847L62.0311 18.582ZM60.1854 14.5742L59.3745 15.1594L59.3774 15.1634L60.1854 14.5742ZM57.1092 11.9199L56.6417 12.804L56.6519 12.8092L57.1092 11.9199ZM49.2694 11.6562L49.6597 12.577L49.6681 12.5733L49.2694 11.6562ZM46.4745 13.6602L45.7287 12.9939L45.7237 12.9995L46.4745 13.6602ZM44.6287 26.2812L43.6617 26.5357L43.6622 26.5375L44.6287 26.2812ZM49.5506 32.9961L49.08 33.8785L49.0866 33.8819L49.5506 32.9961ZM52.8377 9.37109V10.3711C54.6833 10.3711 56.3633 10.6746 57.8884 11.2695L58.2518 10.3379L58.6152 9.40626C56.8356 8.7121 54.9062 8.37109 52.8377 8.37109V9.37109ZM58.2518 10.3379L57.8963 11.2726C59.4428 11.8607 60.7615 12.6872 61.8655 13.7483L62.5584 13.0273L63.2514 12.3064C61.9413 11.0472 60.389 10.0807 58.6072 9.40319L58.2518 10.3379ZM62.5584 13.0273L61.8691 13.7518C62.971 14.8002 63.8375 16.0664 64.4666 17.5632L65.3885 17.1758L66.3104 16.7883C65.5801 15.0508 64.56 13.5514 63.2477 12.3029L62.5584 13.0273ZM65.3885 17.1758L64.4666 17.5632C65.0891 19.0443 65.408 20.6977 65.408 22.5371H66.408H67.408C67.408 20.4624 67.0473 18.5416 66.3104 16.7883L65.3885 17.1758ZM66.408 22.5371H65.408C65.408 23.5724 65.2883 24.59 65.0487 25.5916L66.0213 25.8242L66.9939 26.0568C67.27 24.9022 67.408 23.7284 67.408 22.5371H66.408ZM66.0213 25.8242L65.0487 25.5916C64.8098 26.5909 64.4577 27.5324 63.9931 28.4184L64.8787 28.8828L65.7644 29.3472C66.3076 28.3113 66.7172 27.2137 66.9939 26.0568L66.0213 25.8242ZM64.8787 28.8828L63.9887 28.4269C63.5354 29.312 62.9738 30.1332 62.302 30.8917L63.0506 31.5547L63.7992 32.2177C64.5806 31.3355 65.2378 30.3755 65.7688 29.3387L64.8787 28.8828ZM63.0506 31.5547L62.3068 30.8863C61.6421 31.626 60.8799 32.2707 60.017 32.8208L60.5545 33.6641L61.0921 34.5073C62.1042 33.8621 63.006 33.1005 63.7945 32.2231L63.0506 31.5547ZM60.5545 33.6641L60.0197 32.8191C59.1784 33.3516 58.2397 33.7714 57.1984 34.0752L57.4784 35.0352L57.7584 35.9952C58.967 35.6426 60.0791 35.1484 61.0893 34.509L60.5545 33.6641ZM57.4784 35.0352L57.1892 34.0779C56.1674 34.3865 55.0529 34.5449 53.8397 34.5449V35.5449V36.5449C55.2281 36.5449 56.5393 36.3635 57.7675 35.9924L57.4784 35.0352ZM53.8397 35.5449V34.5449C51.9899 34.5449 50.2991 34.2517 48.7577 33.6764L48.408 34.6133L48.0584 35.5502C49.8451 36.217 51.7754 36.5449 53.8397 36.5449V35.5449ZM48.408 34.6133L48.7657 33.6794C47.2289 33.0909 45.9138 32.2688 44.8083 31.2169L44.119 31.9414L43.4297 32.6659C44.7382 33.9109 46.2825 34.8701 48.0504 35.5471L48.408 34.6133ZM44.119 31.9414L44.8083 31.2169C43.7052 30.1674 42.8386 28.9059 42.2098 27.4207L41.2889 27.8105L40.368 28.2004C41.0986 29.9261 42.1187 31.4186 43.4297 32.6659L44.119 31.9414ZM41.2889 27.8105L42.2108 27.4231C41.5886 25.9427 41.2694 24.2836 41.2694 22.4316H40.2694H39.2694C39.2694 24.5172 39.6298 26.444 40.367 28.198L41.2889 27.8105ZM40.2694 22.4316H41.2694C41.2694 21.3964 41.3892 20.3787 41.6287 19.3771L40.6561 19.1445L39.6835 18.912C39.4074 20.0666 39.2694 21.2404 39.2694 22.4316H40.2694ZM40.6561 19.1445L41.6287 19.3771C41.8687 18.3736 42.217 17.4218 42.6734 16.5199L41.7811 16.0684L40.8888 15.6169C40.3608 16.6603 39.9592 17.7593 39.6835 18.912L40.6561 19.1445ZM41.7811 16.0684L42.669 16.5284C43.1357 15.6275 43.6988 14.805 44.3584 14.0588L43.6092 13.3965L42.86 12.7341C42.09 13.6052 41.4343 14.5639 40.8932 15.6084L41.7811 16.0684ZM43.6092 13.3965L44.3578 14.0595C45.0237 13.3077 45.7804 12.6582 46.6301 12.1097L46.0877 11.2695L45.5454 10.4294C44.5435 11.0761 43.6479 11.8446 42.8606 12.7334L43.6092 13.3965ZM46.0877 11.2695L46.6253 12.1128C47.4787 11.5687 48.4225 11.1439 49.4615 10.8409L49.1815 9.88086L48.9015 8.92086C47.6905 9.27408 46.5718 9.77503 45.5502 10.4263L46.0877 11.2695ZM49.1815 9.88086L49.4679 10.839C50.5032 10.5294 51.6247 10.3711 52.8377 10.3711V9.37109V8.37109C51.4492 8.37109 50.1332 8.55259 48.895 8.92276L49.1815 9.88086ZM53.8397 33.9629V34.9629C55.263 34.9629 56.59 34.7059 57.8068 34.1768L57.408 33.2598L57.0093 32.3427C56.0698 32.7512 55.018 32.9629 53.8397 32.9629V33.9629ZM57.408 33.2598L57.8068 34.1768C59.0222 33.6484 60.0695 32.8792 60.9404 31.8764L60.1854 31.2207L59.4304 30.565C58.7544 31.3434 57.9502 31.9336 57.0093 32.3427L57.408 33.2598ZM60.1854 31.2207L60.9355 31.882C61.8192 30.8796 62.4901 29.6758 62.9604 28.2902L62.0135 27.9688L61.0666 27.6473C60.6697 28.8164 60.1219 29.7805 59.4353 30.5594L60.1854 31.2207ZM62.0135 27.9688L62.9613 28.2876C63.4355 26.8778 63.6639 25.3083 63.6639 23.5918H62.6639H61.6639C61.6639 25.1331 61.4587 26.4816 61.0657 27.6499L62.0135 27.9688ZM62.6639 23.5918H63.6639C63.6639 21.7093 63.4439 19.9491 62.9953 18.317L62.0311 18.582L61.0668 18.847C61.4621 20.2852 61.6639 21.8649 61.6639 23.5918H62.6639ZM62.0311 18.582L62.9977 18.3257C62.5605 16.6767 61.8968 15.224 60.9934 13.985L60.1854 14.5742L59.3774 15.1634C60.1146 16.1744 60.6814 17.3936 61.0645 18.8383L62.0311 18.582ZM60.1854 14.5742L60.9963 13.989C60.085 12.7262 58.9391 11.7365 57.5666 11.0306L57.1092 11.9199L56.6519 12.8092C57.7403 13.369 58.6452 14.1488 59.3745 15.1594L60.1854 14.5742ZM57.1092 11.9199L57.5767 11.0359C56.1899 10.3025 54.6001 9.95312 52.8377 9.95312V10.9531V11.9531C54.3332 11.9531 55.591 12.2483 56.6417 12.8039L57.1092 11.9199ZM52.8377 10.9531V9.95312C51.4144 9.95312 50.0874 10.2102 48.8706 10.7392L49.2694 11.6562L49.6681 12.5733C50.6076 12.1648 51.6595 11.9531 52.8377 11.9531V10.9531ZM49.2694 11.6562L48.8791 10.7356C47.6642 11.2505 46.6115 12.0058 45.7287 12.9939L46.4745 13.6602L47.2202 14.3264C47.9078 13.5567 48.7183 12.976 49.6597 12.5769L49.2694 11.6562ZM46.4745 13.6602L45.7237 12.9995C44.8509 13.9914 44.1866 15.1897 43.717 16.5731L44.6639 16.8945L45.6108 17.216C46.0084 16.0447 46.5511 15.0868 47.2252 14.3208L46.4745 13.6602ZM44.6639 16.8945L43.717 16.5731C43.2418 17.9729 43.0135 19.5376 43.0135 21.2539H44.0135H45.0135C45.0135 19.7124 45.2188 18.3709 45.6108 17.216L44.6639 16.8945ZM44.0135 21.2539H43.0135C43.0135 23.1233 43.2274 24.8854 43.6617 26.5357L44.6287 26.2812L45.5958 26.0268C45.2098 24.5599 45.0135 22.9705 45.0135 21.2539H44.0135ZM44.6287 26.2812L43.6622 26.5375C44.0993 28.1861 44.7623 29.6429 45.6636 30.8918L46.4745 30.3066L47.2854 29.7215C46.546 28.6969 45.9785 27.4702 45.5953 26.025L44.6287 26.2812ZM46.4745 30.3066L45.6636 30.8918C46.5727 32.1516 47.7142 33.15 49.08 33.8784L49.5506 32.9961L50.0212 32.1137C48.9261 31.5297 48.0169 30.7351 47.2854 29.7215L46.4745 30.3066ZM49.5506 32.9961L49.0866 33.8819C50.4831 34.6134 52.0771 34.9629 53.8397 34.9629V33.9629V32.9629C52.3445 32.9629 51.0791 32.6678 50.0146 32.1103L49.5506 32.9961ZM89.4509 10.3379L89.0874 11.2696L89.0954 11.2726L89.4509 10.3379ZM93.7575 13.0273L93.0645 13.7483L93.0682 13.7518L93.7575 13.0273ZM96.0778 28.8828L95.1922 28.4184L95.1878 28.4269L96.0778 28.8828ZM94.2497 31.5547L94.9935 32.2231L94.9983 32.2177L94.2497 31.5547ZM91.7536 33.6641L92.2884 34.509L92.2912 34.5073L91.7536 33.6641ZM88.6774 35.0352L88.3974 34.0751L88.3882 34.0779L88.6774 35.0352ZM79.6071 34.6133L79.2494 35.5472L79.2574 35.5502L79.6071 34.6133ZM72.488 27.8105L71.5661 28.198L71.5671 28.2004L72.488 27.8105ZM72.9802 16.0684L72.0922 15.6083L72.0879 15.6169L72.9802 16.0684ZM74.8083 13.3965L74.0597 12.7334L74.0591 12.7341L74.8083 13.3965ZM77.2868 11.2695L76.7492 10.4263L76.7444 10.4294L77.2868 11.2695ZM80.3805 9.88086L80.6606 10.8409L80.667 10.839L80.3805 9.88086ZM91.3845 31.2207L90.6343 30.5594L90.6294 30.565L91.3845 31.2207ZM93.2126 27.9688L94.1595 28.2902L94.1604 28.2876L93.2126 27.9688ZM93.2302 18.582L92.2635 18.8383L92.2659 18.847L93.2302 18.582ZM91.3845 14.5742L90.5735 15.1594L90.5764 15.1634L91.3845 14.5742ZM88.3083 11.9199L87.8408 12.804L87.8509 12.8092L88.3083 11.9199ZM80.4684 11.6562L80.8587 12.577L80.8672 12.5733L80.4684 11.6562ZM77.6735 13.6602L76.9277 12.9939L76.9228 12.9995L77.6735 13.6602ZM75.8278 26.2812L74.8607 26.5357L74.8612 26.5375L75.8278 26.2812ZM80.7497 32.9961L80.2791 33.8785L80.2857 33.8819L80.7497 32.9961ZM84.0368 9.37109V10.3711C85.8824 10.3711 87.5623 10.6746 89.0875 11.2695L89.4509 10.3379L89.8143 9.40626C88.0347 8.7121 86.1053 8.37109 84.0368 8.37109V9.37109ZM89.4509 10.3379L89.0954 11.2726C90.6418 11.8607 91.9605 12.6872 93.0645 13.7483L93.7575 13.0273L94.4505 12.3064C93.1404 11.0472 91.588 10.0807 89.8063 9.40319L89.4509 10.3379ZM93.7575 13.0273L93.0682 13.7518C94.17 14.8002 95.0366 16.0664 95.6657 17.5632L96.5876 17.1758L97.5095 16.7883C96.7792 15.0508 95.759 13.5514 94.4468 12.3029L93.7575 13.0273ZM96.5876 17.1758L95.6657 17.5632C96.2882 19.0443 96.6071 20.6977 96.6071 22.5371H97.6071H98.6071C98.6071 20.4624 98.2464 18.5416 97.5095 16.7883L96.5876 17.1758ZM97.6071 22.5371H96.6071C96.6071 23.5724 96.4873 24.59 96.2478 25.5916L97.2204 25.8242L98.193 26.0568C98.4691 24.9022 98.6071 23.7284 98.6071 22.5371H97.6071ZM97.2204 25.8242L96.2478 25.5916C96.0088 26.5909 95.6568 27.5324 95.1922 28.4184L96.0778 28.8828L96.9634 29.3472C97.5066 28.3113 97.9163 27.2137 98.193 26.0568L97.2204 25.8242ZM96.0778 28.8828L95.1878 28.4269C94.7344 29.312 94.1728 30.1332 93.5011 30.8917L94.2497 31.5547L94.9983 32.2177C95.7797 31.3355 96.4368 30.3755 96.9679 29.3387L96.0778 28.8828ZM94.2497 31.5547L93.5059 30.8863C92.8412 31.626 92.0789 32.2707 91.216 32.8208L91.7536 33.6641L92.2912 34.5073C93.3033 33.8621 94.2051 33.1005 94.9935 32.2231L94.2497 31.5547ZM91.7536 33.6641L91.2188 32.8191C90.3775 33.3516 89.4388 33.7714 88.3974 34.0752L88.6774 35.0352L88.9574 35.9952C90.1661 35.6426 91.2782 35.1484 92.2884 34.509L91.7536 33.6641ZM88.6774 35.0352L88.3882 34.0779C87.3664 34.3865 86.2519 34.5449 85.0387 34.5449V35.5449V36.5449C86.4271 36.5449 87.7384 36.3635 88.9666 35.9924L88.6774 35.0352ZM85.0387 35.5449V34.5449C83.189 34.5449 81.4982 34.2517 79.9568 33.6764L79.6071 34.6133L79.2574 35.5502C81.0442 36.217 82.9745 36.5449 85.0387 36.5449V35.5449ZM79.6071 34.6133L79.9648 33.6794C78.428 33.0909 77.1129 32.2688 76.0074 31.2169L75.318 31.9414L74.6287 32.6659C75.9373 33.9109 77.4816 34.8701 79.2495 35.5471L79.6071 34.6133ZM75.318 31.9414L76.0074 31.2169C74.9042 30.1674 74.0376 28.9059 73.4088 27.4207L72.488 27.8105L71.5671 28.2004C72.2977 29.9261 73.3178 31.4186 74.6287 32.6659L75.318 31.9414ZM72.488 27.8105L73.4099 27.4231C72.7877 25.9427 72.4684 24.2836 72.4684 22.4316H71.4684H70.4684C70.4684 24.5172 70.8289 26.444 71.5661 28.198L72.488 27.8105ZM71.4684 22.4316H72.4684C72.4684 21.3964 72.5882 20.3787 72.8277 19.3771L71.8552 19.1445L70.8826 18.912C70.6065 20.0666 70.4684 21.2404 70.4684 22.4316H71.4684ZM71.8552 19.1445L72.8277 19.3771C73.0677 18.3736 73.416 17.4218 73.8724 16.5199L72.9802 16.0684L72.0879 15.6169C71.5599 16.6603 71.1582 17.7593 70.8826 18.912L71.8552 19.1445ZM72.9802 16.0684L73.8681 16.5284C74.3348 15.6275 74.8978 14.805 75.5575 14.0588L74.8083 13.3965L74.0591 12.7341C73.2891 13.6052 72.6333 14.5639 72.0922 15.6084L72.9802 16.0684ZM74.8083 13.3965L75.5569 14.0595C76.2227 13.3077 76.9794 12.6582 77.8292 12.1097L77.2868 11.2695L76.7444 10.4294C75.7426 11.0761 74.847 11.8446 74.0597 12.7334L74.8083 13.3965ZM77.2868 11.2695L77.8244 12.1128C78.6778 11.5687 79.6216 11.1439 80.6605 10.8409L80.3805 9.88086L80.1005 8.92086C78.8895 9.27408 77.7708 9.77503 76.7492 10.4263L77.2868 11.2695ZM80.3805 9.88086L80.667 10.839C81.7023 10.5294 82.8238 10.3711 84.0368 10.3711V9.37109V8.37109C82.6483 8.37109 81.3322 8.55259 80.0941 8.92276L80.3805 9.88086ZM85.0387 33.9629V34.9629C86.462 34.9629 87.7891 34.7059 89.0058 34.1768L88.6071 33.2598L88.2084 32.3427C87.2689 32.7512 86.217 32.9629 85.0387 32.9629V33.9629ZM88.6071 33.2598L89.0058 34.1768C90.2212 33.6484 91.2686 32.8792 92.1395 31.8764L91.3845 31.2207L90.6294 30.565C89.9534 31.3434 89.1493 31.9336 88.2084 32.3427L88.6071 33.2598ZM91.3845 31.2207L92.1346 31.882C93.0183 30.8796 93.6892 29.6758 94.1595 28.2902L93.2126 27.9688L92.2656 27.6473C91.8688 28.8164 91.321 29.7805 90.6343 30.5594L91.3845 31.2207ZM93.2126 27.9688L94.1604 28.2876C94.6346 26.8778 94.863 25.3083 94.863 23.5918H93.863H92.863C92.863 25.1331 92.6577 26.4816 92.2648 27.6499L93.2126 27.9688ZM93.863 23.5918H94.863C94.863 21.7093 94.6429 19.9491 94.1944 18.317L93.2302 18.582L92.2659 18.847C92.6611 20.2852 92.863 21.8649 92.863 23.5918H93.863ZM93.2302 18.582L94.1968 18.3257C93.7595 16.6767 93.0959 15.224 92.1925 13.985L91.3845 14.5742L90.5764 15.1634C91.3137 16.1744 91.8805 17.3936 92.2636 18.8383L93.2302 18.582ZM91.3845 14.5742L92.1954 13.989C91.2841 12.7262 90.1382 11.7365 88.7656 11.0306L88.3083 11.9199L87.8509 12.8092C88.9393 13.369 89.8442 14.1488 90.5736 15.1594L91.3845 14.5742ZM88.3083 11.9199L88.7758 11.0359C87.389 10.3025 85.7991 9.95312 84.0368 9.95312V10.9531V11.9531C85.5323 11.9531 86.7901 12.2483 87.8408 12.8039L88.3083 11.9199ZM84.0368 10.9531V9.95312C82.6135 9.95312 81.2864 10.2102 80.0697 10.7392L80.4684 11.6562L80.8672 12.5733C81.8067 12.1648 82.8585 11.9531 84.0368 11.9531V10.9531ZM80.4684 11.6562L80.0781 10.7356C78.8633 11.2505 77.8105 12.0058 76.9278 12.9939L77.6735 13.6602L78.4193 14.3264C79.1068 13.5567 79.9173 12.976 80.8587 12.5769L80.4684 11.6562ZM77.6735 13.6602L76.9228 12.9995C76.05 13.9914 75.3856 15.1897 74.916 16.5731L75.863 16.8945L76.8099 17.216C77.2075 16.0447 77.7502 15.0868 78.4242 14.3208L77.6735 13.6602ZM75.863 16.8945L74.916 16.5731C74.4409 17.9729 74.2126 19.5376 74.2126 21.2539H75.2126H76.2126C76.2126 19.7124 76.4179 18.3709 76.8099 17.216L75.863 16.8945ZM75.2126 21.2539H74.2126C74.2126 23.1233 74.4264 24.8854 74.8607 26.5357L75.8278 26.2812L76.7949 26.0268C76.4089 24.5599 76.2126 22.9705 76.2126 21.2539H75.2126ZM75.8278 26.2812L74.8612 26.5375C75.2983 28.1861 75.9613 29.6429 76.8626 30.8918L77.6735 30.3066L78.4844 29.7215C77.7451 28.6969 77.1776 27.4702 76.7944 26.025L75.8278 26.2812ZM77.6735 30.3066L76.8626 30.8918C77.7717 32.1516 78.9133 33.15 80.2791 33.8784L80.7497 32.9961L81.2203 32.1137C80.1252 31.5297 79.2159 30.7351 78.4844 29.7215L77.6735 30.3066ZM80.7497 32.9961L80.2857 33.8819C81.6822 34.6134 83.2761 34.9629 85.0387 34.9629V33.9629V32.9629C83.5436 32.9629 82.2782 32.6678 81.2137 32.1103L80.7497 32.9961ZM104.724 9.79297L105.453 9.10814L105.157 8.79297H104.724V9.79297ZM122.83 29.0586L122.101 29.7434L123.83 31.5829V29.0586H122.83ZM122.794 14.082L121.795 14.1133L121.795 14.1138L122.794 14.082ZM122.689 12.1484L121.693 12.2332L121.693 12.2351L122.689 12.1484ZM122.513 10.7773L121.526 10.9366L121.528 10.952L121.531 10.9674L122.513 10.7773ZM122.32 9.86328H121.32V10.0033L121.358 10.138L122.32 9.86328ZM122.32 9.79297V8.79297H121.32V9.79297H122.32ZM125.449 9.79297H126.449V8.79297H125.449V9.79297ZM125.449 9.86328L126.41 10.138L126.449 10.0033V9.86328H125.449ZM125.097 12.1484L126.093 12.2351L126.094 12.2332L125.097 12.1484ZM124.992 14.082L125.991 14.1138L125.991 14.1133L124.992 14.082ZM124.957 35.3516V36.3516H125.957V35.3516H124.957ZM124.341 35.3516L123.613 36.0367L123.909 36.3516H124.341V35.3516ZM106.236 16.1035L106.964 15.4184L105.236 13.5809V16.1035H106.236ZM106.271 30.7461L105.272 30.7773L105.272 30.7778L106.271 30.7461ZM106.728 34.9297H107.728V34.7896L107.69 34.655L106.728 34.9297ZM106.728 35V36H107.728V35H106.728ZM103.599 35H102.599V36H103.599V35ZM103.599 34.9297L102.638 34.655L102.599 34.7896V34.9297H103.599ZM103.793 34.0156L102.811 33.8256L102.808 33.841L102.805 33.8564L103.793 34.0156ZM104.074 30.7461L105.073 30.7778L105.073 30.7773L104.074 30.7461ZM104.074 14.082L103.074 14.1133L103.074 14.1138L104.074 14.082ZM103.968 12.1484L102.972 12.2332L102.972 12.2351L103.968 12.1484ZM103.793 10.7773L102.805 10.9366L102.808 10.952L102.811 10.9674L103.793 10.7773ZM103.599 9.86328H102.599V10.0033L102.638 10.138L103.599 9.86328ZM103.599 9.79297V8.79297H102.599V9.79297H103.599ZM104.724 9.79297L103.995 10.4778L122.101 29.7434L122.83 29.0586L123.558 28.3738L105.453 9.10814L104.724 9.79297ZM122.83 29.0586H123.83V16.6836H122.83H121.83V29.0586H122.83ZM122.83 16.6836H123.83C123.83 15.6803 123.818 14.8021 123.794 14.0503L122.794 14.082L121.795 14.1138C121.818 14.8386 121.83 15.6947 121.83 16.6836H122.83ZM122.794 14.082L123.794 14.0508C123.77 13.2888 123.734 12.6248 123.685 12.0618L122.689 12.1484L121.693 12.2351C121.738 12.7502 121.772 13.3753 121.795 14.1133L122.794 14.082ZM122.689 12.1484L123.685 12.0636C123.637 11.4929 123.574 10.9978 123.495 10.5873L122.513 10.7773L121.531 10.9674C121.593 11.2834 121.647 11.7024 121.693 12.2332L122.689 12.1484ZM122.513 10.7773L123.5 10.6181C123.438 10.2312 123.366 9.88505 123.281 9.58856L122.32 9.86328L121.358 10.138C121.414 10.3337 121.471 10.597 121.526 10.9366L122.513 10.7773ZM122.32 9.86328H123.32V9.79297H122.32H121.32V9.86328H122.32ZM122.32 9.79297V10.793H125.449V9.79297V8.79297H122.32V9.79297ZM125.449 9.79297H124.449V9.86328H125.449H126.449V9.79297H125.449ZM125.449 9.86328L124.487 9.58856C124.403 9.88505 124.331 10.2312 124.268 10.6181L125.255 10.7773L126.243 10.9366C126.297 10.597 126.354 10.3337 126.41 10.138L125.449 9.86328ZM125.255 10.7773L124.268 10.6181C124.204 11.015 124.149 11.499 124.101 12.0636L125.097 12.1484L126.094 12.2332C126.139 11.6964 126.189 11.2662 126.243 10.9366L125.255 10.7773ZM125.097 12.1484L124.101 12.0618C124.052 12.6248 124.016 13.2888 123.992 14.0508L124.992 14.082L125.991 14.1133C126.014 13.3753 126.049 12.7502 126.093 12.2351L125.097 12.1484ZM124.992 14.082L123.992 14.0503C123.968 14.8021 123.957 15.6803 123.957 16.6836H124.957H125.957C125.957 15.6947 125.968 14.8386 125.991 14.1138L124.992 14.082ZM124.957 16.6836H123.957V35.3516H124.957H125.957V16.6836H124.957ZM124.957 35.3516V34.3516H124.341V35.3516V36.3516H124.957V35.3516ZM124.341 35.3516L125.07 34.6664L106.964 15.4184L106.236 16.1035L105.507 16.7887L123.613 36.0367L124.341 35.3516ZM106.236 16.1035H105.236V28.127H106.236H107.236V16.1035H106.236ZM106.236 28.127H105.236C105.236 29.1303 105.248 30.0142 105.272 30.7773L106.271 30.7461L107.271 30.7149C107.248 29.978 107.236 29.1158 107.236 28.127H106.236ZM106.271 30.7461L105.272 30.7778C105.295 31.5283 105.331 32.1862 105.38 32.7487L106.376 32.6621L107.373 32.5755C107.328 32.0599 107.294 31.4404 107.271 30.7144L106.271 30.7461ZM106.376 32.6621L105.38 32.7487C105.428 33.302 105.484 33.7792 105.547 34.1749L106.535 34.0156L107.522 33.8564C107.469 33.5255 107.418 33.1004 107.373 32.5755L106.376 32.6621ZM106.535 34.0156L105.547 34.1749C105.61 34.5618 105.682 34.9079 105.767 35.2044L106.728 34.9297L107.69 34.655C107.634 34.4593 107.577 34.196 107.522 33.8564L106.535 34.0156ZM106.728 34.9297H105.728V35H106.728H107.728V34.9297H106.728ZM106.728 35V34H103.599V35V36H106.728V35ZM103.599 35H104.599V34.9297H103.599H102.599V35H103.599ZM103.599 34.9297L104.561 35.2044C104.645 34.9079 104.717 34.5618 104.78 34.1749L103.793 34.0156L102.805 33.8564C102.75 34.196 102.694 34.4593 102.638 34.655L103.599 34.9297ZM103.793 34.0156L104.774 34.2056C104.853 33.7965 104.916 33.3082 104.965 32.7487L103.968 32.6621L102.972 32.5755C102.927 33.0941 102.872 33.5082 102.811 33.8256L103.793 34.0156ZM103.968 32.6621L104.965 32.7487C105.013 32.1862 105.049 31.5283 105.073 30.7778L104.074 30.7461L103.074 30.7144C103.051 31.4404 103.017 32.0599 102.972 32.5755L103.968 32.6621ZM104.074 30.7461L105.073 30.7773C105.097 30.0142 105.109 29.1303 105.109 28.127H104.109H103.109C103.109 29.1158 103.097 29.978 103.074 30.7149L104.074 30.7461ZM104.109 28.127H105.109V16.6836H104.109H103.109V28.127H104.109ZM104.109 16.6836H105.109C105.109 15.6803 105.097 14.8021 105.073 14.0503L104.074 14.082L103.074 14.1138C103.097 14.8386 103.109 15.6947 103.109 16.6836H104.109ZM104.074 14.082L105.073 14.0508C105.049 13.2888 105.013 12.6248 104.965 12.0618L103.968 12.1484L102.972 12.2351C103.017 12.7502 103.051 13.3753 103.074 14.1133L104.074 14.082ZM103.968 12.1484L104.965 12.0636C104.916 11.4929 104.854 10.9978 104.774 10.5873L103.793 10.7773L102.811 10.9674C102.872 11.2834 102.927 11.7024 102.972 12.2332L103.968 12.1484ZM103.793 10.7773L104.78 10.6181C104.717 10.2312 104.645 9.88505 104.561 9.58856L103.599 9.86328L102.638 10.138C102.694 10.3337 102.75 10.597 102.805 10.9366L103.793 10.7773ZM103.599 9.86328H104.599V9.79297H103.599H102.599V9.86328H103.599ZM103.599 9.79297V10.793H104.724V9.79297V8.79297H103.599V9.79297Z" fill="white" mask="url(#path-1-outside-1_310_23)"/>
</svg>
